<svg width="12" height="7" viewBox="0 0 12 7" fill="none" xmlns="http://www.w3.org/2000/svg">
<path d="M11.6664 1.17339C11.6005 1.38805 11.4512 1.53969 11.3007 1.69346C9.64847 3.3788 7.99715 5.06537 6.3479 6.75406C6.14555 6.96142 5.91548 7.05825 5.63862 6.96355C5.5352 6.92823 5.43328 6.8582 5.3555 6.77873C3.64009 5.03157 1.92737 3.28198 0.215843 1.53056C-0.0717466 1.23642 -0.0705537 0.855504 0.211075 0.558627C0.343098 0.419475 0.474525 0.278497 0.618766 0.153047C0.861951 -0.058268 1.19901 -0.0476099 1.4419 0.165532C1.47915 0.198417 1.51432 0.234042 1.54918 0.269667C2.94243 1.69315 4.33597 3.11633 5.72862 4.54043C5.7608 4.57331 5.78703 4.61198 5.8669 4.6738C5.88865 4.63269 5.90266 4.58367 5.93365 4.552C7.33912 3.11359 8.74577 1.67641 10.153 0.239828C10.4156 -0.0281225 10.7774 -0.0817128 11.0229 0.138737C11.2733 0.36345 11.5484 0.57507 11.6667 0.917011V1.17309L11.6664 1.17339Z" fill="#00ACBA"/>
</svg>
