<svg width="39" height="39" viewBox="0 0 39 39" fill="none" xmlns="http://www.w3.org/2000/svg">
<path d="M20.6448 38.9992H18.3596C18.2619 38.9777 18.1649 38.9436 18.0655 38.9364C15.344 38.7513 12.7576 38.0503 10.381 36.72C3.97385 33.1319 0.487692 27.6485 0.0362236 20.3141C-0.180767 16.7968 0.577509 13.432 2.30072 10.3533C5.87908 3.95993 11.3651 0.487867 18.6839 0.0356808C22.2011 -0.181273 25.5553 0.593563 28.6472 2.29423C34.1475 5.31887 37.5073 9.93451 38.6924 16.1086C38.8347 16.8516 38.8991 17.609 39 18.36V20.6447C38.9777 20.7544 38.9428 20.8625 38.9356 20.9729C38.7456 23.6932 38.0263 26.2696 36.7101 28.6522C33.677 34.1436 29.0709 37.5068 22.8997 38.6924C22.1558 38.8355 21.3975 38.8991 20.6456 39L20.6448 38.9992ZM15.1548 18.2837C15.3011 18.1271 15.3893 18.0262 15.4839 17.9316C16.9726 16.4415 18.463 14.9523 19.9517 13.4622C20.0503 13.3637 20.1528 13.2675 20.2378 13.157C20.5438 12.7589 20.6011 12.3194 20.3809 11.8712C20.1536 11.4095 19.7657 11.1806 19.2435 11.1909C18.8453 11.1989 18.5576 11.4119 18.2897 11.6797C16.111 13.8619 13.93 16.0418 11.7498 18.2225C10.97 19.0029 10.9668 19.9978 11.7418 20.7735C13.9133 22.9454 16.0848 25.1165 18.2571 27.2877C18.3557 27.3862 18.4534 27.4879 18.5647 27.5714C19.2427 28.0847 20.2418 27.7518 20.462 26.9316C20.5995 26.4167 20.4183 25.9979 20.0447 25.6275C18.513 24.108 16.9909 22.579 15.4656 21.0532C15.3742 20.9618 15.2884 20.8657 15.1517 20.7202H15.6612C19.6711 20.7202 23.6811 20.7202 27.6918 20.7202C27.8444 20.7202 27.9971 20.7266 28.1481 20.7115C28.7291 20.6535 29.1869 20.1949 29.2442 19.6219C29.3022 19.0458 28.9493 18.5094 28.3794 18.3488C28.1886 18.2948 27.9796 18.286 27.7793 18.286C23.7312 18.2829 19.683 18.2837 15.6349 18.2837H15.1564H15.1548Z" fill="#00ACBA"/>
</svg>
