<svg width="16" height="11" viewBox="0 0 16 11" fill="none" xmlns="http://www.w3.org/2000/svg">
<path d="M15.1108 9.55499C15.0619 9.711 15.0317 9.87554 14.9614 10.0215C14.6626 10.6416 14.1616 10.9684 13.4743 10.9789C12.7288 10.9901 11.9833 10.9816 11.2378 10.9816C8.13475 10.9816 5.03167 10.982 1.92899 10.9816C1.11053 10.9816 0.46244 10.486 0.282759 9.71798C0.250937 9.58255 0.239295 9.43973 0.239295 9.30041C0.237354 7.00532 0.236578 4.711 0.23813 2.41707C0.238907 1.44493 0.945209 0.736688 1.91502 0.7363C5.75389 0.735524 9.59237 0.735524 13.4312 0.7363C14.2881 0.7363 14.9304 1.27224 15.0876 2.11049C15.0911 2.12834 15.1027 2.14502 15.1108 2.1621V9.55499ZM1.16719 4.2356V4.3986C1.16719 6.01805 1.16719 7.63788 1.16719 9.25733C1.16719 9.77232 1.44234 10.0494 1.95382 10.0494C5.76747 10.0494 9.58112 10.0494 13.3948 10.0494C13.907 10.0494 14.181 9.77309 14.181 9.25695C14.181 7.6375 14.181 6.01766 14.181 4.39821V4.2356H1.16719ZM14.1814 3.29063C14.1814 3.00733 14.1814 2.74072 14.1814 2.4745C14.1814 1.93818 13.9128 1.6673 13.3808 1.6673C9.57724 1.6673 5.77368 1.6673 1.97012 1.6673C1.93132 1.6673 1.89251 1.66652 1.85409 1.66769C1.47338 1.67855 1.17573 1.97427 1.16874 2.35575C1.1637 2.64176 1.16719 2.92778 1.16835 3.21379C1.16835 3.24057 1.17806 3.26735 1.18271 3.29063H14.1814Z" fill="white"/>
<path d="M3.26021 8.65276C2.72855 8.69544 2.5543 8.47618 2.55469 7.95654C2.55508 7.42643 2.7235 7.24558 3.26914 7.24597C3.78722 7.24636 3.99989 7.42992 3.95914 7.94374C3.95332 8.01592 3.95914 8.08927 3.95798 8.16184C3.95332 8.45911 3.76239 8.6481 3.46318 8.65237C3.39527 8.65314 3.32774 8.65237 3.25983 8.65237L3.26021 8.65276Z" fill="white"/>
</svg>
