<svg width="16" height="16" viewBox="0 0 16 16" fill="none" xmlns="http://www.w3.org/2000/svg">
<rect width="16" height="16" rx="3" fill="#00ACBA"/>
<path d="M13 6.58495C12.945 6.75664 12.822 6.87679 12.6997 6.99956C11.1361 8.56938 9.57336 10.1401 8.0115 11.7118C7.80711 11.9175 7.5698 12.026 7.27745 11.9947C7.07354 11.9728 6.90514 11.8783 6.76261 11.7346C5.89866 10.8639 5.03541 9.99204 4.17287 9.11895C3.94214 8.88529 3.94261 8.58299 4.17287 8.34719C4.47486 8.03706 4.77928 7.72969 5.08613 7.4251C5.32462 7.18764 5.62144 7.19286 5.86228 7.43555C6.34553 7.92188 6.82799 8.40909 7.30968 8.89716C7.33263 8.92373 7.35391 8.95173 7.37341 8.98098C7.41175 8.94418 7.43668 8.92114 7.46067 8.89716C8.68259 7.66376 9.90396 6.42996 11.1248 5.19577C11.2878 5.02954 11.4722 4.95355 11.6949 5.02954C11.7797 5.06113 11.8566 5.11115 11.9202 5.17606C12.226 5.47693 12.5303 5.78089 12.8267 6.09197C12.9005 6.16962 12.9428 6.2779 12.9995 6.37194L13 6.58495Z" fill="white"/>
</svg>
