<svg xmlns="http://www.w3.org/2000/svg" width="24" height="24" viewBox="0 0 24 24">
  <path id="calendar" d="M14,16.4a1.2,1.2,0,1,0-1.2-1.2A1.2,1.2,0,0,0,14,16.4Zm6,0a1.2,1.2,0,1,0-1.2-1.2A1.2,1.2,0,0,0,20,16.4Zm-6,4.8A1.2,1.2,0,1,0,12.8,20,1.2,1.2,0,0,0,14,21.2Zm6,0A1.2,1.2,0,1,0,18.8,20,1.2,1.2,0,0,0,20,21.2ZM8,16.4a1.2,1.2,0,1,0-1.2-1.2A1.2,1.2,0,0,0,8,16.4Zm14.4-12H21.2V3.2a1.2,1.2,0,1,0-2.4,0V4.4H9.2V3.2a1.2,1.2,0,0,0-2.4,0V4.4H5.6A3.6,3.6,0,0,0,2,8V22.4A3.6,3.6,0,0,0,5.6,26H22.4A3.6,3.6,0,0,0,26,22.4V8a3.6,3.6,0,0,0-3.6-3.6Zm1.2,18a1.2,1.2,0,0,1-1.2,1.2H5.6a1.2,1.2,0,0,1-1.2-1.2V11.6H23.6Zm0-13.2H4.4V8A1.2,1.2,0,0,1,5.6,6.8H22.4A1.2,1.2,0,0,1,23.6,8ZM8,21.2A1.2,1.2,0,1,0,6.8,20,1.2,1.2,0,0,0,8,21.2Z" transform="translate(-2 -2)" fill="#fff"/>
</svg>