<svg width="21" height="27" viewBox="0 0 21 27" fill="none" xmlns="http://www.w3.org/2000/svg">
<path fill-rule="evenodd" clip-rule="evenodd" d="M3.7958 26.0015C3.44534 25.9048 3.08524 25.8336 2.74633 25.707C0.943941 25.0314 -0.15752 23.2236 0.0183545 21.3286C0.189094 19.4838 0.318753 17.6359 0.467669 15.7892C0.613375 13.9763 0.761007 12.1633 0.907355 10.3504C0.998501 9.22064 1.09671 8.09089 1.1763 6.9605C1.25461 5.85238 2.00753 5.13356 3.12504 5.12784C3.84972 5.12466 4.5744 5.1272 5.32411 5.1272C5.35942 3.40649 6.02633 2.00194 7.42112 0.973965C8.40256 0.249423 9.51878 -0.0622764 10.7396 0.0102414C13.1544 0.154005 15.4677 2.13552 15.4966 5.12656H16.2033C16.7072 5.12656 17.211 5.12275 17.7149 5.1272C18.7997 5.13674 19.5552 5.86383 19.6373 6.93379C19.81 9.18565 20 11.4362 20.1804 13.6881C20.3254 15.5011 20.4673 17.3147 20.6104 19.1276C20.6765 19.9711 20.7779 20.8133 20.7998 21.6574C20.855 23.8241 19.3183 25.6148 17.1584 25.9519C17.1109 25.9595 17.066 25.9843 17.0198 26.0009L3.7958 26.0015ZM6.86975 8.49419C6.87617 7.89369 6.87104 7.29256 6.87104 6.66216L13.9426 6.66153V7.89942C13.9426 8.11125 13.9368 8.32307 13.9452 8.53427C13.9625 8.95729 14.2854 9.27662 14.6949 9.28616C15.1102 9.2957 15.4651 8.97192 15.4754 8.54063C15.4895 7.9573 15.4799 7.37271 15.4812 6.78875C15.4812 6.75503 15.4857 6.72196 15.4908 6.65008H15.9138C16.503 6.65008 17.0923 6.64817 17.6815 6.65071C17.9845 6.65198 18.075 6.7385 18.0988 7.03747C18.3401 10.0482 18.5802 13.0596 18.8221 16.0704C18.9666 17.8668 19.1123 19.6632 19.2625 21.459C19.4024 23.1332 18.1803 24.4729 16.4851 24.4755C12.4361 24.4806 8.38779 24.4799 4.33947 24.4755C2.61026 24.4736 1.3939 23.0995 1.55501 21.3928C1.70842 19.7669 1.82139 18.1378 1.95233 16.51C2.09932 14.6887 2.24695 12.8669 2.39394 11.045C2.50114 9.71236 2.60961 8.37969 2.71231 7.04702C2.72964 6.82628 2.79319 6.65516 3.04609 6.65326C3.79709 6.64753 4.54744 6.65135 5.33438 6.65135V7.1348C5.33438 7.59217 5.32796 8.04954 5.33695 8.50628C5.34594 8.95792 5.68228 9.29061 6.10977 9.2868C6.53854 9.28298 6.86462 8.95029 6.86975 8.49419ZM12.1646 1.99812C13.3585 2.67114 13.9163 3.743 13.9464 5.11384H6.87168C6.88002 3.88867 7.34538 2.88678 8.35506 2.18514C9.57077 1.34037 10.8751 1.27103 12.1646 1.99812Z" fill="#00ACBA"/>
<path fill-rule="evenodd" clip-rule="evenodd" d="M6.20761 17.2371V20.0074H4.51239V11.7452H7.75541C9.72088 11.7452 10.7036 12.6525 10.7036 14.4669C10.7036 15.5442 10.2941 16.338 9.4752 16.8483L10.6668 20.0074H8.81185L7.8414 17.2371H6.20761ZM8.67673 15.4389C8.48018 15.6819 8.18126 15.8034 7.77998 15.8034H6.20761V13.179H7.75541C8.14851 13.179 8.44742 13.2964 8.65216 13.5313C8.86508 13.7662 8.97155 14.0821 8.97155 14.479C8.97155 14.8759 8.87327 15.1959 8.67673 15.4389Z" fill="#F3893D"/>
<path d="M11.393 13.9323H13.1496L14.1323 15.8156L15.1274 13.9323H16.884L15.1396 16.9091L16.884 20.0074H15.1274L14.1323 18.1484L13.1496 20.0074H11.393L13.0759 16.9577L11.393 13.9323Z" fill="#F3893D"/>
</svg>
