<svg width="22" height="27" viewBox="0 0 22 27" fill="none" xmlns="http://www.w3.org/2000/svg">
<path fill-rule="evenodd" clip-rule="evenodd" d="M4.39443 26.0015C4.04397 25.9048 3.68388 25.8336 3.34497 25.707C1.54257 25.0314 0.441113 23.2236 0.616987 21.3286C0.787727 19.4838 0.917386 17.6359 1.0663 15.7892C1.21201 13.9763 1.35964 12.1633 1.50599 10.3504C1.59713 9.22064 1.69534 8.09089 1.77493 6.9605C1.85324 5.85238 2.60617 5.13356 3.72367 5.12784C4.44835 5.12466 5.17303 5.1272 5.92274 5.1272C5.95805 3.40649 6.62496 2.00194 8.01976 0.973965C9.00119 0.249423 10.1174 -0.0622764 11.3383 0.0102414C13.753 0.154005 16.0663 2.13552 16.0952 5.12656H16.8019C17.3058 5.12656 17.8097 5.12275 18.3135 5.1272C19.3983 5.13674 20.1538 5.86383 20.236 6.93379C20.4086 9.18565 20.5986 11.4362 20.779 13.6881C20.9241 15.5011 21.0659 17.3147 21.2091 19.1276C21.2752 19.9711 21.3766 20.8133 21.3984 21.6574C21.4536 23.8241 19.917 25.6148 17.757 25.9519C17.7095 25.9595 17.6646 25.9843 17.6184 26.0009L4.39443 26.0015ZM7.46839 8.49419C7.4748 7.89369 7.46967 7.29256 7.46967 6.66216L14.5412 6.66153V7.89942C14.5412 8.11125 14.5355 8.32307 14.5438 8.53427C14.5611 8.95729 14.884 9.27662 15.2935 9.28616C15.7088 9.2957 16.0638 8.97192 16.074 8.54063C16.0882 7.9573 16.0785 7.37271 16.0798 6.78875C16.0798 6.75503 16.0843 6.72196 16.0894 6.65008H16.5124C17.1017 6.65008 17.6909 6.64817 18.2802 6.65071C18.5831 6.65198 18.6736 6.7385 18.6974 7.03747C18.9387 10.0482 19.1788 13.0596 19.4208 16.0704C19.5652 17.8668 19.7109 19.6632 19.8611 21.459C20.001 23.1332 18.7789 24.4729 17.0837 24.4755C13.0347 24.4806 8.98643 24.4799 4.93811 24.4755C3.20889 24.4736 1.99253 23.0995 2.15364 21.3928C2.30705 19.7669 2.42002 18.1378 2.55096 16.51C2.69795 14.6887 2.84559 12.8669 2.99257 11.045C3.09977 9.71236 3.20825 8.37969 3.31095 7.04702C3.32828 6.82628 3.39182 6.65516 3.64472 6.65326C4.39572 6.64753 5.14607 6.65135 5.93301 6.65135V7.1348C5.93301 7.59217 5.9266 8.04954 5.93558 8.50628C5.94457 8.95792 6.28091 9.29061 6.7084 9.2868C7.13718 9.28298 7.46325 8.95029 7.46839 8.49419ZM12.7632 1.99812C13.9571 2.67114 14.5149 3.743 14.5451 5.11384H7.47031C7.47866 3.88867 7.94402 2.88678 8.95369 2.18514C10.1694 1.34037 11.4737 1.27103 12.7632 1.99812Z" fill="#F7F7F7"/>
<path fill-rule="evenodd" clip-rule="evenodd" d="M6.80624 17.2371V20.0074H5.11102V11.7452H8.35405C10.3195 11.7452 11.3022 12.6525 11.3022 14.4669C11.3022 15.5442 10.8928 16.338 10.0738 16.8483L11.2654 20.0074H9.41049L8.44004 17.2371H6.80624ZM9.27536 15.4389C9.07881 15.6819 8.7799 15.8034 8.37861 15.8034H6.80624V13.179H8.35405C8.74714 13.179 9.04605 13.2964 9.25079 13.5313C9.46372 13.7662 9.57018 14.0821 9.57018 14.479C9.57018 14.8759 9.47191 15.1959 9.27536 15.4389Z" fill="#33958F"/>
<path d="M11.9916 13.9323H13.7482L14.731 15.8156L15.726 13.9323H17.4826L15.7383 16.9091L17.4826 20.0074H15.726L14.731 18.1484L13.7482 20.0074H11.9916L13.6745 16.9577L11.9916 13.9323Z" fill="#33958F"/>
</svg>
