<svg width="40" height="33" viewBox="0 0 40 33" fill="none" xmlns="http://www.w3.org/2000/svg">
<path d="M6.82775 9.92186C9.53233 12.6622 12.2721 15.4398 15.2099 18.4178C15.3744 18.1284 15.4575 17.8778 15.622 17.7097C21.3363 11.9104 27.0618 6.12415 32.7713 0.321694C33.1675 -0.0808725 33.3927 -0.124524 33.8065 0.305527C35.757 2.32483 37.7347 4.31664 39.722 6.29876C40.0607 6.63665 40.1134 6.83875 39.746 7.21059C31.661 15.3735 23.5888 23.5477 15.5198 31.7267C15.2434 32.0064 15.0629 32.1471 14.7083 31.7866C9.88698 26.8798 5.04972 21.9924 0.217261 17.0985C0.121411 17.0015 0.0447302 16.8884 0 16.8334C2.27485 14.5312 4.52414 12.2532 6.82775 9.92186Z" fill="#FDF9F5"/>
</svg>
