<svg width="29" height="23" viewBox="0 0 29 23" fill="none" xmlns="http://www.w3.org/2000/svg">
<path d="M29 5.20768C28.8227 5.7718 28.4263 6.16661 28.0322 6.57C22.994 11.7279 17.9586 16.889 12.9259 22.0532C12.2674 22.7289 11.5027 23.0855 10.5607 22.9825C9.90362 22.9107 9.361 22.6002 8.90174 22.1281C6.11789 19.2672 3.33632 16.4024 0.557022 13.5337C-0.186432 12.7659 -0.184916 11.7727 0.557022 10.9979C1.53011 9.9789 2.51102 8.969 3.49976 7.9682C4.26823 7.18795 5.22464 7.20512 6.00068 8.00253C7.55781 9.60048 9.11242 11.2013 10.6645 12.8049C10.7385 12.8923 10.8071 12.9843 10.8699 13.0804C10.9934 12.9594 11.0737 12.8838 11.151 12.8049C15.0883 8.75235 19.0239 4.69844 22.9576 0.643241C23.4828 0.0970687 24.077 -0.15261 24.7947 0.0970687C25.068 0.200872 25.3158 0.365218 25.5207 0.578484C26.5059 1.56706 27.4866 2.56577 28.4415 3.5879C28.6794 3.84304 28.8158 4.19883 28.9985 4.50781L29 5.20768Z" fill="#00ACBA"/>
</svg>
