<svg width="16" height="16" viewBox="0 0 16 16" fill="none" xmlns="http://www.w3.org/2000/svg">
<rect y="7.62939e-06" width="16" height="16" rx="3" fill="#00C6C0"/>
<path d="M14 5.26421C13.9266 5.50948 13.7626 5.68113 13.5995 5.85652C11.5148 8.09911 9.43114 10.3431 7.34866 12.5884C7.07615 12.8821 6.75974 13.0372 6.36994 12.9924C6.09805 12.9612 5.87352 12.8262 5.68348 12.6209C4.53154 11.377 3.38055 10.1315 2.23049 8.88422C1.92286 8.55041 1.92348 8.11856 2.23049 7.78169C2.63315 7.33865 3.03904 6.89956 3.44818 6.46443C3.76616 6.1252 4.16192 6.13266 4.48304 6.47936C5.12737 7.17412 5.77066 7.87012 6.4129 8.56737C6.4435 8.60534 6.47188 8.64533 6.49788 8.68712C6.549 8.63454 6.58224 8.60163 6.61423 8.56737C8.24345 6.80537 9.87195 5.0428 11.4997 3.27967C11.717 3.0422 11.9629 2.93365 12.2599 3.0422C12.373 3.08734 12.4755 3.15879 12.5603 3.25151C12.968 3.68133 13.3738 4.11555 13.7689 4.55996C13.8674 4.67089 13.9238 4.82558 13.9994 4.95992L14 5.26421Z" fill="#02223A"/>
</svg>
