<svg width="10" height="17" viewBox="0 0 10 17" fill="none" xmlns="http://www.w3.org/2000/svg">
<path d="M1.63837 0.714355C1.89789 0.792921 2.08417 0.973903 2.2699 1.16274C4.42541 3.35501 6.58368 5.54447 8.74085 7.73505C9.0656 8.06475 9.13829 8.466 8.93211 8.82235C8.88042 8.91158 8.80995 8.99211 8.73754 9.0659C6.53587 11.3033 4.3331 13.5397 2.13005 15.7754C1.70746 16.2042 1.2354 16.2014 0.809219 15.7704C0.690374 15.6503 0.571806 15.5302 0.453514 15.4095C0.0389403 14.987 0.0392171 14.5046 0.456555 14.0801C1.13894 13.3859 1.82271 12.6928 2.50566 11.9992C3.64546 10.8421 4.78499 9.68489 5.92534 8.52857C5.96348 8.48985 6.01102 8.46095 6.06409 8.4197C6.00383 8.35488 5.96569 8.31167 5.92534 8.2707C4.10287 6.41992 2.28345 4.56576 0.454897 2.72115C0.0914535 2.35442 0.0696186 1.86843 0.30482 1.58531C0.590324 1.24159 0.866706 0.872329 1.31279 0.714355L1.63837 0.714355Z" fill="white"/>
</svg>
