<svg width="12" height="7" viewBox="0 0 12 7" fill="none" xmlns="http://www.w3.org/2000/svg">
<path d="M11.9997 1.17339C11.9319 1.38805 11.7784 1.53969 11.6236 1.69346C9.92414 3.3788 8.22563 5.06537 6.52927 6.75406C6.32113 6.96142 6.08449 7.05825 5.79972 6.96355C5.69335 6.92823 5.58852 6.8582 5.50851 6.77873C3.7441 5.03157 1.98244 3.28198 0.22201 1.53056C-0.0737965 1.23642 -0.0725695 0.855504 0.217106 0.558627C0.352901 0.419475 0.488082 0.278497 0.636445 0.153047C0.886578 -0.058268 1.23327 -0.0476099 1.48309 0.165532C1.52141 0.198417 1.55758 0.234042 1.59345 0.269667C3.0265 1.69315 4.45985 3.11633 5.89229 4.54043C5.9254 4.57331 5.95237 4.61198 6.03452 4.6738C6.0569 4.63269 6.07131 4.58367 6.10319 4.552C7.54881 3.11359 8.99565 1.67641 10.4431 0.239828C10.7132 -0.0281225 11.0853 -0.0817128 11.3379 0.138737C11.5954 0.36345 11.8783 0.57507 12 0.917011V1.17309L11.9997 1.17339Z" fill="#00ACBA"/>
</svg>
