<svg width="10" height="10" viewBox="0 0 10 10" fill="none" xmlns="http://www.w3.org/2000/svg">
<path d="M9.03282 8.46718L5.56565 5L9.03282 1.53282C9.18906 1.37659 9.18906 1.12341 9.03282 0.967176C8.87659 0.810941 8.62341 0.810941 8.46718 0.967176L5 4.43435L1.53282 0.967176C1.37659 0.810941 1.12341 0.810941 0.967176 0.967176C0.810941 1.12341 0.810941 1.37659 0.967176 1.53282L4.43435 5L0.967176 8.46718C0.810941 8.62341 0.810941 8.87659 0.967176 9.03282C1.04521 9.11086 1.14763 9.15 1.25 9.15C1.35237 9.15 1.45479 9.11086 1.53282 9.03282L5 5.56565L8.46718 9.03282C8.54521 9.11086 8.64763 9.15 8.75 9.15C8.85237 9.15 8.95479 9.11086 9.03282 9.03282C9.18906 8.87659 9.18906 8.62341 9.03282 8.46718Z" fill="#263238" stroke="#263238" stroke-width="0.3"/>
</svg>
