<svg width="15" height="15" viewBox="0 0 15 15" fill="none" xmlns="http://www.w3.org/2000/svg">
<path d="M8.09454 7.43725L14.7383 0.793476C14.9199 0.611903 14.9199 0.317754 14.7383 0.13618C14.5567 -0.0453934 14.2626 -0.0453934 14.081 0.13618L7.43725 6.77995L0.793476 0.13618C0.611902 -0.0453933 0.317753 -0.0453933 0.13618 0.13618C-0.0453934 0.317754 -0.0453934 0.611903 0.13618 0.793476L6.77995 7.43725L0.13618 14.081C-0.0453933 14.2626 -0.0453933 14.5567 0.13618 14.7383C0.226967 14.8291 0.345595 14.8745 0.464828 14.8745C0.584061 14.8745 0.702689 14.8291 0.793476 14.7383L7.43725 8.09454L14.081 14.7383C14.1718 14.8291 14.2904 14.8745 14.4097 14.8745C14.5289 14.8745 14.6475 14.8291 14.7383 14.7383C14.9199 14.5567 14.9199 14.2626 14.7383 14.081L8.09454 7.43725Z" fill="#263238"/>
</svg>
