<svg width="18" height="19" viewBox="0 0 18 19" fill="none" xmlns="http://www.w3.org/2000/svg">
<path d="M8.99237 18.0034C6.91126 18.0034 4.82959 18.0068 2.74848 18.0023C1.35732 17.9989 0.28013 17.097 0.034929 15.7385C0.00505398 15.5739 0.00223558 15.4026 0.00223558 15.2346C-1.91422e-05 11.0775 -0.0011465 6.92145 0.0016719 2.76488C0.00223558 1.3568 0.900178 0.278484 2.26936 0.0338464C2.42775 0.00566245 2.59122 0.00171669 2.75243 0.00171669C6.91521 2.565e-05 11.078 -0.00110171 15.2408 0.00171669C16.6455 0.00284405 17.7255 0.906423 17.9667 2.2756C17.996 2.44076 17.9983 2.61155 17.9983 2.7801C18 6.92934 18.0011 11.0792 17.9983 15.2284C17.9977 16.6461 17.093 17.7328 15.7193 17.9718C15.5406 18.0028 15.3552 18.0023 15.1731 18.0023C13.1129 18.0045 11.0526 18.0034 8.99237 18.0034ZM1.79417 8.98734C1.79417 11.0482 1.79417 13.109 1.79417 15.1698C1.79417 15.8524 2.15211 16.2092 2.83586 16.2092C6.94226 16.2092 11.0492 16.2092 15.1556 16.2092C15.8529 16.2092 16.2052 15.8558 16.2058 15.1563C16.2058 11.056 16.2058 6.95527 16.2058 2.85506C16.2058 2.14257 15.8569 1.79478 15.1427 1.79478C11.0504 1.79478 6.95748 1.79478 2.86517 1.79478C2.13802 1.79478 1.79417 2.13919 1.79417 2.86859C1.79417 4.90799 1.79417 6.94795 1.79417 8.98734Z" fill="#00ACBA"/>
<path d="M9.90234 12.5843C10.0151 12.6102 10.1053 12.6237 10.1909 12.6519C10.5844 12.781 10.8476 13.1863 10.802 13.5843C10.7501 14.0335 10.4113 14.3869 9.9728 14.3982C9.32626 14.4151 8.67859 14.4162 8.03205 14.3976C7.58731 14.3852 7.24177 14.0115 7.20514 13.5583C7.17075 13.1327 7.47739 12.7258 7.90523 12.6288C7.9661 12.6153 8.02754 12.6012 8.09744 12.5854V8.12107C8.03713 8.10698 7.97738 8.09176 7.9165 8.07823C7.47683 7.98184 7.16511 7.56979 7.2057 7.13688C7.24854 6.67354 7.60591 6.31955 8.06249 6.3032C8.36463 6.29249 8.66732 6.29813 8.96945 6.30038C9.52073 6.30489 9.89727 6.67354 9.89953 7.22876C9.90516 8.38262 9.90122 9.53647 9.90122 10.6898C9.90122 11.3154 9.90122 11.9411 9.90122 12.5837L9.90234 12.5843Z" fill="#00ACBA"/>
<path d="M9.89818 4.49138C9.90156 4.99193 9.50868 5.39496 9.01151 5.40172C8.51829 5.40792 8.11188 5.00546 8.10793 4.50773C8.10455 4.00718 8.49856 3.60358 8.99516 3.59964C9.49289 3.59569 9.8948 3.99252 9.89818 4.49138V4.49138Z" fill="#00ACBA"/>
</svg>
