<svg width="20" height="20" viewBox="0 0 20 20" fill="none" xmlns="http://www.w3.org/2000/svg">
<circle cx="10" cy="10" r="9.5" stroke="#00ACBA"/>
<path d="M6.13912 14C5.99786 13.9117 5.97765 13.8609 6.01898 13.6959C6.19386 13.0003 6.36818 12.3046 6.54618 11.6095C6.55977 11.5563 6.59118 11.5004 6.63013 11.4616C8.25451 9.84829 9.88054 8.23658 11.5064 6.62469C11.5248 6.60648 11.5446 6.58991 11.5569 6.57898C12.2009 7.2174 12.8411 7.852 13.5 8.50517C13.4781 8.51919 13.4467 8.53248 13.4243 8.55488C11.81 10.1535 10.1969 11.7532 8.58111 13.3505C8.53023 13.4008 8.45822 13.4423 8.38897 13.4599C7.69131 13.6371 6.992 13.8085 6.29324 13.9816C6.2767 13.9858 6.26109 13.9938 6.24511 14H6.13912Z" fill="#00ACBA"/>
<path d="M14.9993 6.68197C14.987 6.73028 14.9817 6.78234 14.9608 6.82634C14.9026 6.94881 14.8589 7.08813 14.7718 7.18457C14.5386 7.44205 14.2855 7.68043 14.0456 7.92105C13.4191 7.27632 12.7837 6.62223 12.1572 5.97732C12.3908 5.73051 12.6174 5.46405 12.8718 5.22941C13.2092 4.918 13.7746 4.92606 14.1133 5.23878C14.3441 5.45187 14.5575 5.68557 14.7725 5.91609C14.9051 6.05821 14.9584 6.24304 14.9993 6.43086V6.68197Z" fill="#00ACBA"/>
</svg>
