<svg width="21" height="25" viewBox="0 0 21 25" fill="none" xmlns="http://www.w3.org/2000/svg">
<path d="M1.12274 14.3567C1.12274 12.2629 1.12133 10.169 1.12344 8.07514C1.12344 7.40752 1.47462 6.95035 2.05735 6.84371C2.70694 6.72497 3.31781 7.1992 3.3706 7.86611C3.37904 7.97204 3.37482 8.07869 3.37482 8.18534C3.37482 12.2757 3.37482 16.3653 3.37482 20.4556C3.37482 21.783 4.29958 22.7229 5.60579 22.7236C8.61725 22.7243 11.6294 22.7243 14.6409 22.7236C15.9323 22.7236 16.8634 21.7802 16.8634 20.4741C16.8634 16.3304 16.8634 12.1875 16.8634 8.04385C16.8634 7.44876 17.1864 6.99372 17.6939 6.86148C18.3413 6.69298 18.9747 7.10108 19.088 7.76657C19.1098 7.89668 19.1141 8.03106 19.1148 8.1633C19.1162 12.2621 19.1169 16.361 19.1155 20.4599C19.1155 22.7165 17.634 24.5224 15.4439 24.9298C15.1779 24.9796 14.9027 24.996 14.6317 24.9967C11.6203 25.0009 8.6081 25.0009 5.59664 24.9988C3.07149 24.9967 1.12414 23.0287 1.12203 20.4776C1.11992 18.4371 1.12203 16.3966 1.12203 14.356L1.12274 14.3567Z" fill="white"/>
<path d="M5.62634 3.41045C5.62634 2.68097 5.62353 1.99131 5.62845 1.30094C5.62916 1.14239 5.63197 0.978155 5.67279 0.827425C5.8058 0.330444 6.23018 0.00765516 6.7735 0.0055222C9.00306 -0.000876699 11.2326 -0.00300966 13.4622 0.00623319C14.1519 0.00907714 14.6016 0.489706 14.6086 1.19358C14.6143 1.82352 14.61 2.45274 14.61 3.08268C14.61 3.17866 14.61 3.27394 14.61 3.40974C14.7353 3.40974 14.8367 3.40974 14.938 3.40974C16.29 3.40974 17.6419 3.41116 18.9932 3.40902C19.3507 3.40902 19.6751 3.49505 19.9214 3.76878C20.2388 4.12144 20.3261 4.53096 20.146 4.97604C19.9707 5.40975 19.6343 5.63726 19.1761 5.68277C19.1149 5.68917 19.0537 5.68561 18.9918 5.68561C13.0751 5.68561 7.15917 5.68561 1.24252 5.68561C0.546484 5.68561 0.0524333 5.26755 0.00387274 4.64401C-0.050318 3.94938 0.469773 3.414 1.21437 3.41116C2.56632 3.40689 3.91828 3.40974 5.26953 3.40974C5.37369 3.40974 5.47855 3.40974 5.62493 3.40974L5.62634 3.41045ZM7.87843 3.39267H12.3537V2.29917H7.87843V3.39267Z" fill="white"/>
<path d="M6.74735 14.2068C6.74735 12.8765 6.74313 11.5463 6.75017 10.2167C6.75298 9.66075 7.13513 9.21638 7.67141 9.10973C8.15772 9.01304 8.68273 9.27824 8.88331 9.74962C8.95439 9.91599 8.99451 10.1087 8.99451 10.29C9.00155 12.8972 9.00225 15.5037 8.99732 18.1108C8.99592 18.8161 8.5089 19.3195 7.86072 19.3146C7.21395 19.3096 6.74876 18.8005 6.74735 18.0909C6.74524 16.7962 6.74735 15.5015 6.74735 14.2068Z" fill="#00ACBA"/>
<path d="M13.4919 14.2024C13.4919 15.5234 13.4947 16.8451 13.4905 18.1662C13.4884 18.7058 13.1646 19.1281 12.6678 19.2703C12.1857 19.4075 11.6606 19.217 11.4207 18.7719C11.3158 18.5778 11.2482 18.3368 11.2475 18.1171C11.2356 15.5099 11.237 12.9027 11.2419 10.2962C11.2433 9.59163 11.7303 9.08896 12.3792 9.09465C13.026 9.10034 13.4905 9.6087 13.4919 10.319C13.494 11.6137 13.4919 12.9084 13.4919 14.2031V14.2024Z" fill="#00ACBA"/>
</svg>
