<svg width="30" height="30" viewBox="0 0 30 30" fill="none" xmlns="http://www.w3.org/2000/svg">
<circle cx="15" cy="15" r="14.5" stroke="#00ACBA"/>
<path d="M9.96375 15.6619C9.96375 14.5626 9.96301 13.4634 9.96412 12.3641C9.96412 12.0136 10.1485 11.7736 10.4544 11.7176C10.7954 11.6553 11.1161 11.9042 11.1439 12.2544C11.1483 12.31 11.1461 12.366 11.1461 12.422C11.1461 14.5693 11.1461 16.7163 11.1461 18.8637C11.1461 19.5606 11.6316 20.054 12.3173 20.0544C13.8983 20.0548 15.4796 20.0548 17.0606 20.0544C17.7386 20.0544 18.2274 19.5591 18.2274 18.8734C18.2274 16.698 18.2274 14.523 18.2274 12.3477C18.2274 12.0353 18.397 11.7964 18.6634 11.7269C19.0033 11.6385 19.3359 11.8527 19.3953 12.2021C19.4068 12.2704 19.409 12.341 19.4094 12.4104C19.4101 14.5622 19.4105 16.7141 19.4098 18.8659C19.4098 20.0507 18.632 20.9988 17.4822 21.2126C17.3425 21.2388 17.1981 21.2474 17.0558 21.2477C15.4748 21.25 13.8935 21.25 12.3125 21.2488C10.9868 21.2477 9.96449 20.2145 9.96338 18.8753C9.96227 17.804 9.96338 16.7328 9.96338 15.6615L9.96375 15.6619Z" fill="#00ACBA"/>
<path d="M12.3288 9.91516C12.3288 9.53219 12.3273 9.17013 12.3299 8.80769C12.3302 8.72445 12.3317 8.63823 12.3532 8.5591C12.423 8.29819 12.6458 8.12873 12.931 8.12761C14.1015 8.12425 15.272 8.12313 16.4425 8.12798C16.8046 8.12947 17.0407 8.3818 17.0444 8.75133C17.0473 9.08204 17.0451 9.41237 17.0451 9.74308C17.0451 9.79347 17.0451 9.84349 17.0451 9.91478C17.1109 9.91478 17.1641 9.91478 17.2173 9.91478C17.9271 9.91478 18.6368 9.91553 19.3462 9.91441C19.5339 9.91441 19.7042 9.95958 19.8336 10.1033C20.0002 10.2884 20.046 10.5034 19.9514 10.7371C19.8594 10.9648 19.6828 11.0842 19.4423 11.1081C19.4101 11.1115 19.378 11.1096 19.3455 11.1096C16.2393 11.1096 13.1335 11.1096 10.0273 11.1096C9.6619 11.1096 9.40253 10.8901 9.37703 10.5628C9.34858 10.1981 9.62163 9.91702 10.0125 9.91553C10.7223 9.91329 11.4321 9.91478 12.1414 9.91478C12.1961 9.91478 12.2512 9.91478 12.328 9.91478L12.3288 9.91516ZM13.5111 9.90583H15.8606V9.33175H13.5111V9.90583Z" fill="#00ACBA"/>
<path d="M12.9167 15.5838C12.9167 14.8854 12.9145 14.187 12.9182 13.4891C12.9196 13.1972 13.1203 12.9639 13.4018 12.9079C13.6571 12.8571 13.9327 12.9963 14.038 13.2438C14.0753 13.3312 14.0964 13.4323 14.0964 13.5275C14.1001 14.8962 14.1005 16.2646 14.0979 17.6334C14.0971 18.0036 13.8415 18.2679 13.5012 18.2653C13.1616 18.2627 12.9174 17.9954 12.9167 17.6229C12.9156 16.9432 12.9167 16.2635 12.9167 15.5838V15.5838Z" fill="#00ACBA"/>
<path d="M16.4575 15.5812C16.4575 16.2747 16.459 16.9686 16.4568 17.6621C16.4557 17.9454 16.2857 18.1672 16.0249 18.2418C15.7718 18.3138 15.4962 18.2138 15.3702 17.9802C15.3151 17.8783 15.2796 17.7517 15.2793 17.6364C15.273 16.2676 15.2737 14.8989 15.2763 13.5305C15.2771 13.1606 15.5327 12.8967 15.8734 12.8997C16.2129 12.9027 16.4568 13.1696 16.4575 13.5424C16.4586 14.2222 16.4575 14.9019 16.4575 15.5816V15.5812Z" fill="#00ACBA"/>
</svg>
