<svg width="20" height="20" viewBox="0 0 20 20" fill="none" xmlns="http://www.w3.org/2000/svg">
<circle cx="10" cy="10" r="9.5" stroke="#00ACBA"/>
<path d="M6.2692 10.517C6.2692 9.69791 6.26865 8.87886 6.26947 8.0598C6.26947 7.79865 6.40685 7.61982 6.63479 7.5781C6.88889 7.53165 7.12785 7.71716 7.14849 7.97803C7.1518 8.01947 7.15014 8.06119 7.15014 8.10291C7.15014 9.70292 7.15014 11.3026 7.15014 12.9027C7.15014 13.4219 7.51188 13.7896 8.02283 13.7899C9.20083 13.7901 10.3791 13.7901 11.5571 13.7899C12.0623 13.7899 12.4265 13.4208 12.4265 12.9099C12.4265 11.289 12.4265 9.66843 12.4265 8.04756C12.4265 7.81478 12.5528 7.63678 12.7513 7.58505C13.0046 7.51914 13.2524 7.67878 13.2967 7.9391C13.3052 7.98999 13.3069 8.04256 13.3071 8.09429C13.3077 9.69763 13.308 11.301 13.3074 12.9043C13.3074 13.7871 12.7279 14.4935 11.8712 14.6529C11.7671 14.6723 11.6595 14.6787 11.5535 14.679C10.3755 14.6807 9.19725 14.6807 8.01926 14.6798C7.03149 14.679 6.26975 13.9092 6.26892 12.9113C6.2681 12.1131 6.26892 11.3149 6.26892 10.5167L6.2692 10.517Z" fill="#00ACBA"/>
<path d="M8.03386 6.23507C8.03386 5.94972 8.03276 5.67994 8.03469 5.40989C8.03497 5.34787 8.03607 5.28363 8.05203 5.22466C8.10406 5.03026 8.27007 4.904 8.4826 4.90316C9.35474 4.90066 10.2269 4.89982 11.099 4.90344C11.3688 4.90455 11.5447 5.09256 11.5475 5.3679C11.5497 5.61431 11.548 5.86044 11.548 6.10685C11.548 6.1444 11.548 6.18167 11.548 6.23479C11.597 6.23479 11.6367 6.23479 11.6763 6.23479C12.2052 6.23479 12.734 6.23534 13.2626 6.23451C13.4024 6.23451 13.5293 6.26816 13.6257 6.37524C13.7498 6.51318 13.784 6.67338 13.7135 6.84748C13.645 7.01713 13.5134 7.10613 13.3341 7.12393C13.3102 7.12643 13.2862 7.12504 13.262 7.12504C10.9476 7.12504 8.63346 7.12504 6.31904 7.12504C6.04678 7.12504 5.85352 6.96151 5.83452 6.7176C5.81332 6.44588 6.01677 6.23646 6.30803 6.23534C6.83688 6.23368 7.36572 6.23479 7.89429 6.23479C7.93503 6.23479 7.97605 6.23479 8.03331 6.23479L8.03386 6.23507ZM8.91481 6.22811H10.6654V5.80037H8.91481V6.22811Z" fill="#00ACBA"/>
<path d="M8.47217 10.4583C8.47217 9.93799 8.47052 9.41763 8.47327 8.89755C8.47437 8.68006 8.62386 8.50624 8.83364 8.46452C9.02386 8.42669 9.22924 8.53043 9.3077 8.71482C9.3355 8.7799 9.35119 8.85527 9.35119 8.92619C9.35394 9.94605 9.35422 10.9656 9.35229 11.9855C9.35174 12.2614 9.16124 12.4583 8.90769 12.4563C8.65469 12.4544 8.47272 12.2553 8.47217 11.9777C8.47135 11.4712 8.47217 10.9648 8.47217 10.4583Z" fill="#00ACBA"/>
<path d="M11.111 10.4569C11.111 10.9736 11.1121 11.4906 11.1105 12.0074C11.1097 12.2185 10.983 12.3837 10.7887 12.4393C10.6001 12.493 10.3947 12.4184 10.3008 12.2443C10.2598 12.1684 10.2334 12.0741 10.2331 11.9882C10.2284 10.9683 10.229 9.94848 10.2309 8.9289C10.2315 8.65329 10.422 8.45666 10.6758 8.45888C10.9288 8.46111 11.1105 8.65996 11.111 8.9378C11.1119 9.44425 11.111 9.9507 11.111 10.4572V10.4569Z" fill="#00ACBA"/>
</svg>
