<svg width="12" height="7" viewBox="0 0 12 7" fill="none" xmlns="http://www.w3.org/2000/svg">
<path d="M0.000623806 5.82662C0.0664855 5.61196 0.215795 5.46032 0.366295 5.30656C2.01852 3.62121 3.66985 1.93465 5.31909 0.24595C5.52145 0.0385932 5.75152 -0.0582343 6.02838 0.0364618C6.13179 0.0717826 6.23371 0.141815 6.3115 0.221287C8.0269 1.96844 9.73962 3.71804 11.4511 5.46946C11.7387 5.76359 11.7375 6.14451 11.4559 6.44139C11.3239 6.58054 11.1925 6.72152 11.0482 6.84697C10.805 7.05828 10.468 7.04763 10.2251 6.83448C10.1878 6.8016 10.1527 6.76597 10.1178 6.73035C8.72456 5.30686 7.33102 3.88368 5.93838 2.45959C5.90619 2.4267 5.87996 2.38803 5.80009 2.32622C5.77834 2.36732 5.76433 2.41635 5.73334 2.44801C4.32788 3.88642 2.92122 5.32361 1.51397 6.76019C1.25141 7.02814 0.88962 7.08173 0.644052 6.86128C0.393715 6.63656 0.118639 6.42494 0.000325283 6.083L0.000325305 5.82693L0.000623806 5.82662Z" fill="#00ACBA"/>
</svg>
