<svg width="15" height="15" viewBox="0 0 15 15" fill="none" xmlns="http://www.w3.org/2000/svg">
<path d="M0.231864 15C-0.0035672 14.8528 -0.037244 14.7681 0.0316403 14.4932C0.323097 13.3339 0.613636 12.1742 0.910298 11.0158C0.932953 10.9272 0.985305 10.834 1.05021 10.7694C3.75751 8.08045 6.46758 5.39426 9.17733 2.70777C9.20794 2.67742 9.24101 2.6498 9.26152 2.63159C10.3349 3.69563 11.4018 4.75329 12.5 5.84191C12.4636 5.86527 12.4112 5.88743 12.3739 5.92476C9.6834 8.5891 6.99477 11.2553 4.30185 13.9175C4.21705 14.0012 4.09704 14.0704 3.98162 14.0999C2.81885 14.3952 1.65333 14.6807 0.488726 14.9694C0.461172 14.9763 0.435149 14.9897 0.408514 15H0.231864Z" fill="#00ACBA"/>
<path d="M15 2.80328C14.9794 2.8838 14.9706 2.97057 14.9358 3.04391C14.8387 3.24802 14.766 3.48022 14.6208 3.64095C14.2321 4.07008 13.8104 4.46738 13.4105 4.86842C12.3663 3.79387 11.3073 2.70372 10.2632 1.62887C10.6525 1.21752 11.0302 0.77341 11.4541 0.382354C12.0165 -0.136661 12.9587 -0.123241 13.5232 0.397959C13.908 0.753124 14.2636 1.14262 14.622 1.52681C14.843 1.76369 14.9318 2.07173 15 2.38476V2.80328Z" fill="#00ACBA"/>
</svg>
