<svg width="19" height="19" viewBox="0 0 19 19" fill="none" xmlns="http://www.w3.org/2000/svg">
<path d="M0.293694 18.9992C-0.00451845 18.8127 -0.0471757 18.7055 0.0400777 18.3572C0.409257 16.8887 0.777272 15.4198 1.15304 13.9525C1.18174 13.8403 1.24805 13.7222 1.33027 13.6404C4.75952 10.2344 8.19226 6.8319 11.6246 3.42901C11.6634 3.39057 11.7053 3.35558 11.7313 3.33252C13.0909 4.6803 14.4423 6.02 15.8333 7.39892C15.7872 7.42852 15.7209 7.45658 15.6736 7.50386C12.2656 10.8787 8.86004 14.2558 5.44901 17.628C5.3416 17.7341 5.18958 17.8217 5.04338 17.859C3.57055 18.233 2.09422 18.5948 0.619053 18.9604C0.584151 18.9692 0.551189 18.9861 0.517451 18.9992H0.293694V18.9992Z" fill="white"/>
<path d="M19 3.55082C18.9739 3.65282 18.9627 3.76272 18.9186 3.85562C18.7957 4.11416 18.7035 4.40828 18.5196 4.61187C18.0273 5.15543 17.4931 5.65868 16.9866 6.16667C15.664 4.80557 14.3226 3.42472 13 2.06323C13.4931 1.5422 13.9716 0.979653 14.5084 0.484316C15.2208 -0.173104 16.4144 -0.156105 17.1294 0.504082C17.6167 0.953957 18.0672 1.44732 18.5211 1.93396C18.8011 2.23401 18.9136 2.62419 19 3.0207V3.55082V3.55082Z" fill="white"/>
</svg>
