<svg width="30" height="23" viewBox="0 0 30 23" fill="none" xmlns="http://www.w3.org/2000/svg">
<path d="M30 18.2177C29.8675 18.6509 29.7878 19.1135 29.5937 19.5172C28.7828 21.2222 27.3932 22.1162 25.522 22.1162C18.503 22.1399 11.4837 22.1399 4.46418 22.1162C2.29837 22.1119 0.596893 20.718 0.103087 18.6154C0.0390587 18.3404 0.00679483 18.0591 0.00692654 17.7768C-4.07223e-06 13.999 -0.00173123 10.221 0.00173408 6.44263C0.00173408 6.39412 0.00173196 6.3456 0.0103952 6.25984C0.109156 6.31355 0.192324 6.3534 0.270293 6.40191C4.78905 9.16029 9.30607 11.9219 13.8214 14.6866C14.6201 15.1778 15.334 15.1847 16.1345 14.6927C20.655 11.9204 25.1832 9.15885 29.7193 6.40798C29.8103 6.35253 29.9064 6.30575 30 6.25464V18.2177Z" fill="#00ACBA"/>
<path d="M14.997 0.00698889C18.483 0.00698889 21.9688 0.00698889 25.4544 0.00698889C27.511 0.00698889 29.2134 1.27009 29.786 3.17601C29.8588 3.41858 29.8111 3.53034 29.5971 3.66115C24.8168 6.57201 20.0404 9.48864 15.2681 12.411C15.0845 12.5228 14.9571 12.5263 14.7726 12.411C9.97889 9.48171 5.18264 6.55873 0.383769 3.64209C0.164588 3.50955 0.15246 3.38913 0.210504 3.17688C0.775348 1.27096 2.48114 0.00438927 4.5352 0.00092397C8.02418 -0.00138623 11.5114 0.000635829 14.997 0.00698889Z" fill="#00ACBA"/>
</svg>
