<svg width="32" height="24" viewBox="0 0 32 24" fill="none" xmlns="http://www.w3.org/2000/svg">
<path d="M31.269 5.67272L28.7589 7.12192L31.7334 12.2738L26.6448 15.2117L23.6713 10.0613C23.5537 10.1201 23.4694 10.1576 23.3906 10.203C21.7318 11.1607 20.0731 12.1184 18.4105 13.0712C18.2151 13.184 18.1703 13.3002 18.2004 13.5222C18.6469 16.8071 17.6826 19.5785 15.2062 21.6727C11.6621 24.6695 6.45453 24.2633 3.211 20.8687C0.0701029 17.5832 -0.173251 12.4148 2.65802 8.97436C5.71261 5.26194 11.0756 4.75358 14.9004 7.81673C15.0656 7.94857 15.1864 8.0016 15.3958 7.88066C19.6147 5.4334 23.837 2.99264 28.0626 0.558349C28.1258 0.521894 28.1841 0.477068 28.2446 0.436048L31.269 5.67272ZM10.9874 17.3265C11.3252 17.1404 11.6216 16.8873 11.8593 16.5819C12.097 16.2766 12.2712 15.9251 12.3719 15.548C12.4725 15.1709 12.4975 14.7758 12.4455 14.3856C12.3934 13.9954 12.2653 13.618 12.0686 13.2754C11.8719 12.9328 11.6106 12.6319 11.2999 12.3902C10.9892 12.1484 10.6353 11.9707 10.2589 11.8674C9.88248 11.7642 9.49105 11.7374 9.10746 11.7886C8.72387 11.8398 8.35579 11.9681 8.02468 12.1658C6.63545 12.9608 6.14467 14.7801 6.98292 16.1943C7.17669 16.5344 7.43432 16.8338 7.74093 17.075C8.04754 17.3163 8.39708 17.4947 8.76936 17.6C9.14165 17.7052 9.52931 17.7353 9.91 17.6883C10.2907 17.6414 10.6569 17.5184 10.9874 17.3265Z" fill="#00ACBA"/>
</svg>
