<svg width="27" height="27" viewBox="0 0 27 27" fill="none" xmlns="http://www.w3.org/2000/svg">
<mask id="path-1-outside-1_968_476" maskUnits="userSpaceOnUse" x="0" y="0" width="27" height="27" fill="black">
<rect fill="white" width="27" height="27"/>
<path d="M24.8855 11.0858C24.4154 11.0154 23.9327 10.9478 23.451 10.885C23.3927 10.8775 23.3453 10.8379 23.3306 10.7842C23.1082 9.97746 22.7856 9.19894 22.3718 8.47033C22.3439 8.4214 22.3492 8.35968 22.3851 8.31295C22.6813 7.92794 22.975 7.53873 23.258 7.15621C23.64 6.63971 23.5845 5.9068 23.129 5.45128L21.5487 3.8709C21.0932 3.41543 20.3603 3.35997 19.8437 3.7421C19.462 4.02442 19.0728 4.31807 18.687 4.6149C18.6404 4.65084 18.5786 4.65606 18.5296 4.62828C17.8011 4.21441 17.0225 3.8918 16.2157 3.66944C16.162 3.65474 16.1224 3.60738 16.1148 3.54888C16.0519 3.06646 15.9844 2.58384 15.9142 2.1145C15.8191 1.4791 15.2617 1 14.6175 1H12.3825C11.7383 1 11.1808 1.4791 11.0859 2.11446C11.0156 2.58389 10.9482 3.06646 10.8852 3.54898C10.8776 3.60743 10.838 3.65469 10.7843 3.66944C9.97746 3.8919 9.19889 4.21446 8.47047 4.62828C8.4215 4.65606 8.35968 4.65069 8.313 4.6149C7.92721 4.31807 7.538 4.02442 7.15626 3.74205C6.63961 3.35997 5.90675 3.41553 5.45133 3.87095L3.87095 5.45133C3.41543 5.90689 3.36001 6.63985 3.74214 7.15631C4.02554 7.53942 4.3192 7.92853 4.61495 8.31295C4.65084 8.35958 4.65611 8.42135 4.62833 8.47033C4.21436 9.19909 3.8918 9.97761 3.66949 10.7842C3.65479 10.8378 3.60743 10.8774 3.54903 10.8851C3.06758 10.9479 2.58496 11.0154 2.11455 11.0858C1.4791 11.1808 1 11.7383 1 12.3824V14.6175C1 15.2617 1.4791 15.8192 2.11446 15.9142C2.58487 15.9846 3.06753 16.0521 3.54898 16.1149C3.60743 16.1225 3.65469 16.1621 3.66944 16.2158C3.89175 17.0224 4.21436 17.801 4.62828 18.5297C4.65606 18.5786 4.65079 18.6404 4.6149 18.687C4.31841 19.0724 4.02476 19.4616 3.7421 19.8437C3.36001 20.3602 3.41539 21.0932 3.8709 21.5487L5.45128 23.1291C5.90685 23.5846 6.63981 23.6401 7.15626 23.2579C7.53795 22.9756 7.92711 22.6819 8.31295 22.3851C8.35958 22.3492 8.4214 22.344 8.47033 22.3717C9.19884 22.7856 9.97731 23.1081 10.7842 23.3306C10.8379 23.3453 10.8775 23.3926 10.8851 23.451C10.9481 23.9334 11.0156 24.4161 11.0858 24.8854C11.1808 25.5208 11.7383 25.9999 12.3825 25.9999H14.6175C15.2617 25.9999 15.8192 25.5208 15.9141 24.8853C15.9844 24.4154 16.0519 23.9328 16.1148 23.4509C16.1224 23.3925 16.162 23.3452 16.2157 23.3304C17.0225 23.1079 17.8011 22.7853 18.5295 22.3715C18.5785 22.3438 18.6403 22.3491 18.6869 22.3849C19.0727 22.6817 19.462 22.9754 19.8436 23.2577C20.3601 23.6398 21.0931 23.5844 21.5486 23.1289L23.129 21.5485C23.5845 21.093 23.6399 20.3601 23.2579 19.8435C22.9749 19.4612 22.6812 19.072 22.385 18.6869C22.3491 18.6402 22.3438 18.5785 22.3717 18.5295C22.7856 17.8008 23.1081 17.0222 23.3305 16.2156C23.3453 16.1619 23.3926 16.1223 23.451 16.1147C23.9326 16.0519 24.4153 15.9844 24.8855 15.914C25.5209 15.819 26 15.2616 26 14.6174V12.3823C26 11.7383 25.5209 11.1807 24.8855 11.0858ZM24.8326 14.6176C24.8326 14.6884 24.7812 14.7494 24.7128 14.7597C24.2499 14.829 23.7746 14.8954 23.3001 14.9574C22.7748 15.0259 22.3451 15.398 22.2051 15.9056C22.0084 16.6194 21.7229 17.3083 21.3567 17.9531C21.0963 18.4116 21.1368 18.9791 21.4599 19.399C21.7517 19.7783 22.0409 20.1616 22.3194 20.5381C22.3605 20.5936 22.3537 20.6733 22.3037 20.7234L20.7232 22.3038C20.6731 22.3538 20.5935 22.3605 20.538 22.3196C20.1622 22.0415 19.7788 21.7523 19.3989 21.46C18.979 21.1369 18.4115 21.0964 17.9531 21.3567C17.3083 21.7229 16.6194 22.0084 15.9055 22.2052C15.398 22.3451 15.0259 22.7749 14.9573 23.3002C14.8954 23.7749 14.8289 24.2502 14.7596 24.7129C14.7494 24.7812 14.6883 24.8327 14.6175 24.8327H12.3825C12.3117 24.8327 12.2506 24.7812 12.2404 24.7129C12.1713 24.2507 12.1047 23.7754 12.0427 23.3003C11.9742 22.7749 11.602 22.3452 11.0945 22.2053C10.3805 22.0085 9.69162 21.723 9.04689 21.3567C8.84587 21.2426 8.62384 21.1863 8.40255 21.1863C8.11915 21.1863 7.83688 21.2786 7.60118 21.4601C7.22116 21.7524 6.83785 22.0416 6.46202 22.3197C6.40646 22.3606 6.32691 22.3539 6.27687 22.3039L4.69644 20.7235C4.64635 20.6734 4.63951 20.5938 4.68062 20.5383C4.95899 20.162 5.24815 19.7787 5.54019 19.3991C5.86319 18.9792 5.90372 18.4118 5.64342 17.9534C5.27706 17.3084 4.99166 16.6195 4.79493 15.9058C4.65504 15.3983 4.22525 15.0261 3.69996 14.9575C3.22574 14.8957 2.75039 14.8291 2.28716 14.7599C2.21885 14.7496 2.16739 14.6886 2.16739 14.6178V12.3827C2.16739 12.3119 2.21885 12.2508 2.28716 12.2405C2.75039 12.1713 3.22569 12.1048 3.69986 12.0429C4.2252 11.9744 4.65499 11.6022 4.79488 11.0946C4.99151 10.381 5.27701 9.69206 5.64337 9.04709C5.90372 8.58864 5.86319 8.02116 5.54019 7.60133C5.24893 7.22262 4.95972 6.83942 4.68062 6.46217C4.63961 6.40665 4.64639 6.32696 4.69644 6.27696L6.27677 4.69654C6.32677 4.64644 6.40641 4.63975 6.46193 4.68072C6.83776 4.95875 7.22106 5.24796 7.60109 5.54034C8.02101 5.86329 8.58844 5.90387 9.04694 5.64347C9.69162 5.27725 10.3805 4.99176 11.0944 4.79498C11.602 4.65509 11.9742 4.2253 12.0427 3.69996C12.1048 3.22481 12.1712 2.74952 12.2404 2.28721C12.2506 2.219 12.3117 2.16748 12.3825 2.16748H14.6176C14.6884 2.16748 14.7495 2.21895 14.7597 2.28726C14.8289 2.74942 14.8953 3.22466 14.9574 3.69996C15.0259 4.2253 15.3981 4.65509 15.9056 4.79498C16.6195 4.99176 17.3084 5.27725 17.9532 5.64347C18.4116 5.90372 18.9791 5.86329 19.3989 5.54024C19.7789 5.24791 20.1622 4.9587 20.538 4.68067C20.5935 4.63956 20.6732 4.64635 20.7233 4.69649L22.3037 6.27687C22.3538 6.32696 22.3605 6.4066 22.3195 6.46207C22.0409 6.83873 21.7517 7.22194 21.4599 7.60123C21.1369 8.0212 21.0964 8.58869 21.3568 9.04713C21.723 9.69191 22.0085 10.3808 22.2053 11.0946C22.3452 11.6022 22.775 11.9743 23.3002 12.0428C23.7746 12.1047 24.2499 12.1712 24.713 12.2405C24.7813 12.2507 24.8328 12.3118 24.8328 12.3826V14.6176H24.8326Z"/>
</mask>
<path d="M24.8855 11.0858C24.4154 11.0154 23.9327 10.9478 23.451 10.885C23.3927 10.8775 23.3453 10.8379 23.3306 10.7842C23.1082 9.97746 22.7856 9.19894 22.3718 8.47033C22.3439 8.4214 22.3492 8.35968 22.3851 8.31295C22.6813 7.92794 22.975 7.53873 23.258 7.15621C23.64 6.63971 23.5845 5.9068 23.129 5.45128L21.5487 3.8709C21.0932 3.41543 20.3603 3.35997 19.8437 3.7421C19.462 4.02442 19.0728 4.31807 18.687 4.6149C18.6404 4.65084 18.5786 4.65606 18.5296 4.62828C17.8011 4.21441 17.0225 3.8918 16.2157 3.66944C16.162 3.65474 16.1224 3.60738 16.1148 3.54888C16.0519 3.06646 15.9844 2.58384 15.9142 2.1145C15.8191 1.4791 15.2617 1 14.6175 1H12.3825C11.7383 1 11.1808 1.4791 11.0859 2.11446C11.0156 2.58389 10.9482 3.06646 10.8852 3.54898C10.8776 3.60743 10.838 3.65469 10.7843 3.66944C9.97746 3.8919 9.19889 4.21446 8.47047 4.62828C8.4215 4.65606 8.35968 4.65069 8.313 4.6149C7.92721 4.31807 7.538 4.02442 7.15626 3.74205C6.63961 3.35997 5.90675 3.41553 5.45133 3.87095L3.87095 5.45133C3.41543 5.90689 3.36001 6.63985 3.74214 7.15631C4.02554 7.53942 4.3192 7.92853 4.61495 8.31295C4.65084 8.35958 4.65611 8.42135 4.62833 8.47033C4.21436 9.19909 3.8918 9.97761 3.66949 10.7842C3.65479 10.8378 3.60743 10.8774 3.54903 10.8851C3.06758 10.9479 2.58496 11.0154 2.11455 11.0858C1.4791 11.1808 1 11.7383 1 12.3824V14.6175C1 15.2617 1.4791 15.8192 2.11446 15.9142C2.58487 15.9846 3.06753 16.0521 3.54898 16.1149C3.60743 16.1225 3.65469 16.1621 3.66944 16.2158C3.89175 17.0224 4.21436 17.801 4.62828 18.5297C4.65606 18.5786 4.65079 18.6404 4.6149 18.687C4.31841 19.0724 4.02476 19.4616 3.7421 19.8437C3.36001 20.3602 3.41539 21.0932 3.8709 21.5487L5.45128 23.1291C5.90685 23.5846 6.63981 23.6401 7.15626 23.2579C7.53795 22.9756 7.92711 22.6819 8.31295 22.3851C8.35958 22.3492 8.4214 22.344 8.47033 22.3717C9.19884 22.7856 9.97731 23.1081 10.7842 23.3306C10.8379 23.3453 10.8775 23.3926 10.8851 23.451C10.9481 23.9334 11.0156 24.4161 11.0858 24.8854C11.1808 25.5208 11.7383 25.9999 12.3825 25.9999H14.6175C15.2617 25.9999 15.8192 25.5208 15.9141 24.8853C15.9844 24.4154 16.0519 23.9328 16.1148 23.4509C16.1224 23.3925 16.162 23.3452 16.2157 23.3304C17.0225 23.1079 17.8011 22.7853 18.5295 22.3715C18.5785 22.3438 18.6403 22.3491 18.6869 22.3849C19.0727 22.6817 19.462 22.9754 19.8436 23.2577C20.3601 23.6398 21.0931 23.5844 21.5486 23.1289L23.129 21.5485C23.5845 21.093 23.6399 20.3601 23.2579 19.8435C22.9749 19.4612 22.6812 19.072 22.385 18.6869C22.3491 18.6402 22.3438 18.5785 22.3717 18.5295C22.7856 17.8008 23.1081 17.0222 23.3305 16.2156C23.3453 16.1619 23.3926 16.1223 23.451 16.1147C23.9326 16.0519 24.4153 15.9844 24.8855 15.914C25.5209 15.819 26 15.2616 26 14.6174V12.3823C26 11.7383 25.5209 11.1807 24.8855 11.0858ZM24.8326 14.6176C24.8326 14.6884 24.7812 14.7494 24.7128 14.7597C24.2499 14.829 23.7746 14.8954 23.3001 14.9574C22.7748 15.0259 22.3451 15.398 22.2051 15.9056C22.0084 16.6194 21.7229 17.3083 21.3567 17.9531C21.0963 18.4116 21.1368 18.9791 21.4599 19.399C21.7517 19.7783 22.0409 20.1616 22.3194 20.5381C22.3605 20.5936 22.3537 20.6733 22.3037 20.7234L20.7232 22.3038C20.6731 22.3538 20.5935 22.3605 20.538 22.3196C20.1622 22.0415 19.7788 21.7523 19.3989 21.46C18.979 21.1369 18.4115 21.0964 17.9531 21.3567C17.3083 21.7229 16.6194 22.0084 15.9055 22.2052C15.398 22.3451 15.0259 22.7749 14.9573 23.3002C14.8954 23.7749 14.8289 24.2502 14.7596 24.7129C14.7494 24.7812 14.6883 24.8327 14.6175 24.8327H12.3825C12.3117 24.8327 12.2506 24.7812 12.2404 24.7129C12.1713 24.2507 12.1047 23.7754 12.0427 23.3003C11.9742 22.7749 11.602 22.3452 11.0945 22.2053C10.3805 22.0085 9.69162 21.723 9.04689 21.3567C8.84587 21.2426 8.62384 21.1863 8.40255 21.1863C8.11915 21.1863 7.83688 21.2786 7.60118 21.4601C7.22116 21.7524 6.83785 22.0416 6.46202 22.3197C6.40646 22.3606 6.32691 22.3539 6.27687 22.3039L4.69644 20.7235C4.64635 20.6734 4.63951 20.5938 4.68062 20.5383C4.95899 20.162 5.24815 19.7787 5.54019 19.3991C5.86319 18.9792 5.90372 18.4118 5.64342 17.9534C5.27706 17.3084 4.99166 16.6195 4.79493 15.9058C4.65504 15.3983 4.22525 15.0261 3.69996 14.9575C3.22574 14.8957 2.75039 14.8291 2.28716 14.7599C2.21885 14.7496 2.16739 14.6886 2.16739 14.6178V12.3827C2.16739 12.3119 2.21885 12.2508 2.28716 12.2405C2.75039 12.1713 3.22569 12.1048 3.69986 12.0429C4.2252 11.9744 4.65499 11.6022 4.79488 11.0946C4.99151 10.381 5.27701 9.69206 5.64337 9.04709C5.90372 8.58864 5.86319 8.02116 5.54019 7.60133C5.24893 7.22262 4.95972 6.83942 4.68062 6.46217C4.63961 6.40665 4.64639 6.32696 4.69644 6.27696L6.27677 4.69654C6.32677 4.64644 6.40641 4.63975 6.46193 4.68072C6.83776 4.95875 7.22106 5.24796 7.60109 5.54034C8.02101 5.86329 8.58844 5.90387 9.04694 5.64347C9.69162 5.27725 10.3805 4.99176 11.0944 4.79498C11.602 4.65509 11.9742 4.2253 12.0427 3.69996C12.1048 3.22481 12.1712 2.74952 12.2404 2.28721C12.2506 2.219 12.3117 2.16748 12.3825 2.16748H14.6176C14.6884 2.16748 14.7495 2.21895 14.7597 2.28726C14.8289 2.74942 14.8953 3.22466 14.9574 3.69996C15.0259 4.2253 15.3981 4.65509 15.9056 4.79498C16.6195 4.99176 17.3084 5.27725 17.9532 5.64347C18.4116 5.90372 18.9791 5.86329 19.3989 5.54024C19.7789 5.24791 20.1622 4.9587 20.538 4.68067C20.5935 4.63956 20.6732 4.64635 20.7233 4.69649L22.3037 6.27687C22.3538 6.32696 22.3605 6.4066 22.3195 6.46207C22.0409 6.83873 21.7517 7.22194 21.4599 7.60123C21.1369 8.0212 21.0964 8.58869 21.3568 9.04713C21.723 9.69191 22.0085 10.3808 22.2053 11.0946C22.3452 11.6022 22.775 11.9743 23.3002 12.0428C23.7746 12.1047 24.2499 12.1712 24.713 12.2405C24.7813 12.2507 24.8328 12.3118 24.8328 12.3826V14.6176H24.8326Z" fill="#00ACBA"/>
<path d="M24.8855 11.0858C24.4154 11.0154 23.9327 10.9478 23.451 10.885C23.3927 10.8775 23.3453 10.8379 23.3306 10.7842C23.1082 9.97746 22.7856 9.19894 22.3718 8.47033C22.3439 8.4214 22.3492 8.35968 22.3851 8.31295C22.6813 7.92794 22.975 7.53873 23.258 7.15621C23.64 6.63971 23.5845 5.9068 23.129 5.45128L21.5487 3.8709C21.0932 3.41543 20.3603 3.35997 19.8437 3.7421C19.462 4.02442 19.0728 4.31807 18.687 4.6149C18.6404 4.65084 18.5786 4.65606 18.5296 4.62828C17.8011 4.21441 17.0225 3.8918 16.2157 3.66944C16.162 3.65474 16.1224 3.60738 16.1148 3.54888C16.0519 3.06646 15.9844 2.58384 15.9142 2.1145C15.8191 1.4791 15.2617 1 14.6175 1H12.3825C11.7383 1 11.1808 1.4791 11.0859 2.11446C11.0156 2.58389 10.9482 3.06646 10.8852 3.54898C10.8776 3.60743 10.838 3.65469 10.7843 3.66944C9.97746 3.8919 9.19889 4.21446 8.47047 4.62828C8.4215 4.65606 8.35968 4.65069 8.313 4.6149C7.92721 4.31807 7.538 4.02442 7.15626 3.74205C6.63961 3.35997 5.90675 3.41553 5.45133 3.87095L3.87095 5.45133C3.41543 5.90689 3.36001 6.63985 3.74214 7.15631C4.02554 7.53942 4.3192 7.92853 4.61495 8.31295C4.65084 8.35958 4.65611 8.42135 4.62833 8.47033C4.21436 9.19909 3.8918 9.97761 3.66949 10.7842C3.65479 10.8378 3.60743 10.8774 3.54903 10.8851C3.06758 10.9479 2.58496 11.0154 2.11455 11.0858C1.4791 11.1808 1 11.7383 1 12.3824V14.6175C1 15.2617 1.4791 15.8192 2.11446 15.9142C2.58487 15.9846 3.06753 16.0521 3.54898 16.1149C3.60743 16.1225 3.65469 16.1621 3.66944 16.2158C3.89175 17.0224 4.21436 17.801 4.62828 18.5297C4.65606 18.5786 4.65079 18.6404 4.6149 18.687C4.31841 19.0724 4.02476 19.4616 3.7421 19.8437C3.36001 20.3602 3.41539 21.0932 3.8709 21.5487L5.45128 23.1291C5.90685 23.5846 6.63981 23.6401 7.15626 23.2579C7.53795 22.9756 7.92711 22.6819 8.31295 22.3851C8.35958 22.3492 8.4214 22.344 8.47033 22.3717C9.19884 22.7856 9.97731 23.1081 10.7842 23.3306C10.8379 23.3453 10.8775 23.3926 10.8851 23.451C10.9481 23.9334 11.0156 24.4161 11.0858 24.8854C11.1808 25.5208 11.7383 25.9999 12.3825 25.9999H14.6175C15.2617 25.9999 15.8192 25.5208 15.9141 24.8853C15.9844 24.4154 16.0519 23.9328 16.1148 23.4509C16.1224 23.3925 16.162 23.3452 16.2157 23.3304C17.0225 23.1079 17.8011 22.7853 18.5295 22.3715C18.5785 22.3438 18.6403 22.3491 18.6869 22.3849C19.0727 22.6817 19.462 22.9754 19.8436 23.2577C20.3601 23.6398 21.0931 23.5844 21.5486 23.1289L23.129 21.5485C23.5845 21.093 23.6399 20.3601 23.2579 19.8435C22.9749 19.4612 22.6812 19.072 22.385 18.6869C22.3491 18.6402 22.3438 18.5785 22.3717 18.5295C22.7856 17.8008 23.1081 17.0222 23.3305 16.2156C23.3453 16.1619 23.3926 16.1223 23.451 16.1147C23.9326 16.0519 24.4153 15.9844 24.8855 15.914C25.5209 15.819 26 15.2616 26 14.6174V12.3823C26 11.7383 25.5209 11.1807 24.8855 11.0858ZM24.8326 14.6176C24.8326 14.6884 24.7812 14.7494 24.7128 14.7597C24.2499 14.829 23.7746 14.8954 23.3001 14.9574C22.7748 15.0259 22.3451 15.398 22.2051 15.9056C22.0084 16.6194 21.7229 17.3083 21.3567 17.9531C21.0963 18.4116 21.1368 18.9791 21.4599 19.399C21.7517 19.7783 22.0409 20.1616 22.3194 20.5381C22.3605 20.5936 22.3537 20.6733 22.3037 20.7234L20.7232 22.3038C20.6731 22.3538 20.5935 22.3605 20.538 22.3196C20.1622 22.0415 19.7788 21.7523 19.3989 21.46C18.979 21.1369 18.4115 21.0964 17.9531 21.3567C17.3083 21.7229 16.6194 22.0084 15.9055 22.2052C15.398 22.3451 15.0259 22.7749 14.9573 23.3002C14.8954 23.7749 14.8289 24.2502 14.7596 24.7129C14.7494 24.7812 14.6883 24.8327 14.6175 24.8327H12.3825C12.3117 24.8327 12.2506 24.7812 12.2404 24.7129C12.1713 24.2507 12.1047 23.7754 12.0427 23.3003C11.9742 22.7749 11.602 22.3452 11.0945 22.2053C10.3805 22.0085 9.69162 21.723 9.04689 21.3567C8.84587 21.2426 8.62384 21.1863 8.40255 21.1863C8.11915 21.1863 7.83688 21.2786 7.60118 21.4601C7.22116 21.7524 6.83785 22.0416 6.46202 22.3197C6.40646 22.3606 6.32691 22.3539 6.27687 22.3039L4.69644 20.7235C4.64635 20.6734 4.63951 20.5938 4.68062 20.5383C4.95899 20.162 5.24815 19.7787 5.54019 19.3991C5.86319 18.9792 5.90372 18.4118 5.64342 17.9534C5.27706 17.3084 4.99166 16.6195 4.79493 15.9058C4.65504 15.3983 4.22525 15.0261 3.69996 14.9575C3.22574 14.8957 2.75039 14.8291 2.28716 14.7599C2.21885 14.7496 2.16739 14.6886 2.16739 14.6178V12.3827C2.16739 12.3119 2.21885 12.2508 2.28716 12.2405C2.75039 12.1713 3.22569 12.1048 3.69986 12.0429C4.2252 11.9744 4.65499 11.6022 4.79488 11.0946C4.99151 10.381 5.27701 9.69206 5.64337 9.04709C5.90372 8.58864 5.86319 8.02116 5.54019 7.60133C5.24893 7.22262 4.95972 6.83942 4.68062 6.46217C4.63961 6.40665 4.64639 6.32696 4.69644 6.27696L6.27677 4.69654C6.32677 4.64644 6.40641 4.63975 6.46193 4.68072C6.83776 4.95875 7.22106 5.24796 7.60109 5.54034C8.02101 5.86329 8.58844 5.90387 9.04694 5.64347C9.69162 5.27725 10.3805 4.99176 11.0944 4.79498C11.602 4.65509 11.9742 4.2253 12.0427 3.69996C12.1048 3.22481 12.1712 2.74952 12.2404 2.28721C12.2506 2.219 12.3117 2.16748 12.3825 2.16748H14.6176C14.6884 2.16748 14.7495 2.21895 14.7597 2.28726C14.8289 2.74942 14.8953 3.22466 14.9574 3.69996C15.0259 4.2253 15.3981 4.65509 15.9056 4.79498C16.6195 4.99176 17.3084 5.27725 17.9532 5.64347C18.4116 5.90372 18.9791 5.86329 19.3989 5.54024C19.7789 5.24791 20.1622 4.9587 20.538 4.68067C20.5935 4.63956 20.6732 4.64635 20.7233 4.69649L22.3037 6.27687C22.3538 6.32696 22.3605 6.4066 22.3195 6.46207C22.0409 6.83873 21.7517 7.22194 21.4599 7.60123C21.1369 8.0212 21.0964 8.58869 21.3568 9.04713C21.723 9.69191 22.0085 10.3808 22.2053 11.0946C22.3452 11.6022 22.775 11.9743 23.3002 12.0428C23.7746 12.1047 24.2499 12.1712 24.713 12.2405C24.7813 12.2507 24.8328 12.3118 24.8328 12.3826V14.6176H24.8326Z" stroke="#00ACBA" stroke-width="0.4" mask="url(#path-1-outside-1_968_476)"/>
<path d="M13.5007 7.97373C10.4533 7.97373 7.97422 10.4528 7.97422 13.5002C7.97422 16.5476 10.4533 19.0267 13.5007 19.0267C16.5481 19.0267 19.0272 16.5476 19.0272 13.5002C19.0272 10.4528 16.5481 7.97373 13.5007 7.97373ZM13.5007 17.6592C11.2074 17.6592 9.34165 15.7934 9.34165 13.5002C9.34165 11.2069 11.2075 9.34116 13.5007 9.34116C15.7939 9.34116 17.6597 11.207 17.6597 13.5002C17.6597 15.7934 15.794 17.6592 13.5007 17.6592Z" fill="#00ACBA" stroke="#00ACBA" stroke-width="0.2"/>
</svg>
