<svg width="16" height="16" viewBox="0 0 16 16" fill="none" xmlns="http://www.w3.org/2000/svg">
<path d="M0.00124993 6.93397C0.725895 6.30807 1.45148 5.68342 2.17456 5.05595C4.09351 3.39043 6.01121 1.72365 7.92985 0.0571842C7.94922 0.0403101 7.97047 0.0256235 8.00359 0C8.19171 0.16249 8.37951 0.324669 8.567 0.487472C11.0278 2.62485 13.4886 4.76253 15.9494 6.8996C15.9647 6.91272 15.9831 6.92241 16 6.93397V6.96522C15.765 7.22833 15.53 7.49144 15.295 7.75486C15.2607 7.79329 15.226 7.83173 15.1785 7.88454C14.9379 7.67611 14.7007 7.47113 14.4338 7.23989V7.45331C14.4338 9.40633 14.4351 11.359 14.4332 13.312C14.4323 14.1685 13.9507 14.8719 13.1783 15.1404C13.0324 15.191 12.8755 15.2369 12.723 15.2388C11.9324 15.2485 11.1415 15.2435 10.3369 15.2435C10.35 15.2185 10.3556 15.1997 10.3675 15.1863C10.6912 14.8126 11.014 14.4382 11.3425 14.0689C11.3771 14.0298 11.4465 14.0036 11.5006 14.0026C11.839 13.9967 12.1774 14.0017 12.5158 13.9992C12.9205 13.9961 13.1836 13.7404 13.1839 13.3355C13.1864 10.9765 13.1864 8.61731 13.1799 6.25838C13.1799 6.18683 13.1161 6.09871 13.057 6.04683C11.7627 4.9169 10.4647 3.79103 9.16728 2.66453C8.7823 2.33018 8.39732 1.99613 8.00203 1.65334C7.91297 1.72927 7.8261 1.80177 7.7408 1.87583C6.14464 3.26168 4.54911 4.64848 2.95076 6.03183C2.8514 6.11777 2.81171 6.2037 2.81202 6.3365C2.8164 8.65387 2.81484 10.9712 2.81546 13.2886C2.81546 13.6605 2.99857 13.922 3.31418 13.9845C3.4248 14.0064 3.54229 13.9986 3.65635 13.9992C3.93758 14.0011 4.21882 13.9979 4.49974 14.0017C4.54692 14.0023 4.61098 14.0132 4.63817 14.0448C4.97846 14.4373 5.31313 14.8341 5.65811 15.2404C5.6078 15.2432 5.55936 15.2485 5.51061 15.2485C4.84409 15.2491 4.17757 15.2497 3.51104 15.2485C2.37486 15.2463 1.56741 14.4373 1.56647 13.2967C1.56491 11.349 1.56616 9.40133 1.56616 7.45363C1.56616 7.39675 1.56616 7.33957 1.56616 7.24239C1.30524 7.46675 1.06806 7.6708 0.823702 7.8811C0.546843 7.57331 0.273421 7.26957 0 6.96584C0 6.95553 0 6.94491 0 6.93459L0.00124993 6.93397Z" fill="white"/>
<path d="M8.00199 6.62988C9.70408 6.63363 11.1981 7.85794 11.5202 9.52253C11.6933 10.4175 11.5562 11.2693 11.1387 12.0802C10.6781 12.9745 10.0459 13.7392 9.34066 14.4435C8.951 14.8325 8.52321 15.1834 8.11542 15.555C8.03762 15.6256 7.98449 15.6381 7.89325 15.5637C6.95299 14.7969 6.09804 13.9482 5.39496 12.9558C4.94967 12.3274 4.57313 11.6596 4.4597 10.8853C4.27596 9.63221 4.5975 8.52602 5.5212 7.63857C6.23241 6.95518 7.09017 6.62832 8.00231 6.63051L8.00199 6.62988ZM7.97856 14.0107C8.01637 13.9879 8.03105 13.9823 8.04168 13.9723C8.71289 13.3439 9.3291 12.6683 9.81939 11.8861C10.1628 11.338 10.3822 10.7568 10.3403 10.0903C10.2425 8.5304 8.67258 7.48983 7.20579 8.02386C5.88837 8.50352 5.28715 10.0103 5.88587 11.3215C6.15898 11.9193 6.53364 12.4495 6.96549 12.9383C7.29172 13.3076 7.64201 13.6557 7.97887 14.011L7.97856 14.0107Z" fill="white"/>
<path d="M8.00823 11.1536C7.49576 11.1571 7.07047 10.739 7.06547 10.2262C7.06047 9.71745 7.48232 9.28935 7.99448 9.28279C8.5007 9.27623 8.93224 9.70214 8.93693 10.2124C8.94161 10.723 8.52008 11.1502 8.00823 11.1536Z" fill="white"/>
</svg>
