<svg width="18" height="21" viewBox="0 0 18 21" fill="none" xmlns="http://www.w3.org/2000/svg">
<path d="M0.913086 20.0283V1.90283C0.990174 1.90283 1.05763 1.90283 1.12508 1.90283C2.15614 1.90283 3.17756 1.90283 4.20862 1.90283C4.33389 1.90283 4.40134 1.87392 4.45916 1.74865C4.77715 1.12231 5.28786 0.785044 5.99129 0.765772C6.7429 0.756136 7.49452 0.756136 8.24613 0.765772C8.94956 0.775408 9.46027 1.11267 9.77826 1.73901C9.83608 1.86428 9.90353 1.89319 10.0288 1.89319C11.0502 1.89319 12.0716 1.89319 13.0931 1.89319C13.1605 1.89319 13.228 1.89319 13.3243 1.89319V20.0283H0.913086ZM2.05014 3.03988V18.8912H12.1873V3.03988H9.94208V4.14803H4.29534V3.03988H2.05014ZM5.42276 3.02061H8.80502C8.80502 2.81825 8.80502 2.63517 8.80502 2.44245C8.79539 2.14373 8.56412 1.90283 8.25577 1.90283C7.49452 1.90283 6.72363 1.90283 5.96238 1.90283C5.6733 1.90283 5.44204 2.13409 5.42276 2.42318C5.41313 2.6159 5.42276 2.80862 5.42276 3.01097V3.02061Z" fill="#00ACBA"/>
<path d="M16.7158 17.6962H15.5884C15.5884 17.5132 15.5787 17.3204 15.5884 17.1374C15.6365 16.5881 15.5305 16.1159 15.1644 15.6534C14.6633 14.9982 14.4609 14.1984 14.4609 13.3793C14.4609 10.3536 14.4609 7.32784 14.4609 4.29248C14.4609 4.25394 14.4609 4.21539 14.4609 4.15758H15.5787V3.03979H16.7061V4.14794H17.8336C17.8336 4.23467 17.8336 4.30212 17.8336 4.37921C17.8336 7.30857 17.8336 10.2476 17.8336 13.1769C17.8336 14.2947 17.4963 15.2776 16.7832 16.1352C16.735 16.193 16.7158 16.2797 16.7061 16.3568C16.7061 16.7905 16.7061 17.2337 16.7061 17.6866L16.7158 17.6962ZM15.598 5.29463C15.598 5.29463 15.598 5.37172 15.598 5.40063C15.598 8.06018 15.598 10.7101 15.598 13.3697C15.598 13.8804 15.7329 14.3622 15.9738 14.8054C16.0316 14.9114 16.0894 14.9982 16.1665 15.1138C16.5616 14.5163 16.735 13.89 16.735 13.2058C16.735 10.633 16.735 8.06018 16.735 5.47772C16.735 5.4199 16.735 5.35245 16.735 5.285H15.6173L15.598 5.29463Z" fill="#FF9626"/>
<path d="M11.0597 13.1963V14.3044H5.44189V13.1963H11.0597Z" fill="#FF9626"/>
<path d="M11.0597 16.5591H5.44189V15.4509H11.0597V16.5591Z" fill="#FF9626"/>
<path d="M7.67814 10.9317H8.23703V12.0399H6.00146V10.9317H6.54108V9.80431H6.00146V8.68652H7.67814V10.9317Z" fill="#FF9626"/>
<path d="M6.57031 7.5304V6.43188H7.67846V7.5304H6.57031Z" fill="#FF9626"/>
<path d="M3.17725 14.3044V13.1963H4.28539V14.3044H3.17725Z" fill="#FF9626"/>
<path d="M4.28552 16.5591H3.18701V15.4509H4.28552V16.5591Z" fill="#FF9626"/>
</svg>
