<svg width="18" height="10" viewBox="0 0 18 10" fill="none" xmlns="http://www.w3.org/2000/svg">
<path d="M18 6.68189H16.3776V9.99245H13.0885V6.68287C13.015 6.67847 12.9637 6.67309 12.9128 6.67309C11.8406 6.67309 10.7684 6.67309 9.69571 6.66967C9.56943 6.66967 9.51518 6.71319 9.46764 6.82857C8.76469 8.53592 7.52157 9.60326 5.73491 9.92351C3.17809 10.3816 0.767225 8.73688 0.144943 6.19834C-0.458132 3.74097 0.870458 1.18239 3.20593 0.312093C5.72579 -0.627145 8.46795 0.620121 9.46476 3.16061C9.50797 3.27013 9.55167 3.32929 9.68707 3.32929C12.4172 3.32375 15.1472 3.32228 17.8771 3.32489C17.9179 3.32489 17.9587 3.31951 17.9995 3.31658L18 6.68189ZM4.90617 6.655C5.12202 6.65929 5.33655 6.61977 5.53724 6.53875C5.73794 6.45773 5.92078 6.33684 6.07511 6.18311C6.22944 6.02938 6.35217 5.84589 6.43614 5.64336C6.5201 5.44083 6.56362 5.2233 6.56417 5.00346C6.56471 4.78362 6.52226 4.56588 6.43929 4.36292C6.35633 4.15996 6.23451 3.97585 6.08094 3.82134C5.92737 3.66682 5.74512 3.54499 5.54482 3.46294C5.34453 3.3809 5.1302 3.34029 4.91432 3.34347C4.01835 3.34005 3.27123 4.08029 3.2818 4.99508C3.28053 5.21293 3.32164 5.42888 3.40275 5.63047C3.48386 5.83206 3.60337 6.01531 3.75438 6.16963C3.9054 6.32395 4.08492 6.44629 4.28261 6.52959C4.48029 6.6129 4.69222 6.65552 4.90617 6.655Z" fill="#00C6C0"/>
</svg>
