<svg width="130" height="497" viewBox="0 0 130 497" fill="none" xmlns="http://www.w3.org/2000/svg">
<path d="M-1093.08 333.683L-974.464 328.135L-880.428 241.407L-1017.63 264.768C-1017.63 264.768 -1017.68 264.768 -1017.71 264.768C-1017.89 264.768 -1018.07 264.653 -1018.14 264.472C-1018.22 264.275 -1018.14 264.029 -1017.96 263.914L-954.153 221.806C-954.038 221.741 -953.906 221.708 -953.791 221.741L-879.23 240.127L-842.499 154.861L-960.294 158.341C-960.392 158.341 -960.474 158.308 -960.556 158.259C-960.573 158.259 -960.589 158.226 -960.622 158.21C-960.639 158.193 -960.671 158.177 -960.688 158.144C-960.704 158.111 -960.688 158.078 -960.704 158.062C-960.704 158.029 -960.753 158.013 -960.753 157.98C-960.753 157.963 -960.753 157.93 -960.753 157.914C-960.753 157.865 -960.753 157.816 -960.737 157.766C-960.737 157.717 -960.704 157.668 -960.671 157.635C-960.671 157.619 -960.671 157.586 -960.638 157.569L-859.28 51.8483C-859.181 51.7498 -859.05 51.7005 -858.902 51.7005L-736.805 59.9579L-445.274 -52.0177L-557.568 -51.2954C-557.667 -51.2954 -557.765 -51.3282 -557.831 -51.3775L-646.316 -113.973C-646.497 -114.104 -646.563 -114.35 -646.464 -114.564C-646.366 -114.777 -646.119 -114.876 -645.906 -114.81L-442.647 -52.9699L-272.44 -60.8825C-272.44 -60.8825 -272.407 -60.8661 -272.391 -60.8661C-272.358 -60.8661 -272.325 -60.8661 -272.293 -60.8661L-111.084 -9.71288L54.2292 2.73067L-121.708 -70.5025C-121.905 -70.5846 -122.02 -70.798 -121.987 -71.0114C-121.954 -71.2248 -121.773 -71.389 -121.543 -71.389L13.4756 -77.4958C13.6562 -77.4958 13.8204 -77.4137 13.9025 -77.2496L57.4967 3.20675C57.4967 3.20675 57.4967 3.22316 57.4967 3.23958C57.4967 3.23958 57.5132 3.256 57.5132 3.27242C57.5132 3.32167 57.5132 3.35449 57.5132 3.40374C57.5132 3.43657 57.5132 3.46941 57.5132 3.51865C57.5132 3.58432 57.4639 3.63358 57.4475 3.68283C57.4475 3.69925 57.4475 3.73207 57.4147 3.7649L-8.16554 69.4958L121.845 81.9394C121.993 81.9394 122.125 82.0379 122.19 82.1528C122.272 82.2677 122.289 82.4154 122.24 82.5632L87.2492 181.636L90.4675 256.97L129.924 326.362C130.022 326.526 130.006 326.739 129.875 326.887C129.776 327.002 129.645 327.051 129.513 327.051C129.464 327.051 129.415 327.051 129.366 327.035L57.1027 302.378L-90.4938 342.335L-179.603 390.156C-179.603 390.156 -179.669 390.156 -179.702 390.172C-179.702 390.172 -179.702 390.188 -179.735 390.188L-261.423 408.903L-367.461 430.31L-414.782 496.287C-414.881 496.418 -415.012 496.484 -415.16 496.484C-415.259 496.484 -415.341 496.451 -415.423 496.402L-517.406 425.007L-635.233 460.713C-635.233 460.713 -635.282 460.713 -635.315 460.713C-635.315 460.713 -635.315 460.713 -635.332 460.713L-742.651 470.858C-742.651 470.858 -742.684 470.858 -742.7 470.858C-742.7 470.858 -742.7 470.858 -742.716 470.858C-742.979 470.858 -743.193 470.645 -743.193 470.398C-743.193 470.218 -743.094 470.07 -742.946 469.988L-698.728 426.633C-698.58 426.485 -698.367 426.452 -698.186 426.551L-635.627 459.597L-604.463 382.144L-742.355 373.181L-753.865 412.186C-753.915 412.334 -754.03 412.465 -754.194 412.498L-855.388 440.997C-855.388 440.997 -855.47 441.013 -855.52 441.013C-855.7 441.013 -855.865 440.915 -855.947 440.734C-856.045 440.521 -855.947 440.275 -855.766 440.143L-743.669 372.705L-875.946 303.428L-974.053 328.988L-1005.53 362.149C-1005.61 362.248 -1005.74 362.297 -1005.87 362.297C-1005.92 362.297 -1005.97 362.297 -1006.02 362.281L-1093.23 334.586C-1093.44 334.521 -1093.57 334.307 -1093.56 334.077C-1093.52 333.848 -1093.34 333.683 -1093.11 333.667L-1093.08 333.683ZM-953.824 222.693L-1015.6 263.471L-881.249 240.603L-953.824 222.709V222.693ZM-643.427 -113.07L-557.42 -52.2311L-445.783 -52.937L-643.427 -113.07ZM-698.318 427.568L-741.436 469.84L-636.99 459.958L-698.318 427.568ZM-878.162 239.946L-783.487 211.874L-755.524 203.584L-841.596 155.041L-878.162 239.963V239.946ZM-530.426 283.926L-565.729 269.545H-565.745L-588.765 277.622L-530.426 283.926ZM-581.836 279.313L-492.185 298.388L-527.274 285.206L-581.82 279.313H-581.836ZM-566.829 268.921L-622.18 236.154L-626.202 233.774L-590.703 277.31L-566.812 268.921H-566.829ZM-528.817 119.664L-607.402 104.282L-580.638 120.222L-575.466 123.308L-528.817 119.664ZM-596.729 148.59L-528.308 120.567L-575.351 124.244L-596.713 148.606L-596.729 148.59ZM-525.5 119.369L-495.042 94.6128L-606.515 103.494L-525.484 119.352L-525.5 119.369ZM-493.416 94.4978L-523.054 118.597L-451.727 94.4486L-493.4 94.5143L-493.416 94.4978ZM-452.646 93.4964L-527.307 74.7162L-493.482 93.5621L-452.663 93.4964H-452.646ZM-453.566 96.0246L-508.408 114.591L-522.742 119.451L-496.635 120.091L-453.566 96.0246ZM-492.086 118.613L-448.837 104.463L-449.33 94.7113L-492.086 118.613ZM-525.156 120.321L-533.3 130.515L-535.007 132.649L-510.591 124.671L-499.262 120.961L-525.172 120.321H-525.156ZM-526.863 120.961L-591.754 147.555L-536.6 133.175L-526.863 120.977V120.961ZM-595.875 149.591L-586.729 150.674L-582.05 151.233L-551.444 139.085L-543.562 135.965L-595.859 149.607L-595.875 149.591ZM-589.11 151.331L-598.092 150.264L-601.901 159.392L-583.823 151.939L-589.11 151.315V151.331ZM-599.241 150.609L-655.544 173.05L-603.1 159.868L-599.225 150.609H-599.241ZM-622.491 165.712L-656.004 174.133L-628.879 171.458L-607.829 162.018L-622.508 165.712H-622.491ZM-661.964 175.66L-663.984 178.779L-671.406 190.238L-638.024 175.479L-631.604 172.639L-661.964 175.644V175.66ZM-663.918 176.973L-703.9 204.996L-672.949 190.944L-663.918 176.973ZM-707.217 207.524L-652.047 236.006L-653.623 232.658L-672.851 191.929L-707.217 207.524ZM-666.299 203.601L-650.766 236.515L-629.174 231.771L-671.176 193.275L-666.299 203.617V203.601ZM-647.088 236.663L-649.863 237.27L-593.199 275.685L-628.37 232.559L-647.088 236.68V236.663ZM-640.914 244.461L-651.062 237.582L-700.403 261.238L-622.82 272.664L-592.788 277.08L-640.931 244.444L-640.914 244.461ZM-659.107 240.406L-652.802 237.385L-776.508 228.882L-716.232 254.82L-701.963 260.959L-659.091 240.406H-659.107ZM-653.229 236.417L-660.881 232.461L-708.317 207.984L-708.728 208.099L-776.574 227.93L-653.229 236.4V236.417ZM-708.399 206.999L-664.904 176.53L-751.829 203.404L-708.399 206.999ZM-722.766 193.439L-662.49 174.806L-644.001 150.543L-748.595 201.434L-722.766 193.439ZM-660.815 174.15L-600.719 150.198L-642.211 149.739L-660.815 174.15ZM-603.757 149.23L-680.24 135.063L-681.898 134.751L-642.359 148.787L-603.757 149.213V149.23ZM-598.519 149.246L-583.905 132.6L-576.648 124.326L-634.79 129.235L-684.098 133.388L-598.502 149.246H-598.519ZM-627.532 127.675L-577.025 123.407L-609.947 103.789L-684.377 132.469L-627.532 127.675ZM-591.639 75.2087L-583.872 63.6188L-654.181 60.6967L-685.757 59.3834L-610.062 102.64L-591.655 75.1923L-591.639 75.2087ZM-608.699 102.312L-582.115 92.298L-532.265 73.5014L-578.224 64.5873L-582.805 63.7008L-608.699 102.312ZM-606.646 102.542L-495.108 93.6442L-530.607 73.8625L-606.646 102.525V102.542ZM-470.511 87.997L-449.297 93.3323L-448.426 56.3956L-525.812 72.8283L-528.505 73.4029L-470.511 87.997ZM-495.994 120.764L-536.124 133.93L-581.754 152.086L-602.443 160.573L-628.715 172.41L-671.964 191.321L-627.877 231.738L-566.024 268.33L-564.776 268.839L-554.76 272.927L-527.044 284.27L-486.339 299.587L-428.591 312.474L-384.505 322.225L-321.42 322.504L-258.746 310.914L-208.453 298.224L-181.771 291.658L-109.869 277.573L-93.1702 253.736L-79.0493 245.594L-65.4866 236.368L-79.1478 221.593L-100.362 198.988L-121.494 180.404L-146.78 153.908L-194.874 116.693L-224.708 89.0312L-285.658 78.2621L-362.387 83.7287L-405.111 94.3665L-448.18 105.07L-495.961 120.764H-495.994ZM-429.084 313.245L-446.686 309.338L-484.944 300.851L-462.203 329.793L-429.084 313.245ZM-459.855 329.678L-387.559 322.471L-427.656 313.573H-427.672C-427.672 313.573 -427.688 313.606 -427.705 313.606L-459.444 329.481L-459.855 329.678ZM-82.5139 103.346L-175.269 91.9369L-159.342 108.764L-82.5139 103.346ZM-154.432 109.355L-37.3433 122.603L-77.7522 103.954L-154.432 109.355ZM-145.877 80.6589L-145.549 79.4933L-198.749 83.4497L-174.349 84.3526L-147.24 85.354L-145.877 80.6589ZM-146.222 85.1898L-91.4954 72.3851L-144.531 79.3948L-145.303 82.0215L-146.222 85.1734V85.1898ZM-382.551 57.0194L-354.243 67.8706L-347.922 70.3002L-404.947 34.4306L-434.683 15.716L-382.551 57.0358V57.0194ZM-382.879 57.8895L-441.021 56.4941L-347.987 71.2688L-378.364 59.6296L-382.895 57.8895H-382.879ZM-445.849 56.6582L-405.144 82.6124L-346.493 72.4343L-445.849 56.6582ZM-405.702 93.4964V83.6959L-445.077 93.4964H-405.702ZM-448.394 94.4322L-447.901 104.233L-408.445 94.4322H-448.394ZM-400.021 82.6781L-362.256 82.9408L-346.05 73.3208L-400.021 82.6781ZM-404.767 83.581V93.5129L-365.852 83.8437L-370.548 83.8108L-404.783 83.581H-404.767ZM-360.187 82.8094L-349.678 82.0543L-291.454 77.8353L-329.187 74.273L-343.521 72.9104L-360.187 82.8094ZM-329.417 73.3044L-286.036 77.4085L-279.271 70.0376L-336.904 72.5985L-329.417 73.3044ZM-284.919 77.589L-234.15 86.6508L-229.93 87.406L-278.023 70.0704L-284.919 77.589ZM-193.38 91.5593L-205.136 85.2391L-147.076 152.365L-157.847 116.496L-159.916 109.584L-193.38 91.5757V91.5593ZM-161.87 107.467L-176.746 91.7563L-203.609 84.9928L-171.082 102.509L-161.87 107.467ZM-203.133 88.9655L-188.7 111.325L-154.334 145.405L-203.149 88.9655H-203.133ZM-189.078 112.26L-193.987 116.364L-171.18 134.127L-151.854 149.164L-189.078 112.26ZM-189.833 111.686L-220.357 92.1011L-194.71 115.757L-194.463 115.544L-189.833 111.669V111.686ZM-208.009 98.9303L-190.605 110.093L-207.336 84.1884L-221.129 88.3089L-223.493 89.0148L-208.009 98.9467V98.9303ZM-221.326 87.3732L-209.077 83.7123L-272.145 71.2031L-224.577 88.3417L-221.326 87.3732ZM-207.632 83.0557L-208.19 71.4822L-208.239 70.3823L-273.261 70.0376L-207.615 83.0557H-207.632ZM-261.193 61.6816L-275.133 68.5601L-140.426 46.201L-253.377 57.8074L-261.193 61.6652V61.6816ZM-230.373 12.1536L-276.414 68.1661L-259.83 59.9743L-253.853 57.0194L-230.373 12.1701V12.1536ZM-272.67 69.1018H-271.701L-207.878 69.4465L-132.101 45.7742L-272.687 69.1018H-272.67ZM-207.32 70.2509L-207.156 73.485L-206.696 82.9079L-131.412 46.5458L-207.303 70.2509H-207.32ZM-201.606 81.4797L-160.064 68.9705L-129.885 46.8413L-201.606 81.4797ZM-202.919 82.8423L-146.321 78.6397L-159.933 69.9062L-202.919 82.8423ZM-155.762 85.9942L-202.722 84.2541L-176.484 90.8534L-151.115 86.1584L-155.762 85.9942ZM-145.615 153.941L-105.895 164.119L-158.537 110.914L-145.615 153.941ZM-101.676 186.774L-118.752 181.767L-104.648 194.276L-100.707 197.773L-101.676 186.774ZM-73.7129 193.652L-103.728 166.221L-100.822 186.052L-73.7129 193.652ZM-103.745 185.198L-142.15 157.651L-120.378 180.322L-103.745 185.198ZM-101.856 185.395L-102.316 182.292L-104.795 165.367L-131.789 158.456L-143.694 155.402L-101.856 185.411V185.395ZM-104.467 164.218L-97.1274 151.791L-142.216 121.453L-155.893 112.26L-104.467 164.218ZM-103.777 164.891L-73.8114 192.273L-76.7013 187.217L-96.5034 152.579L-103.777 164.891ZM-75.7325 187.053L-71.6769 194.145L-45.5367 192.355L-52.2196 187.102L-94.8943 153.514L-75.7161 187.053H-75.7325ZM-72.1695 195.048L-98.5394 187.66L-67.9332 208.132L-23.715 237.697L-55.1915 209.987L-72.1695 195.048ZM-100.69 187.349L-100.198 192.864L-99.6888 198.594L-64.797 216.931L-25.7018 237.484L-87.5711 196.098L-100.674 187.349H-100.69ZM-40.2824 230.885L-97.8991 200.613L-92.2015 206.687L-78.294 221.494L-23.403 239.766L-40.2824 230.901V230.885ZM-69.1647 225.5L-76.9476 222.906L-64.6164 236.039L-22.582 240.997L-69.1647 225.484V225.5ZM-64.9612 237.123L-78.0313 245.938L-44.4202 265.474L-64.9612 237.139V237.123ZM-78.918 246.496L-91.4462 253.621L-45.9637 265.638L-78.9015 246.496H-78.918ZM-92.4806 254.311L-102.513 268.544L-108.621 277.228L-59.0173 269.151L-44.9785 266.869L-92.4806 254.327V254.311ZM-107.373 277.967L-77.5059 285.699L-45.3069 267.854L-107.357 277.967H-107.373ZM-82.6781 285.321L-109.656 278.344L-175.384 291.264L-97.5871 286.864L-80.4614 285.896L-82.6781 285.321ZM-208.387 299.176L-209.29 299.406L-212.328 310.865L-146.009 298.553L-122.052 294.104L-208.404 299.193L-208.387 299.176ZM-127.093 293.464L-182.05 292.577L-203.494 297.962L-127.093 293.464ZM-210.325 299.669L-255.2 310.914L-213.329 310.98L-212.738 308.764L-210.325 299.652V299.669ZM-258.91 311.85L-309.647 321.207L-244.51 314.329L-221.687 311.915L-258.91 311.85ZM-406.392 82.9243L-428.575 68.7899L-447.523 56.7075L-448.361 92.1175L-448.394 93.3815L-406.392 82.9408V82.9243ZM-401.138 56.5269L-384.16 56.9373L-441.333 11.6119L-447.441 55.4106L-401.138 56.5269ZM-384.34 29.6042L-438.312 12.3178L-345.689 70.5957L-375.572 32.7233L-375.901 32.3129L-384.34 29.6042ZM-376.131 31.2622L-380.137 -26.6709L-440.561 10.6105L-376.114 31.2622H-376.131ZM-347.511 66.7871L-343.423 71.9747L-341.337 71.8762L-280.42 69.1675L-341.14 45.7414L-374.21 32.9859L-347.527 66.8035L-347.511 66.7871ZM-354.407 39.6017L-278.302 68.9705L-229.01 9.00171L-346.214 27.6999L-373.832 32.0995L-354.407 39.6017ZM-252.687 56.7896L-127.635 43.952L-227.631 8.93604L-252.687 56.806V56.7896ZM-159.046 69.3645L-148.406 76.1937L-145.073 78.3278L-126.978 45.8235L-159.062 69.3481L-159.046 69.3645ZM-139.638 70.4972L-144.055 78.4099L-83.5319 70.3987L-125.353 44.8385L-139.638 70.4808V70.4972ZM-101.988 75.8161L-146.78 86.3061H-146.797L-173.43 91.2474L-78.1955 102.952L-82.5467 71.2688L-101.988 75.8161ZM-77.2267 103.166L-36.3746 122.012L-81.4794 72.1224L-77.2267 103.166ZM-157.683 109.929L-96.4542 151.118L-59.6905 134.373L-36.2104 123.67L-157.667 109.929H-157.683ZM-77.4073 143.468L-95.6167 151.774L-44.6501 191.879L-35.0774 124.195L-77.3909 143.484L-77.4073 143.468ZM-55.2572 193.964L-70.3797 194.999L13.804 243.656L-27.7871 207.655L-44.4695 193.226L-55.2572 193.964ZM-68.0974 197.395L-55.1751 208.755L-17.9024 241.555L15.6101 245.758L-68.0809 197.379L-68.0974 197.395ZM-63.8447 237.09L-45.586 262.289L-42.6961 266.278L-19.1175 242.376L-63.8447 237.09ZM-42.729 267.526L-74.9936 285.403L-21.0878 277.573L-42.729 267.526ZM-77.4402 286.7L-110.674 292.971L34.2301 300.309L42.9161 300.752L29.8953 299.226L-77.4402 286.7ZM-102.562 290.492L-84.5992 287.11L-169.226 291.904L-114.647 292.774L-102.562 290.492ZM-162.051 302.525L-210.193 311.472L-175.876 316.791L-135.829 301.081L-119.327 294.596L-162.051 302.525ZM-212.853 311.998L-244.231 336.507L-177.994 317.398L-212.853 311.998ZM-215.398 312.802L-311.519 344.781L-246.596 337.18L-215.398 312.802ZM-217.221 312.424L-321.092 323.39L-315.657 345.175L-217.221 312.424ZM-317.365 342.204L-322.044 323.44L-381.795 323.177L-376.656 324.901L-316.658 345.06L-317.365 342.22V342.204ZM-384.357 323.292L-390.301 345.208L-345.803 345.257L-318.859 345.29L-384.357 323.292ZM-385.309 323.226L-459.378 330.614L-391.253 345.126L-385.309 323.226ZM-461.004 331.221L-442.63 350.116L-394.012 345.503L-461.02 331.237L-461.004 331.221ZM-462.613 330.909L-515.14 329.53L-444.354 349.673L-462.613 330.909ZM-486.422 300.654L-526.042 302.985L-541.345 303.888L-463.746 329.53L-486.422 300.67V300.654ZM-489.689 299.915L-587.846 279.034L-543.71 303.083L-489.689 299.915ZM-579.85 284.451L-590.736 278.508L-601.212 293.841L-581.557 297.009L-546.435 302.657L-579.85 284.451ZM-591.705 278.262L-696.676 262.798L-602.213 293.644L-591.705 278.262ZM-647.318 279.904L-702.045 262.026L-738.464 273.698L-607.369 292.938L-647.302 279.904H-647.318ZM-703.391 261.485L-777.658 229.522L-760.647 249.517L-740.385 273.337L-703.391 261.485ZM-777.658 227.339L-730.632 213.598L-710.895 207.836L-714.655 207.524L-754.177 204.257L-777.641 227.355L-777.658 227.339ZM-756.033 204.75L-873.45 239.585L-779.529 227.88L-756.033 204.766V204.75ZM-754.03 202.731L-688.597 133.585L-765.031 117.021L-754.013 202.731H-754.03ZM-765.967 117.136L-840.84 154.45L-791.22 182.424L-754.933 202.895L-760.417 160.229L-765.95 117.136H-765.967ZM-688.154 132.731V104.676L-688.203 59.8759L-764.472 116.184L-688.154 132.731ZM-752.256 202.222L-643.722 149.41L-662.588 142.713L-687.563 133.848L-752.256 202.222ZM-687.218 132.617L-611.08 103.281L-687.267 59.7445L-687.218 132.617ZM-635.529 60.631L-584.332 62.7487L-624.101 25.5822L-685.986 58.5297L-635.529 60.631ZM-583.133 62.601L-525.599 -2.48971L-623.099 25.2374L-583.133 62.601ZM-549.506 25.9597L-582.214 62.9621L-564.563 66.3767L-531.067 72.8776L-528.275 39.7166L-524.762 -1.99722L-549.49 25.9762L-549.506 25.9597ZM-530.147 72.8447L-527.142 72.2045L-449.116 55.6404L-523.809 -2.47328L-530.147 72.8447ZM-450.085 53.7033L-448.394 55.0166L-442.269 11.1358L-509.212 -0.339172L-522.446 -2.60462L-450.085 53.7033ZM-441.842 10.2658L-382.058 -26.6217L-521.396 -3.37618L-441.826 10.2658H-441.842ZM-379.907 -27.935L-284.542 -57.1888L-386.885 -34.009L-508.243 -6.52811L-379.891 -27.935H-379.907ZM-375.26 31.3771L-230.34 8.26298L-310.041 -10.5337L-379.3 -26.8679L-375.26 31.3936V31.3771ZM-330.123 -16.2302L-229.125 7.60632L-255.397 -25.9158L-375.638 -26.9664L-330.123 -16.2302ZM-227.713 7.8854L-186.927 6.30944L-146.928 4.74988L-148.964 4.17531L-253.919 -25.5382L-227.713 7.8854ZM-225.464 8.73904L-126.486 43.4103L-144.268 5.58711L-225.464 8.73904ZM-125.221 43.8864L-84.9439 68.5108L-139.556 10.4956L-142.298 7.57349L-125.221 43.9028V43.8864ZM-82.0213 70.2509L-12.3033 69.4465H-11.2524L-54.1735 48.7948L-141.904 6.62135L-82.0213 70.2509ZM-81.1839 71.1703L-34.6998 122.586L-21.6461 94.9903L-9.98813 70.3495L-81.1839 71.1703ZM-42.2692 181.127L-43.8455 192.323L31.8164 196.919L-34.2564 124.474L-42.2692 181.127ZM-30.9068 126.756L33.0807 196.936L85.4102 181.488L-32.6309 124.884L-30.9232 126.756H-30.9068ZM18.3686 246.152L88.6777 256.461L85.0982 252.718L33.1464 198.347L18.3686 246.152ZM32.3254 197.888L-30.25 194.079L-43.0245 193.308L-21.6625 211.792L17.5313 245.708L32.3254 197.871V197.888ZM-16.8187 242.671L6.25093 264.456L8.8945 260.122L16.9894 246.907L-16.8187 242.655V242.671ZM4.83884 264.407L-18.1651 242.688L-41.6453 266.508L5.2165 264.768L4.83884 264.407ZM-40.8407 267.411L-19.528 277.31L4.14921 265.753L-40.8571 267.427L-40.8407 267.411ZM-19.5608 278.295L-35.6193 280.626L-73.91 286.191L-45.586 289.491L52.226 300.9L-19.5608 278.295ZM-114.434 293.726L-127.734 312.244L26.989 303.231L48.4659 301.984L-114.434 293.726ZM-115.961 294.268L-172.592 316.496L-156.14 314.92L-128.932 312.326L-115.961 294.268ZM-175.63 317.727L-195.99 342.663L-131.428 313.508L-175.63 317.727ZM-177.173 318.137L-244.166 337.459L-197.813 343.402L-177.173 318.137ZM-246.382 338.116L-276.972 352.874L-255.003 350.264L-201.442 343.894L-246.399 338.116H-246.382ZM-249.174 338.428L-313.194 345.93L-312.734 346.029L-279.731 353.186L-249.157 338.428H-249.174ZM-316.051 346.258L-366.952 354.746L-374.16 355.944L-283.524 353.317L-316.035 346.258H-316.051ZM-340.664 349.41L-321.634 346.242L-389.89 346.16L-380.81 356.108L-340.664 349.41ZM-391.138 346.176L-437.934 350.625L-422.303 352.135L-382.14 356.026L-391.138 346.176ZM-442.318 351.134H-442.466L-446.899 370.292L-449.133 379.994L-397.082 361.755L-383.142 356.863L-442.318 351.118V351.134ZM-443.386 350.937L-516.552 330.121L-450.068 379.912L-443.386 350.937ZM-478.212 359.999L-518.883 329.53L-554.613 351.741L-602.18 381.291L-451.169 380.24L-478.212 359.982V359.999ZM-518.653 328.512L-465.585 329.908L-542.15 304.61L-518.653 328.512ZM-536.879 311.308L-544.055 304.003L-566.55 300.375L-598.207 295.286L-520.788 327.659L-536.863 311.308H-536.879ZM-602.049 294.695L-685.642 319.631L-603.576 323.998L-521.51 328.365L-602.049 294.695ZM-604.184 294.35L-739.055 274.568L-688.252 319.434L-604.184 294.35ZM-740.763 274.306L-873.417 242.54L-690.781 318.449L-740.763 274.306ZM-836.719 250.371L-741.83 273.091L-779.497 228.8L-876.405 240.882L-836.719 250.387V250.371ZM-842.039 153.958L-739.301 62.0592L-957.978 157.389L-842.039 153.958ZM-858.836 52.6855L-958.422 156.568L-908.572 134.833L-738.759 60.7952L-858.836 52.6855ZM-792.55 110.931L-838.952 152.431L-817.623 141.793L-765.95 116.036L-763.34 110.963L-738.398 62.486L-792.55 110.931ZM-764.275 114.838L-689.237 59.4326L-736.543 60.9101L-764.275 114.838ZM-687.875 58.464L-628.715 26.9776L-715.493 54.2615L-733.439 59.9087L-687.858 58.4805L-687.875 58.464ZM-722.635 55.5091L-624.216 24.5808L-466.012 -43.0216L-722.635 55.5255V55.5091ZM-617.106 22.5452L-524.4 -3.80302L-466.816 -38.5071L-448.771 -49.3911L-617.106 22.5452ZM-442.63 -52.0013L-491.922 -22.2878L-521.494 -4.45966L-277.678 -59.7005L-442.565 -52.0341L-442.63 -52.0013ZM-272.719 -59.8155L-376.771 -27.9022L-255.922 -26.8515L-272.719 -59.8155ZM-271.554 -59.602L-254.838 -26.8187L-116.059 -10.2546L-271.537 -59.602H-271.554ZM-184.956 -17.5435L-249.321 -25.2263L-143.989 4.60213L-126.551 -3.01503L-112.989 -8.94132L-184.956 -17.527V-17.5435ZM-111.298 -8.67865L-114.467 -7.29968L-142.84 5.11104L-13.0094 67.5423L-99.032 0.842804L-111.298 -8.66225V-8.67865ZM13.2293 -76.5601L-119.409 -70.5517L56.0518 2.48443L13.2293 -76.5601ZM56.0518 3.81415L-109.656 -8.64582L-9.21642 69.2332L56.0518 3.81415ZM-9.0522 70.6942L-33.8624 123.161L84.9833 180.175L53.2112 143.205L-9.08505 70.6942H-9.0522ZM121.156 82.8094L-8.08344 70.4315L86.6089 180.634L121.156 82.8094ZM86.3461 182.177L33.8688 197.658L89.4823 255.87L86.3297 182.177H86.3461ZM128.512 325.754L89.9585 257.939L57.858 301.655L128.512 325.754ZM57.1191 301.097L80.4186 269.348L89.1703 257.43L60.6001 253.244L18.8284 247.12L33.3434 267.591L57.1027 301.097H57.1191ZM17.8432 247.35L7.02266 265.014L55.0995 299.849L17.8596 247.334L17.8432 247.35ZM6.34945 265.687L-18.2144 277.671L54.5084 300.572L6.34945 265.671V265.687ZM52.6365 302.624L-127.356 313.114L-90.5759 341.399L52.6201 302.624H52.6365ZM-128.702 313.262L-195.317 343.353L-92.0208 341.465L-128.702 313.262ZM-179.587 389.088L-92.5955 342.417L-193.182 344.256L-196.893 344.321L-195.826 347.096L-179.587 389.105V389.088ZM-180.457 389.417L-185.088 377.433L-197.747 344.699L-260.06 407.655L-180.457 389.417ZM-261.308 407.59L-198.831 344.469L-279.008 354.007L-261.308 407.59ZM-279.977 354.089L-376.295 356.88L-378.84 356.962L-262.293 407.622L-279.977 354.105V354.089ZM-367.362 429.358L-263.065 408.296L-356.033 367.895L-380.334 357.339L-367.362 429.358ZM-375.408 389.909L-381.303 357.192L-448.64 380.798L-368.38 428.997L-375.408 389.926V389.909ZM-415.275 495.384L-368.627 430.343L-425.685 428.274L-515.78 425.024L-415.292 495.384H-415.275ZM-371.648 429.292L-369.53 429.374L-449.724 381.225L-515.829 424.088L-371.648 429.292ZM-517.356 423.957L-487.111 404.339L-451.333 381.143L-601.819 382.177L-517.356 423.957ZM-634.576 459.531L-518.588 424.384L-603.543 382.358L-634.576 459.514V459.531ZM-603.757 381.159L-520.312 329.3L-574.891 326.395L-686.775 320.436L-678.089 326.789L-603.757 381.143V381.159ZM-605.349 381.159L-688.269 320.518L-716.051 347.49L-741.6 372.295L-605.349 381.159ZM-852.285 439.158L-754.686 411.677L-743.472 373.723L-852.285 439.175V439.158ZM-742.766 372.114L-701.766 332.305L-689.369 320.271L-873.565 303.625L-742.766 372.114ZM-875.42 302.509L-691.323 319.155L-878.474 241.375L-875.42 302.509ZM-876.356 302.575L-879.394 241.67L-972.608 327.642L-876.373 302.575H-876.356ZM-1005.99 361.279L-975.416 329.087L-1090.44 334.455L-1005.99 361.279Z" fill="url(#paint0_linear_707_2189)" fill-opacity="0.5"/>
<defs>
<linearGradient id="paint0_linear_707_2189" x1="-481.785" y1="-114.83" x2="-481.785" y2="496.484" gradientUnits="userSpaceOnUse">
<stop stop-color="#F3893D"/>
<stop offset="0.932292" stop-color="#10C2B7"/>
<stop offset="1" stop-color="#00C6C0"/>
</linearGradient>
</defs>
</svg>
