<svg width="8" height="13" viewBox="0 0 8 13" fill="none" xmlns="http://www.w3.org/2000/svg">
<path d="M6.65898 12.9997C6.41365 12.9263 6.24035 12.7599 6.06462 12.5922C4.13851 10.7512 2.21101 8.9111 0.281069 7.07338C0.0440895 6.8479 -0.0665706 6.59153 0.0416534 6.28303C0.08202 6.1678 0.162057 6.05423 0.252882 5.96755C2.24963 4.0561 4.24917 2.14764 6.25079 0.24051C6.58695 -0.0799463 7.02228 -0.0786171 7.36157 0.235198C7.5206 0.382309 7.68172 0.528756 7.82509 0.689483C8.06659 0.960459 8.05441 1.33604 7.81082 1.60669C7.77324 1.6482 7.73252 1.68738 7.69181 1.72623C6.06497 3.27871 4.43847 4.83151 2.81094 6.38332C2.77335 6.41918 2.72916 6.4484 2.65852 6.5374C2.7055 6.56164 2.76152 6.57725 2.79771 6.61179C4.44161 8.17787 6.08411 9.74529 7.72591 11.3134C8.03214 11.6059 8.09339 12.0091 7.84144 12.2827C7.58463 12.5617 7.34278 12.8682 6.95199 13L6.65933 13L6.65898 12.9997Z" fill="#F3893D"/>
</svg>
