<svg width="24" height="86" viewBox="0 0 24 86" fill="none" xmlns="http://www.w3.org/2000/svg">
<path d="M10.9393 85.0607C11.5251 85.6464 12.4749 85.6464 13.0607 85.0607L22.6066 75.5147C23.1924 74.9289 23.1924 73.9792 22.6066 73.3934C22.0208 72.8076 21.0711 72.8076 20.4853 73.3934L12 81.8787L3.51472 73.3934C2.92894 72.8076 1.97919 72.8076 1.3934 73.3934C0.807615 73.9792 0.807615 74.9289 1.3934 75.5147L10.9393 85.0607ZM10.5 6.5567e-08L10.5 2.625L13.5 2.625L13.5 -6.5567e-08L10.5 6.5567e-08ZM10.5 7.875L10.5 13.125L13.5 13.125L13.5 7.875L10.5 7.875ZM10.5 18.375L10.5 23.625L13.5 23.625L13.5 18.375L10.5 18.375ZM10.5 28.875L10.5 34.125L13.5 34.125L13.5 28.875L10.5 28.875ZM10.5 39.375L10.5 44.625L13.5 44.625L13.5 39.375L10.5 39.375ZM10.5 49.875L10.5 55.125L13.5 55.125L13.5 49.875L10.5 49.875ZM10.5 60.375L10.5 65.625L13.5 65.625L13.5 60.375L10.5 60.375ZM10.5 70.875L10.5 76.125L13.5 76.125L13.5 70.875L10.5 70.875ZM10.5 81.375L10.5 84L13.5 84L13.5 81.375L10.5 81.375Z" fill="#00ACBA"/>
</svg>
