<svg width="13" height="15" viewBox="0 0 13 15" fill="none" xmlns="http://www.w3.org/2000/svg">
<path d="M10.8753 14.8578H2.12859C2.10139 14.8491 2.07491 14.8364 2.04734 14.8317C1.22573 14.6957 0.601458 13.9941 0.597831 13.158C0.5884 11.1564 0.591301 9.15447 0.597831 7.15287C0.599282 6.67732 0.790083 6.27032 1.1336 5.94059C1.46949 5.61848 1.87395 5.46032 2.33789 5.45633C2.67887 5.45343 3.02021 5.45561 3.37388 5.45561C3.37388 5.38814 3.37388 5.3359 3.37388 5.28403C3.37388 4.55891 3.37098 3.83343 3.3746 3.10832C3.38113 1.77307 4.17662 0.638785 5.43025 0.19334C5.68163 0.103744 5.95115 0.0631167 6.21232 0C6.4053 0 6.59864 0 6.79161 0C7.02558 0.0536855 7.2668 0.0863321 7.49206 0.164321C8.83674 0.628628 9.62896 1.75421 9.62933 3.18268C9.62933 3.88386 9.62933 4.58467 9.62933 5.28585V5.4567C9.99896 5.4567 10.3552 5.44436 10.7099 5.45923C11.4053 5.48862 11.9153 5.82197 12.2345 6.44153C12.3629 6.69074 12.4105 6.96062 12.4101 7.24029C12.4094 9.18385 12.4101 11.1278 12.4097 13.0713C12.4097 13.6902 12.1594 14.1824 11.6607 14.547C11.426 14.7185 11.1532 14.7958 10.875 14.8578H10.8753ZM6.49852 13.6971C7.85952 13.6971 9.22088 13.6971 10.5819 13.6971C11.0244 13.6971 11.2519 13.4707 11.2519 13.0293C11.2519 11.1143 11.2519 9.19908 11.2519 7.28418C11.2519 6.84309 11.0244 6.61674 10.5815 6.61674C7.86423 6.61674 5.14695 6.61674 2.4293 6.61674C1.97697 6.61674 1.75207 6.84055 1.75207 7.2918C1.75207 9.20199 1.75207 11.1122 1.75207 13.0224C1.75207 13.4732 1.97697 13.6971 2.42967 13.6971C3.78595 13.6971 5.14224 13.6971 6.49852 13.6971ZM8.4711 5.4498C8.4711 4.67028 8.4711 3.90707 8.4711 3.1435C8.4711 3.07096 8.47255 2.99804 8.46457 2.92622C8.45478 2.83517 8.44063 2.74413 8.42068 2.65489C8.21319 1.7339 7.31759 1.06428 6.30518 1.17274C5.25868 1.28482 4.53755 2.08321 4.53283 3.10215C4.52957 3.84178 4.53211 4.5814 4.53283 5.32103C4.53283 5.36275 4.53791 5.40446 4.54081 5.44944H8.4711V5.4498Z" fill="white"/>
</svg>
