<svg width="243" height="61" viewBox="0 0 243 61" fill="none" xmlns="http://www.w3.org/2000/svg">
<path d="M16.9748 59.9271L21.0598 49.3774H22.7256L26.7709 59.9271H25.0457L22.6264 53.5616C22.6264 53.5616 22.5471 53.3236 22.4479 53.046C22.3686 52.7684 22.2695 52.4709 22.1505 52.1338C22.0315 51.7967 21.9324 51.4992 21.853 51.2216C21.7737 50.944 21.6944 50.7655 21.6746 50.6862H22.0117C21.9522 50.8448 21.8729 51.063 21.7935 51.3207C21.7142 51.5785 21.6151 51.8562 21.5159 52.1536C21.4168 52.4511 21.3176 52.7287 21.2383 52.9667C21.1391 53.2244 21.0797 53.4426 21.0202 53.6012L18.6207 59.9072H16.955L16.9748 59.9271ZM18.7793 57.3095L19.3742 55.7429H24.1732L24.8672 57.3095H18.7793Z" fill="white"/>
<path d="M32.8588 59.9271V49.3774H34.4848V59.9271H32.8588ZM33.5727 55.4454V53.8788H40.4736V55.4454H33.5727ZM39.7597 59.9271V49.3774H41.3858V59.9271H39.7597Z" fill="white"/>
<path d="M43.3489 59.9271L47.434 49.3774H49.0997L53.1451 59.9271H51.4198L49.0006 53.5616C49.0006 53.5616 48.9212 53.3236 48.8221 53.046C48.7428 52.7684 48.6436 52.4709 48.5246 52.1338C48.4056 51.7967 48.3065 51.4992 48.2272 51.2216C48.1479 50.944 48.0685 50.7655 48.0487 50.6862H48.3858C48.3263 50.8448 48.247 51.063 48.1677 51.3207C48.0884 51.5785 47.9892 51.8562 47.8901 52.1536C47.7909 52.4511 47.6918 52.7287 47.6124 52.9667C47.5133 53.2244 47.4538 53.4426 47.3943 53.6012L44.9948 59.9072H43.3291L43.3489 59.9271ZM45.1535 57.3095L45.7484 55.7429H50.5473L51.2414 57.3095H45.1535Z" fill="white"/>
<path d="M55.1083 59.9271V49.3774H59.5899C60.1848 49.3774 60.7401 49.5162 61.2557 49.8136C61.7712 50.1111 62.1678 50.5077 62.4653 51.0233C62.7628 51.5389 62.9214 52.0941 62.9214 52.7287C62.9214 53.3038 62.7628 53.8392 62.4653 54.3349C62.1678 54.8307 61.7712 55.2273 61.2557 55.5248C60.7599 55.8222 60.1848 55.961 59.5899 55.961H56.7344V59.9271H55.1083ZM56.7344 54.3944H59.7486C60.046 54.3944 60.3038 54.3151 60.5219 54.1763C60.7599 54.0375 60.9384 53.8392 61.0574 53.5814C61.1962 53.3236 61.2557 53.046 61.2557 52.7287C61.2557 52.3718 61.1763 52.0743 60.9979 51.7967C60.8392 51.5389 60.6013 51.3207 60.3038 51.1621C60.0063 51.0035 59.6692 50.944 59.3123 50.944H56.7145V54.3944H56.7344ZM61.3746 59.9271L58.6976 55.1678L60.3633 54.791L63.3378 59.9469H61.3548L61.3746 59.9271Z" fill="white"/>
<path d="M65.6382 59.9271V49.3774H70.1198C70.7147 49.3774 71.27 49.5162 71.7856 49.8136C72.3012 50.1111 72.6978 50.5077 72.9952 51.0233C73.2927 51.5389 73.4513 52.0941 73.4513 52.7287C73.4513 53.3038 73.2927 53.8392 72.9952 54.3349C72.6978 54.8307 72.3012 55.2273 71.7856 55.5248C71.2898 55.8222 70.7147 55.961 70.1198 55.961H67.2643V59.9271H65.6382ZM67.2643 54.3944H70.2785C70.5759 54.3944 70.8337 54.3151 71.0519 54.1763C71.2898 54.0375 71.4683 53.8392 71.5873 53.5814C71.7261 53.3236 71.7856 53.046 71.7856 52.7287C71.7856 52.3718 71.7062 52.0743 71.5278 51.7967C71.3691 51.5389 71.1312 51.3207 70.8337 51.1621C70.5363 51.0035 70.1991 50.944 69.8422 50.944H67.2444V54.3944H67.2643ZM71.9045 59.9271L69.2275 55.1678L70.8932 54.791L73.8677 59.9469H71.8847L71.9045 59.9271Z" fill="white"/>
<path d="M80.5704 60.0659C79.8168 60.0659 79.1426 59.9271 78.508 59.6495C77.8734 59.3718 77.338 58.9951 76.8621 58.5191C76.3862 58.0234 76.0292 57.4681 75.7714 56.7939C75.5136 56.1197 75.3947 55.4058 75.3947 54.6324C75.3947 53.859 75.5136 53.1253 75.7714 52.4709C76.0292 51.8165 76.3862 51.2414 76.8621 50.7457C77.338 50.2499 77.8734 49.8731 78.508 49.6154C79.1426 49.3377 79.8168 49.1989 80.5704 49.1989C81.3239 49.1989 81.9981 49.3377 82.6327 49.6154C83.2673 49.893 83.8027 50.2697 84.2786 50.7655C84.7545 51.2613 85.1115 51.8363 85.3693 52.4907C85.6271 53.1451 85.7461 53.859 85.7461 54.6324C85.7461 55.4058 85.6271 56.1197 85.3693 56.7741C85.1115 57.4285 84.7545 58.0036 84.2786 58.4993C83.8027 58.9951 83.2673 59.3718 82.6327 59.6495C81.9981 59.9271 81.3239 60.0659 80.5704 60.0659ZM80.5704 58.4795C81.0859 58.4795 81.5619 58.3803 81.9783 58.2019C82.3947 58.0036 82.7715 57.7458 83.0888 57.3888C83.4061 57.0517 83.644 56.6353 83.8225 56.1593C84.001 55.6834 84.0803 55.1877 84.0803 54.6324C84.0803 54.0772 84.001 53.5616 83.8225 53.1055C83.644 52.6296 83.4061 52.2329 83.0888 51.876C82.7715 51.5389 82.4146 51.2613 81.9783 51.063C81.542 50.8647 81.0859 50.7853 80.5704 50.7853C80.0548 50.7853 79.5788 50.8845 79.1624 51.063C78.746 51.2613 78.3692 51.5191 78.0519 51.8562C77.7346 52.1933 77.4967 52.6097 77.3182 53.0658C77.1397 53.5417 77.0604 54.0573 77.0604 54.6126C77.0604 55.1678 77.1397 55.6834 77.3182 56.1593C77.4967 56.6353 77.7346 57.0319 78.0519 57.3888C78.3692 57.7259 78.746 58.0036 79.1624 58.182C79.5987 58.3803 80.0548 58.4596 80.5704 58.4596V58.4795Z" fill="white"/>
<path d="M90.1483 59.9271L86.797 49.3774H88.5222L90.5647 55.9809C90.6242 56.1395 90.6837 56.3378 90.7234 56.5559C90.763 56.7741 90.8225 56.9922 90.8622 57.2103C90.9019 57.4285 90.9415 57.6466 90.9812 57.8251C91.0208 58.0234 91.0407 58.1622 91.0803 58.301H90.6441C90.8027 57.7458 90.9217 57.3491 91.001 57.0517C91.0803 56.7542 91.1597 56.5361 91.1993 56.3775C91.239 56.2188 91.2985 56.08 91.3381 55.9809L93.2418 51.2216H94.7093L96.5535 55.9809C96.6526 56.2188 96.732 56.4568 96.8113 56.6947C96.8906 56.9327 96.9501 57.1707 97.0096 57.4086C97.0691 57.6466 97.1286 57.8846 97.2079 58.1622L96.8113 58.2613C96.8708 57.9837 96.8906 57.7854 96.9303 57.6268C96.9699 57.4681 96.9699 57.3491 96.9897 57.25C96.9897 57.1508 97.0294 57.0517 97.0492 56.9525C97.0492 56.8534 97.1087 56.7344 97.1484 56.5758C97.1881 56.4171 97.2475 56.2188 97.3467 55.961L99.3495 49.3972H101.095L97.7433 59.9469H96.613L93.8169 53.3434L93.9557 53.4029L91.2786 59.9469H90.188L90.1483 59.9271Z" fill="white"/>
<path d="M111.406 60.0659C110.673 60.0659 109.998 59.9271 109.384 59.6693C108.769 59.4115 108.234 59.0347 107.778 58.539C107.321 58.0432 106.984 57.4681 106.727 56.8138C106.469 56.1594 106.35 55.4256 106.35 54.6324C106.35 53.8392 106.489 53.1848 106.746 52.5304C107.004 51.876 107.381 51.3208 107.857 50.825C108.333 50.3293 108.868 49.9525 109.503 49.6749C110.117 49.3972 110.792 49.2584 111.525 49.2584C112.041 49.2584 112.537 49.3377 113.033 49.4964C113.528 49.655 113.965 49.8732 114.361 50.1508C114.758 50.4284 115.075 50.7457 115.333 51.1026L114.242 52.233C113.945 51.9355 113.647 51.6975 113.35 51.4992C113.052 51.3009 112.755 51.1621 112.438 51.063C112.12 50.9638 111.823 50.9043 111.506 50.9043C111.01 50.9043 110.554 51.0035 110.117 51.182C109.681 51.3604 109.324 51.6182 109.007 51.9553C108.69 52.2925 108.432 52.6891 108.253 53.1452C108.075 53.6012 107.976 54.097 107.976 54.6523C107.976 55.2273 108.055 55.7429 108.234 56.2188C108.412 56.6948 108.65 57.0914 108.987 57.4087C109.304 57.7458 109.701 57.9837 110.137 58.1622C110.593 58.3407 111.089 58.42 111.625 58.42C111.962 58.42 112.279 58.3803 112.596 58.2812C112.914 58.182 113.211 58.0631 113.508 57.8846C113.786 57.7061 114.044 57.5078 114.282 57.2897L115.095 58.6183C114.857 58.8959 114.54 59.1339 114.163 59.352C113.766 59.5702 113.33 59.7486 112.834 59.8676C112.338 59.9866 111.863 60.0659 111.367 60.0659H111.406Z" fill="white"/>
<path d="M121.758 60.0659C121.004 60.0659 120.33 59.9271 119.696 59.6495C119.061 59.3718 118.526 58.9951 118.05 58.5191C117.574 58.0234 117.217 57.4681 116.959 56.7939C116.701 56.1197 116.582 55.4058 116.582 54.6324C116.582 53.859 116.701 53.1253 116.959 52.4709C117.217 51.8165 117.574 51.2414 118.05 50.7457C118.526 50.2499 119.061 49.8731 119.696 49.6154C120.33 49.3377 121.004 49.1989 121.758 49.1989C122.511 49.1989 123.186 49.3377 123.82 49.6154C124.455 49.893 124.99 50.2697 125.466 50.7655C125.942 51.2613 126.299 51.8363 126.557 52.4907C126.815 53.1451 126.934 53.859 126.934 54.6324C126.934 55.4058 126.815 56.1197 126.557 56.7741C126.299 57.4285 125.942 58.0036 125.466 58.4993C124.99 58.9951 124.455 59.3718 123.82 59.6495C123.186 59.9271 122.511 60.0659 121.758 60.0659ZM121.758 58.4795C122.273 58.4795 122.749 58.3803 123.166 58.2019C123.582 58.0036 123.959 57.7458 124.276 57.3888C124.594 57.0517 124.832 56.6353 125.01 56.1593C125.188 55.6834 125.268 55.1877 125.268 54.6324C125.268 54.0772 125.188 53.5616 125.01 53.1055C124.832 52.6296 124.594 52.2329 124.276 51.876C123.959 51.5389 123.602 51.2613 123.166 51.063C122.73 50.8647 122.273 50.7853 121.758 50.7853C121.242 50.7853 120.766 50.8845 120.35 51.063C119.933 51.2613 119.557 51.5191 119.239 51.8562C118.922 52.1933 118.684 52.6097 118.506 53.0658C118.327 53.5417 118.248 54.0573 118.248 54.6126C118.248 55.1678 118.327 55.6834 118.506 56.1593C118.684 56.6353 118.922 57.0319 119.239 57.3888C119.557 57.7259 119.933 58.0036 120.35 58.182C120.786 58.3803 121.242 58.4596 121.758 58.4596V58.4795Z" fill="white"/>
<path d="M129.333 59.9271V49.3774H130.939L134.786 55.6239H134.013L137.9 49.3774H139.407V59.9271H137.781V55.6041C137.781 54.6919 137.801 53.8788 137.84 53.165C137.88 52.4511 137.959 51.7174 138.078 51.0035L138.296 51.5587L134.846 56.8931H133.854L130.503 51.6182L130.662 51.0035C130.781 51.6777 130.84 52.3718 130.9 53.0658C130.939 53.7797 130.959 54.6126 130.959 55.5843V59.9072H129.333V59.9271Z" fill="white"/>
<path d="M142.52 59.9271V49.3774H146.823C147.398 49.3774 147.914 49.5162 148.39 49.8136C148.866 50.0913 149.223 50.4879 149.52 50.9836C149.798 51.4794 149.937 52.0148 149.937 52.6295C149.937 53.2443 149.798 53.7797 149.52 54.2755C149.243 54.7712 148.866 55.1678 148.39 55.4653C147.914 55.7627 147.398 55.9015 146.823 55.9015H144.146V59.9469H142.52V59.9271ZM144.146 54.3151H146.784C147.061 54.3151 147.299 54.2358 147.517 54.0772C147.735 53.9185 147.914 53.7202 148.053 53.4624C148.192 53.2046 148.251 52.927 148.251 52.6097C148.251 52.2924 148.192 52.0148 148.053 51.757C147.914 51.4992 147.735 51.3009 147.517 51.1621C147.299 51.0035 147.041 50.944 146.784 50.944H144.146V54.3151Z" fill="white"/>
<path d="M150.333 59.9271L154.418 49.3774H156.084L160.129 59.9271H158.404L155.985 53.5616C155.985 53.5616 155.906 53.3236 155.806 53.046C155.727 52.7684 155.628 52.4709 155.509 52.1338C155.39 51.7967 155.291 51.4992 155.212 51.2216C155.132 50.944 155.053 50.7655 155.033 50.6862H155.37C155.311 50.8448 155.231 51.063 155.152 51.3207C155.073 51.5785 154.974 51.8562 154.874 52.1536C154.775 52.4511 154.676 52.7287 154.597 52.9667C154.498 53.2244 154.438 53.4426 154.379 53.6012L151.979 59.9072H150.313L150.333 59.9271ZM152.138 57.3095L152.733 55.7429H157.532L158.226 57.3095H152.138Z" fill="white"/>
<path d="M162.093 59.927V49.3773H163.56L170.005 58.0035L169.767 58.1423C169.727 57.8845 169.688 57.6267 169.668 57.3293C169.648 57.0318 169.608 56.7145 169.588 56.3774C169.569 56.0403 169.549 55.6834 169.529 55.3066C169.529 54.9298 169.509 54.5332 169.489 54.1168C169.489 53.7003 169.489 53.2839 169.489 52.8278V49.3575H171.115V59.9072H169.628L163.282 51.5785L163.441 51.3604C163.481 51.9751 163.54 52.4907 163.56 52.927C163.6 53.3632 163.619 53.7202 163.639 54.0176C163.659 54.3151 163.679 54.553 163.699 54.7315C163.699 54.91 163.699 55.0686 163.719 55.1876C163.719 55.3066 163.719 55.4057 163.719 55.5049V59.8874H162.093V59.927Z" fill="white"/>
<path d="M177.104 59.9271V54.6721L177.203 55.4058L172.94 49.3774H174.903L178.155 54.0573L177.778 54.0177L180.713 49.3972H182.577L178.492 55.5843L178.71 54.5531V59.9271H177.084H177.104Z" fill="white"/>
<path d="M78.0122 3.54962C76.9216 2.41929 75.6921 1.54676 74.304 0.951853C72.9159 0.356945 71.4881 0.0594908 70.0405 0.0594908C67.9385 0.0594908 66.1934 0.475926 64.8053 1.32863C63.4172 2.18133 62.2472 3.27199 61.2953 4.60062L61.2358 3.56945C61.1565 2.5581 60.9186 1.74506 60.4823 1.15016C60.046 0.555247 59.2528 0.257793 58.1027 0.257793C57.6069 0.257793 57.131 0.297454 56.7145 0.396605C56.2981 0.475926 55.8817 0.575078 55.4851 0.694059V36.8645C55.7825 36.9438 56.199 37.0033 56.7542 37.0628C57.3095 37.1024 57.8647 37.1421 58.4001 37.1421C59.5503 37.1421 60.3435 36.9041 60.7599 36.4282C61.1764 35.9523 61.3747 35.3574 61.3747 34.6435V23.36C62.2075 24.3317 63.318 25.2241 64.6863 25.9975C66.0546 26.7709 67.7203 27.1675 69.6637 27.1675C71.032 27.1675 72.4399 26.8898 73.8677 26.3544C75.2955 25.819 76.5845 24.9861 77.7148 23.8558C78.8451 22.7255 79.7771 21.3175 80.5109 19.632C81.2247 17.9266 81.6015 15.9039 81.6015 13.5639C81.6015 11.4024 81.2644 9.47887 80.5902 7.79329C79.9159 6.10772 79.0434 4.69977 77.9528 3.56945L78.0122 3.54962ZM75.0377 17.1928C74.6808 18.2438 74.1652 19.1362 73.5108 19.9096C72.8564 20.6631 72.0632 21.258 71.1311 21.6745C70.1991 22.0909 69.168 22.2892 68.0376 22.2892C66.5305 22.2892 65.1821 21.9323 64.0319 21.2382C62.8619 20.5243 62.0092 19.6518 61.4341 18.6008V8.8443C62.1282 7.57516 63.0602 6.62331 64.2897 5.98874C65.4993 5.35417 66.7685 5.03689 68.0574 5.03689C69.3464 5.03689 70.4173 5.27485 71.3691 5.77061C72.3011 6.26636 73.0943 6.90093 73.7289 7.71397C74.3635 8.52701 74.8394 9.43921 75.1369 10.4704C75.4541 11.5016 75.5929 12.5724 75.5929 13.7027C75.5929 14.9718 75.4145 16.122 75.0575 17.173L75.0377 17.1928ZM41.3064 0C39.5812 0 38.0344 0.436266 36.6661 1.32863C35.3177 2.22099 34.108 3.52979 33.057 5.25502C32.4423 3.50996 31.4508 2.20116 30.0428 1.32863C28.6547 0.436266 27.0683 0 25.3034 0C23.7963 0 22.3884 0.396605 21.0796 1.20965C19.7708 2.02269 18.7396 3.03403 17.986 4.22385L17.9266 3.56945C17.9266 2.5581 17.6886 1.74506 17.1928 1.15016C16.6971 0.555247 15.884 0.257793 14.7735 0.257793C14.258 0.257793 13.8019 0.297454 13.3854 0.396605C12.969 0.495757 12.5724 0.594908 12.1758 0.694059V26.7312C12.4534 26.8105 12.8897 26.87 13.4449 26.9295C14.0002 26.989 14.5554 27.0088 15.1107 27.0088C16.2608 27.0088 17.054 26.7709 17.4705 26.3148C17.8869 25.8388 18.105 25.2439 18.105 24.53V8.44769C18.581 7.55533 19.275 6.76212 20.1872 6.08789C21.0994 5.41366 22.1504 5.09638 23.3006 5.09638C24.8077 5.09638 25.9776 5.55247 26.7907 6.4845C27.6037 7.41652 28.0202 8.74514 28.0202 10.5299V26.7312C28.3176 26.8105 28.734 26.87 29.2893 26.9295C29.8445 26.989 30.3998 27.0088 30.9352 27.0088C32.0854 27.0088 32.8786 26.7709 33.295 26.3148C33.7114 25.8388 33.9097 25.2439 33.9097 24.53V8.50718C34.3857 7.57516 35.0599 6.76212 35.9721 6.08789C36.8645 5.41366 37.9749 5.09638 39.2837 5.09638C40.652 5.09638 41.7625 5.53264 42.5954 6.425C43.4283 7.31737 43.8447 8.66582 43.8447 10.5299V26.7312C44.1422 26.8105 44.5586 26.87 45.1138 26.9295C45.6691 26.989 46.2243 27.0088 46.7598 27.0088C47.9099 27.0088 48.7031 26.7709 49.1196 26.3148C49.536 25.8388 49.7343 25.2439 49.7343 24.53V9.91513C49.7343 6.84144 49.0402 4.42215 47.6521 2.65726C46.264 0.892362 44.1422 0 41.2866 0L41.3064 0ZM2.97454 0.277624C1.86404 0.277624 1.09066 0.515587 0.654399 0.971683C0.218133 1.42778 0 2.04252 0 2.75641V26.7312C0.277624 26.8105 0.713889 26.87 1.24931 26.9295C1.78472 26.989 2.33997 27.0088 2.87539 27.0088C4.02554 27.0088 4.81875 26.7709 5.25502 26.3148C5.69128 25.8388 5.90942 25.2439 5.90942 24.53V0.535417C5.61196 0.456096 5.19553 0.396605 4.66011 0.337114C4.12469 0.277624 3.54962 0.257793 2.97454 0.257793V0.277624ZM147.24 0C145.495 0 143.948 0.436266 142.599 1.32863C141.251 2.22099 140.041 3.52979 138.99 5.25502C138.376 3.50996 137.364 2.20116 135.976 1.32863C134.588 0.436266 133.002 0 131.237 0C129.73 0 128.302 0.396605 127.013 1.20965C125.704 2.02269 124.673 3.03403 123.919 4.22385L123.86 3.56945C123.86 2.5581 123.622 1.74506 123.126 1.15016C122.63 0.555247 121.837 0.257793 120.727 0.257793C120.211 0.257793 119.755 0.297454 119.339 0.396605C118.922 0.495757 118.506 0.594908 118.109 0.694059V26.7312C118.406 26.8105 118.823 26.87 119.378 26.9295C119.933 26.989 120.489 27.0088 121.024 27.0088C122.174 27.0088 122.967 26.7709 123.384 26.3148C123.8 25.8388 123.999 25.2439 123.999 24.53V8.44769C124.475 7.55533 125.169 6.76212 126.081 6.08789C126.993 5.41366 128.044 5.09638 129.194 5.09638C130.701 5.09638 131.871 5.55247 132.684 6.4845C133.497 7.41652 133.894 8.74514 133.894 10.5299V26.7312C134.191 26.8105 134.608 26.87 135.163 26.9295C135.718 26.989 136.274 27.0088 136.809 27.0088C137.959 27.0088 138.752 26.7709 139.169 26.3148C139.585 25.8388 139.783 25.2439 139.783 24.53V8.50718C140.259 7.57516 140.934 6.76212 141.846 6.08789C142.738 5.41366 143.849 5.09638 145.158 5.09638C146.526 5.09638 147.636 5.53264 148.469 6.425C149.302 7.31737 149.718 8.66582 149.718 10.5299V26.7312C150.016 26.8105 150.432 26.87 150.988 26.9295C151.543 26.989 152.098 27.0088 152.653 27.0088C153.804 27.0088 154.597 26.7709 155.013 26.3148C155.43 25.8388 155.628 25.2439 155.628 24.53V9.91513C155.628 6.84144 154.934 4.42215 153.546 2.65726C152.158 0.892362 150.036 0 147.18 0L147.24 0ZM101.174 0.237963C100.718 0.178472 100.222 0.158642 99.6867 0.158642C98.0606 0.158642 96.6329 0.594908 95.4034 1.48727C94.1739 2.37963 93.2022 3.70826 92.4685 5.47315H92.3495V3.56945C92.3495 2.5581 92.1116 1.74506 91.6158 1.15016C91.12 0.555247 90.3268 0.257793 89.1965 0.257793C88.6809 0.257793 88.2248 0.297454 87.8084 0.396605C87.392 0.495757 86.9953 0.594908 86.5987 0.694059V26.7312C86.8764 26.8105 87.3126 26.87 87.8679 26.9295C88.4231 26.989 88.9784 27.0088 89.5138 27.0088C90.6639 27.0088 91.4572 26.7709 91.8736 26.3148C92.29 25.8388 92.4883 25.2439 92.4883 24.53V11.5412C92.4883 9.47887 93.0634 7.97177 94.1937 6.98025C95.3439 6.00857 96.851 5.51281 98.7349 5.51281H99.7065C101.729 5.51281 102.741 4.50147 102.741 2.47878C102.741 1.86404 102.641 1.16999 102.423 0.416435C102.027 0.356945 101.61 0.277624 101.154 0.237963H101.174ZM164.413 0.257793C163.302 0.257793 162.509 0.495757 162.073 0.971683C161.636 1.44761 161.418 2.04252 161.418 2.75641V26.7312C161.716 26.8105 162.132 26.87 162.668 26.9295C163.203 26.989 163.758 27.0088 164.294 27.0088C165.444 27.0088 166.237 26.7709 166.673 26.3148C167.11 25.8388 167.328 25.2439 167.328 24.53V0.535417C167.05 0.456096 166.634 0.396605 166.078 0.337114C165.543 0.277624 164.968 0.257793 164.393 0.257793H164.413ZM192.314 14.4166C191.104 13.1871 189.022 12.156 186.048 11.3231L181.982 10.1928C181.149 9.97462 180.495 9.77632 179.999 9.57802C179.504 9.37971 179.127 9.16158 178.849 8.94345C178.591 8.72532 178.393 8.48735 178.314 8.22956C178.215 7.97177 178.175 7.69414 178.175 7.35703C178.175 6.60348 178.532 6.00857 179.226 5.5723C179.94 5.13604 181.149 4.9179 182.895 4.9179C184.778 4.9179 186.325 5.11621 187.535 5.49298C188.744 5.86976 189.756 6.06806 190.549 6.06806C191.342 6.06806 191.937 5.77061 192.314 5.1757C192.691 4.58079 192.889 3.76775 192.889 2.71675C192.889 2.57793 192.889 2.43912 192.849 2.32014C192.849 2.20116 192.829 2.04252 192.829 1.86404C189.359 0.713889 186.048 0.138812 182.914 0.138812C180.991 0.138812 179.365 0.337114 178.036 0.75355C176.707 1.16999 175.617 1.72523 174.764 2.39946C173.911 3.07369 173.297 3.88673 172.9 4.77909C172.503 5.67145 172.305 6.62331 172.305 7.59499C172.305 9.39954 172.88 10.9066 174.05 12.1163C175.2 13.3259 177.243 14.3571 180.178 15.19L184.025 16.2806C185.572 16.7169 186.662 17.1333 187.277 17.5498C187.892 17.9662 188.209 18.581 188.209 19.3742C188.209 19.7708 188.15 20.1475 188.011 20.4847C187.892 20.8218 187.634 21.1391 187.277 21.4167C186.92 21.6943 186.404 21.9124 185.73 22.0711C185.056 22.2297 184.183 22.309 183.093 22.309C182.121 22.309 181.189 22.2297 180.336 22.0909C179.464 21.9521 178.671 21.7736 177.977 21.5753C177.283 21.377 176.628 21.1985 176.033 21.0597C175.438 20.9209 174.923 20.8416 174.486 20.8416C173.773 20.8416 173.197 21.1391 172.801 21.7141C172.404 22.2892 172.206 23.0428 172.206 23.9946C172.206 24.1731 172.206 24.3714 172.226 24.5697C172.246 24.768 172.265 24.9663 172.305 25.1448C174.05 25.7595 175.835 26.2354 177.699 26.5725C179.563 26.9097 181.368 27.0881 183.093 27.0881C185.254 27.0881 187.059 26.8502 188.487 26.3941C189.914 25.9182 191.045 25.3232 191.878 24.5697C192.71 23.836 193.286 22.9833 193.643 22.0314C193.98 21.0796 194.158 20.1079 194.158 19.1164C194.158 17.2325 193.543 15.6857 192.334 14.4563L192.314 14.4166ZM108.908 0.277624C107.797 0.277624 107.004 0.515587 106.588 0.991513C106.151 1.46744 105.933 2.06235 105.933 2.77624V26.7312C106.231 26.8105 106.627 26.87 107.183 26.9295C107.718 26.989 108.273 27.0088 108.809 27.0088C109.959 27.0088 110.752 26.7709 111.188 26.3148C111.625 25.8388 111.843 25.2439 111.843 24.53V0.535417C111.545 0.456096 111.129 0.396605 110.593 0.337114C110.058 0.277624 109.483 0.257793 108.908 0.257793V0.277624Z" fill="white"/>
<path d="M0 33.2158H50.9439V32.1648H0V33.2158ZM65.3804 32.1648V33.2158H197.133V32.1648H65.3804Z" fill="#00C6C0"/>
<path d="M223.884 38.6492L230.884 29.8049L230.963 29.686H226.779L221.544 36.2299L213.275 27.6236C217.935 27.3063 221.207 24.0938 221.306 19.7708C221.345 17.649 220.532 15.6263 219.005 14.0795C217.379 12.4138 215.099 11.4619 212.759 11.4619H204.549V38.2725H208.059V27.0089L219.382 38.9665L212.164 48.0091L212.085 48.1281H216.269L221.663 41.366L227.81 47.8505H232.748L223.884 38.6492ZM208.059 24.7086V14.5753H212.243C215.694 14.5753 217.816 16.5187 217.816 19.6717C217.816 23.0032 215.436 24.768 210.935 24.768C209.011 24.768 208.495 24.768 208.059 24.7284V24.7086Z" fill="#00C6C0"/>
<path d="M239.014 27.0485C241.255 27.0485 243 28.7936 243 30.9551C243 33.1166 241.255 34.9013 238.994 34.9013C236.734 34.9013 234.969 33.176 234.969 30.9551C234.969 28.7341 236.753 27.0485 238.994 27.0485H239.014ZM238.974 27.8417C237.249 27.8417 235.96 29.2497 235.96 30.9749C235.96 32.7001 237.249 34.1081 239.014 34.1081C240.739 34.1279 241.989 32.7199 241.989 30.9749C241.989 29.2298 240.72 27.8417 238.974 27.8417H238.955H238.974ZM238.38 32.9976H237.467V29.1108C237.824 29.0315 238.32 28.972 238.974 28.972C239.708 28.972 240.045 29.091 240.323 29.2893C240.541 29.448 240.7 29.7652 240.7 30.1222C240.7 30.5783 240.363 30.9154 239.887 31.0542V31.1137C240.263 31.2327 240.482 31.55 240.601 32.0655C240.72 32.6605 240.799 32.8984 240.898 33.0174H239.906C239.788 32.8786 239.708 32.5415 239.589 32.0854C239.51 31.6491 239.272 31.4706 238.776 31.4706H238.34V33.0174L238.38 32.9976ZM238.399 30.7964H238.836C239.331 30.7964 239.748 30.6378 239.748 30.2213C239.748 29.8644 239.49 29.6264 238.915 29.6264C238.677 29.6264 238.518 29.6463 238.419 29.6661V30.7964H238.399Z" fill="#00C6C0"/>
</svg>
