<svg width="27" height="20" viewBox="0 0 27 20" fill="none" xmlns="http://www.w3.org/2000/svg">
<path d="M26.7588 10.2145C26.5419 10.5118 26.3576 10.8407 26.1041 11.1004C25.0217 12.2092 23.9199 13.2998 22.8203 14.3923C22.2592 14.9503 21.4813 14.9544 20.9946 14.4127C20.5801 13.9524 20.5628 13.2702 20.9946 12.7978C21.4283 12.3222 21.8957 11.8773 22.3529 11.4231C22.4201 11.357 22.5117 11.3152 22.5912 11.2612C22.5728 11.2287 22.5555 11.1961 22.5372 11.1635C22.4384 11.1635 22.3407 11.1635 22.2419 11.1635C17.723 11.1635 13.203 11.1604 8.68409 11.1676C8.13118 11.1676 7.6913 10.9975 7.43064 10.4925C7.0376 9.73186 7.5681 8.80322 8.4224 8.74722C8.54357 8.73908 8.66576 8.74009 8.78795 8.74009C13.2723 8.74009 17.7566 8.7401 22.2419 8.7401L22.5912 8.7401C22.4914 8.63216 22.4313 8.56598 22.3692 8.50183C21.8987 8.02428 21.4141 7.55996 20.962 7.06612C20.6239 6.69751 20.5862 6.1609 20.8306 5.72714C21.0852 5.27504 21.4884 5.03168 21.9985 5.11009C22.2724 5.15183 22.5769 5.29133 22.7744 5.48378C23.9984 6.67206 25.2009 7.88376 26.3983 9.10055C26.5562 9.26041 26.6397 9.49257 26.7578 9.69113C26.7578 9.86525 26.7578 10.0394 26.7578 10.2135L26.7588 10.2145Z" fill="#00ACBA"/>
<path d="M-1.00408e-06 9.56481C0.129316 6.30849 1.6475 3.41976 4.76738 1.48919C9.28529 -1.30791 15.1116 -0.0524238 18.1409 4.31072C18.5604 4.91453 18.4616 5.64359 17.9047 6.04885C17.3456 6.45716 16.6095 6.34413 16.1818 5.74134C15.2919 4.48585 14.1555 3.55315 12.7279 2.97072C9.66306 1.72033 5.97093 2.74467 3.98741 5.38801C2.81135 6.95406 2.26863 8.71662 2.47431 10.6533C2.76349 13.3669 4.12487 15.44 6.58187 16.6436C9.52559 18.0844 12.3298 17.6944 14.8632 15.6192C15.3743 15.2007 15.7725 14.6407 16.1991 14.1265C16.6013 13.6418 17.1776 13.4708 17.7102 13.7202C18.4016 14.044 18.652 14.8994 18.1735 15.5276C17.6796 16.1752 17.1583 16.8187 16.5616 17.3686C15.0617 18.7493 13.2656 19.5649 11.2423 19.8134C8.65704 20.131 6.27946 19.5456 4.15338 18.0213C2.37758 16.7474 1.16181 15.0551 0.477551 12.984C0.153752 12.0025 0.0142525 10.9863 0.00101561 9.56481L-1.00408e-06 9.56481Z" fill="#00ACBA"/>
</svg>
