<svg width="18" height="21" viewBox="0 0 18 21" fill="none" xmlns="http://www.w3.org/2000/svg">
<path d="M0.914062 20.0282V1.90277C0.991151 1.90277 1.0586 1.90277 1.12606 1.90277C2.15711 1.90277 3.17854 1.90277 4.2096 1.90277C4.33487 1.90277 4.40232 1.87387 4.46013 1.7486C4.77812 1.12225 5.28884 0.784991 5.99227 0.765719C6.74388 0.756082 7.49549 0.756082 8.24711 0.765719C8.95054 0.775355 9.46125 1.11262 9.77924 1.73896C9.83706 1.86423 9.90451 1.89314 10.0298 1.89314C11.0512 1.89314 12.0726 1.89314 13.094 1.89314C13.1615 1.89314 13.229 1.89314 13.3253 1.89314V20.0282H0.914062ZM2.05112 3.03983V18.8912H12.1883V3.03983H9.94305V4.14798H4.29632V3.03983H2.05112ZM5.42374 3.02056H8.806C8.806 2.8182 8.806 2.63512 8.806 2.44239C8.79636 2.14368 8.5651 1.90277 8.25674 1.90277C7.49549 1.90277 6.72461 1.90277 5.96336 1.90277C5.67428 1.90277 5.44301 2.13404 5.42374 2.42312C5.4141 2.61584 5.42374 2.80856 5.42374 3.01092V3.02056Z" fill="#00ACBA"/>
<path d="M16.7168 17.6962H15.5893C15.5893 17.5131 15.5797 17.3204 15.5893 17.1373C15.6375 16.5881 15.5315 16.1159 15.1653 15.6534C14.6643 14.9981 14.4619 14.1983 14.4619 13.3793C14.4619 10.3535 14.4619 7.32782 14.4619 4.29246C14.4619 4.25392 14.4619 4.21537 14.4619 4.15756H15.5797V3.03977H16.7071V4.14792H17.8345C17.8345 4.23464 17.8345 4.3021 17.8345 4.37919C17.8345 7.30855 17.8345 10.2475 17.8345 13.1769C17.8345 14.2947 17.4973 15.2776 16.7842 16.1352C16.736 16.193 16.7168 16.2797 16.7071 16.3568C16.7071 16.7904 16.7071 17.2337 16.7071 17.6866L16.7168 17.6962ZM15.599 5.29461C15.599 5.29461 15.599 5.3717 15.599 5.40061C15.599 8.06016 15.599 10.7101 15.599 13.3696C15.599 13.8803 15.7339 14.3621 15.9748 14.8054C16.0326 14.9114 16.0904 14.9981 16.1675 15.1138C16.5626 14.5163 16.736 13.89 16.736 13.2058C16.736 10.633 16.736 8.06016 16.736 5.4777C16.736 5.41988 16.736 5.35243 16.736 5.28498H15.6182L15.599 5.29461Z" fill="#FF9626"/>
<path d="M11.0602 13.1961V14.3043H5.44238V13.1961H11.0602Z" fill="#FF9626"/>
<path d="M11.0602 16.5591H5.44238V15.451H11.0602V16.5591Z" fill="#FF9626"/>
<path d="M7.6796 10.9316H8.2385V12.0397H6.00293V10.9316H6.54255V9.80416H6.00293V8.68638H7.6796V10.9316Z" fill="#FF9626"/>
<path d="M6.57129 7.53026V6.43175H7.67944V7.53026H6.57129Z" fill="#FF9626"/>
<path d="M3.17871 14.3043V13.1961H4.28686V14.3043H3.17871Z" fill="#FF9626"/>
<path d="M4.28699 16.5591H3.18848V15.451H4.28699V16.5591Z" fill="#FF9626"/>
</svg>
