<svg width="165" height="190" viewBox="0 0 165 190" fill="none" xmlns="http://www.w3.org/2000/svg">
<path d="M9.82738 189.603C9.55534 189.479 9.28825 189.326 9.00632 189.242C3.63973 187.728 0.320859 183.672 0.0735513 178.103C-0.0550488 175.21 0.0240897 172.301 0.0240897 169.403C0.0240897 157.863 0.0141974 146.324 0.0290359 134.78C0.0290359 132.01 1.2359 130.457 3.38748 130.294C5.41046 130.14 7.01301 131.372 7.31968 133.375C7.43344 134.102 7.42355 134.849 7.42355 135.591C7.42849 149.104 7.42354 162.622 7.42849 176.135C7.42849 180.838 8.78869 182.189 13.4826 182.189C46.0085 182.189 78.5394 182.189 111.065 182.189H113.38C103.849 172.87 100.199 161.939 104.062 149.356C107.915 136.813 117.03 129.843 129.886 127.514V52.7377H7.57193C7.52247 53.5538 7.43344 54.3205 7.43344 55.0871C7.42354 69.8959 7.43344 84.7097 7.42355 99.5185C7.42355 100.32 7.43344 101.131 7.31968 101.917C7.04764 103.752 5.53906 105.043 3.75349 105.063C1.98277 105.083 0.429675 103.787 0.137851 101.982C0.0290359 101.319 0.0240897 100.631 0.0240897 99.9537C0.0191436 75.8214 0.00925126 51.6941 0.0240897 27.5617C0.0240897 19.4154 4.88122 14.6127 13.077 14.5781C15.1099 14.5682 17.1378 14.5781 19.4378 14.5781C19.4378 13.2278 19.418 12.016 19.4378 10.8042C19.5416 5.03694 23.9536 0.357867 29.5725 0.0314209C35.4485 -0.309864 40.3699 3.83502 41.0525 9.76546C41.2256 11.279 41.2058 12.8172 41.28 14.4544H57.8892C57.8892 13.0794 57.8398 11.7439 57.8991 10.4134C58.1415 4.9578 62.2913 0.575498 67.6579 0.0512055C73.0739 -0.478034 78.1883 3.1475 79.2913 8.50419C79.682 10.4035 79.588 12.4067 79.7166 14.4643H96.1379C96.217 12.8222 96.2071 11.2295 96.3901 9.6616C97.0183 4.27523 101.376 0.224321 106.668 0.0264747C112.094 -0.176318 116.862 3.5333 117.817 8.88999C118.138 10.6805 118.03 12.5452 118.124 14.5781C120.186 14.5781 122.145 14.5781 124.103 14.5781C132.645 14.5979 137.423 19.3462 137.423 27.8585C137.423 60.3202 137.438 92.7818 137.384 125.243C137.384 127.029 137.804 127.702 139.669 128.073C154.626 131.07 165.147 144.093 164.796 158.961C164.43 174.468 153.469 186.892 138.057 189.281C137.77 189.326 137.508 189.494 137.231 189.608H9.82738V189.603ZM68.5927 45.0563C87.1705 45.0563 105.748 45.0563 124.326 45.0563C125.686 45.0563 127.041 45.0217 128.402 45.0662C129.341 45.0959 129.737 44.7398 129.732 43.7753C129.703 37.8498 129.757 31.9243 129.678 26.0037C129.653 24.0055 127.976 22.4721 125.948 22.3485C124.657 22.2694 123.357 22.3089 122.061 22.3089C119.743 22.3089 118.481 23.4334 118.277 25.6822C118.242 26.0482 118.173 26.4142 118.138 26.7852C117.698 31.4099 114.572 35.1986 110.18 36.4154C105.689 37.6618 100.98 36.0048 98.2202 32.2359C96.5039 29.8914 95.8164 27.2452 96.034 24.3962C96.1527 22.8035 95.6779 22.2149 93.9962 22.2743C90.4844 22.398 86.9628 22.3139 83.4411 22.3139C81.1823 22.3139 80.0002 23.4317 79.8947 25.6674C79.4693 34.615 70.2299 39.7639 62.8749 35.1145C58.9576 32.6365 57.3995 28.8873 57.5628 24.3913C57.6221 22.7887 57.1621 22.2199 55.4953 22.2792C52.0429 22.398 48.5855 22.3139 45.1281 22.3139C42.721 22.3139 41.4861 23.4944 41.4235 25.8553C41.2701 31.4049 37.0164 36.1928 31.7092 36.7764C26.0508 37.3997 20.9661 33.9819 19.5664 28.4718C19.2053 27.0572 19.1459 25.5388 19.1558 24.0747C19.1608 22.6848 18.6217 22.2248 17.2812 22.2941C15.6193 22.3782 13.9475 22.2941 12.2807 22.3238C9.23879 22.3683 7.72526 23.862 7.71537 26.8792C7.69558 32.1221 7.70548 37.37 7.70548 42.6179C7.70548 44.2468 8.49851 45.0629 10.0846 45.0662C29.5873 45.0662 49.0949 45.0662 68.5977 45.0662L68.5927 45.0563ZM110.185 158.477C110.254 171.629 120.814 182.189 133.838 182.119C146.792 182.05 157.287 171.431 157.248 158.432C157.208 145.359 146.559 134.799 133.506 134.898C120.646 134.992 110.116 145.636 110.185 158.482V158.477ZM26.8273 18.1542C26.8273 20.6223 26.7927 23.0855 26.8372 25.5536C26.8768 27.6903 28.2815 29.1742 30.2006 29.2187C32.0851 29.2632 33.6877 27.814 33.7272 25.6921C33.8163 20.7608 33.8163 15.8295 33.7223 10.8981C33.6827 8.76139 32.0752 7.36658 30.1561 7.43582C28.2172 7.50507 26.8718 8.96419 26.8323 11.1306C26.7927 13.4701 26.8224 15.8146 26.8224 18.1591L26.8273 18.1542ZM110.6 18.4064C110.6 16.0026 110.63 13.5987 110.591 11.1949C110.556 8.92462 109.156 7.43088 107.148 7.43088C105.229 7.43088 103.725 8.85042 103.691 11.0119C103.612 15.8789 103.612 20.7509 103.691 25.6179C103.725 27.7448 105.278 29.2187 107.153 29.2187C109.131 29.2187 110.551 27.6854 110.586 25.43C110.62 23.0904 110.595 20.7459 110.595 18.4064H110.6ZM72.1589 18.3421C72.1589 16.0026 72.1886 13.663 72.149 11.3186C72.1094 8.90978 70.7097 7.39131 68.6521 7.42593C66.6637 7.46055 65.2986 8.9444 65.2788 11.2543C65.2392 15.9333 65.2442 20.6173 65.2788 25.2964C65.2986 27.6706 66.7577 29.2533 68.7708 29.2138C70.7245 29.1742 72.1045 27.6458 72.149 25.3607C72.1935 23.0212 72.1589 20.6816 72.1589 18.3372V18.3421Z" fill="#00ACBA"/>
<path d="M87.2089 74.1002C79.4335 74.1002 71.6581 74.0804 63.8877 74.115C62.0181 74.1249 60.6134 73.4522 59.9357 71.6864C59.0751 69.4458 60.5392 67.1211 62.9875 66.7601C63.6552 66.6611 64.3428 66.7007 65.0204 66.7007C79.8885 66.7007 94.7616 66.7007 109.63 66.7007C110.307 66.7007 110.995 66.6661 111.663 66.765C113.631 67.0568 115.056 68.7633 114.937 70.623C114.818 72.5372 113.305 74.0557 111.277 74.0853C107.266 74.1447 103.254 74.1101 99.2478 74.1101C95.2365 74.1101 91.2251 74.1101 87.2188 74.1101L87.2089 74.1002Z" fill="#528097"/>
<path d="M87.3583 82.4938C95.1337 82.4938 102.904 82.5087 110.679 82.4839C112.519 82.479 113.944 83.0577 114.656 84.8581C115.423 86.8069 114.419 88.9881 112.406 89.6114C111.713 89.824 110.952 89.8834 110.219 89.8834C94.921 89.8982 79.6176 89.8982 64.3191 89.8883C61.8015 89.8883 60.288 88.9189 59.8428 87.1234C59.2048 84.5564 60.9359 82.5087 63.8591 82.4988C71.1992 82.4691 78.5443 82.4889 85.8844 82.4889C86.379 82.4889 86.8736 82.4889 87.3633 82.4889L87.3583 82.4938Z" fill="#528097"/>
<path d="M87.2144 113.046C79.439 113.046 71.6686 113.056 63.8932 113.036C61.43 113.031 59.9215 111.785 59.7533 109.732C59.595 107.779 60.698 106.211 62.627 105.805C63.4036 105.642 64.2197 105.642 65.016 105.642C79.8842 105.632 94.7523 105.632 109.62 105.642C110.298 105.642 110.986 105.622 111.648 105.731C113.666 106.047 115.041 107.695 114.928 109.569C114.809 111.508 113.345 112.987 111.268 113.017C106.702 113.081 102.137 113.046 97.5716 113.051C94.1192 113.051 90.6618 113.051 87.2094 113.051L87.2144 113.046Z" fill="#528097"/>
<path d="M84.2188 121.44C90.817 121.44 97.4152 121.435 104.018 121.44C106.867 121.44 108.534 122.85 108.495 125.174C108.455 127.435 106.813 128.834 104.083 128.834C90.7626 128.849 77.4377 128.849 64.1176 128.834C61.3725 128.834 59.77 127.435 59.7502 125.145C59.7304 122.82 61.3033 121.445 64.0533 121.44C70.7752 121.43 77.497 121.44 84.2238 121.44H84.2188Z" fill="#528097"/>
<path d="M30.2087 121.824C34.6355 117.387 38.7556 113.232 42.9104 109.117C43.5534 108.479 44.2904 107.787 45.1115 107.505C46.6893 106.966 48.188 107.337 49.2217 108.766C50.2307 110.161 50.211 111.64 49.2811 113.074C49.014 113.485 48.6529 113.831 48.3067 114.182C43.4298 119.069 38.5578 123.961 33.671 128.828C31.2869 131.202 29.3975 131.187 27.0234 128.828C25.0152 126.829 22.9922 124.836 21.0138 122.808C19.3321 121.082 19.2282 118.901 20.6923 117.372C22.2107 115.79 24.4514 115.849 26.2468 117.615C27.5625 118.906 28.7792 120.296 30.2087 121.829V121.824Z" fill="#528097"/>
<path d="M30.1414 161.022C34.6771 156.482 38.8566 152.203 43.1696 148.068C44.0253 147.247 45.4448 146.441 46.4984 146.555C47.6261 146.678 49.1198 147.692 49.5502 148.706C49.9805 149.715 49.6145 151.387 49.016 152.431C48.279 153.727 46.9435 154.681 45.8554 155.774C41.8045 159.835 37.7585 163.896 33.6977 167.942C31.2147 170.41 29.4242 170.385 26.9116 167.883C24.948 165.924 22.9695 163.98 21.0306 161.992C19.3341 160.251 19.2154 158.079 20.6596 156.551C22.1484 154.973 24.4533 155.003 26.229 156.759C27.5793 158.094 28.801 159.558 30.1365 161.032L30.1414 161.022Z" fill="#528097"/>
<path d="M30.2152 81.193C34.6569 76.7414 38.7869 72.5867 42.9417 68.4616C43.5451 67.8631 44.2227 67.2745 44.9795 66.9184C46.4584 66.221 48.2736 66.8046 49.2579 68.1351C50.2867 69.525 50.2175 71.5282 48.9216 72.8884C46.8838 75.035 44.752 77.0926 42.6597 79.1848C39.6525 82.1921 36.6452 85.2093 33.6281 88.2116C31.2588 90.566 29.4634 90.5907 27.1337 88.2907C25.1157 86.2974 23.1026 84.2942 21.1143 82.2712C19.3287 80.456 19.1902 78.2401 20.7087 76.7019C22.2766 75.1142 24.448 75.1982 26.2682 76.9986C27.5789 78.2945 28.7957 79.6844 30.2103 81.193H30.2152Z" fill="#528097"/>
<path d="M76.9557 167.771C72.6377 167.771 68.3148 167.785 63.9968 167.766C61.2863 167.751 59.6986 166.311 59.7431 163.982C59.7876 161.746 61.3654 160.376 63.9869 160.371C72.6872 160.356 81.3924 160.356 90.0927 160.371C92.645 160.371 94.2722 161.85 94.2772 164.061C94.2772 166.282 92.6697 167.746 90.1076 167.761C85.7253 167.785 81.343 167.771 76.9607 167.771H76.9557Z" fill="#528097"/>
<path d="M77.0509 144.647C81.4925 144.647 85.9342 144.583 90.3758 144.672C93.5166 144.731 95.4011 147.768 93.7095 150.138C93.0567 151.053 91.6322 151.923 90.544 151.943C81.542 152.086 72.535 152.067 63.5281 152.007C61.1836 151.992 59.7344 150.434 59.7344 148.327C59.7344 146.156 61.2479 144.692 63.7259 144.662C68.1676 144.608 72.6092 144.647 77.0509 144.647Z" fill="#528097"/>
<path d="M7.37805 118.96C7.36321 120.963 5.75077 122.551 3.7179 122.571C1.67513 122.591 0.0824676 121.028 0.0626829 118.985C0.0428983 116.957 1.63062 115.27 3.59424 115.236C5.61722 115.196 7.39289 116.947 7.37805 118.965V118.96Z" fill="#00ACBA"/>
<path d="M128.744 161.929C133.25 157.403 137.459 153.165 141.688 148.95C143.325 147.318 144.859 146.987 146.506 147.813C148.86 148.99 149.305 151.982 147.327 154.045C144.552 156.929 141.683 159.723 138.849 162.557C136.539 164.867 134.254 167.197 131.915 169.477C129.887 171.455 127.79 171.441 125.762 169.452C123.65 167.385 121.557 165.293 119.49 163.176C117.65 161.286 117.571 159.046 119.218 157.453C120.811 155.915 122.997 155.994 124.812 157.764C126.133 159.05 127.344 160.445 128.739 161.939L128.744 161.929Z" fill="#00ACBA"/>
</svg>
