<svg width="35" height="35" viewBox="0 0 35 35" fill="none" xmlns="http://www.w3.org/2000/svg">
<path d="M0.000913124 18.4577C0.186277 18.203 0.349727 17.9291 0.559745 17.6971C1.7605 16.3723 2.97313 15.0584 4.18119 13.7399C4.71355 13.1582 5.06236 13.0715 5.78647 13.35C9.21342 14.6694 12.6413 15.9851 16.0646 17.3146C16.3394 17.4214 16.5759 17.4205 16.8508 17.341C21.4913 15.9943 26.1336 14.6548 30.7759 13.3135C31.5603 13.087 32.0013 13.2742 32.373 13.9955C33.1857 15.5724 33.9965 17.1502 34.8046 18.7298C35.2238 19.5489 34.9599 20.2108 34.0961 20.5103C33.624 20.6747 33.1528 20.8454 32.6725 20.9842C32.4406 21.0518 32.3858 21.1659 32.3858 21.3942C32.394 24.0129 32.3913 26.6325 32.3913 29.2512C32.3913 30.1835 32.1657 30.4875 31.2745 30.745C26.5016 32.1228 21.7278 33.4988 16.9549 34.8785C16.8608 34.9059 16.7732 34.9579 16.6828 34.9981H16.1358C16.1276 34.9899 16.1212 34.978 16.1112 34.9744C12.3966 33.5481 8.68198 32.1219 4.96648 30.6966C4.25698 30.4245 4.03601 30.115 4.03601 29.3663C4.03601 26.7695 4.03236 24.1727 4.04149 21.5759C4.04149 21.3449 3.96935 21.239 3.76116 21.1486C2.82155 20.7423 1.89656 20.3031 0.953302 19.9068C0.509523 19.7205 0.17258 19.4585 0 19.0028C0 18.8202 0 18.6385 0 18.4559L0.000913124 18.4577ZM6.28503 22.2899V22.6287C6.28503 24.5763 6.29051 26.5229 6.27864 28.4705C6.27681 28.7298 6.36082 28.8394 6.60006 28.9307C9.36317 29.9808 12.1217 31.0427 14.8812 32.1009C14.9917 32.1429 15.1058 32.1767 15.2683 32.2315V28.2952H17.5V32.3602C17.616 32.3401 17.7055 32.3328 17.7904 32.3091C21.8091 31.1468 25.8268 29.9798 29.8482 28.8248C30.102 28.7518 30.1514 28.6321 30.1504 28.3957C30.1422 26.3348 30.1459 24.2731 30.145 22.2123C30.145 22.1046 30.134 21.9959 30.1267 21.8599C29.977 21.9046 29.8582 21.9366 29.7414 21.9758C26.8513 22.9391 23.9595 23.8988 21.0722 24.8712C20.58 25.0374 20.2038 24.9022 19.8833 24.5361C19.613 24.2275 19.3537 23.9097 19.0898 23.5965C18.2113 22.5529 17.332 21.5092 16.4362 20.4446C16.3449 20.5633 16.2691 20.661 16.1943 20.7605C15.2994 21.9539 14.4064 23.1482 13.5097 24.3398C13.0422 24.9607 12.5399 25.0903 11.8423 24.779C10.9292 24.3699 10.0161 23.959 9.10293 23.5509C8.18159 23.1382 7.25934 22.7273 6.28412 22.2927L6.28503 22.2899ZM18.3529 19.2357C19.2158 20.2601 20.0458 21.2262 20.8494 22.215C21.0557 22.4698 21.2283 22.5127 21.5342 22.4077C24.8361 21.2773 28.1425 20.1624 31.448 19.043C31.7228 18.9499 31.995 18.8513 32.2899 18.7472C31.7512 17.7008 31.2334 16.6937 30.7056 15.6692C26.5874 16.858 22.4948 18.0395 18.3529 19.2357ZM2.99231 18.3591C6.07136 19.737 9.09746 21.0901 12.1254 22.4451C12.9581 21.333 13.7644 20.2556 14.5917 19.1508C13.874 18.8741 13.2065 18.6166 12.5399 18.3591C10.2809 17.4871 8.02271 16.6142 5.76181 15.7495C5.65406 15.7085 5.45957 15.6865 5.40296 15.7477C4.59849 16.5996 3.81138 17.467 2.99322 18.36L2.99231 18.3591Z" fill="white"/>
<path d="M17.4893 16.0023C16.9771 16.0023 16.4639 16.0042 15.9516 16.0023C15.2093 15.9987 14.771 15.5887 14.7034 14.8409C14.6751 14.5232 14.6486 14.2063 14.613 13.8895C14.5664 13.4768 14.1564 13.2385 13.7784 13.401C13.4342 13.5489 13.0945 13.7105 12.7475 13.8521C12.1503 14.0949 11.6116 13.9242 11.2765 13.3681C10.724 12.4523 10.1816 11.531 9.64744 10.6042C9.33241 10.0564 9.46664 9.46564 9.9716 9.09127C10.2647 8.87488 10.566 8.67035 10.8628 8.45942C11.2125 8.21107 11.2071 7.77097 10.8509 7.51804C10.5633 7.31443 10.2711 7.11629 9.98621 6.9072C9.46299 6.5237 9.32876 5.93203 9.65383 5.36957C10.1825 4.45376 10.7204 3.54251 11.2655 2.63582C11.6097 2.06241 12.1485 1.88984 12.7621 2.14276C13.1091 2.28612 13.4479 2.44773 13.7921 2.59656C14.1464 2.74996 14.5655 2.50891 14.6103 2.12176C14.6486 1.79397 14.6733 1.46435 14.7043 1.13655C14.7746 0.413395 15.2138 0.00616327 15.9434 0.00342404C16.9798 -0.00114135 18.0162 -0.00114135 19.0526 0.00342404C19.7722 0.00616327 20.2004 0.387829 20.2908 1.10094C20.3264 1.38308 20.3511 1.66705 20.373 1.9501C20.4214 2.57465 20.7784 2.78557 21.361 2.52991C21.6733 2.39295 21.981 2.24503 22.2988 2.12176C22.8503 1.90719 23.389 2.07154 23.6959 2.57647C24.2629 3.50964 24.8172 4.45102 25.3596 5.39879C25.6728 5.94573 25.5276 6.52736 25.0144 6.9072C24.7122 7.12999 24.4017 7.34091 24.0958 7.56004C23.799 7.77279 23.8036 8.21929 24.104 8.43386C24.4099 8.65208 24.7213 8.86209 25.0226 9.08671C25.5312 9.46564 25.6691 10.0518 25.355 10.5988C24.8172 11.5365 24.2693 12.4678 23.7095 13.3919C23.3863 13.926 22.8393 14.0895 22.2586 13.853C21.9116 13.7114 21.5728 13.5498 21.2286 13.3992C20.8414 13.2293 20.425 13.4832 20.383 13.9096C20.3447 14.294 20.3228 14.682 20.2543 15.0619C20.1493 15.6481 19.7228 15.9932 19.1293 16.0005C18.5824 16.0069 18.0363 16.0023 17.4893 16.0023ZM22.9078 10.3404C22.622 10.1386 22.3618 9.95504 22.1025 9.77152C21.739 9.51403 21.5765 9.16706 21.5938 8.71691C21.613 8.2412 21.6148 7.76366 21.5938 7.28795C21.5747 6.82502 21.7372 6.46983 22.1161 6.20687C22.3773 6.02608 22.6339 5.8389 22.9042 5.64624C22.6887 5.28009 22.4823 4.9313 22.2778 4.5825C21.929 4.73316 21.6158 4.86921 21.3026 5.00434C20.8898 5.18239 20.5145 5.11209 20.1401 4.87012C19.7694 4.6309 19.3832 4.41084 18.9869 4.21727C18.5495 4.00361 18.2902 3.6886 18.2472 3.19645C18.2198 2.88418 18.1751 2.57373 18.1395 2.26785H16.8547C16.82 2.57465 16.7789 2.86592 16.757 3.1581C16.7196 3.66121 16.4676 3.99448 16.0156 4.21545C15.6193 4.40902 15.233 4.62907 14.8623 4.86921C14.476 5.11939 14.0898 5.18239 13.667 4.99521C13.3584 4.85916 13.0488 4.72403 12.721 4.57976C12.5073 4.94226 12.3074 5.28375 12.0946 5.64532C12.353 5.82976 12.5977 6.01238 12.8507 6.18313C13.2817 6.47348 13.4396 6.8725 13.4013 7.38656C13.3712 7.79197 13.3712 8.20376 13.4013 8.60917C13.4406 9.12414 13.2735 9.51951 12.8452 9.80986C12.5923 9.98061 12.3485 10.1632 12.0937 10.3449C12.3092 10.7102 12.5101 11.0507 12.7201 11.4068C13.0552 11.2607 13.3675 11.1274 13.6761 10.9896C14.088 10.806 14.4642 10.869 14.8413 11.1064C15.2339 11.3539 15.6394 11.5849 16.0539 11.7949C16.4676 12.004 16.6986 12.3208 16.7488 12.7755C16.7762 13.0248 16.7853 13.2759 16.8292 13.5215C16.8447 13.6074 16.9369 13.7425 16.9999 13.7461C17.3716 13.7671 17.7459 13.7571 18.1395 13.7571C18.1778 13.4202 18.2198 13.117 18.2445 12.813C18.2856 12.3071 18.5504 11.9839 19.0024 11.7684C19.3804 11.5885 19.7521 11.3858 20.0963 11.1484C20.5118 10.8626 20.9236 10.8015 21.3811 11.0133C21.6678 11.1466 21.9609 11.268 22.2759 11.4059C22.4841 11.0535 22.685 10.7129 22.906 10.3385L22.9078 10.3404Z" fill="white"/>
<path d="M15.2812 24.6162H17.4773V26.6003H15.2812V24.6162Z" fill="white"/>
<path d="M17.4904 9.71315C16.5253 9.7095 15.7601 8.93155 15.7701 7.96552C15.7802 7.01409 16.5435 6.2535 17.4914 6.24711C18.4501 6.24072 19.2272 7.01866 19.2272 7.98469C19.2272 8.95347 18.4593 9.71771 17.4904 9.71406V9.71315Z" fill="white"/>
</svg>
