<svg width="225" height="82" viewBox="0 0 225 82" fill="none" xmlns="http://www.w3.org/2000/svg">
<g filter="url(#filter0_d_955_7649)">
<rect x="11" y="7" width="203" height="59.5" rx="8" fill="#03243A"/>
<path d="M82.7661 40.203H80.1061V44.25H77.9971V31.235H82.7661C85.7174 31.235 87.1931 32.6916 87.1931 35.605C87.1931 37.0996 86.8194 38.2396 86.0721 39.025C85.3374 39.8103 84.2354 40.203 82.7661 40.203ZM80.1061 38.379H82.7471C84.2671 38.379 85.0271 37.4543 85.0271 35.605C85.0271 34.7183 84.8434 34.0723 84.4761 33.667C84.1088 33.2616 83.5324 33.059 82.7471 33.059H80.1061V38.379ZM88.9757 44.25V34.75H91.0277V35.89C92.1043 35.1933 93.181 34.7436 94.2577 34.541V36.612C93.1683 36.8273 92.2373 37.106 91.4647 37.448L91.0467 37.619V44.25H88.9757ZM102.531 42.54L103.063 42.483L103.101 44.022C101.657 44.3133 100.377 44.459 99.2627 44.459C97.8567 44.459 96.8434 44.0726 96.2227 43.3C95.6147 42.5273 95.3107 41.2923 95.3107 39.595C95.3107 36.2256 96.685 34.541 99.4337 34.541C102.094 34.541 103.424 35.9913 103.424 38.892L103.291 40.374H97.4007C97.4134 41.1593 97.5844 41.7356 97.9137 42.103C98.243 42.4703 98.8574 42.654 99.7567 42.654C100.656 42.654 101.581 42.616 102.531 42.54ZM101.391 38.778C101.391 37.8406 101.239 37.1883 100.935 36.821C100.643 36.441 100.143 36.251 99.4337 36.251C98.7244 36.251 98.205 36.4473 97.8757 36.84C97.559 37.2326 97.3944 37.8786 97.3817 38.778H101.391ZM112.008 36.707C110.513 36.5043 109.43 36.403 108.759 36.403C108.088 36.403 107.619 36.4853 107.353 36.65C107.1 36.802 106.973 37.049 106.973 37.391C106.973 37.733 107.112 37.9736 107.391 38.113C107.682 38.2523 108.354 38.417 109.405 38.607C110.469 38.7843 111.223 39.0693 111.666 39.462C112.109 39.8546 112.331 40.5513 112.331 41.552C112.331 42.5526 112.008 43.2873 111.362 43.756C110.729 44.2246 109.798 44.459 108.569 44.459C107.796 44.459 106.821 44.3513 105.643 44.136L105.054 44.041L105.13 42.312C106.65 42.5146 107.746 42.616 108.417 42.616C109.088 42.616 109.563 42.5336 109.842 42.369C110.133 42.2043 110.279 41.932 110.279 41.552C110.279 41.172 110.14 40.9123 109.861 40.773C109.595 40.621 108.943 40.4626 107.904 40.298C106.878 40.1206 106.124 39.8483 105.643 39.481C105.162 39.1136 104.921 38.4423 104.921 37.467C104.921 36.4916 105.25 35.7633 105.909 35.282C106.58 34.8006 107.435 34.56 108.474 34.56C109.285 34.56 110.279 34.6613 111.457 34.864L112.046 34.978L112.008 36.707ZM117.874 34.541C118.546 34.541 119.337 34.6296 120.249 34.807L120.724 34.902L120.648 36.536C119.648 36.4346 118.907 36.384 118.425 36.384C117.463 36.384 116.817 36.5993 116.487 37.03C116.158 37.4606 115.993 38.2713 115.993 39.462C115.993 40.6526 116.152 41.476 116.468 41.932C116.785 42.388 117.444 42.616 118.444 42.616L120.667 42.464L120.724 44.117C119.445 44.345 118.482 44.459 117.836 44.459C116.392 44.459 115.373 44.0726 114.777 43.3C114.195 42.5146 113.903 41.2353 113.903 39.462C113.903 37.6886 114.214 36.4283 114.834 35.681C115.455 34.921 116.468 34.541 117.874 34.541ZM122.727 44.25V34.75H124.779V35.89C125.855 35.1933 126.932 34.7436 128.009 34.541V36.612C126.919 36.8273 125.988 37.106 125.216 37.448L124.798 37.619V44.25H122.727ZM129.592 44.25V34.75H131.663V44.25H129.592ZM129.592 33.135V30.95H131.663V33.135H129.592ZM138.602 34.541C139.907 34.541 140.844 34.9083 141.414 35.643C141.997 36.365 142.288 37.6506 142.288 39.5C142.288 41.3493 141.946 42.6413 141.262 43.376C140.578 44.098 139.375 44.459 137.652 44.459C137.057 44.459 136.113 44.402 134.821 44.288L134.175 44.231V30.798H136.227V35.111C137.101 34.731 137.893 34.541 138.602 34.541ZM137.652 42.616C138.665 42.616 139.337 42.3816 139.666 41.913C140.008 41.4316 140.179 40.621 140.179 39.481C140.179 38.341 140.033 37.543 139.742 37.087C139.463 36.6183 139.001 36.384 138.355 36.384C137.747 36.384 137.139 36.479 136.531 36.669L136.227 36.764V42.54C136.924 42.5906 137.399 42.616 137.652 42.616ZM151.125 42.54L151.657 42.483L151.695 44.022C150.251 44.3133 148.972 44.459 147.857 44.459C146.451 44.459 145.438 44.0726 144.817 43.3C144.209 42.5273 143.905 41.2923 143.905 39.595C143.905 36.2256 145.28 34.541 148.028 34.541C150.688 34.541 152.018 35.9913 152.018 38.892L151.885 40.374H145.995C146.008 41.1593 146.179 41.7356 146.508 42.103C146.838 42.4703 147.452 42.654 148.351 42.654C149.251 42.654 150.175 42.616 151.125 42.54ZM149.985 38.778C149.985 37.8406 149.833 37.1883 149.529 36.821C149.238 36.441 148.738 36.251 148.028 36.251C147.319 36.251 146.8 36.4473 146.47 36.84C146.154 37.2326 145.989 37.8786 145.976 38.778H149.985ZM158.432 44.25V31.235H162.118L166.07 42.388H166.355V31.235H168.464V44.25H164.854L160.807 33.078H160.541V44.25H158.432ZM171.612 35.776C172.27 34.9526 173.36 34.541 174.88 34.541C176.4 34.541 177.483 34.9526 178.129 35.776C178.787 36.5993 179.117 37.8343 179.117 39.481C179.117 41.1276 178.8 42.369 178.167 43.205C177.533 44.041 176.438 44.459 174.88 44.459C173.322 44.459 172.226 44.041 171.593 43.205C170.959 42.369 170.643 41.1276 170.643 39.481C170.643 37.8343 170.966 36.5993 171.612 35.776ZM173.17 41.951C173.461 42.4576 174.031 42.711 174.88 42.711C175.728 42.711 176.298 42.4576 176.59 41.951C176.881 41.4443 177.027 40.6146 177.027 39.462C177.027 38.3093 176.868 37.4923 176.552 37.011C176.248 36.5296 175.69 36.289 174.88 36.289C174.069 36.289 173.505 36.5296 173.189 37.011C172.885 37.4923 172.733 38.3093 172.733 39.462C172.733 40.6146 172.878 41.4443 173.17 41.951ZM180.433 34.75H182.466L183.967 42.483H184.347L186.152 34.94H188.28L190.085 42.483H190.465L191.947 34.75H193.999L191.985 44.25H188.698L187.216 37.733L185.734 44.25H182.447L180.433 34.75Z" fill="white"/>
<circle cx="50" cy="37.25" r="17.25" fill="#03243A" stroke="white" stroke-width="2.5"/>
<path d="M52.5992 41.3381L56.0745 36.7551L56.1139 36.6935H54.0366L51.4374 40.0845L47.3319 35.6248C49.6456 35.4604 51.27 33.7957 51.3193 31.5555C51.339 30.456 50.9353 29.4079 50.1772 28.6064C49.3699 27.7432 48.2377 27.25 47.0759 27.25H43V41.1429H44.7426V35.3062L50.3643 41.5025L46.7806 46.1883L46.7412 46.25H48.8186L51.4965 42.7459L54.5485 46.1061H57L52.5992 41.3381ZM44.7426 34.1142V28.8633H46.82C48.533 28.8633 49.5865 29.8703 49.5865 31.5042C49.5865 33.2305 48.4051 34.145 46.1702 34.145C45.2152 34.145 44.9592 34.145 44.7426 34.1245V34.1142Z" fill="#00ACBA"/>
</g>
<defs>
<filter id="filter0_d_955_7649" x="0" y="0" width="225" height="81.5" filterUnits="userSpaceOnUse" color-interpolation-filters="sRGB">
<feFlood flood-opacity="0" result="BackgroundImageFix"/>
<feColorMatrix in="SourceAlpha" type="matrix" values="0 0 0 0 0 0 0 0 0 0 0 0 0 0 0 0 0 0 127 0" result="hardAlpha"/>
<feOffset dy="4"/>
<feGaussianBlur stdDeviation="5.5"/>
<feComposite in2="hardAlpha" operator="out"/>
<feColorMatrix type="matrix" values="0 0 0 0 0 0 0 0 0 0 0 0 0 0 0 0 0 0 0.25 0"/>
<feBlend mode="normal" in2="BackgroundImageFix" result="effect1_dropShadow_955_7649"/>
<feBlend mode="normal" in="SourceGraphic" in2="effect1_dropShadow_955_7649" result="shape"/>
</filter>
</defs>
</svg>
