<svg width="13" height="18" viewBox="0 0 13 18" fill="none" xmlns="http://www.w3.org/2000/svg">
<path d="M0 8.99276C0 11.7371 0 14.4815 0 17.2265C0 17.7624 0.228856 17.9968 0.750834 17.9968C3.17576 17.9968 5.60069 17.9946 8.02562 18C8.28582 18.0005 8.48542 17.9131 8.66777 17.7248C9.85751 16.4948 11.0514 15.2685 12.2495 14.047C12.4387 13.8539 12.5217 13.6431 12.5217 13.369C12.517 9.17192 12.5186 4.97488 12.5186 0.777828C12.5186 0.231739 12.2908 0 11.7542 0C8.09041 0 4.42715 0 0.763374 0C0.229378 0 0 0.233885 0 0.7789C0 3.51685 0 6.2548 0 8.99276ZM11.2521 1.29441V12.8551H11.0248C10.0926 12.8551 9.16049 12.8551 8.22835 12.8551C7.75444 12.8551 7.51095 13.1083 7.51043 13.5996C7.51043 14.5636 7.51043 15.5276 7.51043 16.491V16.7008H1.26289V1.29441H11.2521ZM10.2995 14.1506C9.79115 14.672 9.27492 15.202 8.77175 15.718V14.1506H10.2995Z" fill="#00ACBA"/>
<path d="M5.15337 9.43785H4.18866V11.2609H3V5H5.15337C6.54302 5 7.23784 5.7243 7.23784 7.17289C7.23784 7.90332 7.05983 8.46496 6.7038 8.8578C6.35352 9.2445 5.83671 9.43785 5.15337 9.43785ZM4.18866 8.35141H5.14476C5.73622 8.35141 6.03195 7.95857 6.03195 7.17289C6.03195 6.78619 5.96017 6.50997 5.81661 6.34425C5.67306 6.17238 5.4491 6.08644 5.14476 6.08644H4.18866V8.35141Z" fill="#FF9626"/>
<path d="M8.07221 11.2609V5H9.26087V11.2609H8.07221Z" fill="#FF9626"/>
</svg>
