<svg width="8" height="13" viewBox="0 0 8 13" fill="none" xmlns="http://www.w3.org/2000/svg">
<path d="M1.34102 0.000331895C1.58635 0.073721 1.75965 0.240094 1.93538 0.407794C3.86149 2.24884 5.78899 4.08889 7.71893 5.92662C7.95591 6.1521 8.06657 6.40847 7.95835 6.71697C7.91798 6.8322 7.83794 6.94577 7.74712 7.03245C5.75037 8.9439 3.75083 10.8524 1.74921 12.7595C1.41305 13.0799 0.977718 13.0786 0.638431 12.7648C0.4794 12.6177 0.318282 12.4712 0.174911 12.3105C-0.066592 12.0395 -0.0544113 11.664 0.18918 11.3933C0.226763 11.3518 0.267476 11.3126 0.308191 11.2738C1.93503 9.72129 3.56153 8.16849 5.18906 6.61668C5.22665 6.58082 5.27084 6.5516 5.34148 6.4626C5.2945 6.43836 5.23848 6.42275 5.20229 6.38821C3.55839 4.82213 1.91589 3.25471 0.274089 1.68663C-0.0321399 1.39407 -0.0933859 0.990928 0.158557 0.717295C0.415372 0.438348 0.657223 0.131835 1.04801 -9.41177e-07L1.34067 -9.37687e-07L1.34102 0.000331895Z" fill="#F3893D"/>
</svg>
