<svg width="402" height="220" viewBox="0 0 402 220" fill="none" xmlns="http://www.w3.org/2000/svg">
<path d="M0.813965 56.3931L119.43 50.8444L213.465 -35.8829L76.2625 -12.5226C76.2625 -12.5226 76.2131 -12.5226 76.1803 -12.5226C75.9998 -12.5226 75.8191 -12.6375 75.7534 -12.818C75.6713 -13.015 75.7534 -13.2613 75.9341 -13.3762L139.741 -55.484C139.856 -55.5497 139.987 -55.5825 140.102 -55.5497L214.664 -37.1634L251.395 -122.43L133.6 -118.949C133.501 -118.949 133.419 -118.982 133.337 -119.032C133.321 -119.032 133.304 -119.064 133.271 -119.081C133.255 -119.097 133.222 -119.114 133.206 -119.146C133.189 -119.179 133.206 -119.212 133.189 -119.229C133.189 -119.261 133.14 -119.278 133.14 -119.311C133.14 -119.327 133.14 -119.36 133.14 -119.376C133.14 -119.426 133.14 -119.475 133.156 -119.524C133.156 -119.573 133.19 -119.623 133.222 -119.655C133.222 -119.672 133.222 -119.705 133.255 -119.721L234.614 -225.442C234.712 -225.541 234.844 -225.59 234.991 -225.59L357.088 -217.332L648.62 -329.308L536.326 -328.586C536.227 -328.586 536.128 -328.619 536.063 -328.668L447.577 -391.263C447.396 -391.395 447.331 -391.641 447.429 -391.854C447.528 -392.068 447.774 -392.166 447.988 -392.1L651.247 -330.26L821.453 -338.173C821.453 -338.173 821.486 -338.156 821.503 -338.156C821.535 -338.156 821.568 -338.156 821.601 -338.156L982.809 -287.003L1148.12 -274.56L972.186 -347.793C971.989 -347.875 971.874 -348.088 971.907 -348.302C971.94 -348.515 972.12 -348.679 972.35 -348.679L1107.37 -354.786C1107.55 -354.786 1107.71 -354.704 1107.8 -354.54L1151.39 -274.084C1151.39 -274.084 1151.39 -274.067 1151.39 -274.051C1151.39 -274.051 1151.41 -274.034 1151.41 -274.018C1151.41 -273.969 1151.41 -273.936 1151.41 -273.887C1151.41 -273.854 1151.41 -273.821 1151.41 -273.772C1151.41 -273.706 1151.36 -273.657 1151.34 -273.608C1151.34 -273.591 1151.34 -273.558 1151.31 -273.525L1085.73 -207.795L1215.74 -195.351C1215.89 -195.351 1216.02 -195.252 1216.08 -195.138C1216.17 -195.023 1216.18 -194.875 1216.13 -194.727L1181.14 -95.6547L1184.36 -20.3203L1223.82 49.0714C1223.92 49.2356 1223.9 49.449 1223.77 49.5968C1223.67 49.7117 1223.54 49.761 1223.41 49.761C1223.36 49.761 1223.31 49.7609 1223.26 49.7445L1151 25.0872L1003.4 65.0446L914.29 112.865C914.29 112.865 914.224 112.865 914.192 112.882C914.192 112.882 914.192 112.898 914.159 112.898L832.471 131.613L726.433 153.02L679.111 218.997C679.013 219.128 678.881 219.194 678.733 219.194C678.635 219.194 678.553 219.161 678.471 219.112L576.488 147.717L458.66 183.422C458.66 183.422 458.611 183.422 458.578 183.422C458.578 183.422 458.578 183.422 458.562 183.422L351.243 193.568C351.243 193.568 351.21 193.568 351.194 193.568C351.194 193.568 351.194 193.568 351.177 193.568C350.914 193.568 350.701 193.354 350.701 193.108C350.701 192.928 350.799 192.78 350.947 192.698L395.166 149.342C395.313 149.195 395.527 149.162 395.707 149.26L458.266 182.306L489.431 104.854L351.538 95.8907L340.028 134.896C339.979 135.044 339.864 135.175 339.7 135.208L238.505 163.707C238.505 163.707 238.423 163.723 238.374 163.723C238.193 163.723 238.029 163.624 237.947 163.444C237.848 163.23 237.947 162.984 238.128 162.853L350.225 95.4147L217.948 26.1379L119.84 51.6981L88.3636 84.859C88.2816 84.9575 88.1501 85.0068 88.0188 85.0068C87.9696 85.0068 87.9204 85.0067 87.8711 84.9903L0.66626 57.2961C0.452759 57.2304 0.321411 57.0169 0.337891 56.7871C0.370728 56.5573 0.55127 56.3931 0.781128 56.3767L0.813965 56.3931ZM140.069 -54.5975L78.2985 -13.8194L212.644 -36.6873L140.069 -54.5811V-54.5975ZM450.467 -390.36L536.473 -329.521L648.111 -330.227L450.467 -390.36ZM395.576 150.278L352.458 192.55L456.904 182.667L395.576 150.278ZM215.731 -37.344L310.407 -65.4159L338.37 -73.7061L252.298 -122.249L215.731 -37.3276V-37.344ZM563.467 6.63525L528.165 -7.74539H528.148L505.128 0.331421L563.467 6.63525ZM512.057 2.02231L601.709 21.0981L566.62 7.91574L512.074 2.02231H512.057ZM527.065 -8.36923L471.714 -41.1362L467.691 -43.5165L503.191 0.0195007L527.081 -8.36923H527.065ZM565.076 -157.626L486.492 -173.008L513.256 -157.068L518.428 -153.982L565.076 -157.626ZM497.165 -128.701L565.585 -156.723L518.543 -153.046L497.181 -128.684L497.165 -128.701ZM568.393 -157.922L598.852 -182.678L487.378 -173.796L568.41 -157.938L568.393 -157.922ZM600.477 -182.792L570.84 -158.693L642.167 -182.842L600.494 -182.776L600.477 -182.792ZM641.247 -183.794L566.587 -202.574L600.412 -183.728L641.231 -183.794H641.247ZM640.328 -181.266L585.486 -162.699L571.152 -157.84L597.259 -157.199L640.328 -181.266ZM601.807 -158.677L645.057 -172.828L644.564 -182.579L601.807 -158.677ZM568.738 -156.97L560.594 -146.775L558.886 -144.641L583.302 -152.619L594.632 -156.329L568.721 -156.97H568.738ZM567.03 -156.329L502.14 -129.735L557.293 -144.116L567.03 -156.313V-156.329ZM498.018 -127.699L507.164 -126.616L511.844 -126.058L542.45 -138.206L550.332 -141.325L498.035 -127.683L498.018 -127.699ZM504.783 -125.959L495.802 -127.026L491.992 -117.899L510.07 -125.352L504.783 -125.976V-125.959ZM494.652 -126.682L438.349 -104.24L490.794 -117.423L494.669 -126.682H494.652ZM471.402 -111.579L437.89 -103.157L465.015 -105.833L486.065 -115.272L471.386 -111.579H471.402ZM431.929 -101.63L429.91 -98.5111L422.488 -87.0526L455.869 -101.811L462.289 -104.651L431.929 -101.647V-101.63ZM429.975 -100.317L389.993 -72.2943L420.944 -86.3467L429.975 -100.317ZM386.677 -69.7662L441.847 -41.2839L440.27 -44.6328L421.043 -85.3617L386.677 -69.7662ZM427.594 -73.6897L443.127 -40.775L464.719 -45.5193L422.718 -84.0156L427.594 -73.6733V-73.6897ZM446.805 -40.6273L444.03 -40.0199L500.695 -1.60568L465.524 -44.7314L446.805 -40.6108V-40.6273ZM452.979 -32.8295L442.832 -39.7079L393.491 -16.052L471.074 -4.62631L501.105 -0.210327L452.963 -32.8459L452.979 -32.8295ZM434.786 -36.8843L441.091 -39.9049L317.385 -48.4086L377.662 -22.4708L391.931 -16.3311L434.803 -36.8843H434.786ZM440.664 -40.8735L433.013 -44.8298L385.576 -69.3065L385.166 -69.1916L317.32 -49.3607L440.664 -40.89V-40.8735ZM385.494 -70.2915L428.99 -100.76L342.064 -73.8867L385.494 -70.2915ZM371.127 -83.8514L431.404 -102.484L449.892 -126.747L345.299 -75.8567L371.127 -83.8514ZM433.079 -103.141L493.175 -127.092L451.682 -127.552L433.079 -103.141ZM490.137 -128.061L413.654 -142.228L411.996 -142.54L451.534 -128.504L490.137 -128.077V-128.061ZM495.375 -128.044L509.988 -144.69L517.246 -152.964L459.104 -148.056L409.795 -143.902L495.391 -128.044H495.375ZM466.361 -149.615L516.868 -153.883L483.947 -173.501L409.516 -144.822L466.361 -149.615ZM502.255 -202.082L510.021 -213.672L439.712 -216.594L408.137 -217.907L483.832 -174.65L502.238 -202.098L502.255 -202.082ZM485.195 -174.978L511.778 -184.992L561.628 -203.789L515.67 -212.703L511.089 -213.59L485.195 -174.978ZM487.247 -174.748L598.786 -183.646L563.287 -203.428L487.247 -174.765V-174.748ZM623.383 -189.293L644.597 -183.958L645.467 -220.895L568.081 -204.462L565.388 -203.887L623.383 -189.293ZM597.899 -156.526L557.77 -143.361L512.139 -125.204L491.451 -116.717L465.179 -104.881L421.93 -85.9691L466.016 -45.5522L527.869 -8.96021L529.117 -8.45129L539.133 -4.36362L566.85 6.98004L607.554 22.2964L665.302 35.1833L709.389 44.9345L772.473 45.2136L835.147 33.6237L885.441 20.9339L912.123 14.3674L984.025 0.282166L1000.72 -23.5543L1014.84 -31.6968L1028.41 -40.9228L1014.75 -55.6974L993.532 -78.3027L972.399 -96.886L947.113 -123.382L899.02 -160.598L869.185 -188.259L808.235 -199.028L731.506 -193.562L688.782 -182.924L645.713 -172.22L597.932 -156.526H597.899ZM664.81 35.9548L647.208 32.0477L608.95 23.5605L631.691 52.5024L664.81 35.9548ZM634.039 52.3875L706.335 45.1808L666.238 36.2831H666.222C666.222 36.2831 666.205 36.316 666.189 36.316L634.45 52.1905L634.039 52.3875ZM1011.38 -173.944L918.625 -185.353L934.552 -168.527L1011.38 -173.944ZM939.461 -167.936L1056.55 -154.688L1016.14 -173.337L939.461 -167.936ZM948.016 -196.631L948.345 -197.797L895.145 -193.841L919.544 -192.938L946.653 -191.936L948.016 -196.631ZM947.671 -192.101L1002.4 -204.905L949.363 -197.896L948.591 -195.269L947.671 -192.117V-192.101ZM711.343 -220.271L739.65 -209.42L745.972 -206.99L688.946 -242.86L659.21 -261.574L711.343 -220.255V-220.271ZM711.014 -219.401L652.872 -220.796L745.906 -206.022L715.53 -217.661L710.998 -219.401H711.014ZM648.045 -220.632L688.749 -194.678L747.401 -204.856L648.045 -220.632ZM688.191 -183.794V-193.594L648.817 -183.794H688.191ZM645.5 -182.858L645.993 -173.058L685.449 -182.858H645.5ZM693.872 -194.612L731.638 -194.35L747.844 -203.97L693.872 -194.612ZM689.127 -193.709V-183.777L728.042 -193.447L723.346 -193.48L689.111 -193.709H689.127ZM733.706 -194.481L744.215 -195.236L802.439 -199.455L764.707 -203.017L750.372 -204.38L733.706 -194.481ZM764.477 -203.986L807.858 -199.882L814.623 -207.253L756.99 -204.692L764.477 -203.986ZM808.974 -199.701L859.744 -190.639L863.964 -189.884L815.871 -207.22L808.974 -199.701ZM900.514 -185.731L888.758 -192.051L946.818 -124.925L936.046 -160.795L933.977 -167.706L900.514 -185.715V-185.731ZM932.023 -169.824L917.147 -185.534L890.285 -192.298L922.812 -174.781L932.023 -169.824ZM890.761 -188.325L905.194 -165.966L939.56 -131.886L890.744 -188.325H890.761ZM904.816 -165.03L899.906 -160.926L922.713 -143.164L942.039 -128.126L904.816 -165.03ZM904.061 -165.605L873.536 -185.189L899.184 -161.533L899.43 -161.747L904.061 -165.621V-165.605ZM885.884 -178.36L903.289 -167.197L886.557 -193.102L872.765 -188.981L870.4 -188.276L885.884 -178.344V-178.36ZM872.568 -189.917L884.817 -193.578L821.749 -206.087L869.317 -188.949L872.568 -189.917ZM886.262 -194.235L885.703 -205.808L885.654 -206.908L820.632 -207.253L886.278 -194.235H886.262ZM832.701 -215.609L818.76 -208.73L953.467 -231.089L840.517 -219.483L832.701 -215.625V-215.609ZM863.52 -265.137L817.48 -209.124L834.064 -217.316L840.04 -220.271L863.52 -265.12V-265.137ZM821.223 -208.189H822.192L886.015 -207.844L961.792 -231.516L821.207 -208.189H821.223ZM886.574 -207.039L886.738 -203.805L887.198 -194.382L962.482 -230.745L886.59 -207.039H886.574ZM892.288 -195.811L933.83 -208.32L964.009 -230.449L892.288 -195.811ZM890.974 -194.448L947.573 -198.651L933.961 -207.384L890.974 -194.448ZM938.132 -191.296L891.171 -193.036L917.41 -186.437L942.778 -191.132L938.132 -191.296ZM948.279 -123.349L987.998 -113.171L935.357 -166.376L948.279 -123.349ZM992.218 -90.5164L975.141 -95.5234L989.246 -83.0142L993.187 -79.5175L992.218 -90.5164ZM1020.18 -83.638L990.165 -111.07L993.072 -91.2387L1020.18 -83.638ZM990.149 -92.0924L951.743 -119.639L973.516 -96.968L990.149 -92.0924ZM992.037 -91.8954L991.578 -94.998L989.098 -111.923L962.104 -118.835L950.2 -121.888L992.037 -91.879V-91.8954ZM989.427 -113.072L996.766 -125.5L951.678 -155.837L938 -165.03L989.427 -113.072ZM990.116 -112.399L1020.08 -85.0169L1017.19 -90.0732L997.39 -124.712L990.116 -112.399ZM1018.16 -90.2373L1022.22 -83.1455L1048.36 -84.9349L1041.67 -90.1881L998.999 -123.776L1018.18 -90.2373H1018.16ZM1021.72 -82.2426L995.354 -89.6299L1025.96 -69.1588L1070.18 -39.593L1038.7 -67.3038L1021.72 -82.2426ZM993.203 -89.9418L993.696 -84.426L994.205 -78.6967L1029.1 -60.3596L1068.19 -39.8064L1006.32 -81.192L993.22 -89.9418H993.203ZM1053.61 -46.4058L995.994 -76.6775L1001.69 -70.6034L1015.6 -55.7959L1070.49 -37.5246L1053.61 -46.3894V-46.4058ZM1024.73 -51.7903L1016.95 -54.3841L1029.28 -41.2511L1071.31 -36.2934L1024.73 -51.8067V-51.7903ZM1028.93 -40.1676L1015.86 -31.3521L1049.47 -11.8166L1028.93 -40.1512V-40.1676ZM1014.98 -30.7939L1002.45 -23.6692L1047.93 -11.6525L1014.99 -30.7939H1014.98ZM1001.41 -22.9797L991.381 -8.7468L985.272 -0.062561L1034.88 -8.1394L1048.92 -10.4213L1001.41 -22.9633V-22.9797ZM986.52 0.676178L1016.39 8.40823L1048.59 -9.43628L986.537 0.676178H986.52ZM1011.22 8.0307L984.238 1.05374L918.51 13.9734L996.306 9.57379L1013.43 8.60529L1011.22 8.0307ZM885.506 21.886L884.603 22.1159L881.566 33.5745L947.885 21.2622L971.841 16.8134L885.49 21.9025L885.506 21.886ZM966.8 16.1732L911.844 15.2867L890.4 20.6712L966.8 16.1732ZM883.569 22.3785L838.694 33.6237L880.564 33.6894L881.155 31.4732L883.569 22.3621V22.3785ZM834.983 34.5594L784.246 43.9167L849.383 37.0383L872.207 34.6251L834.983 34.5594ZM687.501 -194.366L665.319 -208.5L646.37 -220.583L645.533 -185.173L645.5 -183.909L687.501 -194.35V-194.366ZM692.756 -220.763L709.734 -220.353L652.56 -265.678L646.452 -221.88L692.756 -220.763ZM709.553 -247.686L655.582 -264.973L748.205 -206.695L718.321 -244.567L717.993 -244.977L709.553 -247.686ZM717.763 -246.028L713.757 -303.961L653.332 -266.68L717.779 -246.028H717.763ZM746.382 -210.503L750.471 -205.316L752.556 -205.414L813.473 -208.123L752.753 -231.549L719.684 -244.304L746.366 -210.487L746.382 -210.503ZM739.486 -237.689L815.591 -208.32L864.883 -268.289L747.68 -249.59L720.062 -245.191L739.486 -237.689ZM841.206 -220.501L966.258 -233.338L866.263 -268.354L841.206 -220.484V-220.501ZM934.848 -207.926L945.488 -201.097L948.821 -198.963L966.915 -231.467L934.831 -207.942L934.848 -207.926ZM954.256 -206.793L949.839 -198.88L1010.36 -206.892L968.541 -232.452L954.256 -206.81V-206.793ZM991.906 -201.474L947.113 -190.984H947.097L920.464 -186.043L1015.7 -174.338L1011.35 -206.022L991.906 -201.474ZM1016.67 -174.125L1057.52 -155.279L1012.41 -205.168L1016.67 -174.125ZM936.21 -167.361L997.439 -126.173L1034.2 -142.917L1057.68 -153.621L936.227 -167.361H936.21ZM1016.49 -133.823L998.277 -125.516L1049.24 -85.4109L1058.82 -153.095L1016.5 -133.806L1016.49 -133.823ZM1038.64 -83.326L1023.51 -82.2918L1107.7 -33.6339L1066.11 -69.6349L1049.42 -84.0648L1038.64 -83.326ZM1025.8 -79.8951L1038.72 -68.535L1075.99 -35.7352L1109.5 -31.5327L1025.81 -79.9115L1025.8 -79.8951ZM1030.05 -40.2004L1048.31 -15.0014L1051.2 -11.0122L1074.78 -34.9144L1030.05 -40.2004ZM1051.16 -9.76459L1018.9 8.11279L1072.81 0.282166L1051.16 -9.76459ZM1016.45 9.40964L983.22 15.6807L1128.12 23.0188L1136.81 23.462L1123.79 21.9353L1016.45 9.40964ZM991.331 13.2018L1009.29 9.82007L924.667 14.6136L979.246 15.4837L991.331 13.2018ZM931.843 25.235L883.7 34.1818L918.017 39.5008L958.065 23.7903L974.567 17.3059L931.843 25.235ZM881.04 34.7072L849.662 59.2167L915.899 40.1082L881.04 34.7072ZM878.495 35.5116L782.374 67.4905L847.298 59.8898L878.495 35.5116ZM876.673 35.134L772.802 46.1001L778.237 67.8845L876.673 35.134ZM776.529 64.9132L771.849 46.1494L712.098 45.8867L717.238 47.6104L777.235 67.7697L776.529 64.9296V64.9132ZM709.537 46.0016L703.593 67.9174L748.09 67.9666L775.035 67.9995L709.537 46.0016ZM708.584 45.9359L634.515 53.3233L702.64 67.8353L708.584 45.9359ZM632.89 53.9307L651.263 72.8258L699.882 68.2129L632.873 53.9471L632.89 53.9307ZM631.281 53.6187L578.754 52.2398L649.539 72.3826L631.281 53.6187ZM607.472 23.3635L567.851 25.6946L552.548 26.5975L630.148 52.2398L607.472 23.3799V23.3635ZM604.204 22.6248L506.048 1.74323L550.184 25.7931L604.204 22.6248ZM514.044 7.16061L503.158 1.21793L492.682 16.5508L512.336 19.7191L547.458 25.3663L514.044 7.16061ZM502.189 0.971649L397.218 -14.4925L491.68 16.3538L502.189 0.971649ZM446.576 2.61328L391.849 -15.2641L355.43 -3.59207L486.525 15.6479L446.592 2.61328H446.576ZM390.502 -15.8058L316.236 -47.7684L333.247 -27.7733L353.509 -3.95322L390.502 -15.8058ZM316.236 -49.9518L363.262 -63.6922L382.998 -69.4543L379.238 -69.7662L339.716 -73.0331L316.252 -49.9353L316.236 -49.9518ZM337.861 -72.5406L220.444 -37.7051L314.364 -49.41L337.861 -72.5241V-72.5406ZM339.864 -74.5598L405.296 -143.705L328.863 -160.269L339.88 -74.5598H339.864ZM327.927 -160.154L253.053 -122.84L302.673 -94.8667L338.961 -74.3956L333.477 -117.062L327.943 -160.154H327.927ZM405.74 -144.559V-172.614L405.691 -217.414L329.421 -161.107L405.74 -144.559ZM341.637 -75.0687L450.171 -127.88L431.305 -134.578L406.331 -143.443L341.637 -75.0687ZM406.676 -144.674L482.814 -174.01L406.626 -217.546L406.676 -144.674ZM458.365 -216.659L509.561 -214.542L469.793 -251.708L407.907 -218.761L458.365 -216.659ZM510.76 -214.689L568.295 -279.78L470.795 -252.053L510.76 -214.689ZM544.388 -251.331L511.68 -214.328L529.331 -210.914L562.827 -204.413L565.618 -237.574L569.132 -279.288L544.404 -251.314L544.388 -251.331ZM563.746 -204.446L566.751 -205.086L644.777 -221.65L570.084 -279.764L563.746 -204.446ZM643.809 -223.587L645.5 -222.274L651.625 -266.155L584.681 -277.63L571.447 -279.895L643.809 -223.587ZM652.051 -267.025L711.835 -303.912L572.498 -280.667L652.068 -267.025H652.051ZM713.986 -305.225L809.352 -334.479L707.008 -311.299L585.65 -283.818L714.003 -305.225H713.986ZM718.633 -245.913L863.553 -269.027L783.852 -287.824L714.594 -304.158L718.633 -245.897V-245.913ZM763.771 -293.521L864.768 -269.684L838.497 -303.206L718.256 -304.257L763.771 -293.521ZM866.18 -269.405L906.967 -270.981L946.965 -272.54L944.929 -273.115L839.975 -302.829L866.18 -269.405ZM868.43 -268.551L967.408 -233.88L949.625 -271.703L868.43 -268.551ZM968.672 -233.404L1008.95 -208.78L954.338 -266.795L951.596 -269.717L968.672 -233.388V-233.404ZM1011.87 -207.039L1081.59 -207.844H1082.64L1039.72 -228.495L951.99 -270.669L1011.87 -207.039ZM1012.71 -206.12L1059.19 -154.704L1072.25 -182.3L1083.91 -206.941L1012.71 -206.12ZM1051.62 -96.1636L1050.05 -84.9677L1125.71 -80.3712L1059.64 -152.816L1051.62 -96.1636ZM1062.99 -150.534L1126.97 -80.3547L1179.3 -95.8025L1061.26 -152.406L1062.97 -150.534H1062.99ZM1112.26 -31.1386L1182.57 -20.8292L1178.99 -24.5721L1127.04 -78.9429L1112.26 -31.1386ZM1126.22 -79.4026L1063.64 -83.2112L1050.87 -83.9827L1072.23 -65.498L1111.42 -31.5819L1126.22 -79.419V-79.4026ZM1077.07 -34.6189L1100.14 -12.8344L1102.79 -17.1684L1110.88 -30.3835L1077.07 -34.6353V-34.6189ZM1098.73 -12.8837L1075.73 -34.6025L1052.25 -10.7824L1099.11 -12.5226L1098.73 -12.8837ZM1053.05 -9.87952L1074.37 0.0195007L1098.04 -11.5376L1053.04 -9.8631L1053.05 -9.87952ZM1074.33 1.00449L1058.27 3.3356L1019.98 8.90073L1048.31 12.2004L1146.12 23.6098L1074.33 1.00449ZM979.46 16.4358L966.16 34.9534L1120.88 25.9409L1142.36 24.6932L979.46 16.4358ZM977.933 16.9775L921.301 39.2052L937.754 37.6293L964.961 35.0355L977.933 16.9775ZM918.264 40.4365L897.903 65.3728L962.465 36.2175L918.264 40.4365ZM916.72 40.8469L849.728 60.1689L896.081 66.1116L916.72 40.8469ZM847.511 60.8255L816.921 75.5838L838.891 72.9736L892.452 66.6041L847.495 60.8255H847.511ZM844.72 61.1375L780.7 68.6397L781.159 68.7382L814.163 75.8957L844.736 61.1375H844.72ZM777.843 68.968L726.942 77.4553L719.733 78.6536L810.37 76.027L777.859 68.968H777.843ZM753.229 72.12L772.26 68.9516L704.003 68.8695L713.083 78.8178L753.229 72.12ZM702.755 68.886L655.959 73.3347L671.591 74.8451L711.753 78.7357L702.755 68.886ZM651.575 73.8437H651.427L646.994 93.0015L644.761 102.704L696.811 84.465L710.752 79.5729L651.575 73.8272V73.8437ZM650.508 73.6466L577.342 52.8308L643.825 102.621L650.508 73.6466ZM615.682 82.7085L575.01 52.2398L539.281 74.451L491.713 104L642.725 102.95L615.682 82.692V82.7085ZM575.24 51.222L628.309 52.6174L551.744 27.3198L575.24 51.222ZM557.014 34.0177L549.839 26.7125L527.344 23.0844L495.687 17.9954L573.106 50.3683L557.031 34.0177H557.014ZM491.845 17.4044L408.252 42.3407L490.318 46.7075L572.383 51.0742L491.845 17.4044ZM489.71 17.0596L354.839 -2.72198L405.641 42.1438L489.71 17.0596ZM353.131 -2.98468L220.477 -34.7502L403.113 41.1588L353.131 -2.98468ZM257.174 -26.9196L352.064 -4.19949L314.397 -48.4907L217.488 -36.4083L257.174 -26.9032V-26.9196ZM251.854 -123.333L354.592 -215.231L135.915 -119.902L251.854 -123.333ZM235.057 -224.605L135.472 -120.722L185.322 -142.458L355.134 -216.495L235.057 -224.605ZM301.343 -166.36L254.941 -124.859L276.271 -135.497L327.943 -161.254L330.554 -166.327L355.496 -214.804L301.343 -166.36ZM329.618 -162.453L404.656 -217.858L357.351 -216.38L329.618 -162.453ZM406.019 -218.826L465.179 -250.313L378.401 -223.029L360.454 -217.382L406.035 -218.81L406.019 -218.826ZM371.258 -221.781L469.678 -252.71L627.882 -320.312L371.258 -221.765V-221.781ZM476.788 -254.745L569.493 -281.093L627.077 -315.797L645.122 -326.681L476.788 -254.745ZM651.263 -329.292L601.971 -299.578L572.4 -281.75L816.215 -336.991L651.329 -329.324L651.263 -329.292ZM821.174 -337.106L717.123 -305.192L837.971 -304.142L821.174 -337.106ZM822.34 -336.892L839.055 -304.109L977.834 -287.545L822.356 -336.892H822.34ZM908.937 -294.834L844.572 -302.517L949.904 -272.688L967.342 -280.305L980.905 -286.232L908.937 -294.817V-294.834ZM982.596 -285.969L979.427 -284.59L951.054 -272.179L1080.88 -209.748L994.862 -276.448L982.596 -285.953V-285.969ZM1107.12 -353.85L974.485 -347.842L1149.95 -274.806L1107.12 -353.85ZM1149.95 -273.476L984.238 -285.936L1084.68 -208.057L1149.95 -273.476ZM1084.84 -206.596L1060.03 -154.13L1178.88 -97.1158L1147.1 -134.085L1084.81 -206.596H1084.84ZM1215.05 -194.481L1085.81 -206.859L1180.5 -96.6561L1215.05 -194.481ZM1180.24 -95.113L1127.76 -79.6324L1183.38 -21.4202L1180.22 -95.113H1180.24ZM1222.41 48.4641L1183.85 -19.3517L1151.75 24.3649L1222.41 48.4641ZM1151.01 23.8068L1174.31 -7.94238L1183.06 -19.8607L1154.49 -24.0468L1112.72 -30.1701L1127.24 -9.69894L1151 23.8068H1151.01ZM1111.74 -29.9402L1100.92 -12.2763L1148.99 22.5591L1111.75 -29.9566L1111.74 -29.9402ZM1100.24 -11.6032L1075.68 0.380676L1148.4 23.2814L1100.24 -11.6196V-11.6032ZM1146.53 25.3335L966.538 35.8235L1003.32 64.1088L1146.51 25.3335H1146.53ZM965.191 35.9712L898.577 66.0623L1001.87 64.1745L965.191 35.9712ZM914.307 111.798L1001.3 65.1266L900.711 66.9652L897 67.0309L898.068 69.8052L914.307 111.815V111.798ZM913.436 112.126L908.806 100.143L896.146 67.4085L833.834 130.365L913.436 112.126ZM832.586 130.299L895.063 67.1786L814.885 76.7165L832.586 130.299ZM813.917 76.7986L717.599 79.5894L715.054 79.6715L831.601 130.332L813.917 76.815V76.7986ZM726.531 152.067L830.829 131.005L737.861 90.6047L713.56 80.049L726.531 152.067ZM718.485 112.619L712.591 79.9013L645.254 103.508L725.513 151.706L718.485 112.635V112.619ZM678.618 218.094L725.267 153.052L668.208 150.984L578.114 147.734L678.602 218.094H678.618ZM722.246 152.002L724.364 152.084L644.17 103.935L578.064 146.798L722.246 152.002ZM576.537 146.666L606.782 127.049L642.561 103.853L492.074 104.887L576.537 146.666ZM459.317 182.241L575.306 147.093L490.35 105.067L459.317 182.224V182.241ZM490.137 103.869L573.582 52.01L519.003 49.1042L407.119 43.1452L415.805 49.4983L490.137 103.853V103.869ZM488.544 103.869L405.625 43.2272L377.843 70.1992L352.294 95.0043L488.544 103.869ZM241.609 161.868L339.207 134.387L350.422 96.4325L241.609 161.884V161.868ZM351.128 94.8237L392.128 55.0142L404.525 42.981L220.329 26.3348L351.128 94.8237ZM218.473 25.2185L402.571 41.8647L215.419 -35.9158L218.473 25.2185ZM217.537 25.2842L214.5 -35.6203L121.285 50.3519L217.521 25.2842H217.537ZM87.9039 83.9889L118.477 51.7965L3.45752 57.1647L87.9039 83.9889Z" fill="url(#paint0_linear_707_1746)" fill-opacity="0.5"/>
<defs>
<linearGradient id="paint0_linear_707_1746" x1="612.109" y1="-392.121" x2="612.109" y2="219.194" gradientUnits="userSpaceOnUse">
<stop stop-color="#F3893D"/>
<stop offset="0.932292" stop-color="#10C2B7"/>
<stop offset="1" stop-color="#00C6C0"/>
</linearGradient>
</defs>
</svg>
