<svg width="304" height="411" viewBox="0 0 304 411" fill="none" xmlns="http://www.w3.org/2000/svg">
<path d="M208.439 304.749L283.904 205.611L284.759 204.277H239.651L183.212 277.631L94.0647 181.16C144.304 177.604 179.578 141.594 180.647 93.1363C181.074 69.3521 172.309 46.6793 155.848 29.3413C138.318 10.6695 113.733 0 88.5063 0H0V300.526H37.8396V174.269L159.91 308.306L82.0927 409.666L81.2376 411H126.346L184.495 335.202L250.768 407.888H304L208.439 304.749ZM37.8396 148.485V34.8983H82.9479C120.146 34.8983 143.021 56.682 143.021 92.0249C143.021 129.368 117.367 149.151 68.8383 149.151C48.1013 149.151 42.5428 149.151 37.8396 148.707V148.485Z" fill="#00ACBA"/>
</svg>
