<svg width="20" height="28" viewBox="0 0 20 28" fill="none" xmlns="http://www.w3.org/2000/svg">
<path d="M13.847 20.563L18.7048 14.157L18.7598 14.0708H15.8562L12.2232 18.8107L6.48469 12.5771C9.71861 12.3472 11.9892 10.0204 12.058 6.88925C12.0856 5.3524 11.5213 3.88735 10.4617 2.76703C9.33329 1.56052 7.75073 0.871094 6.12689 0.871094H0.429688V20.2901H2.86544V12.1318L10.7232 20.7928L5.71404 27.3424L5.659 27.4286H8.56265L12.3057 22.5307L16.5718 27.2275H19.9983L13.847 20.563ZM2.86544 10.4657V3.12611H5.76909C8.16357 3.12611 9.63603 4.5337 9.63603 6.81744C9.63603 9.23045 7.98468 10.5088 4.86085 10.5088C3.526 10.5088 3.16819 10.5088 2.86544 10.48V10.4657Z" fill="white"/>
</svg>
