<svg width="15" height="15" viewBox="0 0 15 15" fill="none" xmlns="http://www.w3.org/2000/svg">
<path d="M0.00117181 6.5006C0.680527 5.91381 1.36076 5.3282 2.03865 4.73996C3.83767 3.17853 5.63551 1.61592 7.43423 0.0536101C7.4524 0.0377908 7.47232 0.024022 7.50337 0C7.67973 0.152335 7.85579 0.304377 8.03156 0.457005C10.3386 2.46079 12.6455 4.46488 14.9525 6.46837C14.9669 6.48068 14.9842 6.48976 15 6.5006V6.52989C14.7797 6.77656 14.5594 7.02322 14.3391 7.27018C14.3069 7.30621 14.2744 7.34225 14.2298 7.39176C14.0043 7.19636 13.7819 7.00418 13.5317 6.7874V6.98748C13.5317 8.81843 13.5329 10.6491 13.5311 12.48C13.5303 13.283 13.0788 13.9424 12.3546 14.1941C12.2178 14.2415 12.0708 14.2846 11.9278 14.2864C11.1866 14.2955 10.4452 14.2908 9.69084 14.2908C9.70314 14.2673 9.70842 14.2498 9.71955 14.2372C10.023 13.8868 10.3257 13.5358 10.6336 13.1896C10.6661 13.1529 10.7311 13.1283 10.7818 13.1275C11.0991 13.1219 11.4163 13.1266 11.7336 13.1242C12.113 13.1213 12.3596 12.8817 12.3599 12.502C12.3623 10.2905 12.3623 8.07873 12.3561 5.86723C12.3561 5.80015 12.2964 5.71754 12.241 5.66891C11.0276 4.60959 9.81066 3.55409 8.59432 2.498C8.2334 2.18454 7.87249 1.87137 7.5019 1.55001C7.41841 1.62119 7.33697 1.68916 7.257 1.75859C5.7606 3.05783 4.26479 4.35795 2.76634 5.65484C2.67318 5.73541 2.63598 5.81597 2.63627 5.94047C2.64037 8.113 2.63891 10.2855 2.63949 12.4581C2.63949 12.8067 2.81116 13.0519 3.10704 13.1105C3.21075 13.131 3.3209 13.1236 3.42783 13.1242C3.69148 13.126 3.95514 13.1231 4.2185 13.1266C4.26274 13.1272 4.32279 13.1374 4.34828 13.167C4.6673 13.535 4.98106 13.907 5.30447 14.2878C5.25731 14.2905 5.2119 14.2955 5.1662 14.2955C4.54134 14.296 3.91647 14.2966 3.2916 14.2955C2.22643 14.2934 1.46945 13.535 1.46857 12.4657C1.4671 10.6397 1.46827 8.81374 1.46827 6.98777C1.46827 6.93446 1.46827 6.88085 1.46827 6.78974C1.22366 7.00008 1.00131 7.19138 0.77222 7.38853C0.512665 7.09998 0.256333 6.81523 0 6.53048C0 6.52081 0 6.51085 0 6.50118L0.00117181 6.5006Z" fill="white"/>
<path d="M7.50211 6.21558C9.09782 6.21909 10.4984 7.36688 10.8005 8.92743C10.9627 9.76644 10.8341 10.565 10.4428 11.3252C10.011 12.1637 9.41831 12.8805 8.75712 13.5408C8.39181 13.9056 7.99076 14.2345 7.60845 14.5829C7.53551 14.6491 7.48571 14.6608 7.40017 14.5911C6.51867 13.8722 5.71716 13.0765 5.05802 12.1461C4.64056 11.557 4.28755 10.9309 4.18121 10.205C4.00896 9.03026 4.3104 7.99321 5.17637 7.16122C5.84313 6.52054 6.64728 6.21411 7.50241 6.21616L7.50211 6.21558ZM7.48014 13.1351C7.51559 13.1137 7.52936 13.1084 7.53932 13.0991C8.16858 12.5099 8.74628 11.8766 9.20592 11.1433C9.52787 10.6295 9.73353 10.0846 9.69427 9.45972C9.60258 7.99731 8.13079 7.02178 6.75567 7.52243C5.52059 7.97211 4.95695 9.38473 5.51824 10.614C5.77428 11.1744 6.12553 11.6715 6.53039 12.1297C6.83623 12.476 7.16463 12.8023 7.48043 13.1354L7.48014 13.1351Z" fill="white"/>
<path d="M7.5079 10.4565C7.02746 10.4597 6.62875 10.0677 6.62406 9.58701C6.61938 9.11008 7.01486 8.70874 7.49501 8.70258C7.96959 8.69643 8.37416 9.09573 8.37855 9.57412C8.38295 10.0528 7.98775 10.4533 7.5079 10.4565Z" fill="white"/>
</svg>
