<svg width="871" height="529" viewBox="0 0 871 529" fill="none" xmlns="http://www.w3.org/2000/svg">
<g opacity="0.45">
<g style="mix-blend-mode:screen">
<path d="M312.243 184.866L411.387 253.232L445.849 378.309L340.253 284.644C340.253 284.644 340.21 284.617 340.182 284.6C340.027 284.503 339.809 284.505 339.656 284.625C339.48 284.751 339.418 285.007 339.512 285.203L371.871 355.661C371.934 355.779 372.03 355.878 372.147 355.911L446.195 380.054L432.106 473.153L332.56 407.007C332.475 406.954 332.387 406.938 332.29 406.937C332.276 406.928 332.244 406.947 332.207 406.944C332.184 406.949 332.147 406.946 332.115 406.965C332.084 406.985 332.08 407.022 332.057 407.027C332.04 407.055 331.988 407.043 331.971 407.071C331.962 407.086 331.944 407.114 331.936 407.128C331.909 407.17 331.883 407.213 331.871 407.264C331.844 407.306 331.846 407.366 331.857 407.412C331.848 407.426 331.83 407.455 331.85 407.486L362.434 552.841C362.466 552.979 362.553 553.092 362.68 553.171L472.222 611.518L663.176 864.209L566.888 803.386C566.803 803.333 566.7 803.309 566.617 803.316L456.881 809.768C456.656 809.785 456.467 809.961 456.437 810.198C456.408 810.434 456.567 810.651 456.786 810.709L664.927 866.437L807.219 964.496C807.219 964.496 807.256 964.5 807.27 964.508C807.298 964.526 807.327 964.544 807.355 964.561L973.565 1006.95L1122.56 1084.86L931.83 1053.59C931.616 1053.55 931.403 1053.67 931.317 1053.87C931.23 1054.08 931.298 1054.31 931.496 1054.44L1044.46 1132.08C1044.62 1132.17 1044.8 1132.19 1044.96 1132.09L1125.62 1086.2C1125.62 1086.2 1125.63 1086.18 1125.64 1086.17C1125.64 1086.17 1125.67 1086.17 1125.67 1086.15C1125.7 1086.11 1125.72 1086.08 1125.74 1086.04C1125.76 1086.01 1125.78 1085.98 1125.81 1085.94C1125.84 1085.88 1125.83 1085.81 1125.84 1085.76C1125.85 1085.75 1125.86 1085.72 1125.85 1085.67L1104.63 993.928L1223.23 1052.91C1223.36 1052.99 1223.53 1052.98 1223.64 1052.92C1223.78 1052.86 1223.87 1052.74 1223.91 1052.59L1246.89 948.537L1290.05 885.406L1361.22 846.818C1361.39 846.729 1361.49 846.537 1361.46 846.339C1361.44 846.187 1361.35 846.075 1361.24 846.004C1361.2 845.978 1361.15 845.951 1361.1 845.939L1285.67 828.427L1180.02 714.901L1128.94 625.96C1128.94 625.96 1128.89 625.925 1128.87 625.893C1128.87 625.893 1128.88 625.879 1128.85 625.861L1068.55 565.957L988.741 490.681L983.371 408.511C983.357 408.345 983.279 408.218 983.152 408.139C983.067 408.086 982.979 408.07 982.882 408.069L856.809 414.861L774.511 320.954C774.511 320.954 774.468 320.928 774.44 320.91C774.44 320.91 774.44 320.91 774.426 320.901L687.472 254.634C687.472 254.634 687.444 254.616 687.43 254.607C687.43 254.607 687.43 254.607 687.416 254.599C687.189 254.458 686.891 254.527 686.759 254.739C686.662 254.894 686.668 255.074 686.751 255.224L701.577 316.255C701.625 316.461 701.791 316.604 701.999 316.616L773.573 321.704L758.881 405.091L635.362 338.884L646.363 299.133C646.4 298.98 646.372 298.805 646.248 298.689L574.406 219.903C574.406 219.903 574.344 219.845 574.302 219.819C574.146 219.722 573.952 219.719 573.785 219.83C573.585 219.961 573.538 220.226 573.623 220.436L633.976 338.589L482.958 327.318L412.198 252.717L402.877 207.294C402.859 207.165 402.772 207.052 402.659 206.982C402.617 206.956 402.574 206.929 402.523 206.917L312.6 184.009C312.381 183.951 312.154 184.064 312.045 184.271C311.95 184.487 312.017 184.725 312.206 184.862L312.243 184.866ZM372.629 355.074L341.31 286.852L444.711 378.562L372.638 355.059L372.629 355.074ZM459.853 810.54L566.513 804.271L662.245 864.727L459.853 810.54ZM702.432 315.669L687.973 256.161L772.593 320.662L702.432 315.669V315.669ZM447.017 380.782L513.475 455.705L533.105 477.833L432.98 473.481L447.026 380.768L447.017 380.782ZM769.965 529.34L731.864 522.795L731.849 522.786L716.361 503.491L769.965 529.34ZM723.233 505.75L810.641 537.39L773.366 529.927L723.247 505.759L723.233 505.75ZM730.582 522.742L665.364 521.278L660.624 521.171L714.526 502.721L730.596 522.751L730.582 522.742ZM683.291 671.618L607.39 642.731L638.977 643.356L645.084 643.472L683.291 671.618ZM640.331 610.308L684.213 671.113L645.685 642.728L640.354 610.303L640.331 610.308ZM685.988 673.65L698.938 711.292L607.73 643.885L685.993 673.673L685.988 673.65ZM700.276 712.262L687.68 675.626L736.141 734.654L700.299 712.257L700.276 712.262ZM734.839 734.981L660.495 711.124L699.718 713.032L734.825 734.972L734.839 734.981ZM735.403 732.311L698.142 686.926L688.406 675.058L711.226 688.503L735.403 732.311ZM714.349 692.214L743.997 727.582L738.346 735.713L714.349 692.214V692.214ZM686.795 673.015L685.249 659.873L684.923 657.12L701.666 677.078L709.431 686.346L686.781 673.007L686.795 673.015ZM685.668 671.549L644.06 613.866L683.833 655.814L685.677 671.535L685.668 671.549ZM641.603 609.904L650.058 613.874L654.386 615.902L674.222 642.768L679.336 649.679L641.626 609.898L641.603 609.904ZM648.36 612.032L640.055 608.136L641.669 598.236L653.237 614.344L648.351 612.046L648.36 612.032ZM639.251 607.223L602.809 557.719L640.892 597.183L639.265 607.232L639.251 607.223ZM627.331 581.756L602.994 556.54L624.912 573.385L637.974 592.797L627.317 581.747L627.331 581.756ZM598.681 552.03L598.615 548.262L598.368 534.418L619.195 565.02L623.199 570.906L598.673 552.044L598.681 552.03ZM597.703 549.852L578.305 504.293L597.418 532.983L597.703 549.852ZM576.805 500.338L639.571 505.394L636.419 507.432L598.031 532.188L576.805 500.338V500.338ZM609.928 525.652L640.946 505.642L656.992 521.302L600.194 531.927L609.937 525.638L609.928 525.652ZM644.192 507.487L642.129 505.476L711.506 502.782L658.107 521.055L644.201 507.473L644.192 507.487ZM653.688 504.083L641.264 504.565L611.467 457.748L684.385 489.503L712.607 501.801L653.665 504.089L653.688 504.083ZM635.851 497.821L639.66 503.802L528.601 444.804L594.399 454.788L609.975 457.152L635.865 497.83L635.851 497.821ZM638.773 504.407L630.065 503.711L576.104 499.352L575.812 499.033L528.034 445.589L638.764 504.421L638.773 504.407ZM575.505 500.156L596.617 549.705L536.188 479.969L575.505 500.156V500.156ZM555.867 504.128L597.771 552.483L600.681 583.284L537.917 483.399L555.867 504.128ZM598.861 553.946L637.759 606.784L601.791 584.936L598.861 553.946V553.946ZM634.624 605.989L561.184 577.184L559.589 576.563L601.153 585.676L634.615 606.003L634.624 605.989ZM639.142 608.783L642.799 630.948L644.612 641.962L597.188 606.567L556.964 576.557L639.156 608.792L639.142 608.783ZM602.6 611.8L643.794 642.551L604.934 641.791L556.231 577.199L602.6 611.8V611.8ZM605.374 676.212L605.847 690.353L543.75 655.176L515.863 639.38L604.219 642.719L605.351 676.217L605.374 676.212ZM605.217 643.732L622.734 666.605L655.574 709.511L611.229 692.547L606.81 690.855L605.217 643.732ZM607.107 644.634L698.362 712.09L657.196 710.089L607.098 644.649L607.107 644.634ZM716.511 730.138L737.635 736.918L718.582 769.184L660.769 713.55L658.759 711.612L716.511 730.138ZM712.138 688.267L684.648 655.419L655.098 615.326L641.836 596.928L625.564 572.654L598.468 533.186L658.091 522.026L730.958 523.682L732.305 523.913L743.119 525.764L773.062 530.856L816.316 539.492L872.941 559.356L916.124 574.596L970.584 608.175L1018.33 651.752L1054.82 689.639L1074.27 709.596L1128.62 760.269L1130.22 789.742L1138.01 804.322L1144.74 819.536L1125.06 824.932L1094.68 833.02L1066.52 837.69L1030.55 846.945L969.195 853.202L928.68 861.022L870.434 837.618L807.308 791.778L776.229 759.715L744.888 727.411L712.166 688.285L712.138 688.267ZM872.931 558.427L855.682 552.355L818.196 539.152L853.29 526.427L872.931 558.427V558.427ZM855.249 527.784L913.626 572.746L874.336 558.911L874.322 558.902C874.322 558.902 874.326 558.865 874.312 558.856L855.497 528.174L855.249 527.784ZM1058.77 924.928L972.802 885.025L995.534 879.077L1058.77 924.928V924.928ZM1000.08 881.2L1107.98 932.566L1063.2 926.958L1000.08 881.2V881.2ZM992.059 910.491L991.717 911.67L948.037 879.744L969.527 892.047L993.403 905.718L992.059 910.491ZM994.191 906.405L1034.44 946.768L992.54 912.301L993.284 909.626L994.182 906.419L994.191 906.405ZM775.63 803.963L805.818 809.796L812.563 811.094L744.239 811.403L708.606 811.573L775.639 803.948L775.63 803.963ZM775.814 803.037L725.01 773.069L813.025 810.224L780.634 803.96L775.8 803.029L775.814 803.037ZM720.942 770.34L769.899 769.817L814.936 810.022L720.942 770.34V770.34ZM775.254 760.147L770 768.585L741.356 739.039L775.254 760.147ZM739.002 736.455L744.68 728.282L773.394 757.872L739.002 736.455V736.455ZM774.345 772.507L806.998 792.526L815.793 809.497L774.345 772.507ZM770.744 769.185L776.068 760.635L804.387 789.821L800.326 787.332L770.73 769.177L770.744 769.185ZM808.709 793.749L817.351 800.032L865.216 834.878L830.821 817.717L817.75 811.205L808.709 793.749V793.749ZM830.104 818.428L869.652 838.151L871.524 848.123L823.28 815.021L830.104 818.428V818.428ZM870.71 838.594L919.276 858.01L923.314 859.622L872.616 848.764L870.71 838.594V838.594ZM957.007 875.641L943.498 874.779L1029.47 848.115L1000.97 873.221L995.479 878.062L957.016 875.627L957.007 875.641ZM992.662 878.838L971.433 884.388L944.68 875.81L982.074 878.168L992.662 878.838V878.838ZM947.22 872.645L971.632 861.133L1019.49 850.217L947.206 872.636L947.22 872.645ZM971.809 860.125L969.782 853.96L998.939 850.895L1023.64 848.31L971.809 860.125V860.125ZM970.85 860.215L934.072 860.712L968.834 854.096L968.932 854.411L970.841 860.229L970.85 860.215ZM948.364 861.452L969.332 861.172L941.04 874.504L931.375 863.563L929.718 861.688L948.372 861.438L948.364 861.452ZM930.704 864.263L939.286 873.981L878.284 850.94L928.424 861.686L930.704 864.263V864.263ZM940.178 875.321L933.493 884.986L932.861 885.906L876.698 851.345L940.193 875.33L940.178 875.321ZM882.608 865.008L874.294 851.613L978.279 943.079L887.26 872.534L882.6 865.023L882.608 865.008ZM882.59 924.17L872.981 851.266L882.866 867.209L886.428 872.957L882.599 924.156L882.59 924.17ZM876.705 852.467L877.539 852.987L932.671 886.905L985.217 947.909L876.691 852.458L876.705 852.467ZM933.582 886.512L935.458 883.816L940.905 875.95L986.225 947.614L933.597 886.521L933.582 886.512ZM944.521 879.908L973.579 912.948L987.698 948.179L944.521 879.908ZM944.121 878.031L990.595 911.992L974.194 912.213L944.121 878.031V878.031ZM986.409 900.598L945.047 876.921L971.175 885.306L990.498 902.948L986.409 900.598V900.598ZM1031.57 847.542L1071.22 860.073L997.38 877.657L1031.57 847.542ZM1087 842.831L1069.62 837.987L1088.46 834.779L1093.73 833.881L1087 842.831ZM1114.76 851.9L1074.22 859.426L1087.35 843.911L1114.76 851.9V851.9ZM1084.37 843.079L1036.54 846.205L1067.44 838.359L1084.37 843.079ZM1086.11 843.922L1084.05 846.346L1072.84 859.588L1045.89 851.067L1034.01 847.314L1086.11 843.907L1086.11 843.922ZM1072.51 860.754L1072.16 875.387L1017.08 877.333L1000.38 877.915L1072.51 860.754V860.754ZM1073.46 860.544L1113.94 853.035L1108.74 855.838L1073.12 875.043L1073.46 860.544ZM1109.49 856.499L1116.78 852.568L1138.32 868.122L1129.75 869.062L1075.01 875.1L1109.5 856.508L1109.49 856.499ZM1116.84 851.526L1090.18 843.749L1127.5 842.533L1181.42 840.785L1139.46 847.767L1116.84 851.526V851.526ZM1088.16 842.865L1091.54 838.38L1095.05 833.721L1134.92 836.639L1179.59 839.904L1104.14 842.365L1088.17 842.874L1088.16 842.865ZM1163.5 837.768L1097.67 832.942L1105.83 830.767L1125.74 825.475L1182.8 839.171L1163.51 837.754L1163.5 837.768ZM1135.75 826.92L1127.66 824.981L1145.32 820.285L1184.16 838.552L1135.74 826.935L1135.75 826.92ZM1145.6 819.168L1139.07 804.571L1178.48 805.772L1145.61 819.154L1145.6 819.168ZM1138.61 803.615L1131.64 790.765L1177.24 804.803L1138.62 803.624L1138.61 803.615ZM1131.12 789.617L1130.12 771.986L1129.51 761.235L1167.89 794.781L1178.75 804.271L1131.13 789.603L1131.12 789.617ZM1130.98 761.268L1160.84 770.623L1179 803.247L1131 761.276L1130.98 761.268ZM1156.19 768.175L1129.22 759.719L1079.56 713.36L1144.18 758.854L1158.4 768.869L1156.19 768.175ZM1055.39 688.854L1054.74 688.172L1058.26 676.679L1108.76 722.832L1127 739.505L1055.38 688.832L1055.39 688.854ZM1122.31 737.354L1074.53 708.655L1058.95 692.523L1122.31 737.354ZM1053.99 687.392L1021.38 653.653L1057.46 676.043L1056.78 678.268L1053.98 687.406L1053.99 687.392ZM1018.69 650.858L980.024 615.603L1032.41 656.444L1050.77 670.757L1018.69 650.858V650.858ZM768.992 768.879L742.317 769.156L719.527 769.399L737.789 738.465L738.438 737.36L769.001 768.865L768.992 768.879ZM759.364 794.422L774.201 803.171L700.68 811.541L718.902 770.56L759.364 794.422V794.422ZM759.392 826.605L703.66 812.553L814.643 812.036L768.613 828.621L768.11 828.798L759.392 826.605V826.605ZM767.349 829.579L732.842 877.307L700.808 812.817L767.363 829.588L767.349 829.579ZM811.033 814.338L817.333 812.064L819.076 813.267L870.068 848.256L805.235 835.872L769.927 829.125L811.027 814.315L811.033 814.338ZM790.521 834.045L871.786 849.561L882.073 927.614L791.195 848.684L769.777 830.091L790.521 834.045ZM887.308 873.78L988.085 951.872L883.225 928.41L887.317 873.766L887.308 873.78ZM974.667 913.155L987.488 912.979L991.502 912.929L989.654 950.613L974.644 913.16L974.667 913.155ZM991.983 922.584L992.422 913.404L1040.23 952.747L990.526 952.332L991.974 922.598L991.983 922.584ZM1027.25 938.189L994.309 905.145L994.295 905.136L974.015 886.604L1062.28 927.582L1041.55 952.526L1027.25 938.189V938.189ZM1063.23 927.918L1108.5 933.594L1042.92 952.364L1063.23 927.918V927.918ZM997.587 878.963L1072.38 876.327L1095.05 910.452L1109.53 932.254L997.601 878.971L997.587 878.963ZM1084.68 893.124L1073.45 876.211L1138.83 869.007L1110.79 932.41L1084.7 893.119L1084.68 893.124ZM1130.82 861.526L1118.35 852.528L1216.91 855.769L1161.81 864.465L1139.71 867.945L1130.82 861.526ZM1121.6 851.688L1138.82 848.836L1188.49 840.58L1219.59 854.928L1121.61 851.711L1121.6 851.688ZM1146.54 819.794L1175.77 807.889L1180.4 806.004L1187.88 839.222L1146.54 819.794V819.794ZM1181.04 804.912L1162.85 772.224L1205.06 807.864L1181.04 804.912V804.912ZM1161.44 769.796L1136.19 746.581L1264.87 817.946L1272.59 822.221L1260.56 816.555L1161.44 769.796V769.796ZM1141.84 753.063L1155.49 765.605L1085.21 716.109L1132.66 744.62L1141.84 753.063V753.063ZM1097.08 710.812L1060.43 677.301L1092.82 691.119L1118.88 726.113L1129.61 740.543L1097.08 710.812V710.812ZM1058.42 675.422L1044.54 637.5L1091.32 689.46L1058.42 675.422V675.422ZM1056.66 673.365L991.05 594.304L1042.87 635.653L1056.66 673.365ZM1054.89 672.713L971.342 607.588L987.699 591.747L1054.89 672.713V672.713ZM984.636 593.389L970.548 607.035L918.967 575.228L924.315 576.5L986.775 591.309L984.645 593.375L984.636 593.389ZM916.823 573.756L923.455 551.702L961.79 575.514L985.004 589.931L916.823 573.756V573.756ZM915.968 573.302L856.161 527.234L922.591 551.262L915.968 573.302ZM855.087 525.84L881.035 519.422L920.419 549.458L855.082 525.817L855.087 525.84ZM853.535 525.245L807.574 498.273L879.313 518.88L853.535 525.245ZM816.818 538.529L783.957 515.282L771.267 506.3L851.82 525.825L816.827 538.515L816.818 538.529ZM813.609 537.413L717.909 502.769L768.8 505.725L813.609 537.413ZM727.698 502.392L715.14 501.672L714.341 482.856L732.96 490.665L766.224 504.631L727.698 502.392ZM714.174 501.365L615.512 458.403L713.373 482.488L714.174 501.365ZM667.175 470.137L610.476 456.189L585.38 426.616L708.556 480.332L667.189 470.146L667.175 470.137ZM609.027 455.934L527.955 443.637L553.319 435.542L583.532 425.897L609.027 455.934ZM526.784 445.516L559.903 482.556L573.806 498.098L570.401 496.35L534.625 477.975L526.807 445.511L526.784 445.516ZM533.291 476.556L450.88 383.619L525.463 444.047L533.3 476.542L533.291 476.556ZM533.933 479.369L553.197 573.975L478.514 547.26L533.948 479.378L533.933 479.369ZM477.77 546.659L433.314 474.395L491.029 476.914L533.244 478.743L505.649 512.535L477.784 546.668L477.77 546.659ZM553.121 574.948L538.08 599.101L514.02 637.644L478.545 548.28L553.121 574.948V574.948ZM535.187 480.758L600.314 584.408L580.481 580.061L554.228 574.304L535.187 480.758V480.758ZM553.865 575.549L603.686 641.622L514.756 638.259L553.865 575.549ZM559.773 665.232L604.985 690.856L550.823 701.533L515.207 639.991L559.773 665.232V665.232ZM605.937 691.625L620.575 778.507L551.5 702.367L605.937 691.625V691.625ZM615.245 741.198L606.923 691.807L623.949 698.331L656.272 710.691L640.897 740.736L621.56 778.532L615.268 741.193L615.245 741.198ZM657.046 711.212L659.289 713.374L717.584 769.464L622.125 779.452L657.046 711.212V711.212ZM715.711 770.613L717.871 770.389L699.62 811.45L635.835 785.441L623.227 780.296L715.711 770.613ZM699.521 812.428L731.214 876.235L623.718 781.524L699.535 812.436L699.521 812.428ZM732.362 878.518L798.781 954.829L723.098 880.006L633.352 791.288L732.376 878.527L732.362 878.518ZM768.16 829.947L880.532 927.537L801.839 900.992L733.457 877.925L768.168 829.933L768.16 829.947ZM781.497 895.131L881.226 928.754L840.638 943.53L736.557 879.973L781.497 895.131V895.131ZM882.592 929.271L916.86 952.493L950.46 975.279L948.399 974.682L842.112 943.997L882.592 929.271V929.271ZM884.986 929.742L988.785 952.955L953.198 975.984L884.986 929.742ZM990.128 953.223L1038 953.616L959.887 974.285L955.96 975.33L990.137 953.208L990.128 953.223ZM1041.45 953.684L1101.04 991.752L1101.95 992.316L1053.93 987.085L955.788 976.361L1041.45 953.684V953.684ZM1042.67 953.342L1110.25 933.997L1106.69 964.753L1103.52 992.216L1042.67 953.342ZM1135.12 879.541L1139.76 869.057L1207.36 905.662L1111.64 932.609L1135.12 879.541V879.541ZM1115.75 932.441L1208.46 906.325L1245.23 947.678L1113.26 933.128L1115.74 932.432L1115.75 932.441ZM1222.18 856.067L1288.24 884.884L1283.15 886.188L1209.28 905.145L1222.18 856.067ZM1208.32 905.101L1152.41 874.833L1141 868.649L1169.3 864.187L1221.22 856L1208.31 905.115L1208.32 905.101ZM1190.02 840.2L1221.56 833.813L1221.51 838.961L1221.4 854.678L1190.01 840.214L1190.02 840.2ZM1220.32 833.098L1188.87 839.464L1181.43 806.369L1220.84 832.99L1220.32 833.098V833.098ZM1182.6 806.023L1206.26 808.927L1220.45 831.57L1182.6 806L1182.6 806.023ZM1206.76 808.061L1194.18 797.445L1164.2 772.127L1190.36 784.47L1280.68 827.084L1206.76 808.061V808.061ZM1133.35 743.915L1131.83 720.843L1260.2 811.548L1278.02 824.136L1133.35 743.915V743.915ZM1132.33 742.63L1095.49 693.134L1108.81 703.311L1130.84 720.129L1132.33 742.63V742.63ZM1093.54 690.445L1089.38 658.062L1129.33 717.774L1093.54 690.445ZM1092.43 689.264L1045.11 636.715L1088.2 656.449L1092.43 689.264V689.264ZM1043.55 634.962L1025.13 605.857L1042.65 619.882L1085.34 654.08L1043.54 634.953L1043.55 634.962ZM1041.32 633.197L990.225 592.417L990.673 592.579L1022.92 604.11L1041.33 633.206L1041.32 633.197ZM987.941 590.603L948.669 556.008L943.106 551.112L1019.73 601.963L987.955 590.611L987.941 590.603ZM968.441 574.694L983.126 587.624L924.319 551.102L937.469 547.406L968.441 574.694V574.694ZM923.253 550.419L885.351 521.502L899.618 528.582L936.28 546.763L923.253 550.419V550.419ZM881.849 518.713L881.722 518.634L888.176 499.764L891.454 490.214L926.488 533.82L935.867 545.505L881.84 518.728L881.849 518.713ZM880.825 518.311L806.676 497.007L890.605 489.783L880.825 518.311ZM855.7 491.839L804.351 496.266L785.499 457.99L760.388 407.049L889.834 488.911L855.692 491.853L855.7 491.839ZM804.004 497.266L850.439 524.514L770.961 505.247L804.004 497.266ZM779.09 502.306L768.996 504.749L747.685 495.813L717.702 483.223L801.708 496.856L779.104 502.315L779.09 502.306ZM714.078 481.672L655.48 415.39L728.472 455.626L801.465 495.861L714.078 481.672V481.672ZM712.055 480.824L585.337 425.55L653.127 414.16L712.055 480.824V480.824ZM583.726 424.861L452.493 381.093L650.422 413.652L583.726 424.861ZM488.284 394.025L582.156 425.335L525.984 443.273L449.031 380.918L488.293 394.011L488.284 394.025ZM432.018 474.176L471.2 608.371L334.043 409.068L432.018 474.176V474.176ZM363.265 552.358L333.221 409.537L364.486 454.973L470.989 609.749L363.265 552.358ZM451.557 537.75L433.857 477.146L446.516 497.738L477.194 547.615L476.722 553.381L472.206 608.487L451.557 537.75V537.75ZM477.993 549.544L512.892 637.471L472.959 610.839L477.993 549.544ZM513.546 639.036L547.598 697.858L487.517 627.848L475.094 613.365L513.569 639.03L513.546 639.036ZM482.036 622.944L550.187 702.334L650.145 845.346L482.045 622.93L482.036 622.944ZM555.216 707.898L620.903 780.28L651.873 841.028L661.573 860.072L555.216 707.898ZM665.461 865.612L638.954 813.606L623.053 782.404L803.343 960.67L665.5 865.675L665.461 865.612ZM807.551 963.428L735.08 880.171L839.684 944.054L807.551 963.428V963.428ZM808.669 963.869L840.634 944.606L968.991 1004.75L808.683 963.878L808.669 963.869ZM905.769 974.085L846.238 946.193L952.911 976.982L963.839 992.888L972.339 1005.26L905.778 974.071L905.769 974.085ZM973.936 1005.94L971.947 1003.06L954.173 977.16L1099.42 993.013L989.6 1004.32L973.944 1005.93L973.936 1005.94ZM1044.75 1131.14L933.782 1054.86L1123.99 1086.05L1044.75 1131.14V1131.14ZM1124.71 1084.9L975.367 1006.79L1103.59 993.591L1124.71 1084.9V1084.9ZM1104.51 992.421L1111.28 933.951L1244.16 948.58L1196.99 963.375L1104.48 992.404L1104.51 992.421ZM1223.1 1051.8L1105.2 993.167L1245.81 949.056L1223.1 1051.8ZM1246.41 947.586L1209.53 906.126L1288.61 885.824L1246.39 947.578L1246.41 947.586ZM1359.68 846.584L1290.13 884.299L1285.93 829.454L1359.68 846.584ZM1285 829.538L1288.04 869.362L1289.18 884.315L1262.34 872.602L1223.1 855.48L1246.57 845.638L1284.98 829.529L1285 829.538ZM1222.37 854.754L1222.53 833.746L1282.59 829.529L1222.38 854.777L1222.37 854.754ZM1222.31 832.806L1207.58 809.32L1282.47 828.591L1222.3 832.82L1222.31 832.806ZM1281.96 825.821L1132.62 720.296L1179.45 715.663L1281.94 825.812L1281.96 825.821ZM1131.54 719.447L1090.32 657.829L1178.24 714.831L1131.54 719.447ZM1128.39 626.887L1178.26 713.704L1092.65 658.196L1089.49 656.15L1091.89 654.334L1128.39 626.873L1128.39 626.887ZM1127.81 626.138L1117.4 633.973L1088.95 655.368L1069.06 567.762L1127.81 626.138ZM1067.95 567.149L1087.9 654.984L1023.99 603.79L1067.95 567.149ZM1023.2 603.2L941.77 549.162L939.623 547.727L1067.12 566.593L1023.2 603.186L1023.2 603.2ZM988.315 491.553L1066.82 565.6L965.119 550.541L938.539 546.601L988.315 491.553ZM960.241 521.202L937.626 546.209L892.31 489.786L987.245 491.318L960.249 521.187L960.241 521.202ZM982.463 409.024L987.755 490.027L937.524 461.219L858.217 415.718L982.449 409.015L982.463 409.024ZM984.591 489.312L986.458 490.377L891.606 488.838L857.673 416.497L984.591 489.312V489.312ZM856.288 415.792L871.809 448.895L890.176 488.046L761.175 406.48L856.288 415.792ZM774.442 322.324L855.457 414.764L759.787 405.4L774.434 322.338L774.442 322.324ZM758.961 406.317L802.998 495.698L754.453 468.94L654.936 414.09L665.819 413.277L758.952 406.332L758.961 406.317ZM757.59 405.464L653.693 413.218L644.235 375.104L635.537 340.052L757.59 405.464V405.464ZM576.092 223.15L645.384 299.131L634.691 337.819L576.101 223.136L576.092 223.15ZM634.437 339.582L648.392 395.835L652.614 412.84L485.113 328.424L634.437 339.582ZM482.917 328.391L650.333 412.754L447.514 379.385L482.917 328.391V328.391ZM482.147 327.833L446.881 378.638L412.72 254.651L482.132 327.824L482.147 327.833ZM402.015 207.797L411.078 251.902L314.933 185.619L402.015 207.797V207.797Z" fill="#00C6C0" fill-opacity="0.5"/>
<path d="M164.994 261.768L179.595 332.231C179.619 332.383 179.734 332.513 179.878 332.564L284.199 374.597C284.414 374.692 284.647 374.602 284.785 374.413C284.908 374.215 284.877 373.98 284.706 373.815L165.757 261.204C165.757 261.204 165.7 261.169 165.672 261.151C165.46 261.019 165.148 261.08 165.016 261.292C164.928 261.433 164.933 261.613 165.002 261.754L164.994 261.768ZM282.235 372.805L180.474 331.797L166.2 262.951L282.235 372.805Z" fill="#00C6C0" fill-opacity="0.5"/>
</g>
<g style="mix-blend-mode:color-dodge">
<path d="M312.243 184.866L411.387 253.232L445.849 378.309L340.253 284.644C340.253 284.644 340.21 284.617 340.182 284.6C340.026 284.503 339.809 284.505 339.656 284.625C339.48 284.751 339.418 285.007 339.512 285.203L371.871 355.661C371.934 355.779 372.03 355.878 372.147 355.911L446.195 380.054L432.106 473.153L332.56 407.007C332.475 406.954 332.387 406.938 332.29 406.937C332.276 406.928 332.244 406.947 332.207 406.944C332.184 406.949 332.147 406.946 332.115 406.965C332.084 406.985 332.08 407.022 332.057 407.027C332.04 407.055 331.989 407.043 331.971 407.071C331.962 407.086 331.945 407.114 331.936 407.128C331.909 407.17 331.883 407.213 331.871 407.264C331.844 407.306 331.846 407.366 331.857 407.412C331.848 407.426 331.83 407.455 331.85 407.486L362.434 552.841C362.466 552.979 362.553 553.092 362.68 553.171L472.222 611.518L663.176 864.209L566.888 803.386C566.803 803.333 566.7 803.309 566.617 803.316L456.882 809.768C456.656 809.785 456.467 809.961 456.437 810.198C456.408 810.434 456.567 810.651 456.786 810.709L664.927 866.437L807.219 964.496C807.219 964.496 807.256 964.5 807.27 964.508C807.298 964.526 807.327 964.544 807.355 964.561L973.565 1006.95L1122.56 1084.86L931.83 1053.59C931.616 1053.55 931.403 1053.67 931.317 1053.87C931.23 1054.08 931.298 1054.31 931.496 1054.44L1044.46 1132.08C1044.62 1132.17 1044.8 1132.19 1044.96 1132.09L1125.62 1086.2C1125.62 1086.2 1125.63 1086.18 1125.64 1086.17C1125.64 1086.17 1125.67 1086.17 1125.67 1086.15C1125.7 1086.11 1125.72 1086.08 1125.74 1086.04C1125.76 1086.01 1125.78 1085.98 1125.81 1085.94C1125.84 1085.88 1125.83 1085.81 1125.84 1085.76C1125.85 1085.75 1125.86 1085.72 1125.85 1085.67L1104.63 993.928L1223.23 1052.91C1223.36 1052.99 1223.53 1052.98 1223.64 1052.92C1223.78 1052.86 1223.87 1052.74 1223.91 1052.59L1246.89 948.537L1290.05 885.406L1361.22 846.818C1361.39 846.729 1361.49 846.537 1361.46 846.339C1361.44 846.187 1361.35 846.075 1361.24 846.004C1361.2 845.978 1361.15 845.951 1361.1 845.939L1285.67 828.427L1180.02 714.901L1128.94 625.96C1128.94 625.96 1128.89 625.925 1128.87 625.893C1128.87 625.893 1128.88 625.879 1128.85 625.861L1068.55 565.957L988.741 490.681L983.371 408.511C983.357 408.345 983.279 408.218 983.152 408.139C983.067 408.086 982.979 408.07 982.882 408.069L856.809 414.861L774.511 320.954C774.511 320.954 774.468 320.928 774.44 320.91C774.44 320.91 774.44 320.91 774.426 320.901L687.472 254.634C687.472 254.634 687.444 254.616 687.43 254.607C687.43 254.607 687.43 254.607 687.416 254.599C687.189 254.458 686.891 254.527 686.759 254.739C686.662 254.894 686.668 255.074 686.751 255.224L701.577 316.255C701.625 316.461 701.791 316.604 701.999 316.616L773.573 321.704L758.881 405.091L635.362 338.884L646.363 299.133C646.4 298.98 646.372 298.805 646.248 298.689L574.406 219.903C574.406 219.903 574.344 219.845 574.302 219.819C574.146 219.722 573.952 219.719 573.785 219.83C573.585 219.961 573.538 220.226 573.623 220.436L633.976 338.589L482.958 327.318L412.198 252.717L402.877 207.294C402.859 207.165 402.772 207.052 402.659 206.982C402.617 206.956 402.574 206.929 402.523 206.917L312.6 184.009C312.381 183.951 312.154 184.064 312.045 184.271C311.95 184.487 312.017 184.725 312.206 184.862L312.243 184.866ZM372.629 355.074L341.31 286.852L444.711 378.562L372.638 355.059L372.629 355.074ZM459.853 810.54L566.513 804.271L662.245 864.727L459.853 810.54ZM702.432 315.669L687.973 256.161L772.593 320.662L702.432 315.669ZM447.017 380.782L513.475 455.705L533.105 477.833L432.98 473.481L447.026 380.768L447.017 380.782ZM769.965 529.34L731.864 522.795L731.849 522.786L716.361 503.491L769.965 529.34ZM723.233 505.75L810.641 537.39L773.366 529.927L723.247 505.759L723.233 505.75ZM730.582 522.742L665.363 521.278L660.624 521.171L714.526 502.721L730.596 522.751L730.582 522.742ZM683.29 671.618L607.39 642.731L638.977 643.356L645.084 643.472L683.29 671.618ZM640.331 610.308L684.213 671.113L645.685 642.728L640.354 610.303L640.331 610.308ZM685.988 673.65L698.938 711.292L607.73 643.885L685.993 673.673L685.988 673.65ZM700.276 712.262L687.68 675.626L736.141 734.654L700.299 712.257L700.276 712.262ZM734.839 734.981L660.495 711.124L699.718 713.032L734.825 734.972L734.839 734.981ZM735.403 732.311L698.142 686.926L688.406 675.058L711.226 688.503L735.403 732.311ZM714.349 692.214L743.997 727.582L738.346 735.713L714.349 692.214ZM686.795 673.015L685.249 659.873L684.923 657.12L701.666 677.078L709.431 686.346L686.781 673.007L686.795 673.015ZM685.668 671.549L644.06 613.866L683.833 655.814L685.677 671.535L685.668 671.549ZM641.603 609.904L650.058 613.874L654.386 615.902L674.222 642.768L679.336 649.679L641.626 609.898L641.603 609.904ZM648.36 612.032L640.055 608.136L641.669 598.236L653.237 614.344L648.351 612.046L648.36 612.032ZM639.251 607.223L602.809 557.719L640.892 597.183L639.265 607.232L639.251 607.223ZM627.331 581.756L602.994 556.54L624.912 573.385L637.974 592.797L627.317 581.747L627.331 581.756ZM598.681 552.03L598.615 548.262L598.368 534.418L619.195 565.02L623.199 570.906L598.673 552.044L598.681 552.03ZM597.703 549.852L578.305 504.293L597.418 532.983L597.703 549.852ZM576.805 500.338L639.571 505.394L636.419 507.432L598.031 532.188L576.805 500.338ZM609.928 525.652L640.946 505.642L656.992 521.302L600.194 531.927L609.937 525.638L609.928 525.652ZM644.192 507.487L642.129 505.476L711.506 502.782L658.107 521.055L644.201 507.473L644.192 507.487ZM653.688 504.083L641.264 504.565L611.467 457.748L684.385 489.503L712.607 501.801L653.665 504.089L653.688 504.083ZM635.851 497.821L639.66 503.802L528.601 444.804L594.399 454.788L609.975 457.152L635.865 497.83L635.851 497.821ZM638.773 504.407L630.065 503.711L576.104 499.352L575.812 499.033L528.034 445.589L638.764 504.421L638.773 504.407ZM575.505 500.156L596.617 549.705L536.188 479.969L575.505 500.156ZM555.867 504.128L597.771 552.483L600.681 583.284L537.917 483.399L555.867 504.128ZM598.861 553.946L637.759 606.784L601.791 584.936L598.861 553.946ZM634.624 605.989L561.184 577.184L559.589 576.563L601.153 585.676L634.615 606.003L634.624 605.989ZM639.142 608.783L642.799 630.948L644.612 641.962L597.188 606.567L556.964 576.557L639.156 608.792L639.142 608.783ZM602.6 611.8L643.794 642.551L604.934 641.791L556.231 577.199L602.6 611.8ZM605.374 676.212L605.847 690.353L543.75 655.176L515.863 639.38L604.219 642.719L605.351 676.217L605.374 676.212ZM605.217 643.732L622.734 666.605L655.574 709.511L611.229 692.547L606.81 690.855L605.217 643.732ZM607.107 644.634L698.362 712.09L657.196 710.089L607.098 644.649L607.107 644.634ZM716.511 730.138L737.635 736.918L718.582 769.184L660.769 713.55L658.759 711.612L716.511 730.138ZM712.138 688.267L684.648 655.419L655.098 615.326L641.836 596.928L625.564 572.654L598.468 533.186L658.091 522.026L730.958 523.682L732.305 523.913L743.119 525.764L773.062 530.856L816.316 539.492L872.941 559.356L916.124 574.596L970.584 608.175L1018.33 651.752L1054.82 689.639L1074.27 709.596L1128.62 760.269L1130.22 789.742L1138.01 804.322L1144.74 819.536L1125.06 824.932L1094.68 833.02L1066.52 837.69L1030.55 846.945L969.195 853.202L928.68 861.022L870.434 837.618L807.308 791.778L776.229 759.715L744.888 727.411L712.166 688.285L712.138 688.267ZM872.931 558.427L855.682 552.355L818.196 539.152L853.29 526.427L872.931 558.427ZM855.249 527.784L913.626 572.746L874.336 558.911L874.322 558.902C874.322 558.902 874.326 558.865 874.312 558.856L855.497 528.174L855.249 527.784ZM1058.77 924.928L972.802 885.025L995.534 879.077L1058.77 924.928ZM1000.08 881.2L1107.98 932.566L1063.2 926.958L1000.08 881.2ZM992.059 910.491L991.717 911.67L948.037 879.744L969.527 892.047L993.403 905.718L992.059 910.491ZM994.191 906.405L1034.44 946.768L992.54 912.301L993.284 909.626L994.182 906.419L994.191 906.405ZM775.63 803.963L805.818 809.796L812.563 811.094L744.239 811.403L708.606 811.573L775.639 803.948L775.63 803.963ZM775.814 803.037L725.01 773.069L813.025 810.224L780.634 803.96L775.8 803.029L775.814 803.037ZM720.942 770.34L769.899 769.817L814.937 810.022L720.942 770.34ZM775.254 760.147L770 768.585L741.356 739.039L775.254 760.147ZM739.002 736.455L744.68 728.282L773.394 757.872L739.002 736.455ZM774.345 772.507L806.998 792.526L815.793 809.497L774.345 772.507ZM770.744 769.185L776.068 760.635L804.387 789.821L800.326 787.332L770.73 769.177L770.744 769.185ZM808.709 793.749L817.351 800.032L865.216 834.878L830.822 817.717L817.75 811.205L808.709 793.749ZM830.104 818.428L869.652 838.151L871.524 848.123L823.28 815.021L830.104 818.428ZM870.71 838.594L919.276 858.01L923.314 859.622L872.616 848.764L870.71 838.594ZM957.007 875.641L943.498 874.779L1029.47 848.115L1000.97 873.221L995.479 878.062L957.016 875.627L957.007 875.641ZM992.662 878.838L971.433 884.388L944.68 875.81L982.074 878.168L992.662 878.838ZM947.22 872.645L971.632 861.133L1019.49 850.217L947.206 872.636L947.22 872.645ZM971.809 860.125L969.782 853.96L998.939 850.895L1023.64 848.31L971.809 860.125ZM970.85 860.215L934.072 860.712L968.834 854.096L968.932 854.411L970.841 860.229L970.85 860.215ZM948.364 861.452L969.332 861.172L941.04 874.504L931.375 863.563L929.718 861.688L948.372 861.438L948.364 861.452ZM930.704 864.263L939.286 873.981L878.284 850.94L928.424 861.686L930.704 864.263ZM940.178 875.321L933.493 884.986L932.861 885.906L876.698 851.345L940.193 875.33L940.178 875.321ZM882.608 865.008L874.294 851.613L978.279 943.079L887.26 872.534L882.6 865.023L882.608 865.008ZM882.59 924.17L872.981 851.266L882.866 867.209L886.428 872.957L882.598 924.156L882.59 924.17ZM876.705 852.467L877.539 852.987L932.671 886.905L985.217 947.909L876.691 852.458L876.705 852.467ZM933.582 886.512L935.458 883.816L940.905 875.95L986.225 947.614L933.597 886.521L933.582 886.512ZM944.521 879.908L973.579 912.948L987.698 948.179L944.521 879.908ZM944.121 878.031L990.595 911.992L974.194 912.213L944.121 878.031ZM986.409 900.598L945.047 876.921L971.175 885.306L990.498 902.948L986.409 900.598ZM1031.57 847.542L1071.22 860.073L997.38 877.657L1031.57 847.542ZM1087 842.831L1069.62 837.987L1088.46 834.779L1093.73 833.881L1087 842.831ZM1114.76 851.9L1074.22 859.426L1087.35 843.911L1114.76 851.9ZM1084.37 843.079L1036.54 846.205L1067.44 838.359L1084.37 843.079ZM1086.11 843.922L1084.05 846.346L1072.84 859.588L1045.89 851.067L1034.01 847.314L1086.11 843.907L1086.11 843.922ZM1072.51 860.754L1072.16 875.387L1017.08 877.333L1000.38 877.915L1072.51 860.754ZM1073.46 860.544L1113.94 853.035L1108.74 855.838L1073.12 875.043L1073.46 860.544ZM1109.49 856.499L1116.78 852.568L1138.32 868.122L1129.75 869.062L1075.01 875.1L1109.5 856.508L1109.49 856.499ZM1116.84 851.526L1090.18 843.749L1127.5 842.533L1181.42 840.785L1139.46 847.767L1116.84 851.526ZM1088.16 842.865L1091.54 838.38L1095.05 833.721L1134.92 836.639L1179.59 839.904L1104.14 842.365L1088.17 842.874L1088.16 842.865ZM1163.5 837.768L1097.67 832.942L1105.83 830.767L1125.74 825.475L1182.8 839.171L1163.51 837.754L1163.5 837.768ZM1135.75 826.92L1127.66 824.981L1145.32 820.285L1184.16 838.552L1135.74 826.935L1135.75 826.92ZM1145.6 819.168L1139.07 804.571L1178.48 805.772L1145.61 819.154L1145.6 819.168ZM1138.61 803.616L1131.64 790.765L1177.24 804.803L1138.62 803.624L1138.61 803.616ZM1131.12 789.617L1130.12 771.986L1129.51 761.235L1167.89 794.781L1178.75 804.271L1131.13 789.603L1131.12 789.617ZM1130.98 761.268L1160.84 770.623L1179 803.247L1131 761.276L1130.98 761.268ZM1156.19 768.175L1129.22 759.719L1079.56 713.36L1144.18 758.854L1158.4 768.869L1156.19 768.175ZM1055.39 688.854L1054.74 688.172L1058.26 676.679L1108.76 722.832L1127 739.505L1055.38 688.832L1055.39 688.854ZM1122.31 737.354L1074.53 708.655L1058.95 692.523L1122.31 737.354ZM1053.99 687.392L1021.38 653.653L1057.46 676.043L1056.78 678.268L1053.98 687.406L1053.99 687.392ZM1018.69 650.858L980.024 615.603L1032.41 656.444L1050.77 670.757L1018.69 650.858ZM768.992 768.879L742.317 769.156L719.527 769.399L737.789 738.465L738.438 737.36L769.001 768.865L768.992 768.879ZM759.364 794.422L774.201 803.171L700.68 811.541L718.902 770.56L759.364 794.422ZM759.392 826.605L703.66 812.553L814.643 812.036L768.613 828.621L768.11 828.798L759.392 826.605ZM767.349 829.579L732.842 877.307L700.808 812.817L767.363 829.588L767.349 829.579ZM811.033 814.338L817.333 812.064L819.076 813.267L870.068 848.256L805.235 835.872L769.927 829.125L811.027 814.315L811.033 814.338ZM790.521 834.045L871.786 849.561L882.073 927.614L791.195 848.684L769.777 830.091L790.521 834.045ZM887.308 873.78L988.085 951.872L883.225 928.41L887.317 873.766L887.308 873.78ZM974.667 913.155L987.488 912.979L991.502 912.929L989.654 950.613L974.644 913.16L974.667 913.155ZM991.983 922.584L992.422 913.404L1040.23 952.747L990.526 952.332L991.974 922.598L991.983 922.584ZM1027.25 938.189L994.309 905.145L994.295 905.136L974.015 886.604L1062.28 927.582L1041.55 952.526L1027.25 938.189ZM1063.23 927.918L1108.5 933.594L1042.92 952.364L1063.23 927.918ZM997.587 878.963L1072.38 876.327L1095.05 910.452L1109.53 932.254L997.601 878.971L997.587 878.963ZM1084.68 893.124L1073.45 876.211L1138.83 869.007L1110.79 932.41L1084.7 893.119L1084.68 893.124ZM1130.82 861.526L1118.35 852.528L1216.91 855.768L1161.81 864.465L1139.71 867.945L1130.82 861.526ZM1121.6 851.688L1138.82 848.836L1188.49 840.58L1219.59 854.928L1121.61 851.711L1121.6 851.688ZM1146.54 819.794L1175.77 807.889L1180.4 806.004L1187.88 839.222L1146.54 819.794ZM1181.04 804.912L1162.85 772.224L1205.06 807.864L1181.04 804.912ZM1161.44 769.796L1136.19 746.581L1264.87 817.946L1272.59 822.221L1260.56 816.555L1161.44 769.796ZM1141.84 753.063L1155.49 765.605L1085.21 716.11L1132.66 744.62L1141.84 753.063ZM1097.08 710.812L1060.43 677.301L1092.82 691.119L1118.88 726.113L1129.61 740.543L1097.08 710.812ZM1058.42 675.422L1044.54 637.5L1091.32 689.46L1058.42 675.422ZM1056.66 673.365L991.05 594.304L1042.87 635.653L1056.66 673.365ZM1054.89 672.713L971.342 607.588L987.699 591.747L1054.89 672.713ZM984.636 593.389L970.548 607.035L918.967 575.228L924.315 576.5L986.775 591.309L984.645 593.375L984.636 593.389ZM916.823 573.756L923.455 551.702L961.79 575.514L985.004 589.931L916.823 573.756ZM915.968 573.302L856.161 527.234L922.591 551.262L915.968 573.302ZM855.087 525.84L881.035 519.422L920.418 549.458L855.082 525.817L855.087 525.84ZM853.535 525.245L807.574 498.273L879.313 518.88L853.535 525.245ZM816.818 538.529L783.957 515.282L771.267 506.3L851.82 525.825L816.827 538.515L816.818 538.529ZM813.609 537.413L717.909 502.769L768.8 505.725L813.609 537.413ZM727.698 502.392L715.14 501.672L714.341 482.856L732.96 490.665L766.224 504.631L727.698 502.392ZM714.174 501.365L615.512 458.403L713.373 482.488L714.174 501.365ZM667.175 470.137L610.476 456.189L585.38 426.616L708.556 480.332L667.189 470.146L667.175 470.137ZM609.027 455.934L527.954 443.637L553.319 435.542L583.532 425.897L609.027 455.934ZM526.784 445.516L559.903 482.556L573.806 498.098L570.401 496.35L534.625 477.975L526.807 445.511L526.784 445.516ZM533.291 476.556L450.88 383.619L525.463 444.047L533.3 476.542L533.291 476.556ZM533.933 479.369L553.197 573.975L478.514 547.26L533.948 479.378L533.933 479.369ZM477.77 546.659L433.314 474.395L491.029 476.914L533.244 478.743L505.649 512.535L477.784 546.668L477.77 546.659ZM553.121 574.948L538.08 599.101L514.021 637.644L478.545 548.28L553.121 574.948ZM535.187 480.758L600.314 584.408L580.481 580.061L554.228 574.304L535.187 480.758ZM553.865 575.549L603.686 641.622L514.756 638.259L553.865 575.549ZM559.773 665.232L604.985 690.856L550.823 701.533L515.207 639.991L559.773 665.232ZM605.937 691.625L620.575 778.507L551.5 702.367L605.937 691.625ZM615.245 741.198L606.923 691.807L623.949 698.331L656.272 710.691L640.897 740.736L621.56 778.532L615.268 741.193L615.245 741.198ZM657.046 711.212L659.289 713.374L717.584 769.464L622.125 779.452L657.046 711.212ZM715.711 770.613L717.871 770.389L699.619 811.45L635.835 785.441L623.227 780.296L715.711 770.613ZM699.521 812.428L731.214 876.235L623.718 781.524L699.535 812.436L699.521 812.428ZM732.362 878.518L798.781 954.829L723.098 880.006L633.352 791.288L732.376 878.527L732.362 878.518ZM768.16 829.947L880.532 927.537L801.839 900.992L733.457 877.925L768.168 829.933L768.16 829.947ZM781.497 895.131L881.226 928.754L840.638 943.53L736.557 879.973L781.497 895.131ZM882.592 929.271L916.86 952.493L950.46 975.279L948.399 974.682L842.112 943.997L882.592 929.271ZM884.986 929.742L988.785 952.955L953.198 975.984L884.986 929.742ZM990.128 953.223L1038 953.616L959.887 974.285L955.96 975.33L990.137 953.208L990.128 953.223ZM1041.45 953.684L1101.04 991.752L1101.95 992.316L1053.93 987.085L955.788 976.361L1041.45 953.684ZM1042.67 953.342L1110.25 933.997L1106.69 964.753L1103.52 992.216L1042.67 953.342ZM1135.12 879.541L1139.76 869.057L1207.36 905.662L1111.64 932.609L1135.12 879.541ZM1115.75 932.441L1208.46 906.325L1245.23 947.678L1113.26 933.128L1115.74 932.432L1115.75 932.441ZM1222.18 856.067L1288.24 884.884L1283.15 886.188L1209.28 905.145L1222.18 856.067ZM1208.32 905.101L1152.41 874.833L1141 868.649L1169.3 864.187L1221.22 856L1208.31 905.115L1208.32 905.101ZM1190.02 840.2L1221.56 833.813L1221.51 838.961L1221.4 854.678L1190.01 840.214L1190.02 840.2ZM1220.32 833.098L1188.87 839.464L1181.43 806.369L1220.84 832.99L1220.32 833.098ZM1182.6 806.023L1206.26 808.927L1220.45 831.57L1182.6 806L1182.6 806.023ZM1206.76 808.061L1194.18 797.445L1164.2 772.127L1190.36 784.47L1280.68 827.084L1206.76 808.061ZM1133.35 743.915L1131.83 720.843L1260.2 811.548L1278.02 824.136L1133.35 743.915ZM1132.33 742.63L1095.49 693.134L1108.81 703.311L1130.84 720.129L1132.33 742.63ZM1093.54 690.445L1089.38 658.062L1129.33 717.774L1093.54 690.445ZM1092.43 689.264L1045.11 636.715L1088.2 656.449L1092.43 689.264ZM1043.55 634.962L1025.13 605.857L1042.65 619.882L1085.34 654.08L1043.54 634.953L1043.55 634.962ZM1041.32 633.197L990.225 592.417L990.673 592.579L1022.92 604.11L1041.33 633.206L1041.32 633.197ZM987.941 590.603L948.669 556.008L943.106 551.112L1019.73 601.963L987.955 590.611L987.941 590.603ZM968.441 574.694L983.126 587.624L924.319 551.102L937.469 547.405L968.441 574.694ZM923.253 550.419L885.351 521.502L899.618 528.582L936.28 546.763L923.253 550.419ZM881.849 518.713L881.722 518.634L888.176 499.764L891.454 490.214L926.488 533.82L935.867 545.505L881.84 518.728L881.849 518.713ZM880.825 518.311L806.676 497.007L890.605 489.783L880.825 518.311ZM855.7 491.839L804.351 496.266L785.499 457.99L760.388 407.049L889.834 488.911L855.692 491.853L855.7 491.839ZM804.004 497.266L850.439 524.514L770.961 505.247L804.004 497.266ZM779.09 502.306L768.996 504.749L747.685 495.813L717.702 483.223L801.708 496.856L779.104 502.315L779.09 502.306ZM714.078 481.672L655.48 415.39L728.472 455.626L801.465 495.861L714.078 481.672ZM712.055 480.824L585.337 425.55L653.127 414.16L712.055 480.824ZM583.726 424.861L452.493 381.093L650.422 413.652L583.726 424.861ZM488.284 394.025L582.156 425.335L525.984 443.273L449.031 380.918L488.293 394.011L488.284 394.025ZM432.018 474.176L471.2 608.371L334.043 409.068L432.018 474.176ZM363.265 552.358L333.221 409.537L364.486 454.974L470.989 609.75L363.265 552.358ZM451.557 537.75L433.857 477.146L446.517 497.738L477.194 547.615L476.722 553.381L472.206 608.487L451.557 537.75ZM477.993 549.544L512.892 637.471L472.959 610.839L477.993 549.544ZM513.546 639.036L547.598 697.858L487.517 627.848L475.093 613.365L513.569 639.03L513.546 639.036ZM482.036 622.944L550.187 702.334L650.145 845.346L482.045 622.93L482.036 622.944ZM555.216 707.898L620.903 780.28L651.873 841.028L661.573 860.072L555.216 707.898ZM665.461 865.612L638.954 813.606L623.053 782.404L803.343 960.67L665.5 865.675L665.461 865.612ZM807.551 963.428L735.08 880.171L839.684 944.054L807.551 963.428ZM808.669 963.869L840.634 944.606L968.991 1004.75L808.683 963.878L808.669 963.869ZM905.769 974.085L846.238 946.193L952.911 976.982L963.84 992.888L972.339 1005.26L905.778 974.071L905.769 974.085ZM973.936 1005.94L971.947 1003.06L954.173 977.16L1099.42 993.013L989.6 1004.32L973.944 1005.93L973.936 1005.94ZM1044.75 1131.14L933.782 1054.86L1123.99 1086.05L1044.75 1131.14ZM1124.71 1084.9L975.367 1006.79L1103.59 993.591L1124.71 1084.9ZM1104.51 992.421L1111.28 933.951L1244.16 948.58L1196.99 963.375L1104.48 992.404L1104.51 992.421ZM1223.1 1051.8L1105.2 993.167L1245.81 949.056L1223.1 1051.8ZM1246.41 947.586L1209.53 906.126L1288.61 885.824L1246.39 947.578L1246.41 947.586ZM1359.68 846.584L1290.13 884.299L1285.93 829.454L1359.68 846.584ZM1285 829.538L1288.04 869.362L1289.18 884.315L1262.34 872.602L1223.1 855.48L1246.57 845.638L1284.98 829.529L1285 829.538ZM1222.37 854.754L1222.53 833.746L1282.59 829.529L1222.38 854.777L1222.37 854.754ZM1222.31 832.806L1207.58 809.32L1282.47 828.591L1222.3 832.82L1222.31 832.806ZM1281.96 825.821L1132.62 720.296L1179.45 715.663L1281.94 825.812L1281.96 825.821ZM1131.54 719.447L1090.32 657.829L1178.24 714.831L1131.54 719.447ZM1128.39 626.887L1178.26 713.704L1092.65 658.196L1089.49 656.15L1091.89 654.334L1128.39 626.873L1128.39 626.887ZM1127.81 626.138L1117.4 633.973L1088.95 655.368L1069.06 567.762L1127.81 626.138ZM1067.95 567.149L1087.9 654.984L1023.99 603.79L1067.95 567.149ZM1023.2 603.2L941.77 549.162L939.623 547.727L1067.12 566.593L1023.2 603.186L1023.2 603.2ZM988.315 491.553L1066.82 565.6L965.119 550.541L938.539 546.601L988.315 491.553ZM960.241 521.202L937.626 546.209L892.31 489.786L987.245 491.318L960.249 521.187L960.241 521.202ZM982.463 409.024L987.755 490.027L937.524 461.219L858.217 415.718L982.449 409.015L982.463 409.024ZM984.591 489.312L986.458 490.377L891.606 488.838L857.673 416.497L984.591 489.312ZM856.288 415.792L871.809 448.895L890.176 488.046L761.175 406.48L856.288 415.792ZM774.442 322.324L855.457 414.764L759.787 405.4L774.434 322.338L774.442 322.324ZM758.961 406.317L802.998 495.698L754.453 468.94L654.936 414.09L665.819 413.277L758.952 406.332L758.961 406.317ZM757.59 405.464L653.693 413.218L644.235 375.104L635.537 340.052L757.59 405.464ZM576.092 223.15L645.384 299.131L634.691 337.819L576.101 223.136L576.092 223.15ZM634.437 339.582L648.392 395.835L652.614 412.841L485.113 328.424L634.437 339.582ZM482.917 328.391L650.333 412.754L447.514 379.385L482.917 328.391ZM482.147 327.833L446.881 378.638L412.72 254.651L482.132 327.824L482.147 327.833ZM402.015 207.797L411.078 251.902L314.933 185.619L402.015 207.797Z" fill="url(#paint0_linear_506_527)" fill-opacity="0.5"/>
<path d="M164.994 261.768L179.595 332.231C179.619 332.383 179.734 332.513 179.878 332.564L284.199 374.597C284.414 374.692 284.647 374.602 284.785 374.413C284.908 374.215 284.877 373.98 284.706 373.815L165.757 261.204C165.757 261.204 165.7 261.169 165.672 261.151C165.46 261.019 165.148 261.08 165.016 261.292C164.928 261.433 164.933 261.613 165.002 261.754L164.994 261.768ZM282.235 372.805L180.474 331.797L166.2 262.951L282.235 372.805Z" fill="#00C6C0" fill-opacity="0.5"/>
</g>
</g>
<defs>
<linearGradient id="paint0_linear_506_527" x1="598.07" y1="898.711" x2="925.793" y2="372.421" gradientUnits="userSpaceOnUse">
<stop stop-color="#F3893D"/>
<stop offset="0.932292" stop-color="#10C2B7"/>
<stop offset="1" stop-color="#00C6C0"/>
</linearGradient>
</defs>
</svg>
