<svg width="226" height="82" viewBox="0 0 226 82" fill="none" xmlns="http://www.w3.org/2000/svg">
<g filter="url(#filter0_d_955_7715)">
<rect x="11" y="7" width="204" height="59.5" rx="8" fill="#03243A"/>
<path d="M114.64 40.203H111.98V44.25H109.871V31.235H114.64C117.591 31.235 119.067 32.6917 119.067 35.605C119.067 37.0997 118.693 38.2397 117.946 39.025C117.211 39.8103 116.109 40.203 114.64 40.203ZM111.98 38.379H114.621C116.141 38.379 116.901 37.4543 116.901 35.605C116.901 34.7183 116.717 34.0723 116.35 33.667C115.983 33.2617 115.406 33.059 114.621 33.059H111.98V38.379ZM120.85 44.25V34.75H122.902V35.89C123.978 35.1933 125.055 34.7437 126.132 34.541V36.612C125.042 36.8273 124.111 37.106 123.339 37.448L122.921 37.619V44.25H120.85ZM134.405 42.54L134.937 42.483L134.975 44.022C133.531 44.3133 132.251 44.459 131.137 44.459C129.731 44.459 128.717 44.0727 128.097 43.3C127.489 42.5273 127.185 41.2923 127.185 39.595C127.185 36.2257 128.559 34.541 131.308 34.541C133.968 34.541 135.298 35.9913 135.298 38.892L135.165 40.374H129.275C129.287 41.1593 129.458 41.7357 129.788 42.103C130.117 42.4703 130.731 42.654 131.631 42.654C132.53 42.654 133.455 42.616 134.405 42.54ZM133.265 38.778C133.265 37.8407 133.113 37.1883 132.809 36.821C132.517 36.441 132.017 36.251 131.308 36.251C130.598 36.251 130.079 36.4473 129.75 36.84C129.433 37.2327 129.268 37.8787 129.256 38.778H133.265ZM143.882 36.707C142.387 36.5043 141.304 36.403 140.633 36.403C139.962 36.403 139.493 36.4853 139.227 36.65C138.974 36.802 138.847 37.049 138.847 37.391C138.847 37.733 138.986 37.9737 139.265 38.113C139.556 38.2523 140.228 38.417 141.279 38.607C142.343 38.7843 143.097 39.0693 143.54 39.462C143.983 39.8547 144.205 40.5513 144.205 41.552C144.205 42.5527 143.882 43.2873 143.236 43.756C142.603 44.2247 141.672 44.459 140.443 44.459C139.67 44.459 138.695 44.3513 137.517 44.136L136.928 44.041L137.004 42.312C138.524 42.5147 139.62 42.616 140.291 42.616C140.962 42.616 141.437 42.5337 141.716 42.369C142.007 42.2043 142.153 41.932 142.153 41.552C142.153 41.172 142.014 40.9123 141.735 40.773C141.469 40.621 140.817 40.4627 139.778 40.298C138.752 40.1207 137.998 39.8483 137.517 39.481C137.036 39.1137 136.795 38.4423 136.795 37.467C136.795 36.4917 137.124 35.7633 137.783 35.282C138.454 34.8007 139.309 34.56 140.348 34.56C141.159 34.56 142.153 34.6613 143.331 34.864L143.92 34.978L143.882 36.707ZM149.748 34.541C150.42 34.541 151.211 34.6297 152.123 34.807L152.598 34.902L152.522 36.536C151.522 36.4347 150.781 36.384 150.299 36.384C149.337 36.384 148.691 36.5993 148.361 37.03C148.032 37.4607 147.867 38.2713 147.867 39.462C147.867 40.6527 148.026 41.476 148.342 41.932C148.659 42.388 149.318 42.616 150.318 42.616L152.541 42.464L152.598 44.117C151.319 44.345 150.356 44.459 149.71 44.459C148.266 44.459 147.247 44.0727 146.651 43.3C146.069 42.5147 145.777 41.2353 145.777 39.462C145.777 37.6887 146.088 36.4283 146.708 35.681C147.329 34.921 148.342 34.541 149.748 34.541ZM154.601 44.25V34.75H156.653V35.89C157.729 35.1933 158.806 34.7437 159.883 34.541V36.612C158.793 36.8273 157.862 37.106 157.09 37.448L156.672 37.619V44.25H154.601ZM161.466 44.25V34.75H163.537V44.25H161.466ZM161.466 33.135V30.95H163.537V33.135H161.466ZM170.476 34.541C171.781 34.541 172.718 34.9083 173.288 35.643C173.871 36.365 174.162 37.6507 174.162 39.5C174.162 41.3493 173.82 42.6413 173.136 43.376C172.452 44.098 171.249 44.459 169.526 44.459C168.931 44.459 167.987 44.402 166.695 44.288L166.049 44.231V30.798H168.101V35.111C168.975 34.731 169.767 34.541 170.476 34.541ZM169.526 42.616C170.539 42.616 171.211 42.3817 171.54 41.913C171.882 41.4317 172.053 40.621 172.053 39.481C172.053 38.341 171.907 37.543 171.616 37.087C171.337 36.6183 170.875 36.384 170.229 36.384C169.621 36.384 169.013 36.479 168.405 36.669L168.101 36.764V42.54C168.798 42.5907 169.273 42.616 169.526 42.616ZM182.999 42.54L183.531 42.483L183.569 44.022C182.125 44.3133 180.846 44.459 179.731 44.459C178.325 44.459 177.312 44.0727 176.691 43.3C176.083 42.5273 175.779 41.2923 175.779 39.595C175.779 36.2257 177.154 34.541 179.902 34.541C182.562 34.541 183.892 35.9913 183.892 38.892L183.759 40.374H177.869C177.882 41.1593 178.053 41.7357 178.382 42.103C178.712 42.4703 179.326 42.654 180.225 42.654C181.125 42.654 182.049 42.616 182.999 42.54ZM181.859 38.778C181.859 37.8407 181.707 37.1883 181.403 36.821C181.112 36.441 180.612 36.251 179.902 36.251C179.193 36.251 178.674 36.4473 178.344 36.84C178.028 37.2327 177.863 37.8787 177.85 38.778H181.859Z" fill="white"/>
<path d="M95 30.25V44.25M88 37.25H102" stroke="#00ACBA" stroke-width="2"/>
<circle cx="56" cy="37.25" r="17.25" fill="#03243A" stroke="white" stroke-width="2.5"/>
<path d="M58.5992 41.3382L62.0745 36.7551L62.1139 36.6935H60.0366L57.4374 40.0845L53.3319 35.6248C55.6456 35.4604 57.27 33.7957 57.3193 31.5556C57.339 30.4561 56.9353 29.4079 56.1772 28.6064C55.3699 27.7432 54.2377 27.25 53.0759 27.25H49V41.1429H50.7426V35.3062L56.3643 41.5026L52.7806 46.1883L52.7412 46.25H54.8186L57.4965 42.7459L60.5485 46.1061H63L58.5992 41.3382ZM50.7426 34.1143V28.8633H52.82C54.533 28.8633 55.5865 29.8703 55.5865 31.5042C55.5865 33.2305 54.4051 34.1451 52.1702 34.1451C51.2152 34.1451 50.9592 34.1451 50.7426 34.1245V34.1143Z" fill="#00ACBA"/>
</g>
<defs>
<filter id="filter0_d_955_7715" x="0" y="0" width="226" height="81.5" filterUnits="userSpaceOnUse" color-interpolation-filters="sRGB">
<feFlood flood-opacity="0" result="BackgroundImageFix"/>
<feColorMatrix in="SourceAlpha" type="matrix" values="0 0 0 0 0 0 0 0 0 0 0 0 0 0 0 0 0 0 127 0" result="hardAlpha"/>
<feOffset dy="4"/>
<feGaussianBlur stdDeviation="5.5"/>
<feComposite in2="hardAlpha" operator="out"/>
<feColorMatrix type="matrix" values="0 0 0 0 0 0 0 0 0 0 0 0 0 0 0 0 0 0 0.25 0"/>
<feBlend mode="normal" in2="BackgroundImageFix" result="effect1_dropShadow_955_7715"/>
<feBlend mode="normal" in="SourceGraphic" in2="effect1_dropShadow_955_7715" result="shape"/>
</filter>
</defs>
</svg>
