<svg width="403" height="219" viewBox="0 0 403 219" fill="none" xmlns="http://www.w3.org/2000/svg">
<path d="M0.814514 55.3931L119.43 49.8444L213.466 -36.8829L76.2629 -13.5226C76.2629 -13.5226 76.2137 -13.5226 76.1808 -13.5226C76.0002 -13.5226 75.8196 -13.6374 75.7539 -13.818C75.6718 -14.015 75.7539 -14.2613 75.9345 -14.3762L139.741 -56.484C139.856 -56.5497 139.988 -56.5825 140.103 -56.5497L214.664 -38.1634L251.395 -123.43L133.6 -119.949C133.502 -119.949 133.42 -119.982 133.338 -120.032C133.321 -120.032 133.305 -120.064 133.272 -120.081C133.256 -120.097 133.223 -120.114 133.206 -120.146C133.19 -120.179 133.206 -120.212 133.19 -120.229C133.19 -120.261 133.141 -120.278 133.141 -120.311C133.141 -120.327 133.141 -120.36 133.141 -120.376C133.141 -120.426 133.141 -120.475 133.157 -120.524C133.157 -120.573 133.19 -120.623 133.223 -120.655C133.223 -120.672 133.223 -120.705 133.256 -120.721L234.614 -226.442C234.713 -226.541 234.844 -226.59 234.992 -226.59L357.089 -218.332L648.62 -330.308L536.326 -329.586C536.228 -329.586 536.129 -329.619 536.063 -329.668L447.578 -392.263C447.397 -392.395 447.331 -392.641 447.43 -392.854C447.528 -393.068 447.775 -393.166 447.988 -393.1L651.247 -331.26L821.454 -339.173C821.454 -339.173 821.487 -339.156 821.503 -339.156C821.536 -339.156 821.569 -339.156 821.602 -339.156L982.81 -288.003L1148.12 -275.56L972.186 -348.793C971.989 -348.875 971.874 -349.088 971.907 -349.302C971.94 -349.515 972.121 -349.679 972.351 -349.679L1107.37 -355.786C1107.55 -355.786 1107.71 -355.704 1107.8 -355.54L1151.39 -275.084C1151.39 -275.084 1151.39 -275.067 1151.39 -275.051C1151.39 -275.051 1151.41 -275.034 1151.41 -275.018C1151.41 -274.969 1151.41 -274.936 1151.41 -274.887C1151.41 -274.854 1151.41 -274.821 1151.41 -274.772C1151.41 -274.706 1151.36 -274.657 1151.34 -274.608C1151.34 -274.591 1151.34 -274.558 1151.31 -274.525L1085.73 -208.795L1215.74 -196.351C1215.89 -196.351 1216.02 -196.252 1216.08 -196.138C1216.17 -196.023 1216.18 -195.875 1216.13 -195.727L1181.14 -96.6547L1184.36 -21.3203L1223.82 48.0714C1223.92 48.2356 1223.9 48.449 1223.77 48.5968C1223.67 48.7117 1223.54 48.7609 1223.41 48.7609C1223.36 48.7609 1223.31 48.7609 1223.26 48.7445L1151 24.0872L1003.4 64.0445L914.291 111.865C914.291 111.865 914.225 111.865 914.192 111.882C914.192 111.882 914.192 111.898 914.159 111.898L832.471 130.613L726.433 152.02L679.112 217.997C679.013 218.128 678.882 218.194 678.734 218.194C678.635 218.194 678.553 218.161 678.471 218.112L576.489 146.717L458.661 182.422C458.661 182.422 458.612 182.422 458.579 182.422C458.579 182.422 458.579 182.422 458.562 182.422L351.243 192.568C351.243 192.568 351.21 192.568 351.194 192.568C351.194 192.568 351.194 192.568 351.178 192.568C350.915 192.568 350.701 192.354 350.701 192.108C350.701 191.928 350.8 191.78 350.948 191.698L395.166 148.342C395.314 148.195 395.527 148.162 395.708 148.26L458.267 181.306L489.431 103.854L351.539 94.8907L340.029 133.896C339.979 134.044 339.864 134.175 339.7 134.208L238.506 162.707C238.506 162.707 238.424 162.723 238.374 162.723C238.194 162.723 238.03 162.624 237.947 162.444C237.849 162.23 237.948 161.984 238.128 161.853L350.225 94.4147L217.948 25.1379L119.841 50.6981L88.3642 83.859C88.2821 83.9575 88.1507 84.0068 88.0193 84.0068C87.9701 84.0068 87.9209 84.0067 87.8716 83.9903L0.666709 56.296C0.453253 56.2304 0.321939 56.0169 0.338359 55.7871C0.371199 55.5573 0.551779 55.3931 0.781655 55.3767L0.814514 55.3931ZM140.07 -55.5975L78.299 -14.8194L212.645 -37.6874L140.07 -55.5811V-55.5975ZM450.467 -391.36L536.474 -330.521L648.111 -331.227L450.467 -391.36ZM395.576 149.278L352.458 191.55L456.904 181.667L395.576 149.278ZM215.732 -38.344L310.408 -66.4159L338.37 -74.7061L252.298 -123.249L215.732 -38.3276V-38.344ZM563.468 5.63527L528.165 -8.7454H528.149L505.129 -0.668579L563.468 5.63527ZM512.058 1.02231L601.709 20.0981L566.62 6.91574L512.074 1.02231H512.058ZM527.065 -9.36924L471.715 -42.1362L467.692 -44.5165L503.191 -0.980499L527.082 -9.36924H527.065ZM565.077 -158.626L486.492 -174.008L513.256 -158.068L518.429 -154.982L565.077 -158.626ZM497.165 -129.701L565.586 -157.723L518.543 -154.046L497.181 -129.684L497.165 -129.701ZM568.394 -158.922L598.852 -183.678L487.379 -174.796L568.41 -158.938L568.394 -158.922ZM600.478 -183.792L570.84 -159.693L642.167 -183.842L600.494 -183.776L600.478 -183.792ZM641.248 -184.794L566.587 -203.574L600.412 -184.728L641.231 -184.794H641.248ZM640.328 -182.266L585.487 -163.699L571.152 -158.84L597.259 -158.199L640.328 -182.266ZM601.808 -159.677L645.057 -173.828L644.565 -183.579L601.808 -159.677ZM568.738 -157.97L560.594 -147.775L558.887 -145.641L583.303 -153.619L594.632 -157.329L568.722 -157.97H568.738ZM567.031 -157.329L502.14 -130.735L557.294 -145.116L567.031 -157.313V-157.329ZM498.019 -128.699L507.165 -127.616L511.844 -127.058L542.45 -139.206L550.332 -142.325L498.035 -128.683L498.019 -128.699ZM504.784 -126.959L495.802 -128.026L491.993 -118.899L510.071 -126.352L504.784 -126.976V-126.959ZM494.653 -127.682L438.35 -105.24L490.794 -118.423L494.669 -127.682H494.653ZM471.403 -112.579L437.89 -104.157L465.015 -106.833L486.065 -116.272L471.386 -112.579H471.403ZM431.93 -102.63L429.91 -99.5111L422.488 -88.0526L455.87 -102.811L462.29 -105.651L431.93 -102.647V-102.63ZM429.976 -101.317L389.994 -73.2943L420.945 -87.3467L429.976 -101.317ZM386.677 -70.7662L441.847 -42.2839L440.271 -45.6328L421.043 -86.3617L386.677 -70.7662ZM427.595 -74.6897L443.128 -41.775L464.72 -46.5193L422.718 -85.0156L427.595 -74.6733V-74.6897ZM446.806 -41.6272L444.031 -41.0199L500.695 -2.6057L465.524 -45.7313L446.806 -41.6109V-41.6272ZM452.98 -33.8295L442.832 -40.7079L393.491 -17.052L471.074 -5.62632L501.106 -1.21033L452.963 -33.8459L452.98 -33.8295ZM434.787 -37.8843L441.092 -40.9049L317.386 -49.4086L377.663 -23.4708L391.931 -17.3311L434.803 -37.8843H434.787ZM440.665 -41.8735L433.013 -45.8298L385.577 -70.3065L385.166 -70.1916L317.32 -50.3607L440.665 -41.8899V-41.8735ZM385.495 -71.2915L428.991 -101.76L342.065 -74.8867L385.495 -71.2915ZM371.128 -84.8514L431.404 -103.484L449.893 -127.747L345.299 -76.8567L371.128 -84.8514ZM433.079 -104.141L493.175 -128.092L451.683 -128.552L433.079 -104.141ZM490.137 -129.061L413.655 -143.228L411.996 -143.54L451.535 -129.504L490.137 -129.077V-129.061ZM495.375 -129.044L509.989 -145.69L517.246 -153.964L459.104 -149.056L409.796 -144.902L495.392 -129.044H495.375ZM466.362 -150.615L516.869 -154.883L483.947 -174.501L409.517 -145.822L466.362 -150.615ZM502.255 -203.082L510.022 -214.672L439.713 -217.594L408.138 -218.907L483.832 -175.65L502.239 -203.098L502.255 -203.082ZM485.195 -175.978L511.779 -185.992L561.629 -204.789L515.67 -213.703L511.089 -214.59L485.195 -175.978ZM487.248 -175.748L598.786 -184.646L563.287 -204.428L487.248 -175.765V-175.748ZM623.383 -190.293L644.597 -184.958L645.468 -221.895L568.082 -205.462L565.389 -204.887L623.383 -190.293ZM597.9 -157.526L557.77 -144.361L512.14 -126.204L491.451 -117.717L465.18 -105.881L421.93 -86.9691L466.017 -46.5522L527.87 -9.96022L529.118 -9.45129L539.134 -5.36363L566.85 5.98005L607.555 21.2964L665.303 34.1833L709.389 43.9346L772.474 44.2136L835.148 32.6237L885.441 19.9339L912.123 13.3674L984.025 -0.717837L1000.72 -24.5543L1014.84 -32.6968L1028.41 -41.9228L1014.75 -56.6974L993.532 -79.3027L972.4 -97.8859L947.114 -124.382L899.02 -161.598L869.186 -189.259L808.236 -200.028L731.507 -194.562L688.783 -183.924L645.714 -173.22L597.933 -157.526H597.9ZM664.81 34.9548L647.208 31.0477L608.95 22.5605L631.691 51.5024L664.81 34.9548ZM634.04 51.3875L706.335 44.1808L666.239 35.2831H666.222C666.222 35.2831 666.206 35.316 666.189 35.316L634.45 51.1905L634.04 51.3875ZM1011.38 -174.944L918.625 -186.353L934.553 -169.527L1011.38 -174.944ZM939.462 -168.936L1056.55 -155.688L1016.14 -174.337L939.462 -168.936ZM948.017 -197.631L948.345 -198.797L895.145 -194.841L919.545 -193.938L946.654 -192.936L948.017 -197.631ZM947.672 -193.101L1002.4 -205.905L949.363 -198.896L948.591 -196.269L947.672 -193.117V-193.101ZM711.343 -221.271L739.651 -210.42L745.972 -207.99L688.947 -243.86L659.211 -262.574L711.343 -221.255V-221.271ZM711.015 -220.401L652.873 -221.796L745.907 -207.022L715.53 -218.661L710.999 -220.401H711.015ZM648.045 -221.632L688.75 -195.678L747.401 -205.856L648.045 -221.632ZM688.192 -184.794V-194.594L648.817 -184.794H688.192ZM645.5 -183.858L645.993 -174.058L685.449 -183.858H645.5ZM693.873 -195.612L731.638 -195.35L747.844 -204.97L693.873 -195.612ZM689.128 -194.709V-184.777L728.042 -194.447L723.346 -194.48L689.111 -194.709H689.128ZM733.707 -195.481L744.216 -196.236L802.44 -200.455L764.707 -204.017L750.373 -205.38L733.707 -195.481ZM764.477 -204.986L807.858 -200.882L814.623 -208.253L756.99 -205.692L764.477 -204.986ZM808.975 -200.701L859.744 -191.639L863.964 -190.884L815.871 -208.22L808.975 -200.701ZM900.515 -186.731L888.758 -193.051L946.818 -125.925L936.047 -161.795L933.978 -168.706L900.515 -186.715V-186.731ZM932.024 -170.824L917.148 -186.534L890.285 -193.298L922.812 -175.781L932.024 -170.824ZM890.761 -189.325L905.194 -166.966L939.561 -132.886L890.745 -189.325H890.761ZM904.816 -166.03L899.907 -161.926L922.714 -144.164L942.04 -129.126L904.816 -166.03ZM904.061 -166.605L873.537 -186.189L899.185 -162.533L899.431 -162.747L904.061 -166.621V-166.605ZM885.885 -179.36L903.289 -168.197L886.558 -194.102L872.765 -189.981L870.401 -189.276L885.885 -179.344V-179.36ZM872.568 -190.917L884.817 -194.578L821.749 -207.087L869.317 -189.949L872.568 -190.917ZM886.262 -195.235L885.704 -206.808L885.655 -207.908L820.633 -208.253L886.279 -195.235H886.262ZM832.701 -216.609L818.761 -209.73L953.468 -232.089L840.517 -220.483L832.701 -216.625V-216.609ZM863.521 -266.137L817.48 -210.124L834.064 -218.316L840.041 -221.271L863.521 -266.12V-266.137ZM821.224 -209.189H822.193L886.016 -208.844L961.793 -232.516L821.207 -209.189H821.224ZM886.574 -208.039L886.738 -204.805L887.198 -195.382L962.482 -231.745L886.591 -208.039H886.574ZM892.288 -196.811L933.83 -209.32L964.009 -231.449L892.288 -196.811ZM890.975 -195.448L947.573 -199.651L933.961 -208.384L890.975 -195.448ZM938.132 -192.296L891.172 -194.036L917.41 -187.437L942.779 -192.132L938.132 -192.296ZM948.279 -124.349L987.999 -114.171L935.357 -167.376L948.279 -124.349ZM992.218 -91.5164L975.142 -96.5234L989.246 -84.0142L993.187 -80.5175L992.218 -91.5164ZM1020.18 -84.638L990.166 -112.07L993.072 -92.2387L1020.18 -84.638ZM990.15 -93.0924L951.744 -120.639L973.516 -97.968L990.15 -93.0924ZM992.038 -92.8954L991.578 -95.9981L989.099 -112.923L962.105 -119.835L950.2 -122.888L992.038 -92.879V-92.8954ZM989.427 -114.072L996.767 -126.5L951.678 -156.837L938.001 -166.03L989.427 -114.072ZM990.117 -113.399L1020.08 -86.0169L1017.19 -91.0732L997.391 -125.712L990.117 -113.399ZM1018.16 -91.2373L1022.22 -84.1455L1048.36 -85.9349L1041.67 -91.1881L999 -124.776L1018.18 -91.2373H1018.16ZM1021.72 -83.2426L995.355 -90.6299L1025.96 -70.1588L1070.18 -40.593L1038.7 -68.3038L1021.72 -83.2426ZM993.204 -90.9418L993.696 -85.426L994.205 -79.6967L1029.1 -61.3597L1068.19 -40.8064L1006.32 -82.192L993.22 -90.9418H993.204ZM1053.61 -47.4058L995.995 -77.6775L1001.69 -71.6034L1015.6 -56.7959L1070.49 -38.5246L1053.61 -47.3894V-47.4058ZM1024.73 -52.7903L1016.95 -55.3841L1029.28 -42.2511L1071.31 -37.2934L1024.73 -52.8067V-52.7903ZM1028.93 -41.1676L1015.86 -32.352L1049.47 -12.8166L1028.93 -41.1512V-41.1676ZM1014.98 -31.7939L1002.45 -24.6692L1047.93 -12.6525L1014.99 -31.7939H1014.98ZM1001.41 -23.9797L991.381 -9.74678L985.273 -1.06256L1034.88 -9.1394L1048.92 -11.4213L1001.41 -23.9633V-23.9797ZM986.521 -0.32383L1016.39 7.40824L1048.59 -10.4363L986.537 -0.32383H986.521ZM1011.22 7.03069L984.238 0.0537477L918.51 12.9734L996.307 8.5738L1013.43 7.60527L1011.22 7.03069ZM885.507 20.886L884.604 21.1159L881.566 32.5745L947.885 20.2622L971.842 15.8134L885.491 20.9025L885.507 20.886ZM966.801 15.1732L911.844 14.2867L890.4 19.6712L966.801 15.1732ZM883.569 21.3785L838.694 32.6237L880.565 32.6894L881.156 30.4732L883.569 21.3621V21.3785ZM834.984 33.5594L784.247 42.9167L849.384 36.0383L872.207 33.6251L834.984 33.5594ZM687.502 -195.366L665.319 -209.5L646.371 -221.583L645.533 -186.173L645.5 -184.909L687.502 -195.35V-195.366ZM692.756 -221.763L709.734 -221.353L652.561 -266.678L646.453 -222.88L692.756 -221.763ZM709.554 -248.686L655.582 -265.973L748.206 -207.695L718.322 -245.567L717.993 -245.977L709.554 -248.686ZM717.763 -247.028L713.757 -304.961L653.333 -267.68L717.78 -247.028H717.763ZM746.383 -211.503L750.471 -206.316L752.557 -206.414L813.474 -209.123L752.754 -232.549L719.685 -245.304L746.367 -211.487L746.383 -211.503ZM739.487 -238.689L815.592 -209.32L864.884 -269.289L747.68 -250.59L720.062 -246.191L739.487 -238.689ZM841.207 -221.501L966.259 -234.338L866.263 -269.354L841.207 -221.484V-221.501ZM934.848 -208.926L945.488 -202.097L948.821 -199.963L966.916 -232.467L934.832 -208.942L934.848 -208.926ZM954.256 -207.793L949.839 -199.88L1010.36 -207.892L968.541 -233.452L954.256 -207.81V-207.793ZM991.906 -202.474L947.114 -191.984H947.097L920.464 -187.043L1015.7 -175.338L1011.35 -207.022L991.906 -202.474ZM1016.67 -175.125L1057.52 -156.279L1012.41 -206.168L1016.67 -175.125ZM936.211 -168.361L997.44 -127.173L1034.2 -143.917L1057.68 -154.621L936.227 -168.361H936.211ZM1016.49 -134.823L998.277 -126.516L1049.24 -86.411L1058.82 -154.095L1016.5 -134.806L1016.49 -134.823ZM1038.64 -84.3261L1023.51 -83.2918L1107.7 -34.6339L1066.11 -70.6349L1049.42 -85.0648L1038.64 -84.3261ZM1025.8 -80.8951L1038.72 -69.535L1075.99 -36.7352L1109.5 -32.5326L1025.81 -80.9115L1025.8 -80.8951ZM1030.05 -41.2004L1048.31 -16.0014L1051.2 -12.0123L1074.78 -35.9144L1030.05 -41.2004ZM1051.17 -10.7646L1018.9 7.11278L1072.81 -0.717837L1051.17 -10.7646ZM1016.45 8.40963L983.22 14.6807L1128.12 22.0188L1136.81 22.462L1123.79 20.9353L1016.45 8.40963ZM991.332 12.2018L1009.29 8.82006L924.668 13.6136L979.247 14.4837L991.332 12.2018ZM931.843 24.235L883.701 33.1818L918.018 38.5008L958.065 22.7903L974.567 16.3059L931.843 24.235ZM881.041 33.7072L849.663 58.2167L915.9 39.1082L881.041 33.7072ZM878.496 34.5116L782.375 66.4906L847.298 58.8898L878.496 34.5116ZM876.673 34.134L772.802 45.1001L778.237 66.8845L876.673 34.134ZM776.529 63.9132L771.85 45.1493L712.099 44.8867L717.238 46.6104L777.236 66.7696L776.529 63.9296V63.9132ZM709.537 45.0016L703.593 66.9174L748.091 66.9666L775.035 66.9994L709.537 45.0016ZM708.585 44.9359L634.516 52.3233L702.641 66.8353L708.585 44.9359ZM632.89 52.9307L651.264 71.8258L699.882 67.2129L632.874 52.9471L632.89 52.9307ZM631.281 52.6188L578.754 51.2398L649.54 71.3826L631.281 52.6188ZM607.472 22.3635L567.852 24.6946L552.549 25.5975L630.148 51.2398L607.472 22.3799V22.3635ZM604.205 21.6248L506.048 0.743215L550.184 24.7931L604.205 21.6248ZM514.044 6.16062L503.158 0.217922L492.682 15.5507L512.337 18.7191L547.459 24.3663L514.044 6.16062ZM502.189 -0.0283396L397.218 -15.4925L491.681 15.3538L502.189 -0.0283396ZM446.576 1.61329L391.849 -16.2641L355.43 -4.59207L486.525 14.6478L446.592 1.61329H446.576ZM390.503 -16.8058L316.236 -48.7684L333.247 -28.7733L353.509 -4.95322L390.503 -16.8058ZM316.236 -50.9517L363.262 -64.6922L382.999 -70.4543L379.239 -70.7662L339.717 -74.0331L316.253 -50.9353L316.236 -50.9517ZM337.861 -73.5406L220.444 -38.7051L314.365 -50.41L337.861 -73.5241V-73.5406ZM339.864 -75.5598L405.297 -144.705L328.863 -161.269L339.881 -75.5598H339.864ZM327.927 -161.154L253.054 -123.84L302.674 -95.8667L338.961 -75.3956L333.477 -118.062L327.944 -161.154H327.927ZM405.74 -145.559V-173.614L405.691 -218.414L329.422 -162.107L405.74 -145.559ZM341.638 -76.0687L450.172 -128.88L431.306 -135.578L406.331 -144.443L341.638 -76.0687ZM406.676 -145.674L482.814 -175.01L406.627 -218.546L406.676 -145.674ZM458.365 -217.659L509.562 -215.542L469.793 -252.708L407.908 -219.761L458.365 -217.659ZM510.761 -215.689L568.295 -280.78L470.795 -253.053L510.761 -215.689ZM544.388 -252.331L511.68 -215.328L529.331 -211.914L562.827 -205.413L565.619 -238.574L569.132 -280.288L544.404 -252.314L544.388 -252.331ZM563.747 -205.446L566.752 -206.086L644.778 -222.65L570.085 -280.764L563.747 -205.446ZM643.809 -224.587L645.5 -223.274L651.625 -267.155L584.682 -278.63L571.448 -280.895L643.809 -224.587ZM652.052 -268.025L711.836 -304.912L572.499 -281.667L652.068 -268.025H652.052ZM713.987 -306.225L809.352 -335.479L707.009 -312.299L585.651 -284.818L714.003 -306.225H713.987ZM718.634 -246.913L863.554 -270.027L783.853 -288.824L714.594 -305.158L718.634 -246.897V-246.913ZM763.771 -294.52L864.769 -270.684L838.497 -304.206L718.256 -305.257L763.771 -294.52ZM866.181 -270.405L906.967 -271.981L946.966 -273.54L944.93 -274.115L839.975 -303.829L866.181 -270.405ZM868.43 -269.551L967.408 -234.88L949.626 -272.703L868.43 -269.551ZM968.673 -234.404L1008.95 -209.78L954.338 -267.795L951.596 -270.717L968.673 -234.388V-234.404ZM1011.87 -208.039L1081.59 -208.844H1082.64L1039.72 -229.496L951.99 -271.669L1011.87 -208.039ZM1012.71 -207.12L1059.19 -155.704L1072.25 -183.3L1083.91 -207.941L1012.71 -207.12ZM1051.62 -97.1636L1050.05 -85.9677L1125.71 -81.3712L1059.64 -153.816L1051.62 -97.1636ZM1062.99 -151.534L1126.97 -81.3547L1179.3 -96.8025L1061.26 -153.406L1062.97 -151.534H1062.99ZM1112.26 -32.1386L1182.57 -21.8292L1178.99 -25.5721L1127.04 -79.9429L1112.26 -32.1386ZM1126.22 -80.4026L1063.64 -84.2112L1050.87 -84.9827L1072.23 -66.4979L1111.43 -32.5819L1126.22 -80.419V-80.4026ZM1077.08 -35.6189L1100.14 -13.8345L1102.79 -18.1684L1110.88 -31.3835L1077.08 -35.6353V-35.6189ZM1098.73 -13.8837L1075.73 -35.6025L1052.25 -11.7824L1099.11 -13.5226L1098.73 -13.8837ZM1053.05 -10.8795L1074.37 -0.980499L1098.04 -12.5376L1053.04 -10.8631L1053.05 -10.8795ZM1074.33 0.00448927L1058.27 2.33561L1019.98 7.90073L1048.31 11.2004L1146.12 22.6098L1074.33 0.00448927ZM979.46 15.4358L966.16 33.9534L1120.88 24.9409L1142.36 23.6932L979.46 15.4358ZM977.933 15.9776L921.302 38.2052L937.754 36.6293L964.962 34.0355L977.933 15.9776ZM918.264 39.4364L897.904 64.3728L962.466 35.2175L918.264 39.4364ZM916.721 39.8469L849.728 59.1689L896.081 65.1116L916.721 39.8469ZM847.512 59.8255L816.922 74.5838L838.891 71.9736L892.452 65.6041L847.495 59.8255H847.512ZM844.72 60.1374L780.7 67.6397L781.16 67.7382L814.163 74.8957L844.737 60.1374H844.72ZM777.843 67.968L726.942 76.4553L719.734 77.6536L810.37 75.027L777.859 67.968H777.843ZM753.23 71.12L772.26 67.9516L704.004 67.8695L713.084 77.8178L753.23 71.12ZM702.756 67.8859L655.96 72.3348L671.591 73.8451L711.754 77.7357L702.756 67.8859ZM651.576 72.8437H651.428L646.995 92.0015L644.762 101.704L696.812 83.465L710.752 78.5729L651.576 72.8272V72.8437ZM650.508 72.6467L577.342 51.8308L643.826 101.621L650.508 72.6467ZM615.682 81.7085L575.011 51.2398L539.282 73.451L491.714 103L642.726 101.95L615.682 81.6921V81.7085ZM575.241 50.222L628.309 51.6174L551.744 26.3198L575.241 50.222ZM557.015 33.0177L549.839 25.7125L527.344 22.0844L495.687 16.9954L573.106 49.3684L557.031 33.0177H557.015ZM491.845 16.4044L408.252 41.3407L490.318 45.7075L572.384 50.0743L491.845 16.4044ZM489.711 16.0596L354.839 -3.722L405.642 41.1438L489.711 16.0596ZM353.132 -3.98469L220.477 -35.7502L403.113 40.1588L353.132 -3.98469ZM257.175 -27.9196L352.064 -5.19948L314.398 -49.4907L217.489 -37.4083L257.175 -27.9032V-27.9196ZM251.855 -124.333L354.593 -216.231L135.916 -120.902L251.855 -124.333ZM235.058 -225.605L135.472 -121.722L185.322 -143.458L355.135 -217.495L235.058 -225.605ZM301.344 -167.36L254.942 -125.859L276.271 -136.497L327.944 -162.254L330.555 -167.327L355.496 -215.804L301.344 -167.36ZM329.619 -163.453L404.657 -218.858L357.351 -217.38L329.619 -163.453ZM406.019 -219.826L465.18 -251.313L378.401 -224.029L360.455 -218.382L406.036 -219.81L406.019 -219.826ZM371.259 -222.781L469.679 -253.71L627.882 -321.312L371.259 -222.765V-222.781ZM476.788 -255.745L569.494 -282.093L627.078 -316.797L645.123 -327.681L476.788 -255.745ZM651.264 -330.292L601.972 -300.578L572.4 -282.75L816.216 -337.991L651.329 -330.324L651.264 -330.292ZM821.175 -338.106L717.123 -306.192L837.972 -305.142L821.175 -338.106ZM822.34 -337.892L839.056 -305.109L977.835 -288.545L822.357 -337.892H822.34ZM908.938 -295.834L844.573 -303.517L949.905 -273.688L967.343 -281.305L980.905 -287.232L908.938 -295.817V-295.834ZM982.596 -286.969L979.427 -285.59L951.054 -273.179L1080.88 -210.748L994.862 -277.448L982.596 -286.953V-286.969ZM1107.12 -354.85L974.485 -348.842L1149.95 -275.806L1107.12 -354.85ZM1149.95 -274.476L984.238 -286.936L1084.68 -209.057L1149.95 -274.476ZM1084.84 -207.596L1060.03 -155.13L1178.88 -98.1158L1147.11 -135.085L1084.81 -207.596H1084.84ZM1215.05 -195.481L1085.81 -207.859L1180.5 -97.6561L1215.05 -195.481ZM1180.24 -96.113L1127.76 -80.6324L1183.38 -22.4202L1180.22 -96.113H1180.24ZM1222.41 47.464L1183.85 -20.3517L1151.75 23.3649L1222.41 47.464ZM1151.01 22.8067L1174.31 -8.94237L1183.06 -20.8607L1154.49 -25.0468L1112.72 -31.1701L1127.24 -10.6989L1151 22.8067H1151.01ZM1111.74 -30.9402L1100.92 -13.2763L1148.99 21.5591L1111.75 -30.9566L1111.74 -30.9402ZM1100.24 -12.6032L1075.68 -0.61932L1148.4 22.2814L1100.24 -12.6196V-12.6032ZM1146.53 24.3335L966.538 34.8235L1003.32 63.1088L1146.51 24.3335H1146.53ZM965.192 34.9712L898.577 65.0623L1001.87 63.1745L965.192 34.9712ZM914.307 110.798L1001.3 64.1266L900.712 65.9652L897.001 66.0309L898.068 68.8052L914.307 110.815V110.798ZM913.437 111.126L908.806 99.1426L896.147 66.4085L833.834 129.365L913.437 111.126ZM832.586 129.299L895.063 66.1786L814.886 75.7165L832.586 129.299ZM813.917 75.7986L717.599 78.5893L715.054 78.6715L831.601 129.332L813.917 75.815V75.7986ZM726.532 151.067L830.829 130.005L737.861 89.6047L713.56 79.049L726.532 151.067ZM718.486 111.619L712.591 78.9013L645.254 102.508L725.514 150.706L718.486 111.635V111.619ZM678.619 217.094L725.267 152.052L668.209 149.984L578.114 146.733L678.603 217.094H678.619ZM722.246 151.002L724.364 151.084L644.17 102.935L578.065 145.798L722.246 151.002ZM576.538 145.666L606.783 126.049L642.561 102.853L492.075 103.887L576.538 145.666ZM459.318 181.241L575.306 146.093L490.351 104.067L459.318 181.224V181.241ZM490.137 102.869L573.582 51.01L519.003 48.1042L407.12 42.1452L415.805 48.4983L490.137 102.853V102.869ZM488.545 102.869L405.625 42.2272L377.843 69.1992L352.294 94.0043L488.545 102.869ZM241.609 160.868L339.208 133.387L350.422 95.4325L241.609 160.884V160.868ZM351.128 93.8237L392.128 54.0141L404.525 41.981L220.329 25.3348L351.128 93.8237ZM218.474 24.2185L402.571 40.8647L215.42 -36.9158L218.474 24.2185ZM217.538 24.2842L214.5 -36.6203L121.286 49.3519L217.521 24.2842H217.538ZM87.9044 82.9889L118.478 50.7966L3.45804 56.1647L87.9044 82.9889Z" fill="url(#paint0_linear_547_21104)" fill-opacity="0.5"/>
<defs>
<linearGradient id="paint0_linear_547_21104" x1="612.109" y1="-393.121" x2="612.109" y2="218.194" gradientUnits="userSpaceOnUse">
<stop stop-color="#F3893D"/>
<stop offset="0.932292" stop-color="#10C2B7"/>
<stop offset="1" stop-color="#00C6C0"/>
</linearGradient>
</defs>
</svg>
