<svg width="129" height="496" viewBox="0 0 129 496" fill="none" xmlns="http://www.w3.org/2000/svg">
<path d="M-1094.08 332.683L-975.463 327.135L-881.428 240.407L-1018.63 263.768C-1018.63 263.768 -1018.68 263.768 -1018.71 263.768C-1018.89 263.768 -1019.07 263.653 -1019.14 263.472C-1019.22 263.275 -1019.14 263.029 -1018.96 262.914L-955.152 220.806C-955.037 220.741 -954.906 220.708 -954.791 220.741L-880.229 239.127L-843.498 153.861L-961.293 157.341C-961.391 157.341 -961.473 157.308 -961.556 157.259C-961.572 157.259 -961.589 157.226 -961.621 157.21C-961.638 157.193 -961.671 157.177 -961.687 157.144C-961.703 157.111 -961.687 157.078 -961.703 157.062C-961.703 157.029 -961.753 157.013 -961.753 156.98C-961.753 156.963 -961.753 156.93 -961.753 156.914C-961.753 156.865 -961.753 156.816 -961.736 156.766C-961.736 156.717 -961.703 156.668 -961.67 156.635C-961.67 156.619 -961.67 156.586 -961.638 156.569L-860.279 50.8483C-860.18 50.7498 -860.049 50.7005 -859.901 50.7005L-737.805 58.9579L-446.273 -53.0177L-558.567 -52.2954C-558.666 -52.2954 -558.764 -52.3282 -558.83 -52.3775L-647.316 -114.973C-647.496 -115.104 -647.562 -115.35 -647.463 -115.564C-647.365 -115.777 -647.119 -115.876 -646.905 -115.81L-443.646 -53.9699L-273.44 -61.8825C-273.44 -61.8825 -273.407 -61.8661 -273.39 -61.8661C-273.357 -61.8661 -273.325 -61.8661 -273.292 -61.8661L-112.083 -10.7129L53.23 1.73068L-122.707 -71.5025C-122.904 -71.5846 -123.019 -71.798 -122.986 -72.0114C-122.953 -72.2248 -122.773 -72.389 -122.543 -72.389L12.4763 -78.4958C12.6569 -78.4958 12.8211 -78.4137 12.9032 -78.2496L56.4975 2.20675C56.4975 2.20675 56.4975 2.22316 56.4975 2.23958C56.4975 2.23958 56.5139 2.25601 56.5139 2.27242C56.5139 2.32167 56.5139 2.35449 56.5139 2.40374C56.5139 2.43657 56.5139 2.46941 56.5139 2.51866C56.5139 2.58432 56.4647 2.63358 56.4482 2.68283C56.4482 2.69925 56.4482 2.73207 56.4154 2.7649L-9.16481 68.4958L120.846 80.9394C120.994 80.9394 121.125 81.0379 121.191 81.1528C121.273 81.2677 121.29 81.4154 121.24 81.5632L86.25 180.636L89.4682 255.97L128.925 325.362C129.023 325.526 129.007 325.739 128.875 325.887C128.777 326.002 128.646 326.051 128.514 326.051C128.465 326.051 128.416 326.051 128.366 326.035L56.1034 301.378L-91.4931 341.335L-180.603 389.156C-180.603 389.156 -180.668 389.156 -180.701 389.172C-180.701 389.172 -180.701 389.188 -180.734 389.188L-262.422 407.903L-368.46 429.31L-415.782 495.287C-415.88 495.418 -416.012 495.484 -416.159 495.484C-416.258 495.484 -416.34 495.451 -416.422 495.402L-518.405 424.007L-636.232 459.713C-636.232 459.713 -636.282 459.713 -636.314 459.713C-636.314 459.713 -636.314 459.713 -636.331 459.713L-743.65 469.858C-743.65 469.858 -743.683 469.858 -743.699 469.858C-743.699 469.858 -743.699 469.858 -743.716 469.858C-743.978 469.858 -744.192 469.645 -744.192 469.398C-744.192 469.218 -744.093 469.07 -743.946 468.988L-699.727 425.633C-699.58 425.485 -699.366 425.452 -699.185 425.551L-636.626 458.597L-605.462 381.144L-743.355 372.181L-754.865 411.186C-754.914 411.334 -755.029 411.465 -755.193 411.498L-856.388 439.997C-856.388 439.997 -856.47 440.013 -856.519 440.013C-856.7 440.013 -856.864 439.915 -856.946 439.734C-857.044 439.521 -856.946 439.275 -856.765 439.143L-744.668 371.705L-876.945 302.428L-975.053 327.988L-1006.53 361.149C-1006.61 361.248 -1006.74 361.297 -1006.87 361.297C-1006.92 361.297 -1006.97 361.297 -1007.02 361.281L-1094.23 333.586C-1094.44 333.521 -1094.57 333.307 -1094.55 333.077C-1094.52 332.848 -1094.34 332.683 -1094.11 332.667L-1094.08 332.683ZM-954.824 221.693L-1016.59 262.471L-882.249 239.603L-954.824 221.709V221.693ZM-644.426 -114.07L-558.42 -53.2311L-446.782 -53.937L-644.426 -114.07ZM-699.317 426.568L-742.435 468.84L-637.989 458.958L-699.317 426.568ZM-879.162 238.946L-784.486 210.874L-756.523 202.584L-842.595 154.041L-879.162 238.963V238.946ZM-531.426 282.926L-566.728 268.545H-566.744L-589.765 276.622L-531.426 282.926ZM-582.836 278.313L-493.184 297.388L-528.273 284.206L-582.819 278.313H-582.836ZM-567.828 267.921L-623.179 235.154L-627.202 232.774L-591.702 276.31L-567.812 267.921H-567.828ZM-529.816 118.664L-608.401 103.282L-581.637 119.222L-576.465 122.308L-529.816 118.664ZM-597.728 147.59L-529.307 119.567L-576.35 123.244L-597.712 147.606L-597.728 147.59ZM-526.5 118.369L-496.041 93.6128L-607.514 102.494L-526.483 118.352L-526.5 118.369ZM-494.416 93.4978L-524.053 117.597L-452.726 93.4486L-494.399 93.5142L-494.416 93.4978ZM-453.646 92.4964L-528.306 73.7162L-494.481 92.5621L-453.662 92.4964H-453.646ZM-454.565 95.0246L-509.407 113.591L-523.741 118.451L-497.634 119.091L-454.565 95.0246ZM-493.086 117.613L-449.836 103.463L-450.329 93.7113L-493.086 117.613ZM-526.155 119.321L-534.299 129.515L-536.007 131.649L-511.591 123.671L-500.261 119.961L-526.171 119.321H-526.155ZM-527.863 119.961L-592.753 146.555L-537.599 132.175L-527.863 119.977V119.961ZM-596.874 148.591L-587.729 149.674L-583.049 150.233L-552.443 138.085L-544.561 134.965L-596.858 148.607L-596.874 148.591ZM-590.11 150.331L-599.091 149.264L-602.9 158.392L-584.822 150.939L-590.11 150.315V150.331ZM-600.24 149.609L-656.544 172.05L-604.099 158.868L-600.224 149.609H-600.24ZM-623.491 164.712L-657.003 173.133L-629.878 170.458L-608.828 161.018L-623.507 164.712H-623.491ZM-662.964 174.66L-664.983 177.779L-672.405 189.238L-639.024 174.479L-632.604 171.639L-662.964 174.644V174.66ZM-664.918 175.973L-704.899 203.996L-673.948 189.944L-664.918 175.973ZM-708.216 206.524L-653.046 235.006L-654.622 231.658L-673.85 190.929L-708.216 206.524ZM-667.298 202.601L-651.765 235.515L-630.174 230.771L-672.175 192.275L-667.298 202.617V202.601ZM-648.087 235.663L-650.862 236.27L-594.198 274.685L-629.369 231.559L-648.087 235.679V235.663ZM-641.914 243.461L-652.061 236.582L-701.402 260.238L-623.819 271.664L-593.788 276.08L-641.93 243.444L-641.914 243.461ZM-660.107 239.406L-653.801 236.385L-777.507 227.882L-717.231 253.82L-702.962 259.959L-660.09 239.406H-660.107ZM-654.228 235.417L-661.88 231.461L-709.316 206.984L-709.727 207.099L-777.573 226.93L-654.228 235.4V235.417ZM-709.399 205.999L-665.903 175.53L-752.829 202.404L-709.399 205.999ZM-723.766 192.439L-663.489 173.806L-645.001 149.543L-749.594 200.434L-723.766 192.439ZM-661.814 173.15L-601.718 149.198L-643.211 148.739L-661.814 173.15ZM-604.756 148.23L-681.239 134.063L-682.897 133.751L-643.359 147.787L-604.756 148.213V148.23ZM-599.518 148.246L-584.905 131.6L-577.647 123.326L-635.789 128.235L-685.097 132.388L-599.502 148.246H-599.518ZM-628.532 126.675L-578.025 122.407L-610.946 102.789L-685.377 131.469L-628.532 126.675ZM-592.638 74.2087L-584.872 62.6188L-655.181 59.6967L-686.756 58.3834L-611.061 101.64L-592.655 74.1923L-592.638 74.2087ZM-609.698 101.312L-583.115 91.2981L-533.265 72.5014L-579.223 63.5873L-583.804 62.7008L-609.698 101.312ZM-607.646 101.542L-496.107 92.6442L-531.606 72.8626L-607.646 101.525V101.542ZM-471.51 86.997L-450.296 92.3323L-449.426 55.3956L-526.812 71.8283L-529.505 72.4029L-471.51 86.997ZM-496.993 119.764L-537.123 132.93L-582.754 151.086L-603.442 159.573L-629.714 171.41L-672.963 190.321L-628.876 230.738L-567.023 267.33L-565.776 267.839L-555.76 271.927L-528.043 283.27L-487.339 298.587L-429.591 311.474L-385.504 321.225L-322.42 321.504L-259.746 309.914L-209.452 297.224L-182.77 290.658L-110.868 276.573L-94.1695 252.736L-80.0486 244.594L-66.4859 235.368L-80.1471 220.593L-101.361 197.988L-122.493 179.404L-147.78 152.908L-195.873 115.693L-225.708 88.0312L-286.657 77.2621L-363.387 82.7287L-406.111 93.3665L-449.179 104.07L-496.961 119.764H-496.993ZM-430.083 312.245L-447.685 308.338L-485.943 299.851L-463.202 328.793L-430.083 312.245ZM-460.854 328.678L-388.558 321.471L-428.655 312.573H-428.671C-428.671 312.573 -428.688 312.606 -428.704 312.606L-460.443 328.481L-460.854 328.678ZM-83.5131 102.346L-176.268 90.9369L-160.341 107.764L-83.5131 102.346ZM-155.431 108.355L-38.3426 121.603L-78.7514 102.954L-155.431 108.355ZM-146.877 79.6589L-146.548 78.4933L-199.748 82.4497L-175.348 83.3526L-148.24 84.354L-146.877 79.6589ZM-147.221 84.1898L-92.4947 71.3851L-145.53 78.3948L-146.302 81.0215L-147.221 84.1734V84.1898ZM-383.55 56.0194L-355.242 66.8706L-348.921 69.3002L-405.946 33.4306L-435.682 14.716L-383.55 56.0358V56.0194ZM-383.878 56.8895L-442.02 55.4941L-348.987 70.2688L-379.363 58.6296L-383.895 56.8895H-383.878ZM-446.848 55.6583L-406.143 81.6124L-347.492 71.4343L-446.848 55.6583ZM-406.702 92.4964V82.6959L-446.076 92.4964H-406.702ZM-449.393 93.4322L-448.9 103.233L-409.444 93.4322H-449.393ZM-401.02 81.6781L-363.255 81.9408L-347.049 72.3208L-401.02 81.6781ZM-405.766 82.581V92.5129L-366.851 82.8437L-371.547 82.8108L-405.782 82.581H-405.766ZM-361.186 81.8094L-350.678 81.0543L-292.454 76.8353L-330.186 73.273L-344.52 71.9104L-361.186 81.8094ZM-330.416 72.3044L-287.035 76.4085L-280.27 69.0375L-337.903 71.5985L-330.416 72.3044ZM-285.919 76.589L-235.149 85.6508L-230.929 86.406L-279.022 69.0704L-285.919 76.589ZM-194.379 90.5593L-206.135 84.2391L-148.075 151.365L-158.847 115.496L-160.916 108.584L-194.379 90.5757V90.5593ZM-162.869 106.467L-177.746 90.7563L-204.608 83.9928L-172.081 101.509L-162.869 106.467ZM-204.132 87.9655L-189.699 110.325L-155.333 144.405L-204.149 87.9655H-204.132ZM-190.077 111.26L-194.986 115.364L-172.179 133.127L-152.853 148.164L-190.077 111.26ZM-190.832 110.686L-221.356 91.1011L-195.709 114.757L-195.463 114.544L-190.832 110.669V110.686ZM-209.009 97.9303L-191.604 109.093L-208.336 83.1884L-222.128 87.3089L-224.492 88.0148L-209.009 97.9467V97.9303ZM-222.325 86.3732L-210.076 82.7123L-273.144 70.2031L-225.576 87.3417L-222.325 86.3732ZM-208.631 82.0557L-209.189 70.4822L-209.239 69.3823L-274.261 69.0375L-208.615 82.0557H-208.631ZM-262.192 60.6816L-276.132 67.5601L-141.425 45.2011L-254.376 56.8074L-262.192 60.6652V60.6816ZM-231.372 11.1536L-277.413 67.1661L-260.829 58.9744L-254.852 56.0194L-231.372 11.1701V11.1536ZM-273.669 68.1018H-272.701L-208.877 68.4466L-133.101 44.7742L-273.686 68.1018H-273.669ZM-208.319 69.2509L-208.155 72.485L-207.695 81.9079L-132.411 45.5458L-208.303 69.2509H-208.319ZM-202.605 80.4797L-161.063 67.9705L-130.884 45.8413L-202.605 80.4797ZM-203.919 81.8423L-147.32 77.6397L-160.932 68.9062L-203.919 81.8423ZM-156.761 84.9942L-203.722 83.2541L-177.483 89.8534L-152.115 85.1584L-156.761 84.9942ZM-146.614 152.941L-106.895 163.119L-159.536 109.914L-146.614 152.941ZM-102.675 185.774L-119.751 180.767L-105.647 193.276L-101.706 196.773L-102.675 185.774ZM-74.7122 192.652L-104.727 165.221L-101.821 185.052L-74.7122 192.652ZM-104.744 184.198L-143.149 156.651L-121.377 179.322L-104.744 184.198ZM-102.855 184.395L-103.315 181.292L-105.795 164.367L-132.789 157.456L-144.693 154.402L-102.855 184.411V184.395ZM-105.466 163.218L-98.1266 150.791L-143.215 120.453L-156.893 111.26L-105.466 163.218ZM-104.777 163.891L-74.8107 191.273L-77.7006 186.217L-97.5027 151.579L-104.777 163.891ZM-76.7318 186.053L-72.6761 193.145L-46.536 191.355L-53.2188 186.102L-95.8936 152.515L-76.7154 186.053H-76.7318ZM-73.1687 194.048L-99.5387 186.66L-68.9325 207.132L-24.7142 236.697L-56.1908 208.987L-73.1687 194.048ZM-101.69 186.349L-101.197 191.864L-100.688 197.594L-65.7963 215.931L-26.701 236.484L-88.5704 195.098L-101.673 186.349H-101.69ZM-41.2817 229.885L-98.8983 199.613L-93.2007 205.687L-79.2933 220.494L-24.4023 238.766L-41.2817 229.901V229.885ZM-70.1639 224.5L-77.9469 221.906L-65.6157 235.039L-23.5813 239.997L-70.1639 224.484V224.5ZM-65.9605 236.123L-79.0306 244.938L-45.4195 264.474L-65.9605 236.139V236.123ZM-79.9172 245.496L-92.4454 252.621L-46.9629 264.638L-79.9008 245.496H-79.9172ZM-93.4799 253.311L-103.512 267.544L-109.62 276.228L-60.0166 268.151L-45.9777 265.869L-93.4799 253.327V253.311ZM-108.373 276.967L-78.5051 284.699L-46.3061 266.854L-108.356 276.967H-108.373ZM-83.6773 284.321L-110.655 277.344L-176.383 290.264L-98.5864 285.864L-81.4607 284.896L-83.6773 284.321ZM-209.386 298.176L-210.289 298.406L-213.327 309.865L-147.008 297.553L-123.052 293.104L-209.403 298.193L-209.386 298.176ZM-128.093 292.464L-183.049 291.577L-204.493 296.962L-128.093 292.464ZM-211.324 298.669L-256.199 309.914L-214.329 309.98L-213.738 307.764L-211.324 298.652V298.669ZM-259.91 310.85L-310.647 320.207L-245.51 313.329L-222.686 310.915L-259.91 310.85ZM-407.391 81.9243L-429.574 67.7899L-448.523 55.7075L-449.36 91.1175L-449.393 92.3815L-407.391 81.9408V81.9243ZM-402.137 55.5269L-385.159 55.9373L-442.332 10.6119L-448.441 54.4106L-402.137 55.5269ZM-385.34 28.6042L-439.311 11.3178L-346.688 69.5957L-376.572 31.7233L-376.9 31.3129L-385.34 28.6042ZM-377.13 30.2622L-381.136 -27.6709L-441.561 9.61052L-377.113 30.2622H-377.13ZM-348.51 65.7871L-344.422 70.9747L-342.337 70.8762L-281.42 68.1675L-342.139 44.7414L-375.209 31.9859L-348.527 65.8035L-348.51 65.7871ZM-355.407 38.6017L-279.301 67.9705L-230.01 8.00171L-347.213 26.6999L-374.831 31.0995L-355.407 38.6017ZM-253.687 55.7896L-128.634 42.952L-228.63 7.93604L-253.687 55.806V55.7896ZM-160.045 68.3645L-149.405 75.1937L-146.072 77.3278L-127.978 44.8235L-160.062 68.3481L-160.045 68.3645ZM-140.637 69.4972L-145.054 77.4099L-84.5311 69.3987L-126.352 43.8385L-140.637 69.4808V69.4972ZM-102.987 74.8161L-147.78 85.3061H-147.796L-174.429 90.2474L-79.1947 101.952L-83.546 70.2688L-102.987 74.8161ZM-78.226 102.166L-37.3738 121.012L-82.4787 71.1224L-78.226 102.166ZM-158.682 108.929L-97.4534 150.118L-60.6898 133.373L-37.2096 122.67L-158.666 108.929H-158.682ZM-78.4066 142.468L-96.616 150.774L-45.6494 190.879L-36.0767 123.195L-78.3902 142.484L-78.4066 142.468ZM-56.2565 192.964L-71.379 193.998L12.8047 242.656L-28.7863 206.655L-45.4687 192.226L-56.2565 192.964ZM-69.0966 196.395L-56.1744 207.755L-18.9017 240.555L14.6109 244.758L-69.0802 196.379L-69.0966 196.395ZM-64.844 236.09L-46.5853 261.289L-43.6954 265.278L-20.1167 241.376L-64.844 236.09ZM-43.7282 266.526L-75.9929 284.403L-22.0871 276.573L-43.7282 266.526ZM-78.4395 285.7L-111.673 291.971L33.2308 299.309L41.9168 299.752L28.896 298.226L-78.4395 285.7ZM-103.562 289.492L-85.5984 286.11L-170.225 290.904L-115.646 291.774L-103.562 289.492ZM-163.05 301.525L-211.193 310.472L-176.875 315.791L-136.828 300.081L-120.326 293.596L-163.05 301.525ZM-213.853 310.998L-245.231 335.507L-178.994 316.399L-213.853 310.998ZM-216.398 311.802L-312.518 343.781L-247.595 336.18L-216.398 311.802ZM-218.22 311.424L-322.091 322.39L-316.656 344.175L-218.22 311.424ZM-318.364 341.204L-323.043 322.44L-382.795 322.177L-377.655 323.901L-317.658 344.06L-318.364 341.22V341.204ZM-385.356 322.292L-391.3 344.208L-346.803 344.257L-319.858 344.29L-385.356 322.292ZM-386.308 322.226L-460.378 329.614L-392.252 344.126L-386.308 322.226ZM-462.003 330.221L-443.63 349.116L-395.011 344.503L-462.02 330.237L-462.003 330.221ZM-463.612 329.909L-516.139 328.53L-445.354 348.673L-463.612 329.909ZM-487.421 299.654L-527.042 301.985L-542.345 302.888L-464.745 328.53L-487.421 299.67V299.654ZM-490.688 298.915L-588.845 278.034L-544.709 302.083L-490.688 298.915ZM-580.849 283.451L-591.735 277.508L-602.211 292.841L-582.556 296.009L-547.435 301.657L-580.849 283.451ZM-592.704 277.262L-697.675 261.798L-603.212 292.644L-592.704 277.262ZM-648.317 278.904L-703.044 261.026L-739.463 272.698L-608.368 291.938L-648.301 278.904H-648.317ZM-704.39 260.485L-778.657 228.522L-761.646 248.517L-741.384 272.337L-704.39 260.485ZM-778.657 226.339L-731.631 212.598L-711.894 206.836L-715.654 206.524L-755.177 203.257L-778.64 226.355L-778.657 226.339ZM-757.032 203.75L-874.449 238.585L-780.529 226.88L-757.032 203.766V203.75ZM-755.029 201.731L-689.596 132.585L-766.03 116.021L-755.012 201.731H-755.029ZM-766.966 116.136L-841.84 153.45L-792.219 181.424L-755.932 201.895L-761.416 159.229L-766.95 116.136H-766.966ZM-689.153 131.731V103.676L-689.202 58.8759L-765.472 115.184L-689.153 131.731ZM-753.255 201.222L-644.721 148.41L-663.588 141.713L-688.562 132.848L-753.255 201.222ZM-688.217 131.617L-612.079 102.281L-688.266 58.7445L-688.217 131.617ZM-636.528 59.631L-585.331 61.7487L-625.1 24.5822L-686.986 57.5297L-636.528 59.631ZM-584.133 61.601L-526.598 -3.48971L-624.098 24.2374L-584.133 61.601ZM-550.505 24.9598L-583.213 61.9621L-565.562 65.3767L-532.066 71.8776L-529.275 38.7166L-525.761 -2.99721L-550.489 24.9762L-550.505 24.9598ZM-531.146 71.8447L-528.142 71.2045L-450.115 54.6404L-524.808 -3.47329L-531.146 71.8447ZM-451.084 52.7033L-449.393 54.0166L-443.268 10.1358L-510.211 -1.33917L-523.446 -3.60462L-451.084 52.7033ZM-442.841 9.26576L-383.057 -27.6217L-522.395 -4.37619L-442.825 9.26576H-442.841ZM-380.906 -28.935L-285.541 -58.1888L-387.885 -35.009L-509.243 -7.52812L-380.89 -28.935H-380.906ZM-376.26 30.3771L-231.339 7.26298L-311.041 -11.5337L-380.299 -27.8679L-376.26 30.3936V30.3771ZM-331.122 -17.2302L-230.124 6.60632L-256.396 -26.9158L-376.637 -27.9664L-331.122 -17.2302ZM-228.712 6.8854L-187.926 5.30944L-147.928 3.74988L-149.964 3.17531L-254.918 -26.5382L-228.712 6.8854ZM-226.463 7.73904L-127.485 42.4103L-145.268 4.58711L-226.463 7.73904ZM-126.221 42.8864L-85.9432 67.5108L-140.555 9.49558L-143.297 6.57349L-126.221 42.9028V42.8864ZM-83.0205 69.2509L-13.3026 68.4466H-12.2517L-55.1728 47.7948L-142.903 5.62135L-83.0205 69.2509ZM-82.1831 70.1703L-35.699 121.586L-22.6454 93.9903L-10.9874 69.3495L-82.1831 70.1703ZM-43.2685 180.127L-44.8448 191.323L30.8171 195.919L-35.2557 123.474L-43.2685 180.127ZM-31.9061 125.756L32.0814 195.936L84.411 180.488L-33.6301 123.884L-31.9225 125.756H-31.9061ZM17.3694 245.152L87.6785 255.461L84.099 251.718L32.1471 197.347L17.3694 245.152ZM31.3261 196.888L-31.2493 193.079L-44.0238 192.308L-22.6618 210.792L16.532 244.708L31.3261 196.871V196.888ZM-17.818 241.671L5.25166 263.456L7.89524 259.122L15.9901 245.907L-17.818 241.655V241.671ZM3.83957 263.407L-19.1644 241.688L-42.6445 265.508L4.21723 263.768L3.83957 263.407ZM-41.84 266.411L-20.5272 276.31L3.14994 264.753L-41.8564 266.427L-41.84 266.411ZM-20.5601 277.295L-36.6185 279.626L-74.9092 285.191L-46.5853 288.491L51.2268 299.9L-20.5601 277.295ZM-115.433 292.726L-128.733 311.244L25.9897 302.231L47.4667 300.984L-115.433 292.726ZM-116.96 293.268L-173.591 315.496L-157.139 313.92L-129.932 311.326L-116.96 293.268ZM-176.629 316.727L-196.99 341.663L-132.427 312.508L-176.629 316.727ZM-178.173 317.137L-245.165 336.459L-198.812 342.402L-178.173 317.137ZM-247.382 337.116L-277.971 351.874L-256.002 349.264L-202.441 342.894L-247.398 337.116H-247.382ZM-250.173 337.428L-314.193 344.93L-313.733 345.029L-280.73 352.186L-250.156 337.428H-250.173ZM-317.05 345.258L-367.951 353.746L-375.16 354.944L-284.523 352.317L-317.034 345.258H-317.05ZM-341.663 348.41L-322.633 345.242L-390.89 345.16L-381.809 355.108L-341.663 348.41ZM-392.137 345.176L-438.934 349.625L-423.302 351.135L-383.139 355.026L-392.137 345.176ZM-443.318 350.134H-443.465L-447.899 369.292L-450.132 378.994L-398.081 360.755L-384.141 355.863L-443.318 350.118V350.134ZM-444.385 349.937L-517.551 329.121L-451.068 378.912L-444.385 349.937ZM-479.211 358.999L-519.883 328.53L-555.612 350.741L-603.18 380.291L-452.168 379.24L-479.211 358.982V358.999ZM-519.653 327.512L-466.584 328.908L-543.149 303.61L-519.653 327.512ZM-537.879 310.308L-545.054 303.003L-567.549 299.375L-599.206 294.286L-521.787 326.659L-537.862 310.308H-537.879ZM-603.048 293.695L-686.641 318.631L-604.575 322.998L-522.51 327.365L-603.048 293.695ZM-605.183 293.35L-740.054 273.568L-689.252 318.434L-605.183 293.35ZM-741.762 273.306L-874.416 241.54L-691.78 317.449L-741.762 273.306ZM-837.718 249.371L-742.829 272.091L-780.496 227.8L-877.405 239.882L-837.718 249.387V249.371ZM-843.038 152.958L-740.3 61.0592L-958.978 156.389L-843.038 152.958ZM-859.836 51.6855L-959.421 155.568L-909.571 133.833L-739.759 59.7952L-859.836 51.6855ZM-793.549 109.931L-839.951 151.431L-818.622 140.793L-766.95 115.036L-764.339 109.963L-739.397 61.486L-793.549 109.931ZM-765.275 113.838L-690.237 58.4326L-737.542 59.9101L-765.275 113.838ZM-688.874 57.464L-629.714 25.9776L-716.492 53.2615L-734.439 58.9087L-688.857 57.4805L-688.874 57.464ZM-723.634 54.5091L-625.215 23.5808L-467.011 -44.0216L-723.634 54.5255V54.5091ZM-618.105 21.5452L-525.4 -4.80301L-467.816 -39.5071L-449.771 -50.3911L-618.105 21.5452ZM-443.63 -53.0013L-492.921 -23.2878L-522.493 -5.45966L-278.677 -60.7005L-443.564 -53.0341L-443.63 -53.0013ZM-273.719 -60.8155L-377.77 -28.9022L-256.921 -27.8515L-273.719 -60.8155ZM-272.553 -60.602L-255.838 -27.8187L-117.059 -11.2546L-272.536 -60.602H-272.553ZM-185.956 -18.5435L-250.321 -26.2263L-144.988 3.60214L-127.551 -4.01503L-113.988 -9.94132L-185.956 -18.527V-18.5435ZM-112.297 -9.67865L-115.466 -8.29969L-143.839 4.11104L-14.0086 66.5423L-100.031 -0.157195L-112.297 -9.66224V-9.67865ZM12.23 -77.5601L-120.408 -71.5517L55.0526 1.48443L12.23 -77.5601ZM55.0526 2.81415L-110.655 -9.64582L-10.2157 68.2331L55.0526 2.81415ZM-10.0515 69.6942L-34.8616 122.161L83.984 179.175L52.212 142.205L-10.0843 69.6942H-10.0515ZM120.157 81.8094L-9.0827 69.4315L85.6096 179.634L120.157 81.8094ZM85.3469 181.177L32.8696 196.658L88.483 254.87L85.3305 181.177H85.3469ZM127.513 324.754L88.9592 256.939L56.8587 300.655L127.513 324.754ZM56.1198 300.097L79.4194 268.348L88.1711 256.43L59.6008 252.244L17.8291 246.12L32.3441 266.591L56.1034 300.097H56.1198ZM16.844 246.35L6.02339 264.014L54.1002 298.849L16.8604 246.334L16.844 246.35ZM5.35018 264.687L-19.2137 276.671L53.5091 299.572L5.35018 264.671V264.687ZM51.6373 301.624L-128.355 312.114L-91.5752 340.399L51.6208 301.624H51.6373ZM-129.702 312.262L-196.316 342.353L-93.0201 340.465L-129.702 312.262ZM-180.586 388.088L-93.5948 341.417L-194.182 343.256L-197.893 343.321L-196.825 346.096L-180.586 388.105V388.088ZM-181.457 388.417L-186.087 376.433L-198.746 343.699L-261.059 406.655L-181.457 388.417ZM-262.307 406.59L-199.83 343.469L-280.007 353.007L-262.307 406.59ZM-280.976 353.089L-377.294 355.88L-379.839 355.962L-263.292 406.623L-280.976 353.105V353.089ZM-368.362 428.358L-264.064 407.296L-357.032 366.895L-381.333 356.339L-368.362 428.358ZM-376.407 388.909L-382.302 356.192L-449.639 379.798L-369.38 427.997L-376.407 388.926V388.909ZM-416.274 494.384L-369.626 429.343L-426.684 427.274L-516.779 424.024L-416.291 494.384H-416.274ZM-372.647 428.292L-370.529 428.374L-450.723 380.225L-516.829 423.088L-372.647 428.292ZM-518.356 422.957L-488.11 403.339L-452.332 380.143L-602.818 381.177L-518.356 422.957ZM-635.576 458.531L-519.587 423.384L-604.542 381.358L-635.576 458.514V458.531ZM-604.756 380.159L-521.311 328.3L-575.89 325.395L-687.774 319.436L-679.088 325.789L-604.756 380.143V380.159ZM-606.349 380.159L-689.268 319.518L-717.05 346.49L-742.599 371.295L-606.349 380.159ZM-853.284 438.158L-755.686 410.677L-744.471 372.723L-853.284 438.175V438.158ZM-743.765 371.114L-702.765 331.304L-690.368 319.271L-874.564 302.625L-743.765 371.114ZM-876.42 301.509L-692.322 318.155L-879.474 240.375L-876.42 301.509ZM-877.355 301.575L-880.393 240.67L-973.608 326.642L-877.372 301.575H-877.355ZM-1006.99 360.279L-976.415 328.087L-1091.44 333.455L-1006.99 360.279Z" fill="url(#paint0_linear_547_21547)" fill-opacity="0.5"/>
<defs>
<linearGradient id="paint0_linear_547_21547" x1="-482.784" y1="-115.83" x2="-482.784" y2="495.484" gradientUnits="userSpaceOnUse">
<stop stop-color="#F3893D"/>
<stop offset="0.932292" stop-color="#10C2B7"/>
<stop offset="1" stop-color="#00C6C0"/>
</linearGradient>
</defs>
</svg>
