<svg width="500" height="432" viewBox="0 0 500 432" fill="none" xmlns="http://www.w3.org/2000/svg">
<g opacity="0.45">
<g style="mix-blend-mode:screen">
<path d="M415.419 266.877L295.12 261.249L199.751 173.292L338.9 196.983C338.9 196.983 338.95 196.983 338.983 196.983C339.167 196.983 339.35 196.867 339.416 196.684C339.5 196.484 339.416 196.234 339.233 196.118L274.521 153.412C274.405 153.346 274.271 153.313 274.155 153.346L198.535 171.993L161.283 85.517L280.749 89.0466C280.849 89.0466 280.932 89.0134 281.016 88.9634C281.032 88.9634 281.049 88.9301 281.082 88.9135C281.099 88.8968 281.132 88.8801 281.149 88.8468C281.165 88.8136 281.149 88.7802 281.165 88.7636C281.165 88.7303 281.215 88.7136 281.215 88.6803C281.215 88.6637 281.215 88.6304 281.215 88.6138C281.215 88.5638 281.215 88.5139 281.199 88.4639C281.199 88.414 281.165 88.364 281.132 88.3307C281.132 88.3141 281.132 88.2808 281.099 88.2641L178.302 -18.9568C178.202 -19.0567 178.069 -19.1066 177.919 -19.1066L54.0902 -10.7321L-241.577 -124.296L-127.69 -123.564C-127.59 -123.564 -127.49 -123.597 -127.424 -123.647L-37.6825 -187.13C-37.4994 -187.264 -37.4328 -187.513 -37.5327 -187.73C-37.6326 -187.946 -37.8824 -188.046 -38.0989 -187.98L-244.242 -125.262L-416.863 -133.287C-416.863 -133.287 -416.896 -133.27 -416.913 -133.27C-416.946 -133.27 -416.98 -133.27 -417.013 -133.27L-580.508 -81.3914L-748.167 -68.7712L-569.734 -143.043C-569.534 -143.127 -569.418 -143.343 -569.451 -143.56C-569.484 -143.776 -569.668 -143.942 -569.901 -143.942L-706.835 -150.136C-707.018 -150.136 -707.185 -150.053 -707.268 -149.886L-751.481 -68.2884C-751.481 -68.2884 -751.481 -68.2718 -751.481 -68.2551C-751.481 -68.2551 -751.498 -68.2385 -751.498 -68.2218C-751.498 -68.1719 -751.498 -68.1386 -751.498 -68.0886C-751.498 -68.0553 -751.498 -68.022 -751.498 -67.9721C-751.498 -67.9055 -751.448 -67.8555 -751.431 -67.8056C-751.431 -67.7889 -751.431 -67.7556 -751.398 -67.7224L-684.887 -1.05891L-816.743 11.5612C-816.893 11.5612 -817.026 11.6611 -817.092 11.7776C-817.176 11.8942 -817.192 12.044 -817.142 12.1939L-781.656 112.672L-784.919 189.075L-824.936 259.451C-825.036 259.618 -825.019 259.834 -824.886 259.984C-824.786 260.101 -824.653 260.151 -824.519 260.151C-824.469 260.151 -824.42 260.151 -824.37 260.134L-751.081 235.127L-601.391 275.651L-511.017 324.15C-511.017 324.15 -510.95 324.15 -510.917 324.167C-510.917 324.167 -510.917 324.183 -510.884 324.183L-428.037 343.164L-320.494 364.874L-272.501 431.787C-272.401 431.921 -272.268 431.987 -272.118 431.987C-272.018 431.987 -271.935 431.954 -271.852 431.904L-168.422 359.496L-48.9231 395.708C-48.9231 395.708 -48.8731 395.708 -48.8398 395.708C-48.8398 395.708 -48.8398 395.708 -48.8232 395.708L60.0185 405.998C60.0185 405.998 60.0518 405.998 60.0684 405.998C60.0684 405.998 60.0685 405.998 60.0851 405.998C60.3515 405.998 60.568 405.781 60.568 405.531C60.568 405.348 60.4681 405.199 60.3183 405.115L15.4726 361.145C15.3228 360.995 15.1063 360.962 14.9231 361.061L-48.5234 394.576L-80.1301 316.025L59.7188 306.935L71.3922 346.493C71.4422 346.643 71.5588 346.776 71.7253 346.81L174.355 375.713C174.355 375.713 174.439 375.729 174.489 375.729C174.672 375.729 174.838 375.63 174.922 375.446C175.022 375.23 174.922 374.98 174.738 374.847L61.051 306.452L195.205 236.192L294.704 262.115L326.627 295.747C326.71 295.846 326.844 295.896 326.977 295.896C327.027 295.896 327.077 295.896 327.127 295.88L415.569 267.793C415.785 267.726 415.919 267.51 415.902 267.276C415.869 267.043 415.685 266.877 415.452 266.86L415.419 266.877ZM274.188 154.312L336.835 195.668L200.583 172.476L274.188 154.328V154.312ZM-40.6134 -186.215L-127.84 -124.513L-241.061 -125.229L-40.6134 -186.215ZM15.0563 362.094L58.7861 404.965L-47.1413 394.943L15.0563 362.094V362.094ZM197.453 171.81L101.434 143.34L73.0741 134.932L160.367 85.7001L197.453 171.827V171.81ZM-155.217 216.413L-119.414 201.828H-119.397L-96.05 210.02L-155.217 216.413ZM-103.077 211.735L-194.001 231.081L-158.414 217.712L-103.094 211.735H-103.077ZM-118.298 201.196L-62.1619 167.964L-58.082 165.55L-94.085 209.703L-118.315 201.196H-118.298ZM-156.849 49.8211L-77.1493 34.2208L-104.293 50.3872L-109.539 53.5172L-156.849 49.8211ZM-87.9735 79.157L-157.365 50.7368L-109.655 54.4662L-87.9902 79.1737L-87.9735 79.157ZM-160.213 49.5214L-191.103 24.4144L-78.0486 33.4216L-160.229 49.5048L-160.213 49.5214ZM-192.752 24.2978L-162.694 48.7389L-235.033 24.2479L-192.769 24.3145L-192.752 24.2978ZM-234.1 23.2822L-158.381 4.23554L-192.685 23.3488L-234.084 23.2822H-234.1ZM-233.168 25.8462L-177.548 44.6765L-163.01 49.6047L-189.488 50.254L-233.168 25.8462ZM-194.101 48.7555L-237.964 34.4039L-237.464 24.5143L-194.101 48.7555V48.7555ZM-160.562 50.4871L-152.303 60.8262L-150.571 62.9906L-175.333 54.8991L-186.824 51.1364L-160.546 50.4871H-160.562ZM-158.83 51.1364L-93.0193 78.1081L-148.955 63.5234L-158.83 51.153V51.1364ZM-88.8394 80.1726L-98.115 81.2715L-102.861 81.8375L-133.901 69.5171L-141.895 66.3538L-88.8561 80.1893L-88.8394 80.1726ZM-95.7003 81.9374L-86.5913 80.8552L-82.7279 90.1122L-101.062 82.5534L-95.7003 81.9208V81.9374ZM-85.4257 81.2049L-28.3238 103.964L-81.5123 90.595L-85.4423 81.2049H-85.4257ZM-61.8455 96.5221L-27.8575 105.063L-55.3676 102.349L-76.7163 92.7761L-61.8289 96.5221H-61.8455ZM-21.8126 106.612L-19.7643 109.775L-12.2373 121.396L-46.0922 106.428L-52.6033 103.548L-21.8126 106.595V106.612ZM-19.8309 107.943L20.7182 136.364L-10.672 122.112L-19.8309 107.943ZM24.0821 138.928L-31.8708 167.814L-30.2721 164.418L-10.7719 123.111L24.0821 138.928V138.928ZM-17.4163 134.949L-33.1697 168.33L-55.0679 163.519L-12.4705 124.476L-17.4163 134.965V134.949ZM-36.8999 168.48L-34.0856 169.096L-91.5538 208.055L-55.8839 164.318L-36.8999 168.497V168.48ZM-43.1613 176.388L-32.87 169.412L17.1712 193.404L-61.5125 204.992L-91.9701 209.47L-43.1446 176.372L-43.1613 176.388ZM-24.7102 172.276L-31.1048 169.213L94.3563 160.588L33.2244 186.894L18.7532 193.121L-24.7268 172.276H-24.7102ZM-30.6718 168.23L-22.9117 164.218L25.1978 139.394L25.6141 139.51L94.4228 159.623L-30.6718 168.214V168.23ZM25.2811 138.395L-18.8318 107.494L69.3273 134.749L25.2811 138.395V138.395ZM39.8521 124.643L-21.2797 105.746L-40.0306 81.1383L66.0468 132.751L39.8521 124.643ZM-22.9783 105.08L-83.9269 80.7886L-41.8457 80.3225L-22.9783 105.08V105.08ZM-80.8462 79.8063L-3.2782 65.4381L-1.59631 65.1217L-41.6958 79.3568L-80.8462 79.7897V79.8063ZM-86.1584 79.823L-100.979 62.9407L-108.34 54.5495L-49.3727 59.5276L0.635133 63.7398L-86.175 79.823H-86.1584ZM-56.7332 57.9459L-107.957 53.6171L-74.5681 33.7213L0.91825 62.8075L-56.7332 57.9459V57.9459ZM-93.1358 4.73502L-101.013 -7.01933L-29.706 -9.98288L2.31707 -11.3148L-74.4516 32.5559L-93.1192 4.71837L-93.1358 4.73502ZM-75.8337 32.2229L-102.794 22.0668L-153.352 3.00351L-106.741 -6.03702L-102.095 -6.93608L-75.8337 32.2229ZM-77.9153 32.456L-191.037 23.4321L-155.034 3.36979L-77.9153 32.4393V32.456ZM-215.982 17.7048L-237.498 23.1158L-238.38 -14.345L-159.896 2.32088L-157.165 2.90361L-215.982 17.7048ZM-190.137 50.9366L-149.438 64.2893L-103.161 82.7033L-82.1784 91.3109L-55.5342 103.315L-11.6711 122.495L-56.3835 163.485L-119.114 200.596L-120.38 201.112L-130.538 205.258L-158.647 216.763L-199.929 232.296L-258.496 245.366L-303.209 255.256L-367.188 255.539L-430.751 243.784L-481.758 230.915L-508.819 224.255L-581.741 209.97L-598.676 185.795L-612.998 177.537L-626.753 168.18L-612.898 153.196L-591.383 130.27L-569.951 111.423L-544.306 84.5513L-495.53 46.8076L-465.272 18.7537L-403.458 7.83178L-325.64 13.376L-282.31 24.1647L-238.63 35.0199L-190.171 50.9366H-190.137ZM-257.997 246.149L-240.145 242.186L-201.345 233.578L-224.409 262.931L-257.997 246.149V246.149ZM-226.79 262.814L-300.111 255.505L-259.446 246.482H-259.429C-259.429 246.482 -259.412 246.515 -259.396 246.515L-227.206 262.615L-226.79 262.814ZM-609.484 33.2718L-515.413 21.7006L-531.566 38.766L-609.484 33.2718V33.2718ZM-536.545 39.3654L-655.295 52.8013L-614.313 33.8878L-536.545 39.3654V39.3654ZM-545.222 10.2626L-545.555 9.08047L-491.6 13.0929L-516.346 14.0086L-543.839 15.0242L-545.222 10.2626ZM-544.872 14.8577L-600.375 1.87136L-546.587 8.98057L-545.804 11.6445L-544.872 14.8411V14.8577ZM-305.19 -13.7123L-333.9 -2.70717L-340.311 -0.243099L-282.476 -36.6216L-252.318 -55.6017L-305.19 -13.6957V-13.7123ZM-304.857 -12.8299L-245.89 -14.2451L-340.244 0.739211L-309.437 -11.0651L-304.841 -12.8299H-304.857ZM-240.995 -14.0786L-282.276 12.2438L-341.76 1.9213L-240.995 -14.0786V-14.0786ZM-281.71 23.2822V13.3427L-241.777 23.2822H-281.71ZM-238.413 24.2313L-238.913 34.1708L-278.929 24.2313H-238.413V24.2313ZM-287.472 12.3104L-325.773 12.5768L-342.209 2.82036L-287.472 12.3104ZM-282.659 13.2261V23.2989L-322.126 13.4925L-317.364 13.4592L-282.643 13.2261H-282.659ZM-327.871 12.4436L-338.529 11.6777L-397.579 7.3989L-359.312 3.78602L-344.774 2.40413L-327.871 12.4436V12.4436ZM-359.078 2.80371L-403.075 6.96601L-409.936 -0.509479L-351.485 2.08779L-359.078 2.80371V2.80371ZM-404.207 7.14916L-455.697 16.3395L-459.977 17.1054L-411.201 -0.476187L-404.207 7.14916V7.14916ZM-497.045 21.3176L-485.122 14.9077L-544.006 82.9863L-533.082 46.6078L-530.984 39.5985L-497.045 21.3343V21.3176ZM-529.002 37.4507L-513.915 21.5174L-486.671 14.658L-519.66 32.4227L-529.002 37.4507V37.4507ZM-487.154 18.6871L-501.791 41.3633L-536.645 75.9271L-487.137 18.6871H-487.154ZM-501.408 42.3123L-496.429 46.4746L-519.56 64.489L-539.16 79.7397L-501.408 42.3123V42.3123ZM-500.642 41.7296L-469.685 21.8671L-495.697 45.8586L-495.946 45.6421L-500.642 41.7129V41.7296ZM-482.208 28.7932L-499.86 40.1146L-482.891 13.8421L-468.902 18.0211L-466.505 18.737L-482.208 28.8098V28.7932ZM-468.703 17.0721L-481.126 13.3593L-417.163 0.672613L-465.405 18.0544L-468.703 17.0721V17.0721ZM-482.591 12.6933L-482.025 0.955647L-481.975 -0.159848L-416.03 -0.509479L-482.608 12.6933H-482.591ZM-428.27 -8.98393L-414.132 -2.00791L-550.75 -24.6841L-436.197 -12.9131L-428.27 -9.00057V-8.98393ZM-459.527 -59.2146L-412.833 -2.40749L-429.652 -10.7154L-435.714 -13.7123L-459.527 -59.198V-59.2146ZM-416.63 -1.45848H-417.612L-482.341 -1.10885L-559.193 -25.117L-416.613 -1.45848H-416.63ZM-482.907 -0.293044L-483.074 2.98685L-483.54 12.5435L-559.892 -24.3345L-482.924 -0.293044H-482.907ZM-488.702 11.095L-530.834 -1.59168L-561.441 -24.0348L-488.702 11.095ZM-487.37 12.4769L-544.772 8.2147L-530.967 -0.642676L-487.37 12.4769V12.4769ZM-535.197 15.6736L-487.57 13.9087L-514.181 20.6017L-539.909 15.84L-535.197 15.6736V15.6736ZM-545.488 84.5847L-585.771 94.9072L-532.382 40.9471L-545.488 84.5847ZM-590.05 117.883L-572.732 112.805L-587.036 125.492L-591.033 129.038L-590.05 117.883ZM-618.41 124.859L-587.969 97.0383L-590.916 117.151L-618.41 124.859V124.859ZM-587.952 116.285L-549.002 88.3474L-571.083 111.34L-587.952 116.285ZM-589.867 116.485L-589.401 113.338L-586.886 96.1725L-559.509 89.1632L-547.436 86.0664L-589.867 116.501V116.485ZM-587.219 95.0071L-594.663 82.4036L-548.935 51.6359L-535.063 42.3123L-587.219 95.0071V95.0071ZM-587.919 95.6897L-618.31 123.461L-615.379 118.333L-595.296 83.2028L-587.919 95.6897ZM-616.362 118.166L-620.475 125.359L-646.986 123.544L-640.208 118.216L-596.928 84.1518L-616.378 118.166H-616.362ZM-619.975 126.274L-593.231 118.782L-624.272 139.544L-669.117 169.529L-637.194 141.425L-619.975 126.274V126.274ZM-591.05 118.466L-591.549 124.06L-592.065 129.871L-627.452 148.468L-667.102 169.312L-604.355 127.34L-591.066 118.466H-591.05ZM-652.315 162.62L-593.881 131.918L-599.659 138.079L-613.764 153.096L-669.433 171.627L-652.315 162.636V162.62ZM-623.023 157.159L-615.129 154.528L-627.635 167.847L-670.266 172.875L-623.023 157.142V157.159ZM-627.286 168.946L-614.03 177.887L-648.118 197.699L-627.286 168.963V168.946ZM-613.131 178.453L-600.425 185.679L-646.553 197.866L-613.148 178.453H-613.131ZM-599.376 186.378L-589.201 200.813L-583.006 209.62L-633.314 201.429L-647.552 199.115L-599.376 186.395V186.378ZM-584.272 210.369L-614.563 218.211L-647.219 200.114L-584.289 210.369H-584.272ZM-609.317 217.828L-581.957 210.752L-515.297 223.855L-594.197 219.393L-611.566 218.411L-609.317 217.828ZM-481.825 231.88L-480.909 232.113L-477.828 243.734L-545.088 231.248L-569.384 226.736L-481.808 231.897L-481.825 231.88ZM-564.272 226.086L-508.536 225.187L-486.787 230.648L-564.272 226.086ZM-479.86 232.38L-434.348 243.784L-476.812 243.851L-477.412 241.603L-479.86 232.363V232.38ZM-430.585 244.733L-379.128 254.223L-445.189 247.247L-468.336 244.8L-430.585 244.733V244.733ZM-281.011 12.5601L-258.513 -1.77482L-239.296 -14.0286L-238.447 21.8837L-238.413 23.1657L-281.011 12.5768V12.5601ZM-286.34 -14.2118L-303.558 -13.7956L-245.574 -59.764L-239.379 -15.3439L-286.34 -14.2118V-14.2118ZM-303.375 -41.5165L-248.638 -59.0481L-342.576 0.0565876L-312.268 -38.3531L-311.935 -38.7694L-303.375 -41.5165V-41.5165ZM-311.702 -39.8349L-307.638 -98.59L-246.357 -60.7796L-311.718 -39.8349H-311.702ZM-340.727 -3.80603L-344.874 1.45513L-346.989 1.35524L-408.77 -1.39189L-347.188 -25.1503L-313.65 -38.0867L-340.711 -3.78938L-340.727 -3.80603ZM-333.733 -31.3771L-410.918 -1.59168L-460.909 -62.4112L-342.043 -43.4478L-314.033 -38.9858L-333.733 -31.3771ZM-436.896 -13.9454L-563.723 -26.9651L-462.308 -62.4778L-436.896 -13.9287V-13.9454ZM-531.866 -1.1921L-542.657 5.73397L-546.037 7.89838L-564.389 -25.0671L-531.849 -1.20874L-531.866 -1.1921ZM-551.549 -0.0433036L-547.07 7.98162L-608.452 -0.143195L-566.037 -26.066L-551.549 -0.0599563V-0.0433036ZM-589.734 5.35104L-544.306 15.9899H-544.289L-517.278 21.0013L-613.864 32.8722L-609.451 0.739211L-589.734 5.35104V5.35104ZM-614.846 33.0886L-656.278 52.2019L-610.533 1.60496L-614.846 33.0886V33.0886ZM-533.248 39.9481L-595.346 81.721L-632.631 64.7388L-656.444 53.8835L-533.265 39.9481H-533.248ZM-614.663 73.9624L-596.195 82.3869L-647.885 123.061L-657.593 54.4163L-614.68 73.9791L-614.663 73.9624ZM-637.127 125.175L-621.79 126.224L-707.168 175.573L-664.987 139.061L-648.068 124.426L-637.127 125.175ZM-624.105 128.655L-637.211 140.176L-675.012 173.441L-709 177.704L-624.122 128.638L-624.105 128.655ZM-628.418 168.913L-646.936 194.469L-649.867 198.515L-673.78 174.274L-628.418 168.913V168.913ZM-649.833 199.781L-617.111 217.912L-671.781 209.97L-649.833 199.781V199.781ZM-614.63 219.227L-580.925 225.587L-727.884 233.029L-736.693 233.479L-723.488 231.93L-614.63 219.227V219.227ZM-589.151 223.073L-607.369 219.643L-521.541 224.505L-576.895 225.387L-589.151 223.073V223.073ZM-528.819 235.277L-479.993 244.35L-514.797 249.745L-555.413 233.812L-572.149 227.235L-528.819 235.277V235.277ZM-477.295 244.883L-445.472 269.741L-512.649 250.361L-477.295 244.883V244.883ZM-474.714 245.699L-377.23 278.132L-443.074 270.423L-474.714 245.699ZM-472.866 245.316L-367.521 256.438L-373.033 278.531L-472.866 245.316V245.316ZM-371.301 275.518L-366.555 256.488L-305.956 256.221L-311.169 257.97L-372.017 278.415L-371.301 275.534V275.518ZM-303.359 256.338L-297.33 278.565L-342.459 278.615L-369.786 278.648L-303.359 256.338V256.338ZM-302.393 256.271L-227.273 263.763L-296.365 278.481L-302.393 256.271ZM-225.624 264.379L-244.258 283.543L-293.567 278.864L-225.608 264.396L-225.624 264.379ZM-223.992 264.063L-170.72 262.665L-242.51 283.093L-223.992 264.063ZM-199.846 233.379L-159.663 235.743L-144.143 236.659L-222.843 262.665L-199.846 233.395V233.379ZM-196.532 232.629L-96.9826 211.452L-141.745 235.843L-196.532 232.629ZM-105.092 216.946L-94.0517 210.919L-83.4273 226.469L-103.361 229.683L-138.981 235.41L-105.092 216.946ZM-93.0692 210.669L13.3911 194.986L-82.4115 226.269L-93.0692 210.669ZM-36.6668 212.334L18.8365 194.203L55.772 206.041L-77.1826 225.554L-36.6834 212.334H-36.6668ZM20.202 193.654L95.522 161.238L78.2698 181.516L57.7205 205.674L20.202 193.654ZM95.522 159.023L47.8288 145.088L27.8123 139.244L31.6257 138.928L71.7086 135.614L95.5053 159.04L95.522 159.023ZM73.5904 136.114L192.673 171.444L97.4203 159.573L73.5904 136.131V136.114ZM71.5588 134.066L5.19799 63.9396L82.7161 47.1406L71.5421 134.066H71.5588ZM83.6652 47.2571L159.601 85.1008L109.277 113.471L72.4747 134.233L78.0367 90.9613L83.6486 47.2571H83.6652ZM4.74834 63.0739V34.6204L4.79829 -10.8153L82.1498 46.2915L4.74834 63.0739V63.0739ZM69.7603 133.55L-40.3137 79.9895L-21.1798 73.1966L4.14886 64.206L69.7603 133.55V133.55ZM3.79917 62.9573L-73.4191 33.2052L3.84913 -10.9485L3.79917 62.9573ZM-48.6233 -10.0495L-100.546 -7.90173L-60.2136 -45.5955L2.55023 -12.1806L-48.6233 -10.0495V-10.0495ZM-101.762 -8.05157L-160.113 -74.0657L-61.2294 -45.9452L-101.762 -8.05157V-8.05157ZM-135.867 -45.2126L-102.694 -7.68529L-120.596 -4.22226L-154.567 2.37083L-157.398 -31.2606L-160.962 -73.5662L-135.883 -45.196L-135.867 -45.2126ZM-155.5 2.33753L-158.547 1.68822L-237.681 -15.1108L-161.928 -74.049L-155.5 2.33753V2.33753ZM-236.698 -17.0754L-238.413 -15.7435L-244.625 -60.2468L-176.732 -71.8847L-163.31 -74.1822L-236.698 -17.0754ZM-245.058 -61.1293L-305.69 -98.54L-164.376 -74.9648L-245.074 -61.1293H-245.058ZM-307.872 -99.872L-404.59 -129.541L-300.794 -106.032L-177.715 -78.1614L-307.888 -99.872H-307.872ZM-312.584 -39.7184L-459.56 -63.1605L-378.728 -82.2238L-308.488 -98.7898L-312.584 -39.7017V-39.7184ZM-358.362 -88.0011L-460.793 -63.8264L-434.148 -97.8241L-312.201 -98.8897L-358.362 -88.0011V-88.0011ZM-462.225 -63.5434L-503.59 -65.1417L-544.156 -66.7234L-542.091 -67.3061L-435.647 -97.4412L-462.225 -63.5434V-63.5434ZM-464.506 -62.6776L-564.888 -27.5145L-546.853 -65.8743L-464.506 -62.6776ZM-566.171 -27.0317L-607.019 -2.05786L-551.633 -60.8962L-548.852 -63.8597L-566.171 -27.015V-27.0317ZM-609.984 -0.293044L-680.691 -1.10885H-681.756L-638.226 -22.0536L-549.251 -64.8254L-609.984 -0.293044V-0.293044ZM-610.833 0.63932L-657.976 52.7847L-671.215 24.7973L-683.039 -0.19314L-610.833 0.63932ZM-650.3 112.156L-648.701 123.511L-725.436 128.172L-658.426 54.6993L-650.3 112.156V112.156ZM-661.823 57.0136L-726.719 128.189L-779.79 112.522L-660.075 55.1156L-661.807 57.0136H-661.823ZM-711.798 178.103L-783.104 188.559L-779.474 184.763L-726.785 129.621L-711.798 178.103ZM-725.953 129.155L-662.489 125.292L-649.534 124.509L-671.199 143.256L-710.948 177.654L-725.953 129.138V129.155ZM-676.111 174.574L-699.508 196.667L-702.189 192.272L-710.399 178.869L-676.111 174.557V174.574ZM-698.076 196.617L-674.746 174.59L-650.932 198.748L-698.459 196.983L-698.076 196.617V196.617ZM-651.748 199.664L-673.364 209.703L-697.377 197.982L-651.732 199.681L-651.748 199.664ZM-673.33 210.702L-657.044 213.067L-618.21 218.711L-646.936 222.057L-746.136 233.628L-673.33 210.702V210.702ZM-577.111 226.353L-563.623 245.133L-720.54 235.993L-742.322 234.727L-577.111 226.353V226.353ZM-575.563 226.902L-518.128 249.445L-534.814 247.847L-562.407 245.216L-575.563 226.902V226.902ZM-515.047 250.694L-494.398 275.984L-559.876 246.415L-515.047 250.694ZM-513.482 251.11L-445.539 270.706L-492.549 276.733L-513.482 251.11V251.11ZM-443.291 271.372L-412.267 286.34L-434.548 283.693L-488.869 277.233L-443.274 271.372H-443.291ZM-440.46 271.689L-375.531 279.297L-375.997 279.397L-409.469 286.656L-440.476 271.689H-440.46ZM-372.634 279.63L-321.01 288.238L-313.7 289.453L-405.622 286.789L-372.65 279.63H-372.634ZM-347.671 282.827L-366.972 279.613L-297.747 279.53L-306.956 289.62L-347.671 282.827V282.827ZM-296.481 279.547L-249.021 284.059L-264.874 285.591L-305.607 289.536L-296.481 279.547V279.547ZM-244.575 284.575H-244.425L-239.929 304.005L-237.664 313.844L-290.453 295.347L-304.591 290.386L-244.575 284.558V284.575ZM-243.492 284.375L-169.288 263.264L-236.715 313.761L-243.492 284.375ZM-208.172 293.566L-166.924 262.665L-130.688 285.191L-82.4448 315.16L-235.599 314.094L-208.172 293.549V293.566ZM-167.157 261.632L-220.978 263.048L-143.327 237.391L-167.157 261.632ZM-148.672 244.184L-141.395 236.775L-118.581 233.096L-86.4748 227.934L-164.992 260.767L-148.689 244.184H-148.672ZM-82.5781 227.335L2.20048 252.625L-81.0293 257.054L-164.259 261.483L-82.5781 227.335V227.335ZM-80.4132 226.985L56.3716 206.923L4.84825 252.425L-80.4132 226.985V226.985ZM58.1034 206.657L192.64 174.44L7.41277 251.426L58.1034 206.657ZM155.421 182.382L59.1859 205.425L97.387 160.505L195.671 172.759L155.421 182.399V182.382ZM160.817 84.6013L56.6213 -8.601L278.401 88.081L160.817 84.6013V84.6013ZM177.852 -18.1077L278.851 87.2485L228.293 65.205L56.0719 -9.88298L177.852 -18.1077ZM110.626 40.9637L157.686 83.0529L136.054 72.2642L83.6486 46.1416L81.0008 40.997L55.7055 -8.16811L110.626 40.9637V40.9637ZM81.95 44.9262L5.84742 -11.2649L53.8237 -9.76644L81.95 44.9262ZM4.46527 -12.2472L-55.5342 -44.1804L32.475 -16.5094L50.6763 -10.782L4.4486 -12.2305L4.46527 -12.2472ZM39.719 -15.244L-60.097 -46.6112L-220.545 -115.173L39.719 -15.2274V-15.244ZM-67.3076 -48.6756L-161.328 -75.3976L-219.729 -110.594L-238.03 -121.632L-67.3076 -48.6756ZM-244.258 -124.28L-194.267 -94.1446L-164.276 -76.0636L-411.551 -132.088L-244.325 -124.313L-244.258 -124.28ZM-416.58 -132.205L-311.052 -99.8387L-433.616 -98.7731L-416.58 -132.205V-132.205ZM-417.762 -131.988L-434.715 -98.7398L-575.463 -81.9408L-417.779 -131.988H-417.762ZM-505.588 -89.333L-440.31 -97.1249L-547.137 -66.8732L-564.822 -74.5985L-578.577 -80.6088L-505.588 -89.3164V-89.333ZM-580.292 -80.3424L-577.078 -78.9439L-548.302 -66.3571L-679.975 -3.04017L-592.731 -70.6859L-580.292 -80.3258V-80.3424ZM-706.586 -149.187L-572.066 -143.093L-750.016 -69.021L-706.586 -149.187V-149.187ZM-750.016 -67.6724L-581.957 -80.3092L-683.821 -1.32529L-750.016 -67.6724V-67.6724ZM-683.988 0.156492L-658.826 53.3674L-779.358 111.19L-747.135 73.6961L-683.955 0.156492H-683.988ZM-816.043 12.4436L-684.97 -0.109902L-781.006 111.656L-816.043 12.4436ZM-780.74 113.221L-727.518 128.922L-783.92 187.96L-780.723 113.221H-780.74ZM-823.504 258.835L-784.403 190.057L-751.847 234.394L-823.504 258.835ZM-751.098 233.828L-774.728 201.629L-783.604 189.541L-754.628 185.296L-712.264 179.086L-726.985 199.847L-751.081 233.828H-751.098ZM-711.265 179.319L-700.291 197.233L-749.05 232.563L-711.282 179.302L-711.265 179.319ZM-699.608 197.916L-674.696 210.07L-748.45 233.295L-699.608 197.899V197.916ZM-746.552 235.377L-564.006 246.015L-601.308 274.702L-746.535 235.377H-746.552ZM-562.64 246.165L-495.08 276.683L-599.842 274.769L-562.64 246.165ZM-511.034 323.068L-599.259 275.734L-497.245 277.599L-493.482 277.666L-494.564 280.479L-511.034 323.085V323.068ZM-510.151 323.401L-505.455 311.247L-492.616 278.049L-429.419 341.898L-510.151 323.401ZM-428.153 341.832L-491.517 277.815L-410.202 287.489L-428.153 341.832ZM-409.219 287.572L-311.535 290.402L-308.954 290.485L-427.154 341.865L-409.219 287.588V287.572ZM-320.594 363.908L-426.372 342.548L-332.084 301.574L-307.439 290.868L-320.594 363.908ZM-312.434 323.9L-306.456 290.719L-238.164 314.66L-319.562 363.542L-312.434 323.917V323.9ZM-272.002 430.872L-319.312 364.907L-261.444 362.81L-170.071 359.513L-271.985 430.872H-272.002ZM-316.248 363.842L-318.396 363.925L-237.065 315.093L-170.021 358.564L-316.248 363.842V363.842ZM-168.472 358.431L-199.147 338.535L-235.433 315.01L-82.8112 316.059L-168.472 358.431ZM-49.5892 394.51L-167.223 358.864L-81.0627 316.242L-49.5892 394.493V394.51ZM-80.8462 315.026L-165.475 262.432L-110.121 259.485L3.34952 253.441L-5.45969 259.884L-80.8462 315.01V315.026ZM-79.2309 315.026L4.86492 253.524L33.0412 280.879L58.9527 306.036L-79.2309 315.026V315.026ZM171.208 373.848L72.2248 345.977L60.8512 307.484L171.208 373.865V373.848ZM60.1351 305.853L18.5534 265.478L5.98066 253.274L192.79 236.392L60.1351 305.853ZM194.672 235.26L7.96233 252.142L197.769 173.258L194.672 235.26V235.26ZM195.621 235.327L198.702 173.558L293.239 260.75L195.638 235.327H195.621ZM327.093 294.864L296.086 262.215L412.738 267.659L327.093 294.864V294.864Z" fill="#00C6C0" fill-opacity="0.5"/>
<path d="M499.765 123.76L450.123 71.6648C450.023 71.5483 449.857 71.4983 449.707 71.5316L338.933 90.9946C338.7 91.0279 338.55 91.2277 338.534 91.4608C338.534 91.6938 338.684 91.877 338.917 91.9269L499.415 124.643C499.415 124.643 499.481 124.643 499.515 124.643C499.765 124.643 499.998 124.426 499.998 124.176C499.998 124.01 499.898 123.86 499.765 123.777V123.76ZM341.548 91.4774L449.607 72.4973L498.116 123.394L341.548 91.4774Z" fill="#00C6C0" fill-opacity="0.5"/>
</g>
<g style="mix-blend-mode:color-dodge">
<path d="M415.419 266.877L295.12 261.249L199.751 173.292L338.9 196.983C338.9 196.983 338.95 196.983 338.983 196.983C339.167 196.983 339.35 196.867 339.416 196.684C339.5 196.484 339.416 196.234 339.233 196.118L274.521 153.412C274.405 153.346 274.271 153.313 274.155 153.346L198.535 171.993L161.283 85.517L280.749 89.0466C280.849 89.0466 280.932 89.0134 281.016 88.9634C281.032 88.9634 281.049 88.9301 281.082 88.9135C281.099 88.8968 281.132 88.8802 281.149 88.8469C281.165 88.8136 281.149 88.7803 281.166 88.7636C281.166 88.7303 281.215 88.7137 281.215 88.6804C281.215 88.6637 281.215 88.6304 281.215 88.6138C281.215 88.5638 281.216 88.5139 281.199 88.4639C281.199 88.414 281.165 88.364 281.132 88.3307C281.132 88.3141 281.132 88.2808 281.099 88.2641L178.302 -18.9568C178.202 -19.0567 178.069 -19.1066 177.919 -19.1066L54.0902 -10.7321L-241.577 -124.296L-127.69 -123.564C-127.59 -123.564 -127.49 -123.597 -127.424 -123.647L-37.6826 -187.13C-37.4994 -187.264 -37.4327 -187.513 -37.5327 -187.73C-37.6326 -187.946 -37.8824 -188.046 -38.0989 -187.98L-244.242 -125.262L-416.863 -133.287C-416.863 -133.287 -416.896 -133.27 -416.913 -133.27C-416.946 -133.27 -416.98 -133.27 -417.013 -133.27L-580.508 -81.3913L-748.167 -68.7712L-569.734 -143.043C-569.534 -143.127 -569.418 -143.343 -569.451 -143.56C-569.484 -143.776 -569.668 -143.942 -569.901 -143.942L-706.835 -150.136C-707.018 -150.136 -707.185 -150.053 -707.268 -149.886L-751.481 -68.2884C-751.481 -68.2884 -751.481 -68.2718 -751.481 -68.2551C-751.481 -68.2551 -751.498 -68.2385 -751.498 -68.2218C-751.498 -68.1719 -751.498 -68.1386 -751.498 -68.0886C-751.498 -68.0553 -751.498 -68.022 -751.498 -67.9721C-751.498 -67.9055 -751.448 -67.8555 -751.431 -67.8056C-751.431 -67.7889 -751.431 -67.7556 -751.398 -67.7224L-684.887 -1.0589L-816.743 11.5612C-816.893 11.5612 -817.026 11.6611 -817.092 11.7776C-817.176 11.8942 -817.192 12.044 -817.142 12.1939L-781.656 112.672L-784.919 189.075L-824.936 259.451C-825.036 259.618 -825.019 259.834 -824.886 259.984C-824.786 260.101 -824.653 260.151 -824.519 260.151C-824.469 260.151 -824.42 260.151 -824.37 260.134L-751.081 235.127L-601.391 275.651L-511.017 324.15C-511.017 324.15 -510.95 324.15 -510.917 324.167C-510.917 324.167 -510.917 324.183 -510.884 324.183L-428.037 343.164L-320.494 364.874L-272.501 431.787C-272.401 431.921 -272.268 431.987 -272.118 431.987C-272.018 431.987 -271.935 431.954 -271.852 431.904L-168.422 359.496L-48.9231 395.708C-48.9231 395.708 -48.8731 395.708 -48.8398 395.708C-48.8398 395.708 -48.8398 395.708 -48.8232 395.708L60.0186 405.998C60.0186 405.998 60.0518 405.998 60.0684 405.998C60.0684 405.998 60.0684 405.998 60.0851 405.998C60.3515 405.998 60.568 405.781 60.568 405.531C60.568 405.348 60.4681 405.198 60.3182 405.115L15.4727 361.145C15.3228 360.995 15.1063 360.962 14.9231 361.061L-48.5234 394.576L-80.1301 316.025L59.7188 306.935L71.3922 346.493C71.4422 346.643 71.5588 346.776 71.7253 346.81L174.355 375.713C174.355 375.713 174.439 375.729 174.489 375.729C174.672 375.729 174.838 375.63 174.922 375.446C175.022 375.23 174.922 374.98 174.738 374.847L61.051 306.452L195.205 236.192L294.704 262.115L326.627 295.747C326.71 295.846 326.844 295.896 326.977 295.896C327.027 295.896 327.077 295.896 327.127 295.88L415.569 267.793C415.785 267.726 415.919 267.51 415.902 267.276C415.869 267.043 415.685 266.877 415.452 266.86L415.419 266.877ZM274.188 154.312L336.835 195.668L200.583 172.476L274.188 154.328V154.312ZM-40.6134 -186.215L-127.84 -124.513L-241.061 -125.229L-40.6134 -186.215ZM15.0563 362.094L58.7861 404.965L-47.1413 394.943L15.0563 362.094ZM197.453 171.81L101.434 143.34L73.0742 134.932L160.367 85.7001L197.453 171.827V171.81ZM-155.217 216.413L-119.414 201.828H-119.397L-96.05 210.02L-155.217 216.413ZM-103.077 211.735L-194.001 231.081L-158.414 217.712L-103.094 211.735H-103.077ZM-118.298 201.196L-62.1619 167.964L-58.082 165.55L-94.085 209.703L-118.315 201.196H-118.298ZM-156.849 49.8211L-77.1493 34.2208L-104.293 50.3872L-109.539 53.5172L-156.849 49.8211ZM-87.9735 79.157L-157.365 50.7368L-109.655 54.4662L-87.9902 79.1737L-87.9735 79.157ZM-160.213 49.5214L-191.103 24.4144L-78.0486 33.4216L-160.229 49.5048L-160.213 49.5214ZM-192.752 24.2979L-162.694 48.7389L-235.033 24.2479L-192.768 24.3145L-192.752 24.2979ZM-234.1 23.2822L-158.381 4.23555L-192.685 23.3488L-234.084 23.2822H-234.1ZM-233.168 25.8462L-177.548 44.6765L-163.01 49.6047L-189.488 50.254L-233.168 25.8462ZM-194.101 48.7555L-237.964 34.4039L-237.464 24.5143L-194.101 48.7555ZM-160.562 50.4871L-152.303 60.8262L-150.571 62.9906L-175.333 54.8991L-186.824 51.1364L-160.546 50.4871H-160.562ZM-158.83 51.1364L-93.0193 78.1081L-148.955 63.5234L-158.83 51.153V51.1364ZM-88.8394 80.1726L-98.115 81.2715L-102.861 81.8376L-133.901 69.5171L-141.895 66.3538L-88.8561 80.1893L-88.8394 80.1726ZM-95.7003 81.9374L-86.5913 80.8552L-82.728 90.1122L-101.062 82.5534L-95.7003 81.9208V81.9374ZM-85.4257 81.2049L-28.3238 103.964L-81.5123 90.595L-85.4423 81.2049H-85.4257ZM-61.8455 96.5221L-27.8575 105.063L-55.3676 102.349L-76.7163 92.7761L-61.8289 96.5221H-61.8455ZM-21.8126 106.612L-19.7643 109.775L-12.2373 121.396L-46.0922 106.428L-52.6033 103.548L-21.8126 106.595V106.612ZM-19.8309 107.944L20.7182 136.364L-10.672 122.112L-19.8309 107.944ZM24.0821 138.928L-31.8708 167.814L-30.2722 164.418L-10.7719 123.111L24.0821 138.928ZM-17.4163 134.949L-33.1697 168.33L-55.0679 163.519L-12.4705 124.476L-17.4163 134.965V134.949ZM-36.8998 168.48L-34.0856 169.096L-91.5538 208.055L-55.8839 164.318L-36.8998 168.497V168.48ZM-43.1613 176.388L-32.8699 169.412L17.1713 193.404L-61.5125 204.992L-91.9702 209.47L-43.1446 176.372L-43.1613 176.388ZM-24.7102 172.276L-31.1048 169.213L94.3563 160.588L33.2244 186.894L18.7532 193.121L-24.7268 172.276H-24.7102ZM-30.6718 168.23L-22.9117 164.218L25.1978 139.394L25.6141 139.51L94.4229 159.623L-30.6718 168.214V168.23ZM25.2811 138.395L-18.8318 107.494L69.3273 134.749L25.2811 138.395ZM39.8521 124.643L-21.2797 105.746L-40.0306 81.1382L66.0468 132.751L39.8521 124.643ZM-22.9783 105.08L-83.9269 80.7886L-41.8457 80.3224L-22.9783 105.08ZM-80.8462 79.8063L-3.2782 65.4381L-1.59631 65.1217L-41.6959 79.3568L-80.8462 79.7897V79.8063ZM-86.1584 79.823L-100.979 62.9407L-108.34 54.5495L-49.3727 59.5276L0.635132 63.7398L-86.175 79.823H-86.1584ZM-56.7332 57.9459L-107.957 53.6171L-74.5681 33.7213L0.918274 62.8075L-56.7332 57.9459ZM-93.1359 4.73503L-101.013 -7.01933L-29.706 -9.98288L2.31708 -11.3148L-74.4516 32.5559L-93.1191 4.71837L-93.1359 4.73503ZM-75.8337 32.2229L-102.794 22.0668L-153.352 3.00351L-106.741 -6.03702L-102.095 -6.93608L-75.8337 32.2229ZM-77.9153 32.456L-191.037 23.4321L-155.034 3.3698L-77.9153 32.4393V32.456ZM-215.982 17.7048L-237.497 23.1158L-238.38 -14.345L-159.896 2.32088L-157.165 2.90361L-215.982 17.7048ZM-190.137 50.9366L-149.438 64.2893L-103.161 82.7033L-82.1784 91.3109L-55.5342 103.315L-11.6711 122.495L-56.3835 163.485L-119.114 200.596L-120.38 201.112L-130.538 205.258L-158.647 216.763L-199.929 232.296L-258.496 245.366L-303.209 255.256L-367.188 255.539L-430.751 243.784L-481.758 230.915L-508.819 224.255L-581.741 209.97L-598.676 185.795L-612.998 177.537L-626.753 168.18L-612.898 153.196L-591.383 130.27L-569.951 111.423L-544.306 84.5514L-495.53 46.8076L-465.272 18.7537L-403.458 7.83177L-325.64 13.376L-282.31 24.1647L-238.63 35.0199L-190.171 50.9366H-190.137ZM-257.997 246.149L-240.145 242.186L-201.345 233.578L-224.409 262.931L-257.997 246.149ZM-226.79 262.814L-300.111 255.505L-259.446 246.482H-259.429C-259.429 246.482 -259.412 246.515 -259.396 246.515L-227.206 262.615L-226.79 262.814ZM-609.484 33.2718L-515.413 21.7006L-531.566 38.766L-609.484 33.2718ZM-536.545 39.3654L-655.295 52.8013L-614.313 33.8878L-536.545 39.3654ZM-545.221 10.2626L-545.555 9.08047L-491.6 13.0929L-516.346 14.0086L-543.839 15.0242L-545.221 10.2626ZM-544.872 14.8577L-600.375 1.87135L-546.587 8.98056L-545.804 11.6445L-544.872 14.8411V14.8577ZM-305.19 -13.7123L-333.9 -2.70717L-340.311 -0.243103L-282.476 -36.6216L-252.318 -55.6017L-305.19 -13.6956V-13.7123ZM-304.857 -12.8299L-245.89 -14.2451L-340.244 0.739212L-309.437 -11.0651L-304.841 -12.8299H-304.857ZM-240.995 -14.0786L-282.276 12.2438L-341.76 1.92131L-240.995 -14.0786ZM-281.71 23.2822V13.3427L-241.777 23.2822H-281.71ZM-238.413 24.2312L-238.913 34.1708L-278.929 24.2312H-238.413ZM-287.472 12.3104L-325.773 12.5768L-342.209 2.82036L-287.472 12.3104ZM-282.659 13.2261V23.2989L-322.126 13.4925L-317.364 13.4592L-282.643 13.2261H-282.659ZM-327.871 12.4436L-338.529 11.6777L-397.579 7.3989L-359.312 3.78603L-344.774 2.40413L-327.871 12.4436ZM-359.078 2.80371L-403.075 6.96602L-409.936 -0.509476L-351.485 2.0878L-359.078 2.80371ZM-404.207 7.14915L-455.697 16.3395L-459.977 17.1054L-411.201 -0.476181L-404.207 7.14915ZM-497.045 21.3176L-485.122 14.9077L-544.006 82.9863L-533.082 46.6078L-530.983 39.5985L-497.045 21.3343V21.3176ZM-529.002 37.4507L-513.915 21.5174L-486.671 14.658L-519.66 32.4227L-529.002 37.4507ZM-487.154 18.6871L-501.791 41.3633L-536.645 75.9271L-487.137 18.6871H-487.154ZM-501.408 42.3123L-496.429 46.4746L-519.56 64.489L-539.16 79.7397L-501.408 42.3123ZM-500.642 41.7296L-469.685 21.8671L-495.697 45.8586L-495.946 45.6422L-500.642 41.7129V41.7296ZM-482.208 28.7932L-499.86 40.1146L-482.891 13.8421L-468.902 18.0211L-466.505 18.737L-482.208 28.8098V28.7932ZM-468.703 17.0721L-481.126 13.3593L-417.163 0.672607L-465.405 18.0544L-468.703 17.0721ZM-482.591 12.6933L-482.025 0.955643L-481.975 -0.159851L-416.03 -0.509476L-482.608 12.6933H-482.591ZM-428.27 -8.98393L-414.132 -2.0079L-550.75 -24.6841L-436.197 -12.9131L-428.27 -9.00058V-8.98393ZM-459.527 -59.2146L-412.833 -2.40749L-429.652 -10.7154L-435.714 -13.7123L-459.527 -59.198V-59.2146ZM-416.63 -1.45848H-417.612L-482.341 -1.10886L-559.193 -25.117L-416.613 -1.45848H-416.63ZM-482.907 -0.293045L-483.074 2.98685L-483.54 12.5435L-559.892 -24.3345L-482.924 -0.293045H-482.907ZM-488.702 11.095L-530.834 -1.59167L-561.441 -24.0348L-488.702 11.095ZM-487.37 12.4769L-544.772 8.21471L-530.967 -0.64267L-487.37 12.4769ZM-535.197 15.6736L-487.57 13.9087L-514.181 20.6017L-539.909 15.84L-535.197 15.6736ZM-545.488 84.5847L-585.771 94.9072L-532.382 40.9471L-545.488 84.5847ZM-590.05 117.883L-572.732 112.805L-587.036 125.492L-591.033 129.038L-590.05 117.883ZM-618.41 124.859L-587.969 97.0383L-590.916 117.151L-618.41 124.859ZM-587.952 116.285L-549.002 88.3474L-571.083 111.34L-587.952 116.285ZM-589.867 116.485L-589.401 113.338L-586.886 96.1725L-559.509 89.1632L-547.436 86.0664L-589.867 116.501V116.485ZM-587.219 95.007L-594.663 82.4036L-548.935 51.6358L-535.063 42.3123L-587.219 95.007ZM-587.919 95.6897L-618.31 123.461L-615.379 118.333L-595.296 83.2028L-587.919 95.6897ZM-616.362 118.166L-620.475 125.359L-646.986 123.544L-640.208 118.216L-596.928 84.1518L-616.378 118.166H-616.362ZM-619.975 126.274L-593.231 118.782L-624.272 139.544L-669.117 169.529L-637.194 141.425L-619.975 126.274ZM-591.05 118.466L-591.549 124.06L-592.065 129.871L-627.452 148.468L-667.102 169.312L-604.355 127.34L-591.066 118.466H-591.05ZM-652.315 162.62L-593.881 131.918L-599.659 138.079L-613.764 153.096L-669.433 171.627L-652.315 162.636V162.62ZM-623.023 157.159L-615.129 154.528L-627.635 167.847L-670.266 172.875L-623.023 157.142V157.159ZM-627.286 168.946L-614.03 177.887L-648.118 197.699L-627.286 168.963V168.946ZM-613.131 178.453L-600.425 185.679L-646.553 197.866L-613.148 178.453H-613.131ZM-599.376 186.378L-589.201 200.813L-583.006 209.62L-633.314 201.429L-647.552 199.115L-599.376 186.395V186.378ZM-584.272 210.369L-614.563 218.211L-647.219 200.114L-584.289 210.369H-584.272ZM-609.317 217.828L-581.957 210.752L-515.297 223.855L-594.197 219.393L-611.566 218.411L-609.317 217.828ZM-481.825 231.88L-480.909 232.113L-477.828 243.734L-545.088 231.248L-569.384 226.736L-481.808 231.897L-481.825 231.88ZM-564.272 226.086L-508.536 225.187L-486.787 230.648L-564.272 226.086ZM-479.86 232.38L-434.348 243.784L-476.812 243.851L-477.412 241.603L-479.86 232.363V232.38ZM-430.585 244.733L-379.128 254.223L-445.189 247.247L-468.336 244.8L-430.585 244.733ZM-281.011 12.5602L-258.513 -1.77483L-239.296 -14.0286L-238.447 21.8837L-238.413 23.1657L-281.011 12.5768V12.5602ZM-286.34 -14.2118L-303.558 -13.7956L-245.574 -59.764L-239.379 -15.3439L-286.34 -14.2118ZM-303.375 -41.5165L-248.638 -59.0481L-342.576 0.0565948L-312.268 -38.3531L-311.935 -38.7694L-303.375 -41.5165ZM-311.702 -39.8349L-307.638 -98.59L-246.357 -60.7796L-311.718 -39.8349H-311.702ZM-340.727 -3.80603L-344.874 1.45512L-346.989 1.35524L-408.77 -1.39189L-347.188 -25.1503L-313.65 -38.0867L-340.711 -3.78938L-340.727 -3.80603ZM-333.733 -31.3771L-410.918 -1.59167L-460.909 -62.4112L-342.043 -43.4478L-314.033 -38.9858L-333.733 -31.3771ZM-436.896 -13.9454L-563.723 -26.9651L-462.308 -62.4778L-436.896 -13.9287V-13.9454ZM-531.866 -1.19211L-542.657 5.73398L-546.037 7.89838L-564.389 -25.0671L-531.849 -1.20874L-531.866 -1.19211ZM-551.549 -0.0433044L-547.07 7.98161L-608.452 -0.143188L-566.037 -26.066L-551.549 -0.0599518V-0.0433044ZM-589.734 5.35104L-544.306 15.9899H-544.289L-517.278 21.0013L-613.864 32.8722L-609.451 0.739212L-589.734 5.35104ZM-614.846 33.0886L-656.278 52.202L-610.533 1.60497L-614.846 33.0886ZM-533.248 39.9481L-595.346 81.721L-632.631 64.7388L-656.444 53.8835L-533.265 39.9481H-533.248ZM-614.663 73.9625L-596.195 82.3869L-647.885 123.061L-657.593 54.4163L-614.68 73.9791L-614.663 73.9625ZM-637.127 125.175L-621.79 126.224L-707.168 175.573L-664.987 139.061L-648.068 124.426L-637.127 125.175ZM-624.105 128.655L-637.211 140.176L-675.012 173.441L-709 177.704L-624.122 128.638L-624.105 128.655ZM-628.418 168.913L-646.936 194.469L-649.867 198.515L-673.78 174.274L-628.418 168.913ZM-649.833 199.781L-617.111 217.912L-671.781 209.97L-649.833 199.781ZM-614.63 219.227L-580.925 225.587L-727.884 233.029L-736.693 233.479L-723.488 231.93L-614.63 219.227ZM-589.151 223.073L-607.369 219.643L-521.541 224.505L-576.895 225.387L-589.151 223.073ZM-528.819 235.277L-479.993 244.35L-514.797 249.745L-555.413 233.812L-572.149 227.235L-528.819 235.277ZM-477.295 244.883L-445.472 269.741L-512.649 250.361L-477.295 244.883ZM-474.714 245.699L-377.23 278.132L-443.074 270.423L-474.714 245.699ZM-472.866 245.316L-367.521 256.438L-373.033 278.531L-472.866 245.316ZM-371.301 275.518L-366.555 256.488L-305.956 256.221L-311.169 257.97L-372.017 278.415L-371.301 275.534V275.518ZM-303.359 256.338L-297.33 278.565L-342.459 278.615L-369.786 278.648L-303.359 256.338ZM-302.393 256.271L-227.273 263.763L-296.365 278.481L-302.393 256.271ZM-225.624 264.379L-244.258 283.543L-293.567 278.864L-225.608 264.396L-225.624 264.379ZM-223.992 264.063L-170.72 262.665L-242.51 283.093L-223.992 264.063ZM-199.846 233.379L-159.663 235.743L-144.143 236.659L-222.843 262.665L-199.846 233.395V233.379ZM-196.532 232.629L-96.9826 211.452L-141.745 235.843L-196.532 232.629ZM-105.092 216.946L-94.0517 210.919L-83.4273 226.469L-103.361 229.683L-138.981 235.41L-105.092 216.946ZM-93.0692 210.669L13.3911 194.986L-82.4116 226.269L-93.0692 210.669ZM-36.6667 212.334L18.8365 194.203L55.772 206.041L-77.1826 225.554L-36.6833 212.334H-36.6667ZM20.202 193.654L95.522 161.238L78.2698 181.516L57.7205 205.674L20.202 193.654ZM95.522 159.023L47.8288 145.088L27.8123 139.244L31.6257 138.928L71.7086 135.614L95.5053 159.04L95.522 159.023ZM73.5904 136.114L192.673 171.444L97.4203 159.573L73.5904 136.131V136.114ZM71.5588 134.066L5.198 63.9396L82.7161 47.1406L71.5421 134.066H71.5588ZM83.6652 47.2571L159.601 85.1008L109.277 113.471L72.4747 134.233L78.0367 90.9613L83.6486 47.2571H83.6652ZM4.74835 63.0739V34.6204L4.79828 -10.8153L82.1498 46.2915L4.74835 63.0739ZM69.7603 133.55L-40.3137 79.9895L-21.1797 73.1966L4.14886 64.206L69.7603 133.55ZM3.79919 62.9573L-73.4191 33.2052L3.84912 -10.9485L3.79919 62.9573ZM-48.6234 -10.0495L-100.546 -7.90173L-60.2136 -45.5956L2.55023 -12.1806L-48.6234 -10.0495ZM-101.762 -8.05157L-160.113 -74.0657L-61.2294 -45.9452L-101.762 -8.05157ZM-135.867 -45.2126L-102.694 -7.68529L-120.596 -4.22226L-154.567 2.37083L-157.398 -31.2606L-160.962 -73.5662L-135.883 -45.196L-135.867 -45.2126ZM-155.5 2.33754L-158.547 1.68822L-237.681 -15.1108L-161.928 -74.049L-155.5 2.33754ZM-236.698 -17.0754L-238.413 -15.7435L-244.625 -60.2468L-176.732 -71.8847L-163.31 -74.1822L-236.698 -17.0754ZM-245.058 -61.1293L-305.69 -98.54L-164.376 -74.9648L-245.074 -61.1293H-245.058ZM-307.872 -99.872L-404.59 -129.541L-300.794 -106.032L-177.715 -78.1614L-307.888 -99.872H-307.872ZM-312.584 -39.7184L-459.56 -63.1605L-378.728 -82.2238L-308.488 -98.7898L-312.584 -39.7017V-39.7184ZM-358.362 -88.0011L-460.793 -63.8264L-434.148 -97.8241L-312.201 -98.8897L-358.362 -88.0011ZM-462.225 -63.5434L-503.59 -65.1417L-544.156 -66.7234L-542.091 -67.3061L-435.647 -97.4412L-462.225 -63.5434ZM-464.506 -62.6776L-564.888 -27.5145L-546.853 -65.8743L-464.506 -62.6776ZM-566.171 -27.0317L-607.019 -2.05786L-551.633 -60.8962L-548.852 -63.8597L-566.171 -27.015V-27.0317ZM-609.984 -0.293045L-680.691 -1.10886H-681.756L-638.226 -22.0536L-549.251 -64.8254L-609.984 -0.293045ZM-610.833 0.639313L-657.976 52.7847L-671.215 24.7973L-683.039 -0.193146L-610.833 0.639313ZM-650.3 112.156L-648.701 123.511L-725.436 128.172L-658.426 54.6993L-650.3 112.156ZM-661.823 57.0136L-726.719 128.189L-779.79 112.522L-660.075 55.1156L-661.807 57.0136H-661.823ZM-711.798 178.103L-783.104 188.559L-779.474 184.763L-726.785 129.621L-711.798 178.103ZM-725.953 129.155L-662.489 125.292L-649.534 124.509L-671.199 143.257L-710.948 177.654L-725.953 129.138V129.155ZM-676.111 174.574L-699.508 196.667L-702.189 192.272L-710.399 178.869L-676.111 174.557V174.574ZM-698.076 196.617L-674.746 174.59L-650.932 198.748L-698.459 196.983L-698.076 196.617ZM-651.748 199.664L-673.364 209.703L-697.377 197.982L-651.732 199.681L-651.748 199.664ZM-673.33 210.702L-657.044 213.067L-618.21 218.711L-646.936 222.057L-746.136 233.628L-673.33 210.702ZM-577.111 226.353L-563.623 245.133L-720.54 235.993L-742.322 234.727L-577.111 226.353ZM-575.563 226.902L-518.128 249.445L-534.814 247.847L-562.407 245.216L-575.563 226.902ZM-515.047 250.694L-494.398 275.984L-559.876 246.415L-515.047 250.694ZM-513.482 251.11L-445.539 270.706L-492.549 276.733L-513.482 251.11ZM-443.291 271.372L-412.267 286.34L-434.548 283.693L-488.869 277.233L-443.274 271.372H-443.291ZM-440.46 271.689L-375.531 279.297L-375.997 279.397L-409.469 286.656L-440.476 271.689H-440.46ZM-372.634 279.63L-321.01 288.238L-313.7 289.453L-405.622 286.789L-372.65 279.63H-372.634ZM-347.671 282.827L-366.972 279.613L-297.747 279.53L-306.956 289.62L-347.671 282.827ZM-296.481 279.547L-249.021 284.059L-264.874 285.591L-305.607 289.536L-296.481 279.547ZM-244.575 284.575H-244.425L-239.929 304.005L-237.664 313.844L-290.453 295.347L-304.591 290.386L-244.575 284.558V284.575ZM-243.492 284.375L-169.288 263.264L-236.715 313.761L-243.492 284.375ZM-208.172 293.566L-166.924 262.665L-130.688 285.191L-82.4448 315.16L-235.599 314.094L-208.172 293.549V293.566ZM-167.157 261.632L-220.978 263.048L-143.327 237.391L-167.157 261.632ZM-148.672 244.184L-141.395 236.775L-118.581 233.096L-86.4748 227.934L-164.992 260.767L-148.689 244.184H-148.672ZM-82.5781 227.335L2.2005 252.625L-81.0294 257.054L-164.259 261.483L-82.5781 227.335ZM-80.4132 226.985L56.3716 206.923L4.84827 252.425L-80.4132 226.985ZM58.1035 206.657L192.64 174.44L7.41278 251.426L58.1035 206.657ZM155.421 182.382L59.1859 205.425L97.387 160.505L195.671 172.759L155.421 182.399V182.382ZM160.817 84.6013L56.6213 -8.601L278.401 88.081L160.817 84.6013ZM177.852 -18.1077L278.851 87.2485L228.293 65.205L56.0718 -9.88298L177.852 -18.1077ZM110.626 40.9637L157.686 83.0529L136.054 72.2643L83.6486 46.1416L81.0008 40.997L55.7054 -8.16812L110.626 40.9637ZM81.95 44.9262L5.84741 -11.2649L53.8237 -9.76643L81.95 44.9262ZM4.46527 -12.2472L-55.5342 -44.1804L32.475 -16.5094L50.6763 -10.782L4.44861 -12.2305L4.46527 -12.2472ZM39.719 -15.244L-60.097 -46.6111L-220.545 -115.173L39.719 -15.2274V-15.244ZM-67.3076 -48.6756L-161.328 -75.3976L-219.729 -110.594L-238.03 -121.632L-67.3076 -48.6756ZM-244.258 -124.28L-194.267 -94.1446L-164.276 -76.0636L-411.551 -132.088L-244.325 -124.313L-244.258 -124.28ZM-416.58 -132.205L-311.052 -99.8387L-433.616 -98.7731L-416.58 -132.205ZM-417.762 -131.988L-434.715 -98.7398L-575.463 -81.9408L-417.779 -131.988H-417.762ZM-505.588 -89.333L-440.31 -97.1249L-547.137 -66.8732L-564.822 -74.5985L-578.577 -80.6088L-505.588 -89.3164V-89.333ZM-580.292 -80.3424L-577.078 -78.9439L-548.302 -66.3571L-679.975 -3.04016L-592.731 -70.6859L-580.292 -80.3258V-80.3424ZM-706.586 -149.187L-572.066 -143.093L-750.016 -69.021L-706.586 -149.187ZM-750.016 -67.6724L-581.957 -80.3092L-683.821 -1.32529L-750.016 -67.6724ZM-683.988 0.156494L-658.826 53.3674L-779.358 111.19L-747.135 73.696L-683.955 0.156494H-683.988ZM-816.043 12.4436L-684.97 -0.109909L-781.006 111.656L-816.043 12.4436ZM-780.74 113.221L-727.518 128.922L-783.92 187.96L-780.723 113.221H-780.74ZM-823.504 258.835L-784.403 190.057L-751.847 234.394L-823.504 258.835ZM-751.098 233.828L-774.728 201.629L-783.604 189.541L-754.628 185.296L-712.264 179.086L-726.985 199.847L-751.081 233.828H-751.098ZM-711.265 179.319L-700.291 197.233L-749.05 232.563L-711.282 179.302L-711.265 179.319ZM-699.608 197.916L-674.696 210.07L-748.45 233.295L-699.608 197.899V197.916ZM-746.552 235.377L-564.006 246.015L-601.308 274.702L-746.535 235.377H-746.552ZM-562.64 246.165L-495.08 276.683L-599.842 274.769L-562.64 246.165ZM-511.034 323.068L-599.259 275.734L-497.245 277.599L-493.482 277.666L-494.564 280.479L-511.034 323.085V323.068ZM-510.151 323.401L-505.455 311.247L-492.616 278.049L-429.419 341.898L-510.151 323.401ZM-428.154 341.832L-491.517 277.815L-410.202 287.489L-428.154 341.832ZM-409.219 287.572L-311.535 290.402L-308.954 290.485L-427.154 341.865L-409.219 287.588V287.572ZM-320.594 363.908L-426.372 342.548L-332.084 301.574L-307.439 290.868L-320.594 363.908ZM-312.434 323.9L-306.456 290.719L-238.164 314.66L-319.562 363.542L-312.434 323.917V323.9ZM-272.002 430.872L-319.312 364.907L-261.444 362.81L-170.071 359.513L-271.985 430.872H-272.002ZM-316.248 363.842L-318.396 363.925L-237.065 315.093L-170.021 358.564L-316.248 363.842ZM-168.472 358.431L-199.146 338.535L-235.433 315.01L-82.8112 316.059L-168.472 358.431ZM-49.5892 394.51L-167.223 358.864L-81.0627 316.242L-49.5892 394.493V394.51ZM-80.8462 315.026L-165.475 262.432L-110.122 259.485L3.34955 253.441L-5.45966 259.884L-80.8462 315.01V315.026ZM-79.2309 315.026L4.86493 253.524L33.0413 280.879L58.9528 306.036L-79.2309 315.026ZM171.208 373.848L72.2249 345.977L60.8511 307.484L171.208 373.865V373.848ZM60.1351 305.853L18.5534 265.478L5.98065 253.274L192.79 236.392L60.1351 305.853ZM194.672 235.26L7.96234 252.142L197.769 173.258L194.672 235.26ZM195.621 235.327L198.702 173.558L293.239 260.75L195.638 235.327H195.621ZM327.094 294.864L296.086 262.215L412.738 267.659L327.094 294.864Z" fill="url(#paint0_linear_506_84)" fill-opacity="0.5"/>
<path d="M499.765 123.76L450.123 71.6648C450.023 71.5483 449.857 71.4983 449.707 71.5316L338.933 90.9946C338.7 91.0279 338.55 91.2277 338.534 91.4608C338.534 91.6938 338.684 91.877 338.917 91.9269L499.415 124.643C499.415 124.643 499.481 124.643 499.515 124.643C499.765 124.643 499.998 124.426 499.998 124.176C499.998 124.01 499.898 123.86 499.765 123.777V123.76ZM341.548 91.4774L449.607 72.4973L498.116 123.394L341.548 91.4774Z" fill="#00C6C0" fill-opacity="0.5"/>
</g>
</g>
<defs>
<linearGradient id="paint0_linear_506_84" x1="-204.548" y1="-188" x2="-204.548" y2="431.987" gradientUnits="userSpaceOnUse">
<stop stop-color="#F3893D"/>
<stop offset="0.932292" stop-color="#10C2B7"/>
<stop offset="1" stop-color="#00C6C0"/>
</linearGradient>
</defs>
</svg>
