<svg width="20" height="20" viewBox="0 0 20 20" fill="none" xmlns="http://www.w3.org/2000/svg">
<path d="M9.94392 6.7358e-06C10.2601 0.00588891 10.4663 0.162943 10.6061 0.450581C11.4511 2.19112 12.3048 3.92753 13.1498 5.66807C13.2168 5.8063 13.2902 5.87453 13.4503 5.89688C15.3296 6.1657 17.2071 6.44628 19.0858 6.7198C19.6315 6.79921 19.9244 7.08449 19.8429 7.53448C19.8091 7.71977 19.6839 7.91388 19.5471 8.05035C18.1843 9.40854 16.8106 10.7561 15.4373 12.1038C15.3407 12.199 15.3028 12.2814 15.3284 12.4279C15.6627 14.3596 15.9853 16.2936 16.3155 18.2265C16.3685 18.5377 16.301 18.8006 16.0442 18.9871C15.7868 19.1735 15.5206 19.1518 15.244 19.0047C13.5406 18.0965 11.8325 17.1959 10.1303 16.2848C9.98236 16.2054 9.87637 16.2107 9.73136 16.2883C8.03494 17.1954 6.32978 18.0853 4.6386 19.0012C4.10865 19.2882 3.57987 18.9824 3.53153 18.4871C3.52047 18.3724 3.54085 18.2524 3.56007 18.1377C3.88153 16.2336 4.203 14.329 4.53378 12.4261C4.5594 12.2785 4.5198 12.1973 4.42313 12.1026C3.04468 10.7497 1.66798 9.3956 0.297678 8.03446C0.178294 7.91623 0.0658984 7.758 0.0239683 7.59918C-0.0814392 7.19861 0.170723 6.82685 0.585948 6.75862C1.35408 6.63333 2.12513 6.52628 2.89501 6.41275C4.07488 6.23864 5.25474 6.06276 6.43577 5.8963C6.5802 5.87571 6.64484 5.80983 6.70424 5.68689C7.55333 3.94047 8.40998 2.197 9.2579 0.449993C9.40174 0.151767 9.61722 -0.0011697 9.94392 6.7358e-06ZM14.6873 17.1118C14.6873 17.0383 14.6913 17.0089 14.6867 16.9807C14.4182 15.4031 14.1521 13.8243 13.8784 12.2479C13.8207 11.9173 13.8894 11.6508 14.1363 11.4102C15.2469 10.3285 16.3482 9.23678 17.4523 8.14799C17.5111 8.09035 17.5665 8.02917 17.6462 7.94564C17.5548 7.92859 17.5065 7.91741 17.4581 7.91035C15.9184 7.68506 14.3792 7.45507 12.8377 7.23861C12.4696 7.18684 12.2384 7.00803 12.0765 6.6698C11.4121 5.28161 10.7313 3.90165 10.0557 2.51934C10.022 2.44934 9.98236 2.38229 9.93169 2.28758C9.88044 2.3817 9.84084 2.44875 9.80707 2.51816C9.12163 3.92047 8.43386 5.32161 7.75366 6.72568C7.61797 7.00567 7.42462 7.17449 7.11131 7.2192C5.83711 7.40095 4.56406 7.59154 3.29102 7.77977C2.94335 7.83094 2.59626 7.88506 2.17638 7.94859C2.28877 8.04447 2.35283 8.0927 2.40932 8.14858C3.51989 9.2409 4.62754 10.3367 5.74101 11.4261C5.96697 11.6473 6.04268 11.8991 5.98968 12.2049C5.77654 13.4419 5.56514 14.6796 5.35433 15.9172C5.28852 16.3042 5.22679 16.6918 5.15749 17.1142C5.25358 17.0671 5.31181 17.0407 5.3683 17.0107C6.73918 16.2842 8.11239 15.5625 9.47803 14.826C9.79309 14.656 10.0715 14.6548 10.383 14.8248C11.2012 15.2719 12.0282 15.7031 12.8517 16.1401C13.455 16.4601 14.0589 16.7795 14.6873 17.1124V17.1118Z" fill="#00ACBA"/>
</svg>
