<svg width="26" height="26" viewBox="0 0 26 26" fill="none" xmlns="http://www.w3.org/2000/svg">
<path d="M13.4381 0.857247C13.8374 0.864675 14.0978 1.06299 14.2742 1.42619C15.3412 3.62399 16.4193 5.81658 17.4863 8.01437C17.5708 8.18892 17.6635 8.27508 17.8657 8.3033C20.2387 8.64274 22.6095 8.99703 24.9818 9.34241C25.6708 9.44268 26.0407 9.80291 25.9377 10.3711C25.8951 10.6051 25.737 10.8502 25.5642 11.0225C23.8434 12.7375 22.1087 14.4392 20.3748 16.1408C20.2527 16.2611 20.2049 16.3651 20.2372 16.55C20.6593 18.9892 21.0667 21.4314 21.4837 23.8721C21.5506 24.265 21.4653 24.597 21.141 24.8324C20.816 25.0679 20.4799 25.0404 20.1306 24.8547C17.9797 23.7079 15.8229 22.5708 13.6735 21.4202C13.4867 21.32 13.3528 21.3267 13.1697 21.4247C11.0276 22.57 8.87453 23.6938 6.73906 24.8503C6.06988 25.2127 5.40218 24.8265 5.34115 24.2011C5.32717 24.0563 5.35291 23.9047 5.37718 23.7599C5.78309 21.3556 6.18901 18.9506 6.60669 16.5478C6.63905 16.3614 6.58904 16.2589 6.46697 16.1393C4.72639 14.431 2.98801 12.7212 1.25772 11.0025C1.10697 10.8532 0.965047 10.6534 0.912101 10.4528C0.779002 9.94701 1.09741 9.47759 1.62172 9.39143C2.59165 9.23322 3.56526 9.09804 4.5374 8.95469C6.02723 8.73484 7.51706 8.51276 9.00836 8.30256C9.19073 8.27656 9.27236 8.19338 9.34736 8.03814C10.4195 5.83292 11.5012 3.63141 12.5719 1.42545C12.7535 1.04888 13.0256 0.855762 13.4381 0.857247ZM19.4276 22.4646C19.4276 22.3717 19.4328 22.3346 19.4269 22.2989C19.0879 20.3069 18.7518 18.3133 18.4062 16.3228C18.3334 15.9053 18.4202 15.5689 18.732 15.2651C20.1343 13.8992 21.5248 12.5206 22.9191 11.1458C22.9934 11.073 23.0632 10.9958 23.164 10.8903C23.0485 10.8688 22.9875 10.8546 22.9264 10.8457C20.9822 10.5613 19.0386 10.2708 17.0921 9.99751C16.6274 9.93215 16.3354 9.70636 16.131 9.27927C15.292 7.52639 14.4323 5.7839 13.5793 4.03844C13.5367 3.95005 13.4867 3.86538 13.4227 3.7458C13.358 3.86464 13.308 3.94931 13.2653 4.03695C12.3998 5.80767 11.5314 7.57689 10.6725 9.34984C10.5011 9.70338 10.257 9.91655 9.86138 9.973C8.25242 10.2025 6.64493 10.4432 5.03744 10.6808C4.59844 10.7455 4.16017 10.8138 3.62997 10.894C3.7719 11.0151 3.85279 11.076 3.92412 11.1465C5.32644 12.5258 6.72508 13.9096 8.13108 15.2851C8.4164 15.5644 8.512 15.8823 8.44508 16.2685C8.17594 17.8305 7.90901 19.3933 7.64281 20.956C7.55971 21.4448 7.48177 21.9342 7.39426 22.4675C7.51559 22.4081 7.58913 22.3747 7.66046 22.3368C9.39148 21.4195 11.1255 20.5082 12.8499 19.5782C13.2477 19.3636 13.5992 19.3621 13.9926 19.5767C15.0258 20.1412 16.07 20.6857 17.1098 21.2375C17.8716 21.6416 18.6342 22.0449 19.4276 22.4653V22.4646Z" fill="#F7F7F7"/>
</svg>
