<svg width="26" height="25" viewBox="0 0 26 25" fill="none" xmlns="http://www.w3.org/2000/svg">
<path d="M12.5563 8.50538e-06C12.9556 0.00743599 13.2159 0.20575 13.3924 0.568954C14.4594 2.76675 15.5374 4.95934 16.6044 7.15714C16.689 7.33168 16.7817 7.41784 16.9839 7.44606C19.3569 7.7855 21.7277 8.13979 24.0999 8.48517C24.7889 8.58544 25.1588 8.94567 25.0559 9.51388C25.0132 9.74784 24.8551 9.99295 24.6823 10.1653C22.9616 11.8803 21.2269 13.5819 19.4929 15.2836C19.3708 15.4039 19.323 15.5079 19.3554 15.6928C19.7775 18.132 20.1849 20.5741 20.6018 23.0148C20.6687 23.4077 20.5834 23.7397 20.2592 23.9752C19.9341 24.2106 19.5981 24.1832 19.2488 23.9975C17.0979 22.8507 14.9411 21.7135 12.7916 20.563C12.6048 20.4627 12.471 20.4694 12.2879 20.5675C10.1458 21.7128 7.99269 22.8366 5.85722 23.993C5.18805 24.3555 4.52034 23.9693 4.45931 23.3439C4.44534 23.199 4.47108 23.0475 4.49534 22.9027C4.90126 20.4984 5.30717 18.0934 5.72486 15.6906C5.75721 15.5041 5.70721 15.4016 5.58514 15.2821C3.84455 13.5737 2.10617 11.8639 0.375882 10.1452C0.225134 9.99592 0.0832106 9.79612 0.030265 9.59558C-0.102834 9.08977 0.215575 8.62035 0.739883 8.53419C1.70982 8.37599 2.68343 8.24081 3.65557 8.09746C5.1454 7.8776 6.63523 7.65552 8.12653 7.44532C8.3089 7.41933 8.39052 7.33614 8.46553 7.1809C9.53767 4.97568 10.6194 2.77418 11.6901 0.568211C11.8717 0.191638 12.1438 -0.00147699 12.5563 8.50538e-06ZM18.5458 21.6073C18.5458 21.5145 18.5509 21.4773 18.545 21.4417C18.206 19.4496 17.87 17.4561 17.5244 15.4655C17.4516 15.0481 17.5383 14.7116 17.8501 14.4078C19.2525 13.0419 20.643 11.6634 22.0372 10.2886C22.1115 10.2158 22.1814 10.1385 22.2821 10.0331C22.1667 10.0115 22.1056 9.99741 22.0446 9.98849C20.1003 9.70402 18.1568 9.41361 16.2103 9.14027C15.7455 9.07491 15.4536 8.84912 15.2492 8.42204C14.4101 6.66915 13.5505 4.92666 12.6975 3.1812C12.6548 3.09281 12.6048 3.00814 12.5409 2.88856C12.4762 3.0074 12.4262 3.09207 12.3835 3.17972C11.518 4.95043 10.6495 6.71966 9.79064 8.4926C9.6193 8.84615 9.37516 9.05932 8.97954 9.11576C7.37058 9.34527 5.76309 9.58592 4.15561 9.8236C3.7166 9.88822 3.27833 9.95656 2.74814 10.0368C2.89006 10.1578 2.97095 10.2187 3.04228 10.2893C4.4446 11.6686 5.84325 13.0523 7.24925 14.4279C7.53457 14.7072 7.63016 15.0251 7.56324 15.4113C7.29411 16.9733 7.02717 18.536 6.76097 20.0988C6.67788 20.5875 6.59993 21.077 6.51242 21.6103C6.63376 21.5509 6.70729 21.5174 6.77862 21.4796C8.50965 20.5623 10.2436 19.6509 11.968 18.721C12.3659 18.5063 12.7174 18.5049 13.1108 18.7195C14.1439 19.284 15.1881 19.8284 16.2279 20.3803C16.9898 20.7843 17.7523 21.1877 18.5458 21.6081V21.6073Z" fill="#00ACBA"/>
</svg>
