<svg width="245" height="55" viewBox="0 0 245 55" fill="none" xmlns="http://www.w3.org/2000/svg">
<path d="M0 8C0 3.58172 3.58172 0 8 0H237C241.418 0 245 3.58172 245 8V47C245 51.4183 241.418 55 237 55H7.99999C3.58172 55 0 51.4183 0 47V8Z" fill="#02223A"/>
<path d="M58.3025 21.272C56.5585 21.272 55.6865 21.848 55.6865 23C55.6865 23.512 55.9025 23.904 56.3345 24.176C56.7665 24.448 57.7745 24.84 59.3585 25.352C60.9585 25.864 62.0785 26.448 62.7185 27.104C63.3585 27.744 63.6785 28.736 63.6785 30.08C63.6785 31.792 63.1585 33.088 62.1185 33.968C61.0785 34.848 59.7185 35.288 58.0385 35.288C56.7905 35.288 55.2625 35.096 53.4545 34.712L52.5905 34.544L52.9265 31.976C55.0705 32.264 56.7105 32.408 57.8465 32.408C59.5425 32.408 60.3905 31.704 60.3905 30.296C60.3905 29.784 60.1905 29.384 59.7905 29.096C59.4065 28.808 58.6305 28.496 57.4625 28.16C55.6065 27.632 54.2945 27.008 53.5265 26.288C52.7745 25.552 52.3985 24.536 52.3985 23.24C52.3985 21.608 52.8945 20.392 53.8865 19.592C54.8785 18.792 56.2385 18.392 57.9665 18.392C59.1505 18.392 60.6545 18.552 62.4785 18.872L63.3425 19.04L63.0785 21.656C60.8225 21.4 59.2305 21.272 58.3025 21.272ZM73.1332 23H76.3492V35H73.1572V34.328C72.0052 34.968 71.0052 35.288 70.1572 35.288C68.4932 35.288 67.3732 34.832 66.7972 33.92C66.2212 32.992 65.9332 31.448 65.9332 29.288V23H69.1492V29.336C69.1492 30.52 69.2452 31.328 69.4372 31.76C69.6292 32.192 70.0932 32.408 70.8292 32.408C71.5332 32.408 72.1972 32.296 72.8212 32.072L73.1332 31.976V23ZM85.1268 22.712C86.8068 22.712 88.0308 23.176 88.7988 24.104C89.5828 25.016 89.9748 26.656 89.9748 29.024C89.9748 31.392 89.5268 33.032 88.6308 33.944C87.7348 34.84 86.1908 35.288 83.9988 35.288C83.3108 35.288 82.0548 35.208 80.2308 35.048L79.3188 34.952V18.2H82.5348V23.36C83.5588 22.928 84.4228 22.712 85.1268 22.712ZM83.9988 32.408C85.0708 32.408 85.7908 32.152 86.1588 31.64C86.5268 31.112 86.7108 30.176 86.7108 28.832C86.7108 26.672 86.0388 25.592 84.6948 25.592C84.0548 25.592 83.4468 25.672 82.8708 25.832L82.5348 25.904V32.312C83.2708 32.376 83.7588 32.408 83.9988 32.408ZM95.5895 35H92.3735V23H95.5655V23.672C96.6695 23.032 97.6135 22.712 98.3975 22.712C99.6935 22.712 100.693 23.088 101.397 23.84C102.869 23.088 104.213 22.712 105.429 22.712C107.013 22.712 108.109 23.176 108.717 24.104C109.341 25.016 109.653 26.48 109.653 28.496V35H106.437V28.592C106.437 27.568 106.325 26.816 106.101 26.336C105.877 25.84 105.429 25.592 104.757 25.592C104.245 25.592 103.621 25.704 102.885 25.928L102.525 26.048C102.589 27.248 102.621 28.16 102.621 28.784V35H99.4055V28.832C99.4055 27.648 99.3015 26.816 99.0935 26.336C98.8855 25.84 98.4295 25.592 97.7255 25.592C97.1015 25.592 96.4855 25.704 95.8775 25.928L95.5895 26.024V35ZM112.506 35V23H115.722V35H112.506ZM112.506 21.464V18.2H115.722V21.464H112.506ZM125.342 25.736H122.39V30.656C122.39 31.136 122.398 31.48 122.414 31.688C122.446 31.88 122.534 32.048 122.678 32.192C122.838 32.336 123.078 32.408 123.398 32.408L125.222 32.36L125.366 34.928C124.294 35.168 123.478 35.288 122.918 35.288C121.478 35.288 120.494 34.968 119.966 34.328C119.438 33.672 119.174 32.472 119.174 30.728V25.736H117.758V23H119.174V19.664H122.39V23H125.342V25.736ZM136.309 29.528V35H132.997V18.68H139.333C143.173 18.68 145.093 20.472 145.093 24.056C145.093 26.184 144.293 27.752 142.693 28.76L145.021 35H141.397L139.501 29.528H136.309ZM139.381 26.696C140.165 26.696 140.749 26.456 141.133 25.976C141.517 25.496 141.709 24.864 141.709 24.08C141.709 23.296 141.501 22.672 141.085 22.208C140.685 21.744 140.101 21.512 139.333 21.512H136.309V26.696H139.381ZM146.44 23H149.872L151.792 26.72L153.736 23H157.168L153.76 28.88L157.168 35H153.736L151.792 31.328L149.872 35H146.44L149.728 28.976L146.44 23Z" fill="white"/>
<path d="M189.274 25.7529C189.192 25.7058 189.094 25.6741 189.031 25.608C187.215 23.7404 185.403 21.8671 183.587 19.9995C183.266 19.6697 183.112 19.2949 183.234 18.8322C183.446 18.0292 184.376 17.7352 184.992 18.2725C185.051 18.3231 185.104 18.3808 185.158 18.437C187.622 20.979 190.086 23.521 192.55 26.063C193.152 26.6846 193.15 27.29 192.544 27.9151C190.069 30.4698 187.592 33.023 185.118 35.5798C184.793 35.9159 184.427 36.0868 183.966 35.956C183.203 35.7401 182.913 34.7845 183.419 34.1586C183.479 34.0848 183.547 34.018 183.613 33.9498C185.414 32.0913 187.215 30.2328 189.018 28.3764C189.084 28.3089 189.169 28.2618 189.245 28.2048C189.231 28.1725 189.217 28.1395 189.203 28.1071H188.924C182.722 28.1071 176.52 28.1071 170.318 28.1057C170.157 28.1057 169.991 28.1106 169.835 28.0755C169.322 27.9601 168.955 27.4292 169.005 26.9019C169.058 26.3281 169.476 25.9026 170.021 25.8696C170.131 25.8633 170.242 25.8647 170.353 25.8647C176.529 25.8647 182.706 25.8647 188.883 25.8647C188.984 25.8647 189.085 25.8647 189.186 25.8647C189.215 25.8267 189.245 25.7894 189.274 25.7515L189.274 25.7529Z" fill="#00ACBA"/>
</svg>
