<svg width="8" height="12" viewBox="0 0 8 12" fill="none" xmlns="http://www.w3.org/2000/svg">
<path d="M4.12772 9.28098C4.13602 9.27183 4.14419 9.26318 4.15236 9.25501C4.42492 8.98245 4.69752 8.71028 4.97007 8.43816C5.3333 8.07551 5.69644 7.71294 6.05928 7.34966C6.27543 7.13304 6.54514 7.04556 6.84975 7.13404M4.12772 9.28098L1.79223 9.13563C2.36937 9.71199 2.94654 10.2884 3.52373 10.864C3.7042 11.044 3.90845 11.1503 4.12863 11.15C4.3487 11.1497 4.55314 11.0429 4.73421 10.8625L4.73428 10.8624C4.92088 10.6763 5.10757 10.4902 5.29428 10.304C5.91687 9.68336 6.5397 9.06246 7.16016 8.43929L7.16016 8.43929C7.58717 8.01039 7.43434 7.30363 6.84975 7.13404M4.12772 9.28098C4.11967 9.27147 4.11107 9.26201 4.10183 9.25276C3.83966 8.9901 3.5774 8.72837 3.31527 8.46677C2.94858 8.10082 2.58213 7.73512 2.21655 7.36748L4.12772 9.28098ZM6.84975 7.13404C6.84973 7.13403 6.84971 7.13403 6.84969 7.13402L6.80791 7.27809L6.84975 7.13404ZM1.42012 7.12922L1.41993 7.12927C0.852075 7.28122 0.661235 7.97898 1.0654 8.40637C1.23157 8.58223 1.40525 8.75339 1.57657 8.9222C1.64913 8.9937 1.72126 9.06478 1.79222 9.13562L1.42012 7.12922ZM1.42012 7.12922C1.73662 7.04498 2.00245 7.15204 2.21651 7.36744L1.42012 7.12922Z" fill="#00ACBA" stroke="#00ACBA" stroke-width="0.3"/>
<path d="M4.12854 2.72004C4.12321 2.72603 4.11761 2.73199 4.11174 2.73787L4.12854 2.72004ZM4.12854 2.72004C4.24446 2.83573 4.35948 2.95049 4.47375 3.06449C5.01021 3.59972 5.53008 4.11838 6.04788 4.63921C6.265 4.8577 6.5347 4.95631 6.84835 4.86697L6.84839 4.86696C7.40037 4.7096 7.58612 4.04014 7.20929 3.61133L7.20919 3.61121C7.14423 3.53745 7.0717 3.46677 7.00425 3.40103C6.98034 3.37773 6.95707 3.35505 6.93499 3.33307L6.82916 3.43937M4.12854 2.72004L4.73676 1.13875C5.2868 1.68732 5.8364 2.23612 6.38602 2.78493C6.56906 2.9677 6.75209 3.15046 6.93514 3.33322L6.82916 3.43937M6.82916 3.43937C6.64599 3.25649 6.46285 3.07362 6.27971 2.89075C5.73019 2.34204 5.18073 1.79338 4.63082 1.24494L7.09662 3.71035C7.03576 3.64124 6.96951 3.57668 6.90331 3.51215C6.87849 3.48796 6.85368 3.46378 6.82916 3.43937ZM4.13092 0.849968C3.91063 0.849073 3.70632 0.954771 3.52621 1.13445C3.33211 1.32808 3.13791 1.52167 2.94369 1.71529C2.32859 2.32847 1.71325 2.9419 1.09999 3.55754L4.13092 0.849968ZM4.13092 0.849968C4.35093 0.850861 4.55553 0.957962 4.73675 1.13874L4.13092 0.849968ZM2.20514 4.64369C2.53578 4.31224 2.86575 3.98283 3.19588 3.65326C3.50078 3.34888 3.80582 3.04436 4.11164 2.73797L2.20514 4.64369ZM2.20514 4.64369C1.98675 4.86296 1.71417 4.95716 1.40163 4.86415L2.20514 4.64369ZM1.40157 4.86413C0.817052 4.69035 0.672296 3.98669 1.09996 3.55757L1.40157 4.86413Z" fill="#00ACBA" stroke="#00ACBA" stroke-width="0.3"/>
</svg>
