<svg width="326" height="52" viewBox="0 0 326 52" fill="none" xmlns="http://www.w3.org/2000/svg">
<path d="M50.442 20.028V15.88H67.442V20.028H61.322V39H56.63V20.028H50.442ZM74.5605 39H70.0045V15.2H74.5605V22.816C76.1245 22 77.5298 21.592 78.7765 21.592C81.0432 21.592 82.6072 22.2607 83.4685 23.598C84.3298 24.9353 84.7605 26.998 84.7605 29.786V39H80.2045V29.888C80.2045 28.46 80.0345 27.406 79.6945 26.726C79.3545 26.0233 78.6745 25.672 77.6545 25.672C76.7705 25.672 75.8865 25.808 75.0025 26.08L74.5605 26.216V39ZM92.5375 32.438C92.5601 33.4807 92.8321 34.24 93.3535 34.716C93.8975 35.1693 94.6681 35.396 95.6655 35.396C97.7735 35.396 99.6548 35.328 101.309 35.192L102.261 35.09L102.329 38.456C99.7228 39.0907 97.3655 39.408 95.2575 39.408C92.6961 39.408 90.8375 38.728 89.6815 37.368C88.5255 36.008 87.9475 33.798 87.9475 30.738C87.9475 24.6407 90.4521 21.592 95.4615 21.592C100.403 21.592 102.873 24.1533 102.873 29.276L102.533 32.438H92.5375ZM98.3855 28.97C98.3855 27.61 98.1701 26.6693 97.7395 26.148C97.3088 25.604 96.5495 25.332 95.4615 25.332C94.3961 25.332 93.6368 25.6153 93.1835 26.182C92.7528 26.726 92.5261 27.6553 92.5035 28.97H98.3855ZM106.129 39V22H110.651V23.802C112.555 22.6687 114.369 21.932 116.091 21.592V26.182C114.255 26.5673 112.68 26.964 111.365 27.372L110.685 27.61V39H106.129ZM122.52 32.438C122.543 33.4807 122.815 34.24 123.336 34.716C123.88 35.1693 124.651 35.396 125.648 35.396C127.756 35.396 129.637 35.328 131.292 35.192L132.244 35.09L132.312 38.456C129.705 39.0907 127.348 39.408 125.24 39.408C122.679 39.408 120.82 38.728 119.664 37.368C118.508 36.008 117.93 33.798 117.93 30.738C117.93 24.6407 120.435 21.592 125.444 21.592C130.385 21.592 132.856 24.1533 132.856 29.276L132.516 32.438H122.52ZM128.368 28.97C128.368 27.61 128.153 26.6693 127.722 26.148C127.291 25.604 126.532 25.332 125.444 25.332C124.379 25.332 123.619 25.6153 123.166 26.182C122.735 26.726 122.509 27.6553 122.486 28.97H128.368ZM148.318 26.25C145.507 25.8873 143.535 25.706 142.402 25.706C141.291 25.706 140.566 25.808 140.226 26.012C139.909 26.216 139.75 26.5447 139.75 26.998C139.75 27.4287 139.965 27.7347 140.396 27.916C140.849 28.0747 141.983 28.324 143.796 28.664C145.632 28.9813 146.935 29.514 147.706 30.262C148.477 31.01 148.862 32.2227 148.862 33.9C148.862 37.572 146.584 39.408 142.028 39.408C140.532 39.408 138.719 39.204 136.588 38.796L135.5 38.592L135.636 34.784C138.447 35.1467 140.396 35.328 141.484 35.328C142.595 35.328 143.343 35.226 143.728 35.022C144.136 34.7953 144.34 34.4667 144.34 34.036C144.34 33.6053 144.125 33.288 143.694 33.084C143.286 32.88 142.198 32.6307 140.43 32.336C138.685 32.0413 137.381 31.5427 136.52 30.84C135.659 30.1373 135.228 28.8907 135.228 27.1C135.228 25.2867 135.84 23.9267 137.064 23.02C138.288 22.0907 139.863 21.626 141.79 21.626C143.127 21.626 144.952 21.8413 147.264 22.272L148.386 22.476L148.318 26.25ZM165.171 27.304V34.376C165.216 34.92 165.307 35.3053 165.443 35.532C165.579 35.736 165.862 35.8833 166.293 35.974L166.157 39.408C165.001 39.408 164.072 39.3287 163.369 39.17C162.689 39.0113 161.998 38.694 161.295 38.218C159.663 39.0113 157.997 39.408 156.297 39.408C152.784 39.408 151.027 37.5493 151.027 33.832C151.027 32.0187 151.514 30.738 152.489 29.99C153.464 29.2193 154.96 28.766 156.977 28.63L160.615 28.358V27.304C160.615 26.6013 160.456 26.1253 160.139 25.876C159.822 25.604 159.312 25.468 158.609 25.468L152.217 25.74L152.081 22.578C154.506 21.9207 156.807 21.592 158.983 21.592C161.182 21.592 162.757 22.0453 163.709 22.952C164.684 23.8587 165.171 25.3093 165.171 27.304ZM157.521 31.792C156.252 31.9053 155.617 32.5853 155.617 33.832C155.617 35.0787 156.172 35.702 157.283 35.702C158.144 35.702 159.085 35.566 160.105 35.294L160.615 35.158V31.52L157.521 31.792ZM175.523 15.88H180.453L183.309 34.988H183.819L187.967 15.88H193.407L197.555 34.988H198.065L200.921 15.88H205.851L201.431 39H194.325L190.687 21.422L187.049 39H179.943L175.523 15.88ZM208.881 23.938C210.083 22.374 212.089 21.592 214.899 21.592C217.71 21.592 219.716 22.374 220.917 23.938C222.119 25.4793 222.719 27.6553 222.719 30.466C222.719 36.4273 220.113 39.408 214.899 39.408C209.686 39.408 207.079 36.4273 207.079 30.466C207.079 27.6553 207.68 25.4793 208.881 23.938ZM212.383 34.308C212.859 35.124 213.698 35.532 214.899 35.532C216.101 35.532 216.928 35.124 217.381 34.308C217.857 33.492 218.095 32.2113 218.095 30.466C218.095 28.7207 217.857 27.4513 217.381 26.658C216.928 25.8647 216.101 25.468 214.899 25.468C213.698 25.468 212.859 25.8647 212.383 26.658C211.93 27.4513 211.703 28.7207 211.703 30.466C211.703 32.2113 211.93 33.492 212.383 34.308ZM226.977 23.938C228.179 22.374 230.185 21.592 232.995 21.592C235.806 21.592 237.812 22.374 239.013 23.938C240.215 25.4793 240.815 27.6553 240.815 30.466C240.815 36.4273 238.209 39.408 232.995 39.408C227.782 39.408 225.175 36.4273 225.175 30.466C225.175 27.6553 225.776 25.4793 226.977 23.938ZM230.479 34.308C230.955 35.124 231.794 35.532 232.995 35.532C234.197 35.532 235.024 35.124 235.477 34.308C235.953 33.492 236.191 32.2113 236.191 30.466C236.191 28.7207 235.953 27.4513 235.477 26.658C235.024 25.8647 234.197 25.468 232.995 25.468C231.794 25.468 230.955 25.8647 230.479 26.658C230.026 27.4513 229.799 28.7207 229.799 30.466C229.799 32.2113 230.026 33.492 230.479 34.308ZM258.605 15.2V39H254.083V38.286C252.496 39.034 251.125 39.408 249.969 39.408C247.498 39.408 245.776 38.694 244.801 37.266C243.826 35.838 243.339 33.5827 243.339 30.5C243.339 27.3947 243.917 25.1393 245.073 23.734C246.252 22.306 248.02 21.592 250.377 21.592C251.102 21.592 252.111 21.7053 253.403 21.932L254.049 22.068V15.2H258.605ZM253.573 34.92L254.049 34.818V25.876C252.802 25.6493 251.692 25.536 250.717 25.536C248.881 25.536 247.963 27.168 247.963 30.432C247.963 32.2 248.167 33.458 248.575 34.206C248.983 34.954 249.652 35.328 250.581 35.328C251.533 35.328 252.53 35.192 253.573 34.92ZM267.371 39H262.815V22H267.337V22.952C268.901 22.0453 270.238 21.592 271.349 21.592C273.185 21.592 274.602 22.1247 275.599 23.19C277.684 22.1247 279.588 21.592 281.311 21.592C283.555 21.592 285.108 22.2493 285.969 23.564C286.853 24.856 287.295 26.93 287.295 29.786V39H282.739V29.922C282.739 28.4713 282.58 27.406 282.263 26.726C281.946 26.0233 281.311 25.672 280.359 25.672C279.634 25.672 278.75 25.8307 277.707 26.148L277.197 26.318C277.288 28.018 277.333 29.31 277.333 30.194V39H272.777V30.262C272.777 28.5847 272.63 27.406 272.335 26.726C272.04 26.0233 271.394 25.672 270.397 25.672C269.513 25.672 268.64 25.8307 267.779 26.148L267.371 26.284V39ZM304.359 27.304V34.376C304.404 34.92 304.495 35.3053 304.631 35.532C304.767 35.736 305.05 35.8833 305.481 35.974L305.345 39.408C304.189 39.408 303.259 39.3287 302.557 39.17C301.877 39.0113 301.185 38.694 300.483 38.218C298.851 39.0113 297.185 39.408 295.485 39.408C291.971 39.408 290.215 37.5493 290.215 33.832C290.215 32.0187 290.702 30.738 291.677 29.99C292.651 29.2193 294.147 28.766 296.165 28.63L299.803 28.358V27.304C299.803 26.6013 299.644 26.1253 299.327 25.876C299.009 25.604 298.499 25.468 297.797 25.468L291.405 25.74L291.269 22.578C293.694 21.9207 295.995 21.592 298.171 21.592C300.369 21.592 301.945 22.0453 302.897 22.952C303.871 23.8587 304.359 25.3093 304.359 27.304ZM296.709 31.792C295.439 31.9053 294.805 32.5853 294.805 33.832C294.805 35.0787 295.36 35.702 296.471 35.702C297.332 35.702 298.273 35.566 299.293 35.294L299.803 35.158V31.52L296.709 31.792ZM313.258 39H308.702V22H313.224V22.952C314.765 22.0453 316.182 21.592 317.474 21.592C319.74 21.592 321.304 22.2607 322.166 23.598C323.027 24.9353 323.458 26.998 323.458 29.786V39H318.902V29.922C318.902 28.4713 318.732 27.406 318.392 26.726C318.052 26.0233 317.372 25.672 316.352 25.672C315.422 25.672 314.527 25.8307 313.666 26.148L313.258 26.284V39Z" fill="#676464"/>
<circle cx="18" cy="30" r="17" stroke="#00ACBA" stroke-width="2"/>
<path d="M7.182 26.796V25.41H14.182V26.796H11.48V35H9.912V26.796H7.182ZM14.7051 25.41H16.3431L17.7151 33.656H18.0091L19.8291 25.438H21.6491L23.4691 33.656H23.7771L25.1491 25.41H26.7871L24.8971 35H22.3911L20.7391 27.314L19.1011 35H16.5811L14.7051 25.41Z" fill="#00ACBA"/>
</svg>
