<svg width="22" height="13" viewBox="0 0 22 13" fill="none" xmlns="http://www.w3.org/2000/svg">
<path d="M0.000562858 10.8208C0.12476 10.4222 0.406313 10.1406 0.690113 9.85501C3.80573 6.72508 6.91967 3.59289 10.0297 0.456736C10.4113 0.0716447 10.8451 -0.108177 11.3672 0.0676861C11.5622 0.133282 11.7544 0.263343 11.9011 0.410933C15.1358 3.65565 18.3655 6.9049 21.593 10.1575C22.1353 10.7038 22.133 11.4112 21.602 11.9626C21.353 12.221 21.1052 12.4828 20.8332 12.7158C20.3746 13.1082 19.739 13.0884 19.281 12.6926C19.2107 12.6315 19.1444 12.5654 19.0787 12.4992C16.4514 9.85557 13.8236 7.21252 11.1975 4.56777C11.1368 4.5067 11.0873 4.43489 10.9367 4.32009C10.8957 4.39643 10.8693 4.48747 10.8108 4.54628C8.16052 7.21761 5.50797 9.88667 2.8543 12.5546C2.3592 13.0522 1.67695 13.1518 1.21388 12.7423C0.741819 12.325 0.223106 11.932 1.48883e-07 11.297L1.90458e-07 10.8214L0.000562858 10.8208Z" fill="#00ACBA"/>
</svg>
