<svg width="15" height="15" viewBox="0 0 15 15" fill="none" xmlns="http://www.w3.org/2000/svg">
<path d="M1.33308 14.0935C1.01279 13.9753 0.921778 13.7377 0.932465 13.4113C0.959012 12.6255 1.07485 11.8602 1.37824 11.1307C1.86746 9.95502 2.7204 9.13725 3.86983 8.61425C4.69795 8.23708 5.57536 8.06263 6.47554 7.9854C7.31917 7.913 8.16211 7.92576 9.00126 8.03608C10.0817 8.17812 11.1074 8.48013 12.0103 9.1176C13.0425 9.84608 13.6576 10.85 13.9062 12.0756C13.9951 12.5135 14.011 12.9658 14.061 13.4116C14.0975 13.7374 13.9848 13.9756 13.6648 14.0939H1.33308V14.0935ZM1.96537 13.0575H12.9995C13.0036 13.0351 13.0088 13.0217 13.0077 13.0086C12.9981 12.9038 12.9901 12.7983 12.9757 12.6941C12.8853 12.0367 12.6881 11.4165 12.312 10.8642C11.7835 10.0884 11.0326 9.62026 10.1559 9.33411C9.53357 9.13104 8.89197 9.03141 8.24002 8.99417C7.0699 8.92798 5.91185 8.98211 4.78793 9.35273C4.15322 9.562 3.58127 9.88124 3.10446 10.358C2.61835 10.8442 2.31013 11.4316 2.14189 12.0908C2.06225 12.4035 2.02432 12.7266 1.96537 13.0575Z" fill="white"/>
<path d="M4.08726 3.39045C4.11415 2.31583 4.53269 1.32843 5.50699 0.625809C6.24408 0.0945324 7.07944 -0.0826746 7.97272 0.0345442C8.95563 0.163485 9.74479 0.633739 10.3054 1.45565C10.8211 2.21171 10.9877 3.05879 10.8794 3.95896C10.7705 4.86361 10.3881 5.63691 9.73238 6.27644C8.58915 7.39175 6.75295 7.4838 5.50836 6.48089C4.60371 5.75172 4.09622 4.68468 4.08691 3.39011L4.08726 3.39045ZM9.88269 3.56076C9.87614 2.87676 9.70859 2.31893 9.30522 1.85109C8.74222 1.19811 8.01374 0.954022 7.17218 1.05297C6.4375 1.13916 5.85623 1.49702 5.47596 2.13862C4.8416 3.20979 5.07086 4.69709 5.98724 5.54486C6.7726 6.27127 7.88411 6.36229 8.75395 5.74655C9.5269 5.19907 9.8527 4.41336 9.88269 3.56042V3.56076Z" fill="white"/>
</svg>
