<svg width="29" height="32" viewBox="0 0 29 32" fill="none" xmlns="http://www.w3.org/2000/svg">
<path d="M0.885243 31.1486C0.178114 30.8905 -0.0220576 30.3722 0.00187598 29.6604C0.060622 27.9463 0.315188 26.2753 0.985328 24.6839C2.06669 22.1182 3.94874 20.3333 6.4857 19.1934C8.31335 18.3698 10.2498 17.9891 12.2385 17.8214C14.1009 17.6644 15.9612 17.6902 17.815 17.931C20.1996 18.2407 22.4646 18.901 24.4576 20.2902C26.7357 21.8795 28.0934 24.071 28.6438 26.7442C28.8397 27.699 28.8745 28.6862 28.9854 29.6604C29.0659 30.3722 28.8179 30.8905 28.1108 31.1486H0.885243ZM2.27992 28.8883H26.6421C26.6508 28.8388 26.6639 28.8109 26.6595 28.7808C26.6378 28.5528 26.6204 28.3227 26.5899 28.0947C26.3897 26.6603 25.9546 25.3076 25.1234 24.1011C23.9572 22.4086 22.2993 21.387 20.3628 20.7634C18.9899 20.3203 17.5735 20.1031 16.1331 20.0214C13.5505 19.8773 10.9939 19.9956 8.51135 20.8042C7.11015 21.2602 5.8482 21.9569 4.79512 22.9978C3.72246 24.0581 3.04144 25.3398 2.66938 26.7786C2.49314 27.4603 2.41046 28.1657 2.27992 28.8883Z" fill="white"/>
<path d="M6.98047 7.61071C7.0391 5.19938 7.96202 2.98272 10.1097 1.40539C11.734 0.212999 13.5734 -0.185203 15.543 0.078053C17.708 0.367856 19.4474 1.42309 20.6831 3.26809C21.8188 4.96488 22.1858 6.8674 21.9491 8.88717C21.7102 10.918 20.8677 12.6524 19.4214 14.0903C16.9024 16.5946 12.8567 16.8003 10.114 14.5483C8.12054 12.9112 7.00218 10.5154 6.98264 7.61071H6.98047ZM19.7515 7.99343C19.7363 6.45814 19.3671 5.20601 18.4789 4.1552C17.239 2.68849 15.632 2.14207 13.7797 2.36329C12.1618 2.55797 10.8806 3.36101 10.0424 4.80117C8.64389 7.20587 9.14987 10.5441 11.1694 12.4467C12.9002 14.0771 15.3497 14.2806 17.265 12.9002C18.9675 11.6724 19.6863 9.90701 19.7515 7.99343Z" fill="white"/>
</svg>
