<svg width="16" height="19" viewBox="0 0 16 19" fill="none" xmlns="http://www.w3.org/2000/svg">
<path d="M7.56579 18.3868C7.12163 18.3279 6.67342 18.2914 6.23466 18.2064C4.59617 17.8882 3.14939 17.1709 1.89251 16.0724C1.1977 15.4649 0.623485 14.757 0.134774 13.9758C-0.04028 13.6959 -0.0470301 13.4385 0.127574 13.1555C1.2895 11.269 2.91898 9.96713 5.00703 9.23587C5.14158 9.18862 5.28694 9.11436 5.41744 9.13056C5.57854 9.15037 5.75 9.22417 5.88095 9.32272C6.52491 9.80873 7.15493 10.3127 7.79394 10.8055C7.92894 10.9099 8.0842 10.914 8.22325 10.8064C8.81861 10.3451 9.42613 9.89873 9.99854 9.41047C10.3077 9.14677 10.5818 9.07791 10.9733 9.22147C12.0749 9.62513 13.0861 10.1746 13.9793 10.9365C14.7416 11.5867 15.3784 12.3436 15.8937 13.2032C16.0404 13.4484 16.0327 13.686 15.8865 13.9308C15.4572 14.6499 14.9446 15.3096 14.3312 15.8731C12.9182 17.1722 11.2622 17.9953 9.35278 18.2784C9.04587 18.3238 8.73626 18.3517 8.42801 18.3873H7.56579V18.3868ZM5.35759 10.5566C5.11998 10.8312 4.85223 11.1066 4.62272 11.4112C3.8028 12.4998 3.28934 13.7405 2.86003 15.0221C2.80153 15.1967 2.84878 15.2894 2.98334 15.3956C4.02241 16.2137 5.18838 16.7546 6.48486 17.0116C6.77512 17.0692 7.07123 17.0966 7.35788 17.1376C7.37273 17.0989 7.38038 17.0881 7.38038 17.0768C7.38173 15.4181 7.38353 13.7594 7.38038 12.1006C7.38038 12.0525 7.34123 11.9881 7.30073 11.9584C6.66757 11.4976 6.03125 11.0413 5.35804 10.5571L5.35759 10.5566ZM8.60846 17.138C8.83751 17.1083 9.03957 17.0872 9.24027 17.0552C10.6722 16.8266 11.948 16.2488 13.0766 15.3394C13.1819 15.2543 13.2026 15.1791 13.1617 15.0536C12.7999 13.9407 12.3552 12.8656 11.718 11.8792C11.4026 11.3905 11.0466 10.9342 10.6034 10.5454C10.5741 10.5665 10.5498 10.5836 10.5264 10.6012C9.93239 11.0445 9.34063 11.4918 8.74121 11.9283C8.64086 12.0012 8.60666 12.0718 8.60666 12.1906C8.61026 13.7715 8.60891 15.352 8.60891 16.9328C8.60891 16.9918 8.60891 17.0503 8.60891 17.138H8.60846ZM1.80071 14.2211C2.15172 13.4192 2.49328 12.6393 2.83843 11.8513C2.24622 12.3441 1.75211 12.9147 1.3219 13.5672C1.48075 13.7846 1.64141 14.0042 1.80071 14.2211ZM13.1936 11.886C13.5316 12.6613 13.8646 13.425 14.2052 14.2058C14.3461 14.0105 14.4914 13.8156 14.6278 13.6149C14.6462 13.5875 14.6381 13.5222 14.6174 13.4912C14.2169 12.8908 13.7476 12.3513 13.1936 11.886Z" fill="#515B60"/>
<path d="M12.0455 4.63876C12.0617 5.32457 12.0113 5.99779 11.7683 6.65165C11.1171 8.40444 9.21896 9.51237 7.37617 9.20051C5.66883 8.9116 4.3701 7.66958 4.03034 5.97529C3.89039 5.27777 3.92864 4.56811 3.96194 3.86294C4.01684 2.70327 4.5033 1.7488 5.36462 0.976129C6.8168 -0.3271 9.17756 -0.3244 10.6288 0.978379C11.5752 1.828 12.0356 2.88912 12.0455 4.1541C12.0468 4.31565 12.0455 4.47721 12.0455 4.63921V4.63876ZM5.18507 4.61806C5.18507 4.86331 5.17382 5.10902 5.18687 5.35383C5.26202 6.73086 6.34564 7.87973 7.68487 8.00888C9.10915 8.14614 10.3984 7.25692 10.7206 5.87629C10.8975 5.11802 10.8664 4.3377 10.7607 3.57314C10.5883 2.32301 9.52766 1.36314 8.23254 1.22858C7.02876 1.10348 5.81283 1.87345 5.36912 3.02727C5.17022 3.54434 5.16482 4.07895 5.18462 4.61851L5.18507 4.61806Z" fill="#515B60"/>
<path d="M10.2538 14.9485C10.0464 14.9485 9.87852 14.9543 9.71201 14.9471C9.36281 14.9318 9.1162 14.6906 9.10675 14.363C9.09685 14.0224 9.32816 13.76 9.68231 13.7299C9.86007 13.715 10.0401 13.7272 10.2516 13.7272C10.2516 13.5269 10.2417 13.3433 10.2538 13.161C10.2799 12.7659 10.6282 12.513 11.0094 12.603C11.2776 12.6665 11.4594 12.9009 11.4729 13.2137C11.4797 13.3744 11.4743 13.5355 11.4743 13.724C11.6579 13.724 11.8293 13.7173 11.9999 13.7254C12.2874 13.7393 12.5084 13.904 12.5858 14.1497C12.6641 14.3977 12.5871 14.678 12.3689 14.8193C12.2595 14.89 12.1178 14.926 11.9864 14.9435C11.8284 14.9642 11.6655 14.9485 11.4743 14.9485C11.4743 15.1276 11.4801 15.2923 11.4734 15.4566C11.454 15.9187 11.0548 16.2076 10.6476 16.0542C10.414 15.966 10.275 15.7936 10.2574 15.5439C10.2444 15.3548 10.2547 15.164 10.2547 14.9476L10.2538 14.9485Z" fill="#515B60"/>
</svg>
