<svg width="25" height="25" viewBox="0 0 25 25" fill="none" xmlns="http://www.w3.org/2000/svg">
<path d="M12.8659 0C13.1016 0.165364 13.3665 0.301432 13.5677 0.501302C15.4075 2.32877 17.2324 4.17057 19.071 5.99935C19.3685 6.29492 19.5006 6.62044 19.4987 7.04101C19.4883 9.55533 19.4948 12.0697 19.4928 14.584C19.4922 15.3099 18.8737 15.7871 18.2194 15.5762C17.7988 15.4401 17.5456 15.0723 17.5449 14.5827C17.5436 12.4427 17.5449 10.3027 17.5449 8.16276C17.5449 8.05794 17.5449 7.95247 17.5449 7.8125C17.4473 7.8125 17.362 7.8125 17.276 7.8125C16.4069 7.8125 15.5384 7.8151 14.6693 7.8125C12.9824 7.80729 11.7005 6.51757 11.6973 4.82356C11.6953 3.88021 11.6973 2.9362 11.6973 1.95312H11.4342C8.63281 1.95312 5.83073 1.95312 3.02929 1.95312C2.34961 1.95312 1.95117 2.34831 1.95117 3.02474C1.95117 9.33854 1.95117 15.653 1.95117 21.9668C1.95117 22.6465 2.347 23.0449 3.02213 23.0462C3.59896 23.0475 4.17513 23.0462 4.75195 23.0462C5.34244 23.0462 5.73958 23.3437 5.83593 23.8555C5.92773 24.3431 5.65234 24.765 5.10937 24.9713C5.09505 24.9772 5.08268 24.9896 5.06966 24.9987H2.5345C2.48242 24.9818 2.43164 24.9596 2.37825 24.9479C1.51823 24.763 0.838541 24.3079 0.408854 23.5384C0.223307 23.2064 0.133463 22.8209 0 22.4596C0.000651041 15.8203 0.000651041 9.17968 0.000651041 2.53906C0.0169271 2.49479 0.0384114 2.45182 0.047526 2.40625C0.201823 1.62305 0.583984 0.968098 1.25651 0.54427C1.64323 0.300781 2.10612 0.177083 2.5345 0C5.97851 0 9.42187 0 12.8659 0ZM16.1751 5.85742C15.3197 4.99153 14.5143 4.17643 13.709 3.36198C13.6575 3.94661 13.6263 4.49674 13.6667 5.04166C13.7005 5.49544 14.1094 5.84049 14.5631 5.85416C15.0729 5.86914 15.5827 5.85742 16.1751 5.85742Z" fill="white"/>
<path d="M14.5207 25.0001C13.9374 24.8022 13.7278 24.3888 13.7343 23.7833C13.7538 21.978 13.761 20.172 13.7317 18.3667C13.72 17.6466 14.1555 17.1297 14.9315 17.1824C15.4973 17.2208 16.0728 17.1609 16.6314 17.2371C18.0377 17.4285 19.0884 18.6551 19.0982 20.0717C19.1041 20.8758 19.1451 21.6883 19.0533 22.4832C18.9055 23.7651 17.9602 24.7026 16.6998 24.9526C16.6542 24.9617 16.6112 24.9838 16.5676 25.0001H14.5207ZM15.7024 23.047C15.8417 23.047 15.9693 23.047 16.0976 23.047C16.744 23.0431 17.149 22.6427 17.1522 22.0001C17.1549 21.4305 17.1275 20.8595 17.1594 20.2918C17.2017 19.5353 16.6627 18.9682 15.703 19.1772V23.047H15.7024Z" fill="white"/>
<path d="M8.18846 25C7.60513 24.8021 7.39549 24.388 7.402 23.7819C7.42153 21.9511 7.40851 20.1204 7.40916 18.289C7.40916 17.5748 7.79523 17.1875 8.50617 17.1868C9.11554 17.1868 9.72427 17.181 10.3336 17.1881C11.5986 17.2025 12.611 18.1211 12.7594 19.3815C12.8974 20.5482 12.1194 21.6972 10.9378 21.9772C10.4879 22.084 10.0042 22.0436 9.53546 22.069C9.48794 22.0716 9.43976 22.069 9.35903 22.069V22.7799C9.35903 23.1133 9.3421 23.4485 9.36294 23.7806C9.40005 24.3867 9.16242 24.8008 8.57974 24.9987H8.18976L8.18846 25ZM9.37596 19.1419V20.1159C9.70929 20.1159 10.025 20.1243 10.3408 20.1133C10.6188 20.1035 10.8187 19.8893 10.8187 19.6282C10.8187 19.3672 10.6175 19.1536 10.3395 19.1445C10.0244 19.1341 9.70864 19.1419 9.37596 19.1419Z" fill="white"/>
<path d="M20.8589 24.9996C20.2755 24.8017 20.0659 24.3889 20.0724 23.7828C20.0919 21.9534 20.0789 20.1233 20.0796 18.2939C20.0796 17.568 20.4637 17.1878 21.1948 17.1871C22.0958 17.1871 22.9969 17.1858 23.8973 17.1871C24.5132 17.1884 24.9494 17.592 24.9513 18.1591C24.9533 18.7262 24.5171 19.137 23.9051 19.1396C23.3048 19.1422 22.7039 19.1415 22.1037 19.1435C22.0887 19.1435 22.0737 19.1519 22.0438 19.1611V20.1168C22.3322 20.1168 22.6141 20.1168 22.896 20.1168C23.5346 20.1181 23.9734 20.512 23.9774 21.0862C23.9813 21.6702 23.5392 22.0686 22.8849 22.0693C22.6102 22.0693 22.3354 22.0693 22.0288 22.0693V22.8792C22.0288 23.1799 22.0125 23.482 22.032 23.7815C22.0711 24.3876 21.8315 24.8004 21.2488 24.9983H20.8589V24.9996Z" fill="white"/>
<path d="M10.7986 12.2644C10.8819 12.1648 10.9548 12.0521 11.0512 11.9668C11.4431 11.6218 12.0082 11.6387 12.3754 11.9974C12.7413 12.3555 12.7901 12.9434 12.432 13.3204C11.7667 14.0215 11.0824 14.7051 10.3852 15.3744C10.0121 15.7325 9.45418 15.7181 9.08309 15.3575C8.40731 14.7006 7.74064 14.0339 7.087 13.3555C6.71395 12.9681 6.73543 12.3861 7.10132 12.0118C7.47241 11.6316 8.05444 11.6172 8.46134 11.9851C8.55119 12.0658 8.6189 12.1713 8.69702 12.265C8.72176 12.2546 8.7465 12.2442 8.77124 12.2331C8.77124 12.1504 8.77124 12.0678 8.77124 11.9851C8.77124 10.92 8.76733 9.85422 8.77319 8.78912C8.77645 8.27284 9.1547 7.86333 9.6508 7.81516C10.1482 7.76698 10.5987 8.10097 10.7003 8.60031C10.7211 8.70253 10.7198 8.8106 10.7198 8.91542C10.7211 9.94016 10.7205 10.9649 10.7205 11.9896C10.7205 12.0678 10.7205 12.1465 10.7205 12.2247C10.7465 12.2377 10.7725 12.2507 10.7992 12.2631L10.7986 12.2644Z" fill="white"/>
</svg>
