<?xml version="1.0" standalone="no"?>
<!DOCTYPE svg PUBLIC "-//W3C//DTD SVG 20010904//EN"
 "http://www.w3.org/TR/2001/REC-SVG-20010904/DTD/svg10.dtd">
<svg version="1.0" xmlns="http://www.w3.org/2000/svg"
 width="128.000000pt" height="128.000000pt" viewBox="0 0 128.000000 128.000000"
 preserveAspectRatio="xMidYMid meet">
<metadata>
Created by potrace 1.14, written by Peter Selinger 2001-2017
</metadata>
<g transform="translate(0.000000,128.000000) scale(0.100000,-0.100000)"
fill="#000000" stroke="none">
<path d="M175 1272 c-10 -10 -5 -932 5 -933 6 -1 36 -1 68 -2 l57 -1 5 183 5
184 135 -143 c74 -78 154 -163 178 -187 23 -24 42 -47 42 -51 0 -4 -43 -61
-96 -127 -53 -66 -110 -137 -126 -157 l-30 -38 84 0 85 0 87 110 c48 61 91
110 94 110 4 -1 48 -45 97 -100 50 -54 99 -102 110 -105 11 -3 57 -5 103 -3
l83 3 -56 60 c-31 33 -99 103 -151 156 -52 53 -94 99 -94 103 0 7 174 232 190
246 3 3 16 20 29 38 l22 32 -84 0 c-83 0 -84 -1 -108 -32 -70 -91 -142 -178
-148 -178 -9 0 -245 246 -249 260 -2 6 0 10 5 8 12 -3 52 11 101 35 87 42 143
135 144 240 1 81 -28 147 -91 207 -75 71 -123 83 -323 85 -93 1 -170 -1 -173
-3z m375 -149 c60 -38 87 -109 68 -183 -20 -78 -92 -115 -230 -119 l-78 -2 0
166 0 167 103 -4 c83 -3 109 -7 137 -25z"/>
</g>
</svg>
